G04 DipTrace 4.1.3.1*
G04 BottomSilk.gbr*
%MOIN*%
G04 #@! TF.FileFunction,Legend,Bot*
G04 #@! TF.Part,Single*
%ADD33C,0.004374*%
%FSLAX26Y26*%
G04*
G70*
G90*
G75*
G01*
G04 BotSilk*
%LPD*%
G36*
X890894Y1037655D2*
Y1029197D1*
X890861Y1028996D1*
X890794Y1028730D1*
X890761Y1028562D1*
X890660Y1028160D1*
X890627Y1027993D1*
X890593Y1027860D1*
X890459Y1027458D1*
X890226Y1026991D1*
X890025Y1026690D1*
X889925Y1026556D1*
X889858Y1026455D1*
X889757Y1026322D1*
X889690Y1026222D1*
X889591Y1026088D1*
X889424Y1025887D1*
X889256Y1025720D1*
X889022Y1025520D1*
X888621Y1025219D1*
X888521Y1025152D1*
X888387Y1025052D1*
X888087Y1024852D1*
X887852Y1024718D1*
X887719Y1024651D1*
X887484Y1024550D1*
X887318Y1024484D1*
X887217Y1024450D1*
X886983Y1024383D1*
X886581Y1024283D1*
X886013Y1024150D1*
X885680Y1024083D1*
X885479Y1024049D1*
X884978Y1024016D1*
X810562D1*
X810093Y1024049D1*
X809860Y1024083D1*
X809693Y1024115D1*
X809257Y1024217D1*
X808689Y1024350D1*
X808555Y1024383D1*
X808054Y1024550D1*
X807520Y1024818D1*
X807118Y1025085D1*
X806984Y1025186D1*
X806885Y1025253D1*
X806751Y1025353D1*
X806650Y1025420D1*
X806483Y1025554D1*
X805982Y1026055D1*
X805882Y1026189D1*
X805815Y1026289D1*
X805614Y1026556D1*
X805547Y1026656D1*
X805446Y1026790D1*
X805379Y1026891D1*
X805346Y1026958D1*
X805280Y1027058D1*
X805113Y1027391D1*
X805079Y1027492D1*
X805046Y1027559D1*
X804979Y1027760D1*
X804845Y1028294D1*
X804811Y1028462D1*
X804711Y1028862D1*
X804677Y1029030D1*
X804644Y1029297D1*
Y1101133D1*
X788798Y1101167D1*
X788497Y1101199D1*
X788063Y1101301D1*
X787495Y1101434D1*
X787361Y1101467D1*
X787060Y1101567D1*
X786892Y1101634D1*
X786760Y1101701D1*
X786592Y1101801D1*
X786391Y1101934D1*
X786257Y1102035D1*
X786157Y1102102D1*
X785890Y1102303D1*
X785723Y1102437D1*
X785522Y1102636D1*
X785388Y1102804D1*
X785322Y1102904D1*
X785121Y1103172D1*
X785054Y1103272D1*
X784954Y1103406D1*
X784887Y1103507D1*
X784854Y1103572D1*
X784787Y1103673D1*
X784720Y1103807D1*
X784686Y1103907D1*
X784654Y1103974D1*
X784587Y1104175D1*
X784419Y1104844D1*
X784386Y1105010D1*
X784319Y1105278D1*
X784285Y1105445D1*
X784252Y1105846D1*
Y1115807D1*
X784285Y1116209D1*
X784319Y1116375D1*
X784419Y1116777D1*
X784453Y1116944D1*
X784587Y1117479D1*
X784654Y1117680D1*
X784854Y1118080D1*
X785054Y1118382D1*
X785155Y1118514D1*
X785222Y1118615D1*
X785322Y1118749D1*
X785388Y1118849D1*
X785555Y1119050D1*
X785689Y1119184D1*
X785890Y1119350D1*
X785991Y1119417D1*
X786123Y1119517D1*
X786224Y1119584D1*
X786358Y1119685D1*
X786659Y1119886D1*
X787060Y1120087D1*
X787260Y1120154D1*
X787795Y1120286D1*
X788364Y1120420D1*
X788531Y1120454D1*
X788899Y1120487D1*
X812634Y1120554D1*
X812627Y1120577D1*
X812601Y1120621D1*
X812567Y1120688D1*
X812534Y1120789D1*
X812366Y1121122D1*
X812333Y1121223D1*
X812232Y1121423D1*
X812199Y1121524D1*
X812133Y1121657D1*
X812100Y1121757D1*
X812033Y1121891D1*
X811999Y1121991D1*
X811966Y1122058D1*
X811932Y1122159D1*
X811865Y1122293D1*
X811832Y1122392D1*
X811798Y1122459D1*
X811765Y1122560D1*
X811732Y1122627D1*
X811665Y1122827D1*
X811631Y1122894D1*
X811598Y1122995D1*
X811564Y1123060D1*
X811465Y1123362D1*
X811430Y1123429D1*
X811264Y1123930D1*
X811230Y1123997D1*
X811096Y1124399D1*
X811063Y1124531D1*
X810929Y1124933D1*
X810896Y1125067D1*
X810829Y1125268D1*
X810795Y1125402D1*
X810762Y1125501D1*
X810728Y1125635D1*
X810696Y1125735D1*
X810661Y1125869D1*
X810629Y1125970D1*
X810327Y1127173D1*
X810294Y1127340D1*
X810194Y1127741D1*
X810160Y1127908D1*
X810093Y1128176D1*
X810060Y1128343D1*
X810026Y1128476D1*
X809825Y1129479D1*
X809760Y1129881D1*
X809726Y1130047D1*
X809693Y1130281D1*
X809659Y1130482D1*
X809592Y1130950D1*
X809525Y1131486D1*
X809458Y1132087D1*
X809425Y1132454D1*
X809391Y1132856D1*
X809358Y1133324D1*
X809324Y1133992D1*
Y1136633D1*
X809358Y1137268D1*
X809391Y1137769D1*
X809425Y1138171D1*
X809458Y1138538D1*
X809525Y1139139D1*
X809592Y1139675D1*
X809659Y1140143D1*
X809825Y1141146D1*
X810026Y1142148D1*
X810060Y1142282D1*
X810093Y1142449D1*
X810160Y1142717D1*
X810194Y1142883D1*
X810294Y1143285D1*
X810327Y1143451D1*
X810594Y1144521D1*
X810629Y1144622D1*
X810696Y1144890D1*
X810728Y1144990D1*
X810762Y1145123D1*
X810795Y1145223D1*
X810829Y1145357D1*
X810896Y1145558D1*
X810929Y1145692D1*
X811096Y1146193D1*
X811130Y1146327D1*
X811197Y1146528D1*
X811230Y1146594D1*
X811430Y1147196D1*
X811465Y1147262D1*
X811531Y1147463D1*
X811564Y1147530D1*
X811631Y1147731D1*
X811665Y1147798D1*
X811698Y1147898D1*
X811732Y1147965D1*
X811765Y1148064D1*
X811798Y1148131D1*
X811832Y1148232D1*
X811865Y1148299D1*
X811899Y1148399D1*
X811932Y1148466D1*
X811966Y1148566D1*
X811999Y1148633D1*
X812033Y1148734D1*
X812100Y1148867D1*
X812133Y1148967D1*
X812199Y1149101D1*
X812232Y1149202D1*
X812333Y1149402D1*
X812366Y1149503D1*
X812567Y1149903D1*
X812601Y1150004D1*
X813236Y1151274D1*
X813303Y1151374D1*
X813470Y1151709D1*
X813537Y1151808D1*
X813638Y1152009D1*
X813703Y1152109D1*
X813770Y1152243D1*
X813837Y1152344D1*
X813871Y1152411D1*
X813938Y1152510D1*
X814005Y1152644D1*
X814071Y1152745D1*
X814105Y1152812D1*
X814172Y1152912D1*
X814205Y1152979D1*
X814339Y1153178D1*
X814373Y1153245D1*
X814507Y1153446D1*
X814539Y1153513D1*
X815343Y1154717D1*
X815442Y1154850D1*
X815576Y1155051D1*
X815676Y1155185D1*
X815743Y1155285D1*
X815944Y1155552D1*
X816010Y1155652D1*
X816613Y1156455D1*
X816745Y1156622D1*
X816846Y1156756D1*
X817114Y1157091D1*
X817615Y1157692D1*
X817816Y1157927D1*
X818083Y1158227D1*
X818385Y1158560D1*
X818919Y1159130D1*
X819789Y1159999D1*
X820323Y1160500D1*
X820657Y1160801D1*
X820958Y1161068D1*
X821193Y1161269D1*
X821794Y1161770D1*
X822129Y1162037D1*
X822196Y1162071D1*
Y1162171D1*
X822161Y1162205D1*
X821928Y1162907D1*
X821894Y1163041D1*
X821327Y1164745D1*
X821293Y1164879D1*
X820724Y1166584D1*
X820690Y1166718D1*
X820122Y1168423D1*
X820089Y1168556D1*
X819554Y1170160D1*
X819521Y1170294D1*
X818953Y1171999D1*
X818919Y1172133D1*
X818350Y1173837D1*
X818318Y1173971D1*
X817749Y1175676D1*
X817715Y1175810D1*
X817147Y1177514D1*
X817114Y1177648D1*
X816579Y1179253D1*
X816546Y1179387D1*
X815976Y1181092D1*
X815944Y1181224D1*
X815375Y1182930D1*
X815343Y1183063D1*
X814774Y1184768D1*
X814740Y1184902D1*
X814172Y1186606D1*
X814138Y1186740D1*
X813604Y1188345D1*
X813571Y1188479D1*
X813001Y1190184D1*
X812969Y1190318D1*
X812400Y1192022D1*
X812366Y1192155D1*
X811798Y1193861D1*
X811765Y1193993D1*
X811197Y1195698D1*
X811163Y1195832D1*
X810629Y1197437D1*
X810594Y1197571D1*
X810026Y1199276D1*
X809993Y1199409D1*
X809626Y1200513D1*
X809592Y1200647D1*
X809559Y1200814D1*
X809458Y1201214D1*
X809425Y1201382D1*
X809324Y1201782D1*
X809291Y1202017D1*
X809257Y1202484D1*
Y1202551D1*
X809291Y1203020D1*
X809324Y1203253D1*
X809358Y1203421D1*
X809458Y1203822D1*
X809492Y1203990D1*
X809659Y1204657D1*
X809793Y1205059D1*
X809825Y1205126D1*
X809860Y1205226D1*
X809927Y1205360D1*
X809959Y1205459D1*
X810127Y1205794D1*
X810194Y1205895D1*
X810260Y1206028D1*
X810594Y1206529D1*
X810696Y1206663D1*
X810762Y1206764D1*
X810862Y1206898D1*
X810929Y1206997D1*
X811130Y1207265D1*
X811264Y1207432D1*
X811430Y1207633D1*
X812199Y1208402D1*
X812433Y1208602D1*
X812768Y1208869D1*
X812869Y1208936D1*
X813135Y1209136D1*
X813236Y1209203D1*
X813370Y1209304D1*
X813470Y1209371D1*
X813604Y1209471D1*
X814005Y1209739D1*
X814172Y1209839D1*
X814272Y1209906D1*
X814507Y1210039D1*
X814807Y1210206D1*
X815276Y1210441D1*
X815643Y1210608D1*
X816144Y1210808D1*
X816512Y1210942D1*
X816812Y1211042D1*
X817147Y1211143D1*
X818083Y1211377D1*
X818651Y1211510D1*
X818953Y1211577D1*
X819119Y1211610D1*
X819521Y1211677D1*
X819755Y1211710D1*
X820022Y1211744D1*
X820357Y1211777D1*
X821059Y1211811D1*
X821293D1*
X821995Y1211777D1*
X822329Y1211744D1*
X822797Y1211677D1*
X823131Y1211610D1*
X824268Y1211343D1*
X824402Y1211310D1*
X824635Y1211243D1*
X825138Y1211076D1*
X825471Y1210942D1*
X826007Y1210675D1*
X826173Y1210573D1*
X826675Y1210240D1*
X826808Y1210139D1*
X826909Y1210072D1*
X827310Y1209772D1*
X827476Y1209605D1*
X821327D1*
X821226Y1209638D1*
X821126D1*
X821025Y1209605D1*
X820323Y1209571D1*
X819988Y1209538D1*
X819722Y1209505D1*
X819487Y1209471D1*
X819287Y1209438D1*
X818953Y1209371D1*
X818819Y1209337D1*
X818651Y1209304D1*
X818117Y1209171D1*
X817916Y1209104D1*
X817782Y1209070D1*
X817382Y1208936D1*
X817315Y1208903D1*
X817047Y1208802D1*
X816713Y1208669D1*
X816412Y1208535D1*
X816311Y1208501D1*
X815710Y1208201D1*
X815676Y1208167D1*
X815375Y1208000D1*
X815041Y1207799D1*
X814640Y1207533D1*
X814239Y1207231D1*
X814071Y1207097D1*
X813871Y1206930D1*
X813470Y1206563D1*
X813403Y1206529D1*
X813303Y1206429D1*
Y1206395D1*
X812902Y1205962D1*
X812634Y1205627D1*
X812534Y1205493D1*
X812467Y1205392D1*
X812366Y1205259D1*
X812333Y1205193D1*
X812199Y1204992D1*
X812133Y1204858D1*
X812066Y1204757D1*
X811899Y1204424D1*
X811865Y1204323D1*
X811798Y1204190D1*
X811631Y1203688D1*
X811564Y1203421D1*
X811531Y1203253D1*
X811497Y1203020D1*
X811465Y1202585D1*
X811430Y1202551D1*
Y1202484D1*
X811465Y1202451D1*
X811497Y1201983D1*
X811531Y1201782D1*
X811564Y1201615D1*
X811598Y1201516D1*
X811631Y1201382D1*
X811899Y1200580D1*
X811932Y1200446D1*
X812500Y1198741D1*
X812534Y1198608D1*
X813102Y1196903D1*
X813135Y1196769D1*
X813703Y1195064D1*
X813738Y1194930D1*
X814272Y1193325D1*
X814306Y1193192D1*
X814874Y1191487D1*
X814907Y1191353D1*
X815476Y1189648D1*
X815509Y1189514D1*
X816077Y1187810D1*
X816110Y1187676D1*
X816680Y1185971D1*
X816713Y1185837D1*
X817248Y1184234D1*
X817281Y1184100D1*
X817849Y1182395D1*
X817882Y1182261D1*
X818451Y1180556D1*
X818484Y1180423D1*
X819052Y1178718D1*
X819087Y1178584D1*
X819655Y1176879D1*
X819688Y1176745D1*
X820223Y1175140D1*
X820256Y1175008D1*
X820824Y1173303D1*
X820858Y1173169D1*
X821427Y1171465D1*
X821459Y1171331D1*
X822028Y1169626D1*
X822062Y1169492D1*
X822630Y1167787D1*
X822663Y1167654D1*
X823198Y1166049D1*
X823232Y1165915D1*
X823799Y1164210D1*
X823833Y1164076D1*
X824402Y1162371D1*
X824434Y1162238D1*
X824736Y1161336D1*
Y1161269D1*
X823933Y1160667D1*
X823265Y1160133D1*
X822864Y1159798D1*
X822630Y1159597D1*
X822362Y1159364D1*
X822028Y1159063D1*
X821560Y1158627D1*
X821493Y1158594D1*
X820256Y1157358D1*
Y1157324D1*
X819822Y1156856D1*
X819287Y1156255D1*
X819119Y1156054D1*
X818919Y1155820D1*
X818752Y1155619D1*
X818350Y1155118D1*
X818251Y1154984D1*
X818117Y1154818D1*
X817615Y1154148D1*
X817549Y1154049D1*
X817449Y1153915D1*
X817382Y1153815D1*
X817281Y1153681D1*
X817147Y1153480D1*
X817047Y1153346D1*
X816646Y1152745D1*
X816613Y1152678D1*
X816412Y1152377D1*
X816378Y1152310D1*
X816244Y1152109D1*
X816211Y1152043D1*
X816144Y1151942D1*
X816110Y1151875D1*
X816043Y1151776D1*
X816010Y1151709D1*
X815944Y1151608D1*
X815911Y1151541D1*
X815844Y1151441D1*
X815810Y1151374D1*
X815743Y1151274D1*
X815643Y1151073D1*
X815576Y1150974D1*
X815509Y1150840D1*
X815442Y1150739D1*
X815276Y1150404D1*
X815209Y1150304D1*
X814507Y1148900D1*
X814472Y1148801D1*
X814339Y1148533D1*
X814306Y1148433D1*
X814205Y1148232D1*
X814172Y1148131D1*
X814105Y1147997D1*
X814071Y1147898D1*
X814005Y1147764D1*
X813971Y1147664D1*
X813904Y1147530D1*
X813871Y1147430D1*
X813837Y1147364D1*
X813804Y1147262D1*
X813770Y1147196D1*
X813738Y1147096D1*
X813703Y1147029D1*
X813638Y1146828D1*
X813604Y1146761D1*
X813571Y1146661D1*
X813537Y1146594D1*
X813437Y1146293D1*
X813403Y1146226D1*
X813236Y1145726D1*
X813202Y1145659D1*
X813068Y1145257D1*
X813035Y1145123D1*
X812902Y1144722D1*
X812869Y1144588D1*
X812802Y1144387D1*
X812768Y1144255D1*
X812735Y1144154D1*
X812701Y1144020D1*
X812668Y1143920D1*
X812601Y1143652D1*
X812567Y1143552D1*
X812366Y1142749D1*
X812333Y1142583D1*
X812266Y1142315D1*
X812199Y1141982D1*
X812165Y1141848D1*
X812100Y1141513D1*
X812066Y1141312D1*
X811999Y1140978D1*
X811899Y1140377D1*
X811765Y1139441D1*
X811732Y1139173D1*
X811698Y1138873D1*
X811631Y1138203D1*
X811598Y1137803D1*
X811564Y1137301D1*
X811531Y1136667D1*
X811497Y1136633D1*
Y1133992D1*
X811531Y1133958D1*
X811564Y1133324D1*
X811598Y1132822D1*
X811631Y1132421D1*
X811665Y1132052D1*
X811732Y1131451D1*
X811765Y1131184D1*
X811899Y1130248D1*
X811999Y1129647D1*
X812033Y1129479D1*
X812066Y1129278D1*
X812165Y1128777D1*
X812199Y1128643D1*
X812266Y1128310D1*
X812299Y1128176D1*
X812333Y1128009D1*
X812567Y1127072D1*
X812601Y1126972D1*
X812668Y1126705D1*
X812701Y1126604D1*
X812735Y1126471D1*
X812768Y1126370D1*
X812802Y1126238D1*
X812869Y1126037D1*
X812902Y1125903D1*
X813001Y1125601D1*
X813035Y1125469D1*
X813269Y1124766D1*
X813303Y1124699D1*
X813437Y1124298D1*
X813470Y1124231D1*
X813537Y1124030D1*
X813571Y1123963D1*
X813638Y1123762D1*
X813671Y1123697D1*
X813703Y1123596D1*
X813738Y1123529D1*
X813770Y1123429D1*
X813804Y1123362D1*
X813837Y1123261D1*
X813871Y1123194D1*
X813904Y1123094D1*
X813971Y1122961D1*
X814005Y1122861D1*
X814038Y1122794D1*
X814071Y1122694D1*
X814138Y1122560D1*
X814172Y1122459D1*
X814272Y1122259D1*
X814306Y1122159D1*
X814440Y1121891D1*
X814472Y1121791D1*
X815075Y1120588D1*
X815085Y1120547D1*
X815108Y1120521D1*
X836971Y1120487D1*
X858835D1*
X880698Y1120521D1*
X880765Y1120588D1*
Y1120621D1*
X881167Y1121423D1*
X881199Y1121524D1*
X881400Y1121925D1*
X881433Y1122025D1*
X881567Y1122293D1*
X881601Y1122392D1*
X881668Y1122526D1*
X881701Y1122627D1*
X881768Y1122760D1*
X881802Y1122861D1*
X881869Y1122995D1*
X881902Y1123094D1*
X881936Y1123161D1*
X881969Y1123261D1*
X882001Y1123328D1*
X882035Y1123429D1*
X882068Y1123496D1*
X882102Y1123596D1*
X882135Y1123663D1*
X882202Y1123864D1*
X882236Y1123930D1*
X882269Y1124030D1*
X882303Y1124097D1*
X882403Y1124399D1*
X882437Y1124466D1*
X882871Y1125769D1*
X882904Y1125903D1*
X882971Y1126104D1*
X883005Y1126238D1*
X883072Y1126437D1*
X883138Y1126705D1*
X883172Y1126804D1*
X883239Y1127072D1*
X883272Y1127173D1*
X883440Y1127841D1*
X883472Y1128009D1*
X883539Y1128276D1*
X883606Y1128610D1*
X883640Y1128744D1*
X883740Y1129245D1*
X883774Y1129446D1*
X883807Y1129613D1*
X883941Y1130415D1*
X884008Y1130883D1*
X884108Y1131685D1*
X884142Y1131986D1*
X884175Y1132354D1*
X884209Y1132755D1*
X884241Y1133190D1*
X884276Y1133824D1*
X884308Y1135062D1*
X884343Y1135096D1*
Y1135496D1*
X884308Y1135529D1*
X884276Y1136801D1*
X884241Y1137434D1*
X884209Y1137870D1*
X884175Y1138270D1*
X884108Y1138940D1*
X884008Y1139741D1*
X883941Y1140210D1*
X883807Y1141012D1*
X883774Y1141178D1*
X883740Y1141379D1*
X883640Y1141881D1*
X883606Y1142014D1*
X883573Y1142182D1*
X883539Y1142315D1*
X883507Y1142483D1*
X883440Y1142749D1*
X883406Y1142917D1*
X883272Y1143451D1*
X883239Y1143552D1*
X883172Y1143820D1*
X883138Y1143920D1*
X883105Y1144054D1*
X883072Y1144154D1*
X883038Y1144287D1*
X883005Y1144387D1*
X882971Y1144521D1*
X882904Y1144722D1*
X882871Y1144856D1*
X882470Y1146059D1*
X882437Y1146126D1*
X882336Y1146427D1*
X882303Y1146493D1*
X882236Y1146694D1*
X882202Y1146761D1*
X882135Y1146962D1*
X882102Y1147029D1*
X882068Y1147129D1*
X882035Y1147196D1*
X882001Y1147297D1*
X881969Y1147364D1*
X881936Y1147463D1*
X881869Y1147597D1*
X881835Y1147697D1*
X881802Y1147764D1*
X881768Y1147864D1*
X881701Y1147997D1*
X881668Y1148098D1*
X881567Y1148299D1*
X881534Y1148399D1*
X881400Y1148667D1*
X881366Y1148766D1*
X881167Y1149168D1*
X881133Y1149269D1*
X880799Y1149937D1*
X880732Y1150037D1*
X880497Y1150505D1*
X880430Y1150605D1*
X880297Y1150873D1*
X880230Y1150974D1*
X880163Y1151106D1*
X880096Y1151207D1*
X880030Y1151341D1*
X879963Y1151441D1*
X879929Y1151508D1*
X879862Y1151608D1*
X879829Y1151675D1*
X879762Y1151776D1*
X879728Y1151843D1*
X879661Y1151942D1*
X879629Y1152009D1*
X879562Y1152109D1*
X879528Y1152176D1*
X879394Y1152377D1*
X879361Y1152444D1*
X878626Y1153547D1*
X878525Y1153681D1*
X878391Y1153881D1*
X878291Y1154014D1*
X878224Y1154115D1*
X877723Y1154783D1*
X877589Y1154950D1*
X877488Y1155084D1*
X877088Y1155587D1*
X876753Y1155987D1*
X876552Y1156222D1*
X876319Y1156488D1*
X876051Y1156789D1*
X875650Y1157224D1*
Y1157257D1*
X874213Y1158694D1*
X874146Y1158728D1*
X873711Y1159130D1*
X873411Y1159396D1*
X873143Y1159631D1*
X872909Y1159832D1*
X872508Y1160165D1*
X872007Y1160567D1*
X871873Y1160667D1*
X871705Y1160801D1*
X871037Y1161302D1*
X870937Y1161369D1*
X870803Y1161470D1*
X870602Y1161604D1*
X870469Y1161703D1*
X870067Y1161971D1*
X870000Y1162037D1*
X869967Y1196400D1*
X869933Y1196802D1*
X869900Y1197003D1*
X869866Y1197169D1*
X869833Y1197303D1*
X869699Y1197705D1*
X869633Y1197839D1*
X869600Y1197938D1*
X869499Y1198139D1*
X869432Y1198239D1*
X869399Y1198306D1*
X869198Y1198608D1*
X868997Y1198875D1*
X868764Y1199142D1*
Y1199176D1*
X868463Y1199476D1*
X868396Y1199509D1*
X868129Y1199744D1*
X867961Y1199878D1*
X867827Y1199978D1*
X867727Y1200045D1*
X867593Y1200144D1*
X867427Y1200245D1*
X867327Y1200312D1*
X867092Y1200446D1*
X867059Y1200479D1*
X866323Y1200846D1*
X866223Y1200881D1*
X865988Y1200980D1*
X865621Y1201114D1*
X865554Y1201147D1*
X865454Y1201181D1*
X865320Y1201214D1*
X864986Y1201315D1*
X864886Y1201348D1*
X864484Y1201449D1*
X863983Y1201549D1*
X863581Y1201615D1*
X863315Y1201650D1*
X863013Y1201682D1*
X862546Y1201715D1*
X862089Y1201749D1*
X861631D1*
X861175Y1201715D1*
X860740Y1201682D1*
X860406Y1201650D1*
X859938Y1201583D1*
X859770Y1201549D1*
X859571Y1201516D1*
X859403Y1201482D1*
X858735Y1201315D1*
X858634Y1201281D1*
X858500Y1201248D1*
X857999Y1201080D1*
X857932Y1201047D1*
X857598Y1200913D1*
X857297Y1200780D1*
X857197Y1200747D1*
X856795Y1200546D1*
X856762Y1200513D1*
X856528Y1200379D1*
X856361Y1200278D1*
X855959Y1200010D1*
X855693Y1199811D1*
X855458Y1199610D1*
X855391Y1199576D1*
X854857Y1199042D1*
Y1199008D1*
X854689Y1198808D1*
X854589Y1198675D1*
X854522Y1198573D1*
X854421Y1198440D1*
X854388Y1198373D1*
X854322Y1198273D1*
X854255Y1198139D1*
X854188Y1198039D1*
X854155Y1197938D1*
X854054Y1197738D1*
X853921Y1197337D1*
X853854Y1197070D1*
X853820Y1196903D1*
X853787Y1196635D1*
X853753Y1167352D1*
X853654D1*
X849831Y1167386D1*
X846009D1*
X842186Y1167352D1*
X841518Y1167319D1*
X841050Y1167286D1*
X840648Y1167252D1*
X839980Y1167185D1*
X839879D1*
X839846Y1167252D1*
X839445Y1168455D1*
X839412Y1168589D1*
X838844Y1170294D1*
X838810Y1170428D1*
X838276Y1172033D1*
X838241Y1172167D1*
X837673Y1173871D1*
X837640Y1174005D1*
X837071Y1175710D1*
X837038Y1175844D1*
X836470Y1177549D1*
X836437Y1177681D1*
X835869Y1179387D1*
X835835Y1179520D1*
X835299Y1181125D1*
X835266Y1181259D1*
X834698Y1182963D1*
X834665Y1183097D1*
X834096Y1184802D1*
X834063Y1184936D1*
X833495Y1186640D1*
X833461Y1186774D1*
X832892Y1188479D1*
X832860Y1188612D1*
X832324Y1190217D1*
X832291Y1190350D1*
X831723Y1192055D1*
X831689Y1192189D1*
X831121Y1193894D1*
X831088Y1194028D1*
X830520Y1195732D1*
X830486Y1195866D1*
X829917Y1197571D1*
X829885Y1197705D1*
X829349Y1199308D1*
X829316Y1199442D1*
X828748Y1201147D1*
X828714Y1201281D1*
X828146Y1202986D1*
X828113Y1203119D1*
X827543Y1204824D1*
X827510Y1204958D1*
X826976Y1206563D1*
X826942Y1206630D1*
X826909Y1206730D1*
X826776Y1206997D1*
X826709Y1207097D1*
X826675Y1207164D1*
X826541Y1207365D1*
X826441Y1207499D1*
X826274Y1207699D1*
Y1207734D1*
X825940Y1208067D1*
X825873Y1208100D1*
X825672Y1208268D1*
X825404Y1208469D1*
X825304Y1208535D1*
X825138Y1208635D1*
X825104Y1208669D1*
X824501Y1208970D1*
X824402Y1209003D1*
X824235Y1209070D1*
X824168Y1209104D1*
X823665Y1209270D1*
X823533Y1209304D1*
X823432Y1209337D1*
X823298Y1209371D1*
X822797Y1209471D1*
X822596Y1209505D1*
X822329Y1209538D1*
X822028Y1209571D1*
X821327Y1209605D1*
X827476D1*
X827610Y1209505D1*
X827677Y1209438D1*
X827945Y1209136D1*
X828046Y1209003D1*
X828113Y1208903D1*
X828312Y1208635D1*
X828379Y1208535D1*
X828480Y1208402D1*
X828614Y1208201D1*
X828647Y1208134D1*
X828714Y1208034D1*
X828882Y1207699D1*
X828915Y1207600D1*
X828949Y1207533D1*
X829449Y1206028D1*
X829483Y1205895D1*
X830018Y1204290D1*
X830051Y1204156D1*
X830619Y1202451D1*
X830654Y1202318D1*
X831222Y1200613D1*
X831255Y1200479D1*
X831823Y1198774D1*
X831857Y1198640D1*
X832425Y1196936D1*
X832458Y1196802D1*
X832993Y1195198D1*
X833026Y1195064D1*
X833594Y1193360D1*
X833629Y1193226D1*
X834197Y1191521D1*
X834230Y1191387D1*
X834798Y1189682D1*
X834832Y1189549D1*
X835400Y1187844D1*
X835433Y1187710D1*
X835969Y1186105D1*
X836001Y1185971D1*
X836571Y1184266D1*
X836604Y1184133D1*
X837172Y1182428D1*
X837205Y1182294D1*
X837774Y1180589D1*
X837807Y1180455D1*
X838375Y1178751D1*
X838409Y1178618D1*
X838944Y1177013D1*
X838978Y1176879D1*
X839546Y1175175D1*
X839579Y1175041D1*
X840147Y1173336D1*
X840181Y1173202D1*
X840749Y1171497D1*
X840782Y1171364D1*
X841350Y1169659D1*
Y1169559D1*
X841385Y1169525D1*
X841440Y1169492D1*
X841496D1*
X841551Y1169525D1*
X842220Y1169559D1*
X851580Y1169592D1*
Y1196601D1*
X851614Y1196869D1*
X851647Y1197070D1*
X851748Y1197470D1*
X851781Y1197638D1*
X851949Y1198306D1*
X852049Y1198608D1*
X852081Y1198675D1*
X852115Y1198774D1*
X852383Y1199308D1*
X852717Y1199811D1*
X852818Y1199944D1*
X852885Y1200045D1*
X853185Y1200446D1*
X853386Y1200680D1*
X853787Y1201080D1*
X854021Y1201281D1*
X854188Y1201415D1*
X854455Y1201615D1*
X854555Y1201682D1*
X854689Y1201782D1*
X854790Y1201849D1*
X854924Y1201950D1*
X855425Y1202285D1*
X855659Y1202419D1*
X855959Y1202585D1*
X856160Y1202685D1*
X856528Y1202852D1*
X856862Y1202986D1*
X857130Y1203087D1*
X857531Y1203220D1*
X857765Y1203287D1*
X858701Y1203521D1*
X859269Y1203655D1*
X859770Y1203755D1*
X860172Y1203822D1*
X860440Y1203856D1*
X860774Y1203888D1*
X861209Y1203923D1*
X862546D1*
X862980Y1203888D1*
X863315Y1203856D1*
X863782Y1203789D1*
X863983Y1203755D1*
X864318Y1203688D1*
X864618Y1203621D1*
X865186Y1203487D1*
X865854Y1203320D1*
X866089Y1203253D1*
X866791Y1203020D1*
X867126Y1202886D1*
X867360Y1202785D1*
X868028Y1202451D1*
X868362Y1202251D1*
X868864Y1201916D1*
X868997Y1201816D1*
X869098Y1201749D1*
X869232Y1201650D1*
X869332Y1201583D1*
X869600Y1201382D1*
X869799Y1201214D1*
X870469Y1200546D1*
X870635Y1200345D1*
X870702Y1200245D1*
X870903Y1199978D1*
X870970Y1199878D1*
X871071Y1199744D1*
X871337Y1199343D1*
X871404Y1199209D1*
X871471Y1199109D1*
X871538Y1198975D1*
X871572Y1198875D1*
X871638Y1198741D1*
X871672Y1198640D1*
X871705Y1198573D1*
X871806Y1198273D1*
X871873Y1198005D1*
X871906Y1197839D1*
X872007Y1197437D1*
X872039Y1197270D1*
X872106Y1197003D1*
X872140Y1196769D1*
X872173Y1196367D1*
Y1163175D1*
X872240Y1163108D1*
X872307Y1163073D1*
X872575Y1162873D1*
X872675Y1162806D1*
X873344Y1162304D1*
X873510Y1162171D1*
X873644Y1162071D1*
X873979Y1161803D1*
X874580Y1161302D1*
X874815Y1161101D1*
X875081Y1160867D1*
X875416Y1160567D1*
X875885Y1160133D1*
X877054Y1158962D1*
X877488Y1158493D1*
X877790Y1158160D1*
X878024Y1157892D1*
X878425Y1157424D1*
X878559Y1157257D1*
X878726Y1157056D1*
X878993Y1156722D1*
X879093Y1156589D1*
X879227Y1156421D1*
X879728Y1155753D1*
X879795Y1155652D1*
X879996Y1155386D1*
X880063Y1155285D1*
X880163Y1155151D1*
X880230Y1155051D1*
X880331Y1154917D1*
X880465Y1154717D1*
X880564Y1154584D1*
X881232Y1153580D1*
X881266Y1153513D1*
X881400Y1153312D1*
X881433Y1153245D1*
X881567Y1153046D1*
X881601Y1152979D1*
X881668Y1152878D1*
X881701Y1152812D1*
X881768Y1152711D1*
X881802Y1152644D1*
X881869Y1152545D1*
X881936Y1152411D1*
X882001Y1152310D1*
X882068Y1152176D1*
X882135Y1152076D1*
X882202Y1151942D1*
X882269Y1151843D1*
X882403Y1151575D1*
X882470Y1151474D1*
X882871Y1150672D1*
X882938Y1150572D1*
X882971Y1150471D1*
X883306Y1149803D1*
X883339Y1149702D1*
X883472Y1149436D1*
X883507Y1149335D1*
X883606Y1149135D1*
X883640Y1149034D1*
X883707Y1148900D1*
X883740Y1148801D1*
X883807Y1148667D1*
X883841Y1148566D1*
X883874Y1148500D1*
X883907Y1148399D1*
X883941Y1148332D1*
X883974Y1148232D1*
X884008Y1148165D1*
X884041Y1148064D1*
X884075Y1147997D1*
X884108Y1147898D1*
X884142Y1147831D1*
X884175Y1147731D1*
X884209Y1147664D1*
X884276Y1147463D1*
X884308Y1147396D1*
X884409Y1147096D1*
X884442Y1147029D1*
X884844Y1145825D1*
X884877Y1145692D1*
X884944Y1145491D1*
X884978Y1145357D1*
X885010Y1145257D1*
X885043Y1145123D1*
X885077Y1145022D1*
X885110Y1144890D1*
X885144Y1144789D1*
X885211Y1144521D1*
X885244Y1144421D1*
X885412Y1143753D1*
X885445Y1143585D1*
X885579Y1143051D1*
X885613Y1142883D1*
X885713Y1142483D1*
X885747Y1142315D1*
X885780Y1142182D1*
X885980Y1141178D1*
X886047Y1140777D1*
X886080Y1140610D1*
X886114Y1140377D1*
X886147Y1140176D1*
X886248Y1139474D1*
X886281Y1139206D1*
X886348Y1138605D1*
X886415Y1137870D1*
X886449Y1137402D1*
X886482Y1136766D1*
X886516Y1135496D1*
Y1135096D1*
X886482Y1133858D1*
X886449Y1133223D1*
X886415Y1132755D1*
X886348Y1132020D1*
X886281Y1131419D1*
X886248Y1131151D1*
X886114Y1130214D1*
X886047Y1129814D1*
X886013Y1129647D1*
X885980Y1129446D1*
X885780Y1128442D1*
X885747Y1128310D1*
X885713Y1128142D1*
X885613Y1127741D1*
X885579Y1127573D1*
X885479Y1127173D1*
X885445Y1127005D1*
X885244Y1126203D1*
X885211Y1126104D1*
X885144Y1125836D1*
X885110Y1125735D1*
X885043Y1125469D1*
X884978Y1125268D1*
X884944Y1125134D1*
X884877Y1124933D1*
X884844Y1124799D1*
X884442Y1123596D1*
X884409Y1123529D1*
X884308Y1123228D1*
X884276Y1123161D1*
X884209Y1122961D1*
X884175Y1122894D1*
X884142Y1122794D1*
X884108Y1122727D1*
X884041Y1122526D1*
X884008Y1122459D1*
X883974Y1122360D1*
X883941Y1122293D1*
X883907Y1122192D1*
X883841Y1122058D1*
X883807Y1121958D1*
X883774Y1121891D1*
X883740Y1121791D1*
X883640Y1121591D1*
X883606Y1121490D1*
X883539Y1121356D1*
X883507Y1121256D1*
X883373Y1120988D1*
X883339Y1120888D1*
X883172Y1120554D1*
X906673Y1120487D1*
X907041Y1120454D1*
X907209Y1120420D1*
X907777Y1120286D1*
X908311Y1120154D1*
X908512Y1120087D1*
X908913Y1119886D1*
X909214Y1119685D1*
X909348Y1119584D1*
X909449Y1119517D1*
X909583Y1119417D1*
X909682Y1119350D1*
X909883Y1119184D1*
X910016Y1119050D1*
X910184Y1118849D1*
X910251Y1118749D1*
X910350Y1118615D1*
X910417Y1118514D1*
X910518Y1118382D1*
X910719Y1118080D1*
X910919Y1117680D1*
X910986Y1117479D1*
X911119Y1116944D1*
X911154Y1116777D1*
X911253Y1116375D1*
X911287Y1116209D1*
X911320Y1115807D1*
Y1105846D1*
X911287Y1105445D1*
X911253Y1105278D1*
X911186Y1105010D1*
X911154Y1104844D1*
X910986Y1104175D1*
X910919Y1103974D1*
X910886Y1103907D1*
X910852Y1103807D1*
X910785Y1103673D1*
X910719Y1103572D1*
X910685Y1103507D1*
X910618Y1103406D1*
X910518Y1103272D1*
X910451Y1103172D1*
X910251Y1102904D1*
X910184Y1102804D1*
X910050Y1102636D1*
X909849Y1102437D1*
X909682Y1102303D1*
X909415Y1102102D1*
X909315Y1102035D1*
X909181Y1101934D1*
X908980Y1101801D1*
X908814Y1101701D1*
X908680Y1101634D1*
X908512Y1101567D1*
X908211Y1101467D1*
X908077Y1101434D1*
X907509Y1101301D1*
X907075Y1101199D1*
X906774Y1101167D1*
X890894Y1101133D1*
Y1097490D1*
X862244D1*
X861877Y1097522D1*
X861509D1*
X860774Y1097455D1*
X860472Y1097423D1*
X860239Y1097388D1*
X860038Y1097356D1*
X859537Y1097255D1*
X859001Y1097122D1*
X858902Y1097088D1*
X858768Y1097055D1*
X858066Y1096820D1*
X857999Y1096787D1*
X857665Y1096654D1*
X857430Y1096552D1*
X857331Y1096520D1*
X856528Y1096119D1*
X856495Y1096085D1*
X856026Y1095818D1*
X855827Y1095684D1*
X855659Y1095584D1*
X855525Y1095483D1*
X855324Y1095350D1*
X855058Y1095150D1*
X854555Y1094748D1*
X854255Y1094480D1*
X854188Y1094448D1*
X853319Y1093579D1*
Y1093545D1*
X853085Y1093277D1*
X852917Y1093076D1*
X852650Y1092743D1*
X852550Y1092609D1*
X852516Y1092576D1*
X852449D1*
X852316Y1092642D1*
X851815Y1092909D1*
X851781Y1092942D1*
X851513Y1093076D1*
X851413Y1093110D1*
X850912Y1093344D1*
X850610Y1093478D1*
X849942Y1093745D1*
X849875Y1093778D1*
X848772Y1094147D1*
X848638Y1094180D1*
X848270Y1094281D1*
X848171Y1094314D1*
X847769Y1094413D1*
X847602Y1094448D1*
X847469Y1094480D1*
X846799Y1094614D1*
X846399Y1094681D1*
X845930Y1094748D1*
X845663Y1094781D1*
X845362Y1094815D1*
X844995Y1094848D1*
X844493Y1094882D1*
X843780Y1094915D1*
X843067D1*
X842354Y1094882D1*
X841919Y1094848D1*
X841618Y1094815D1*
X841350Y1094781D1*
X841117Y1094748D1*
X840715Y1094681D1*
X840214Y1094581D1*
X839546Y1094413D1*
X839345Y1094348D1*
X839211Y1094314D1*
X838710Y1094147D1*
X838643Y1094113D1*
X838375Y1094013D1*
X838209Y1093946D1*
X837974Y1093845D1*
X837874Y1093812D1*
X836938Y1093344D1*
X836904Y1093311D1*
X836671Y1093177D1*
X836504Y1093076D1*
X836001Y1092743D1*
X835601Y1092442D1*
X835433Y1092308D1*
X835232Y1092140D1*
X834932Y1091873D1*
X834865Y1091840D1*
X834331Y1091304D1*
Y1091272D1*
X834063Y1090971D1*
X833896Y1090770D1*
X833762Y1090604D1*
X833562Y1090336D1*
X833495Y1090235D1*
X833394Y1090101D1*
X833260Y1089902D1*
X833227Y1089835D1*
X833093Y1089634D1*
X833060Y1089567D1*
X832993Y1089466D1*
X832927Y1089333D1*
X832860Y1089232D1*
X832559Y1088631D1*
X832525Y1088530D1*
X832458Y1088396D1*
X832425Y1088297D1*
X832358Y1088163D1*
X832291Y1087962D1*
X832257Y1087895D1*
X832058Y1087294D1*
X832024Y1087160D1*
X831991Y1087060D1*
X831857Y1086525D1*
X831756Y1086024D1*
X831723Y1085823D1*
X831689Y1085589D1*
X831656Y1085289D1*
X831622Y1084954D1*
X831589Y1084252D1*
X831555Y1084218D1*
Y1083850D1*
X831589Y1083818D1*
X831622Y1083115D1*
X831656Y1082781D1*
X831689Y1082513D1*
X831723Y1082280D1*
X831756Y1082079D1*
X831823Y1081745D1*
X831857Y1081612D1*
X831890Y1081444D1*
X831924Y1081344D1*
X831991Y1081076D1*
X832024Y1080976D1*
X832058Y1080843D1*
X832157Y1080541D1*
X832190Y1080475D1*
X832291Y1080175D1*
X832324Y1080108D1*
X832358Y1080007D1*
X832425Y1079873D1*
X832458Y1079773D1*
X832659Y1079371D1*
X832693Y1079272D1*
X832760Y1079171D1*
X832892Y1078903D1*
X832959Y1078803D1*
X832993Y1078736D1*
X833060Y1078636D1*
X833093Y1078570D1*
X833160Y1078469D1*
X833194Y1078403D1*
X833461Y1078001D1*
X833762Y1077600D1*
X834029Y1077265D1*
X834230Y1077031D1*
X834665Y1076564D1*
Y1076530D1*
X834732Y1076463D1*
X834798Y1076430D1*
X835333Y1075928D1*
X835567Y1075728D1*
X835768Y1075560D1*
X835902Y1075461D1*
X836068Y1075327D1*
X836202Y1075226D1*
X836303Y1075160D1*
X836437Y1075059D1*
X836837Y1074793D1*
X837339Y1074491D1*
X837573Y1074357D1*
X837606Y1074324D1*
X838409Y1073923D1*
X838509Y1073890D1*
X838810Y1073756D1*
X839311Y1073555D1*
X839378Y1073521D1*
X839879Y1073354D1*
X840013Y1073322D1*
X840214Y1073255D1*
X840749Y1073121D1*
X841251Y1073021D1*
X841451Y1072987D1*
X841685Y1072954D1*
X841986Y1072920D1*
X842554Y1072887D1*
X842643Y1072853D1*
X842732D1*
X842822Y1072887D1*
X843055Y1072920D1*
X843256Y1072987D1*
X843524Y1073121D1*
X843824Y1073421D1*
Y1073454D1*
X843891Y1073555D1*
X843958Y1073689D1*
X844025Y1073890D1*
X844059Y1074056D1*
X844092Y1074091D1*
Y1074458D1*
X844059Y1074491D1*
X844025Y1074625D1*
X843992Y1074726D1*
X843891Y1074925D1*
Y1074959D1*
X843623Y1075226D1*
X843558Y1075260D1*
X843524Y1075293D1*
X843256Y1075427D1*
X843156Y1075461D1*
X843022Y1075493D1*
X842789Y1075528D1*
X842387Y1075560D1*
X842119Y1075594D1*
X841919Y1075627D1*
X841417Y1075728D1*
X841150Y1075795D1*
X840916Y1075862D1*
X840315Y1076062D1*
X839812Y1076262D1*
X839445Y1076430D1*
X839177Y1076564D1*
X838810Y1076764D1*
X838476Y1076965D1*
X837874Y1077366D1*
X837740Y1077466D1*
X837573Y1077600D1*
X837440Y1077699D1*
X837239Y1077867D1*
X836904Y1078168D1*
X836537Y1078535D1*
X836236Y1078870D1*
X836068Y1079071D1*
X835934Y1079238D1*
X835835Y1079371D1*
X835433Y1079974D1*
X835400Y1080041D1*
X835333Y1080140D1*
X835199Y1080408D1*
X835133Y1080508D1*
X835066Y1080642D1*
X835033Y1080741D1*
X834932Y1080942D1*
X834899Y1081043D1*
X834832Y1081177D1*
X834765Y1081377D1*
X834732Y1081444D1*
X834665Y1081644D1*
X834631Y1081778D1*
X834598Y1081879D1*
X834564Y1082012D1*
X834531Y1082113D1*
X834497Y1082280D1*
X834465Y1082413D1*
X834430Y1082580D1*
X834398Y1082781D1*
X834364Y1083014D1*
X834331Y1083316D1*
Y1084786D1*
X834364Y1085121D1*
X834398Y1085356D1*
X834430Y1085555D1*
X834497Y1085890D1*
X834531Y1086024D1*
X834564Y1086190D1*
X834598Y1086291D1*
X834631Y1086425D1*
X834832Y1087026D1*
X834865Y1087093D1*
X834899Y1087194D1*
X834932Y1087261D1*
X834966Y1087361D1*
X835333Y1088096D1*
X835400Y1088197D1*
X835467Y1088329D1*
X835735Y1088731D1*
X835835Y1088865D1*
X835902Y1088966D1*
X836035Y1089133D1*
X836202Y1089333D1*
X836537Y1089701D1*
X836671Y1089835D1*
X837038Y1090168D1*
X837239Y1090336D1*
X837640Y1090636D1*
X838041Y1090904D1*
X838375Y1091105D1*
X839110Y1091472D1*
X839345Y1091572D1*
X839512Y1091639D1*
X839780Y1091740D1*
X840181Y1091873D1*
X840415Y1091940D1*
X840949Y1092073D1*
X841451Y1092175D1*
X841919Y1092241D1*
X842220Y1092274D1*
X842621Y1092308D1*
X844193D1*
X844694Y1092274D1*
X845062Y1092241D1*
X845596Y1092175D1*
X845831Y1092140D1*
X846232Y1092073D1*
X846566Y1092007D1*
X846866Y1091940D1*
X847535Y1091773D1*
X847769Y1091706D1*
X848304Y1091539D1*
X848672Y1091406D1*
X848940Y1091304D1*
X849106Y1091238D1*
X849575Y1091038D1*
X850076Y1090804D1*
X850143Y1090770D1*
X850711Y1090470D1*
X850945Y1090336D1*
Y1090302D1*
X850912Y1090235D1*
X850845Y1090135D1*
X850543Y1089533D1*
X850510Y1089433D1*
X850310Y1089033D1*
X850277Y1088932D1*
X850210Y1088798D1*
X850176Y1088698D1*
X850076Y1088497D1*
X850043Y1088396D1*
X850009Y1088329D1*
X849976Y1088230D1*
X849942Y1088163D1*
X849909Y1088063D1*
X849875Y1087996D1*
X849843Y1087895D1*
X849808Y1087828D1*
X849776Y1087728D1*
X849741Y1087661D1*
X849709Y1087562D1*
X849675Y1087495D1*
X849575Y1087194D1*
X849541Y1087127D1*
X849106Y1085823D1*
X849073Y1085689D1*
X849007Y1085490D1*
X848972Y1085356D1*
X848940Y1085255D1*
X848906Y1085121D1*
X848873Y1085021D1*
X848839Y1084887D1*
X848806Y1084786D1*
X848739Y1084520D1*
X848705Y1084419D1*
X848538Y1083751D1*
X848505Y1083584D1*
X848438Y1083316D1*
X848404Y1083148D1*
X848371Y1083014D1*
X848337Y1082848D1*
X848304Y1082714D1*
X848171Y1082046D1*
X848138Y1081845D1*
X848071Y1081510D1*
X847903Y1080508D1*
X847769Y1079572D1*
X847669Y1078769D1*
X847635Y1078436D1*
X847602Y1078135D1*
X847568Y1077801D1*
X847535Y1077433D1*
X847501Y1077031D1*
X847469Y1076564D1*
X847434Y1076062D1*
X847402Y1075427D1*
X847369Y1074592D1*
X847335Y1074558D1*
Y1071215D1*
X847369Y1071182D1*
X847402Y1070346D1*
X847434Y1069778D1*
X847469Y1069277D1*
X847501Y1068841D1*
X847535Y1068474D1*
X847602Y1067806D1*
X847702Y1067004D1*
X847736Y1066769D1*
X847769Y1066501D1*
X847803Y1066302D1*
X847836Y1066067D1*
X847903Y1065667D1*
X847937Y1065499D1*
X847970Y1065298D1*
X848104Y1064630D1*
X848138Y1064496D1*
X848171Y1064329D1*
X848203Y1064196D1*
X848238Y1064029D1*
X848438Y1063226D1*
X848471Y1063126D1*
X848505Y1062992D1*
X848538Y1062891D1*
X848572Y1062759D1*
X848605Y1062657D1*
X848638Y1062524D1*
X848972Y1061521D1*
X849007Y1061454D1*
X849106Y1061154D1*
X849140Y1061087D1*
X849173Y1060987D1*
X849207Y1060920D1*
X849240Y1060819D1*
X849307Y1060686D1*
X849341Y1060585D1*
X849407Y1060451D1*
X849441Y1060352D1*
X849575Y1060084D1*
X849608Y1059983D1*
X849843Y1059516D1*
X849909Y1059415D1*
X850043Y1059148D1*
X850110Y1059047D1*
X850143Y1058980D1*
X850210Y1058881D1*
X850243Y1058814D1*
X850310Y1058714D1*
X850344Y1058647D1*
X850610Y1058245D1*
X850711Y1058112D1*
X850778Y1058012D1*
X850878Y1057878D1*
X851146Y1057543D1*
X851346Y1057310D1*
Y1057276D1*
X852016Y1056608D1*
X852081Y1056573D1*
X852282Y1056407D1*
X852449Y1056273D1*
X852717Y1056072D1*
X852917Y1055938D1*
X853085Y1055839D1*
X853386Y1055672D1*
X853419Y1055638D1*
X853552Y1055571D1*
X853654Y1055538D1*
X853954Y1055404D1*
X854021Y1055371D1*
X854522Y1055203D1*
X854924Y1055104D1*
X855091Y1055070D1*
X855291Y1055037D1*
X855559Y1055003D1*
X856127Y1054970D1*
X856217Y1054936D1*
X856306D1*
X856394Y1054970D1*
X856963Y1055003D1*
X857230Y1055037D1*
X857465Y1055070D1*
X857631Y1055104D1*
X858167Y1055238D1*
X858567Y1055371D1*
X858634Y1055404D1*
X858802Y1055471D1*
X858902Y1055504D1*
X859370Y1055738D1*
X859403Y1055772D1*
X859738Y1055972D1*
X859837Y1056039D1*
X860105Y1056240D1*
X860272Y1056374D1*
X860606Y1056675D1*
X860673Y1056707D1*
X860841Y1056875D1*
Y1056908D1*
X861142Y1057243D1*
X861308Y1057444D1*
X861509Y1057710D1*
X861643Y1057911D1*
X861743Y1058045D1*
X861777Y1058112D1*
X861911Y1058312D1*
X861944Y1058379D1*
X862010Y1058479D1*
X862110Y1058680D1*
X862177Y1058781D1*
X862378Y1059181D1*
X862412Y1059281D1*
X862512Y1059482D1*
X862546Y1059583D1*
X862613Y1059717D1*
X862646Y1059816D1*
X862680Y1059883D1*
X862713Y1059983D1*
X862747Y1060050D1*
X862846Y1060352D1*
X862879Y1060419D1*
X862980Y1060719D1*
X863013Y1060853D1*
X863080Y1061052D1*
X863114Y1061186D1*
X863147Y1061287D1*
X863181Y1061421D1*
X863214Y1061521D1*
X863315Y1061923D1*
X863348Y1062089D1*
X863382Y1062223D1*
X863415Y1062391D1*
X863449Y1062524D1*
X863482Y1062692D1*
X863516Y1062891D1*
X863549Y1063059D1*
X863615Y1063461D1*
X863648Y1063694D1*
X863682Y1063895D1*
X863749Y1064429D1*
X863782Y1064730D1*
X863816Y1065064D1*
X863849Y1065466D1*
X863883Y1065934D1*
X863916Y1066535D1*
X863949Y1067873D1*
X863983Y1067906D1*
Y1068374D1*
X863949Y1068407D1*
X863916Y1069677D1*
X863883Y1070280D1*
X863849Y1070747D1*
X863816Y1071148D1*
X863782Y1071516D1*
X863749Y1071850D1*
X863715Y1072118D1*
X863682Y1072419D1*
X863648Y1072686D1*
X863549Y1073388D1*
X863382Y1074391D1*
X863281Y1074892D1*
X863248Y1075093D1*
X863214Y1075226D1*
X863147Y1075560D1*
X863114Y1075694D1*
X863080Y1075862D1*
X863047Y1075995D1*
X863013Y1076163D1*
X862780Y1077098D1*
X862747Y1077198D1*
X862680Y1077466D1*
X862646Y1077567D1*
X862579Y1077833D1*
X862512Y1078034D1*
X862479Y1078168D1*
X862412Y1078369D1*
X862378Y1078503D1*
X861911Y1079907D1*
X861877Y1079974D1*
X861777Y1080274D1*
X861743Y1080341D1*
X861676Y1080541D1*
X861643Y1080608D1*
X861610Y1080709D1*
X861576Y1080776D1*
X861543Y1080875D1*
X861509Y1080942D1*
X861476Y1081043D1*
X861442Y1081110D1*
X861409Y1081210D1*
X861375Y1081277D1*
X861343Y1081377D1*
X861276Y1081510D1*
X861241Y1081612D1*
X861175Y1081745D1*
X861142Y1081845D1*
X861075Y1081979D1*
X861041Y1082079D1*
X860907Y1082346D1*
X860874Y1082446D1*
X860640Y1082915D1*
X860606Y1083014D1*
X860339Y1083550D1*
X860272Y1083651D1*
X860038Y1084118D1*
X859971Y1084218D1*
X859871Y1084419D1*
X859804Y1084520D1*
X859738Y1084654D1*
X859671Y1084753D1*
X859604Y1084887D1*
X859537Y1084987D1*
X859504Y1085054D1*
X859437Y1085155D1*
X859403Y1085222D1*
X859336Y1085322D1*
X859303Y1085388D1*
X859236Y1085490D1*
X859202Y1085555D1*
X859001Y1085856D1*
X858969Y1085923D1*
X858567Y1086525D1*
X858467Y1086659D1*
X858333Y1086860D1*
X858232Y1086993D1*
X858167Y1087093D1*
X857765Y1087627D1*
X857631Y1087795D1*
X857531Y1087929D1*
X857398Y1088096D1*
X857063Y1088497D1*
X856862Y1088731D1*
X856594Y1089033D1*
X856227Y1089433D1*
Y1089466D1*
X855358Y1090336D1*
X855291Y1090369D1*
X854857Y1090770D1*
X854589Y1091004D1*
X854555Y1091038D1*
Y1091071D1*
X854622Y1091171D1*
X854790Y1091371D1*
X855058Y1091673D1*
X855793Y1092408D1*
X856060Y1092642D1*
X856260Y1092810D1*
X856428Y1092942D1*
X856829Y1093244D1*
X857331Y1093579D1*
X857665Y1093778D1*
X858534Y1094214D1*
X858768Y1094314D1*
X859035Y1094413D1*
X859537Y1094581D1*
X859770Y1094648D1*
X860038Y1094714D1*
X860539Y1094815D1*
X861008Y1094882D1*
X861375Y1094915D1*
X862177Y1094949D1*
X862345Y1094982D1*
X862479Y1095016D1*
X862579Y1095049D1*
X862780Y1095150D1*
X862812Y1095182D1*
X862879Y1095217D1*
X863114Y1095450D1*
Y1095483D1*
X863181Y1095584D1*
X863248Y1095718D1*
X863281Y1095818D1*
X863315Y1095986D1*
X863348Y1096018D1*
Y1096319D1*
X863315Y1096353D1*
X863281Y1096520D1*
X863248Y1096619D1*
X863147Y1096820D1*
X863047Y1096954D1*
Y1096988D1*
X862812Y1097222D1*
X862747Y1097255D1*
X862646Y1097322D1*
X862613Y1097356D1*
X862546Y1097388D1*
X862244Y1097490D1*
X890894D1*
Y1044407D1*
X888755D1*
X861453Y1044440D1*
X834152D1*
X806850Y1044407D1*
Y1039894D1*
X834152Y1039860D1*
X861453D1*
X888755Y1039894D1*
Y1044407D1*
X890894D1*
Y1037655D1*
X888755D1*
X861453Y1037688D1*
X834152D1*
X806850Y1037655D1*
Y1033142D1*
X834152Y1033108D1*
X861453D1*
X888755Y1033142D1*
Y1037655D1*
X890894D1*
G37*
G36*
X821560Y1203087D2*
X821760Y1203052D1*
X821928Y1203020D1*
X822196Y1202953D1*
X822396Y1202886D1*
X822563Y1202819D1*
X822797Y1202719D1*
X822930Y1202652D1*
X823265Y1202451D1*
X823399Y1202352D1*
X823499Y1202285D1*
X823699Y1202117D1*
X824034Y1201782D1*
X824201Y1201583D1*
X824268Y1201482D1*
X824369Y1201348D1*
X824402Y1201281D1*
X824469Y1201181D1*
X824501Y1201114D1*
X824568Y1201013D1*
X824635Y1200881D1*
X824669Y1200780D1*
X824736Y1200647D1*
X824769Y1200546D1*
X824803Y1200479D1*
X824836Y1200379D1*
X824870Y1200245D1*
X824937Y1200045D1*
X824970Y1199911D1*
X825004Y1199811D1*
X825037Y1199677D1*
X825071Y1199576D1*
X825104Y1199442D1*
X825138Y1199343D1*
X825171Y1199209D1*
X825203Y1199109D1*
X825238Y1198975D1*
X825304Y1198774D1*
X825337Y1198640D1*
X825371Y1198541D1*
X825404Y1198407D1*
X825438Y1198306D1*
X825471Y1198172D1*
X825505Y1198072D1*
X825538Y1197938D1*
X825571Y1197839D1*
X825605Y1197705D1*
X825672Y1197504D1*
X825705Y1197370D1*
X825739Y1197270D1*
X825772Y1197136D1*
X825806Y1197037D1*
X825839Y1196903D1*
X825873Y1196802D1*
X825906Y1196668D1*
X825940Y1196568D1*
X825972Y1196434D1*
X826039Y1196234D1*
X826073Y1196100D1*
X826106Y1196000D1*
X826140Y1195866D1*
X826173Y1195765D1*
X826207Y1195633D1*
X826240Y1195531D1*
X826274Y1195398D1*
X826307Y1195298D1*
X826340Y1195164D1*
X826374Y1195064D1*
X826407Y1194930D1*
X826474Y1194730D1*
X826508Y1194596D1*
X826541Y1194496D1*
X826575Y1194362D1*
X826608Y1194261D1*
X826642Y1194127D1*
X826675Y1194028D1*
X826709Y1193894D1*
X826741Y1193794D1*
X826776Y1193660D1*
X826843Y1193459D1*
X826875Y1193325D1*
X826909Y1193226D1*
X826942Y1193092D1*
X826976Y1192991D1*
X827009Y1192857D1*
X827043Y1192757D1*
X827076Y1192623D1*
X827109Y1192524D1*
X827143Y1192390D1*
X827176Y1192289D1*
X827243Y1192022D1*
X827277Y1191854D1*
X827310Y1191655D1*
Y1190651D1*
X827277Y1190450D1*
X827243Y1190283D1*
X827176Y1190017D1*
X827109Y1189816D1*
X827076Y1189749D1*
X827043Y1189648D1*
X827009Y1189581D1*
X826976Y1189482D1*
X826875Y1189281D1*
X826808Y1189181D1*
X826741Y1189047D1*
X826675Y1188946D1*
X826575Y1188812D1*
X826508Y1188713D1*
X826340Y1188512D1*
X826007Y1188178D1*
X825806Y1188010D1*
X825672Y1187911D1*
X825471Y1187777D1*
X825238Y1187643D1*
X825037Y1187542D1*
X824803Y1187442D1*
X824501Y1187343D1*
X824235Y1187276D1*
X824067Y1187241D1*
X823866Y1187209D1*
X822864D1*
X822663Y1187241D1*
X822496Y1187276D1*
X822228Y1187343D1*
X822028Y1187409D1*
X821694Y1187542D1*
X821493Y1187643D1*
X821260Y1187777D1*
X821159Y1187844D1*
X821025Y1187944D1*
X820925Y1188010D1*
X820724Y1188178D1*
X820390Y1188512D1*
X820223Y1188713D1*
X820122Y1188846D1*
X820055Y1188946D1*
X820022Y1189013D1*
X819955Y1189114D1*
X819921Y1189181D1*
X819854Y1189281D1*
X819789Y1189415D1*
X819755Y1189514D1*
X819688Y1189648D1*
X819655Y1189749D1*
X819621Y1189816D1*
X819588Y1189916D1*
X819554Y1190050D1*
X819487Y1190251D1*
X819454Y1190383D1*
X819420Y1190484D1*
X819387Y1190618D1*
X819354Y1190718D1*
X819320Y1190852D1*
X819287Y1190953D1*
X819253Y1191085D1*
X819186Y1191286D1*
X819154Y1191420D1*
X819119Y1191521D1*
X819087Y1191655D1*
X819052Y1191755D1*
X819020Y1191888D1*
X818986Y1191988D1*
X818953Y1192122D1*
X818919Y1192222D1*
X818886Y1192356D1*
X818852Y1192457D1*
X818819Y1192591D1*
X818752Y1192791D1*
X818718Y1192924D1*
X818685Y1193025D1*
X818651Y1193159D1*
X818618Y1193259D1*
X818585Y1193392D1*
X818551Y1193493D1*
X818518Y1193626D1*
X818484Y1193727D1*
X818451Y1193861D1*
X818385Y1194060D1*
X818350Y1194194D1*
X818318Y1194295D1*
X818283Y1194429D1*
X818251Y1194529D1*
X818217Y1194663D1*
X818184Y1194762D1*
X818150Y1194896D1*
X818117Y1194997D1*
X818083Y1195131D1*
X818016Y1195332D1*
X817983Y1195465D1*
X817949Y1195566D1*
X817916Y1195698D1*
X817882Y1195799D1*
X817849Y1195933D1*
X817816Y1196033D1*
X817782Y1196167D1*
X817749Y1196268D1*
X817715Y1196400D1*
X817682Y1196501D1*
X817648Y1196635D1*
X817581Y1196836D1*
X817549Y1196970D1*
X817514Y1197070D1*
X817482Y1197203D1*
X817449Y1197303D1*
X817415Y1197437D1*
X817382Y1197537D1*
X817348Y1197671D1*
X817315Y1197772D1*
X817281Y1197906D1*
X817248Y1198005D1*
X817181Y1198273D1*
X817147Y1198440D1*
X817114Y1198640D1*
Y1199643D1*
X817147Y1199844D1*
X817181Y1200010D1*
X817248Y1200278D1*
X817315Y1200479D1*
X817348Y1200546D1*
X817382Y1200647D1*
X817415Y1200713D1*
X817449Y1200814D1*
X817549Y1201013D1*
X817615Y1201114D1*
X817682Y1201248D1*
X817749Y1201348D1*
X817849Y1201482D1*
X817916Y1201583D1*
X818083Y1201782D1*
X818417Y1202117D1*
X818618Y1202285D1*
X818752Y1202385D1*
X818953Y1202518D1*
X819186Y1202652D1*
X819387Y1202752D1*
X819722Y1202886D1*
X819921Y1202953D1*
X820189Y1203020D1*
X820357Y1203052D1*
X820558Y1203087D1*
X821560D1*
G37*
G36*
X862747Y1196434D2*
X862946Y1196400D1*
X863114Y1196367D1*
X863382Y1196301D1*
X863682Y1196201D1*
X863916Y1196100D1*
X864184Y1195966D1*
X864350Y1195866D1*
X864551Y1195732D1*
X864685Y1195633D1*
X864886Y1195465D1*
X865220Y1195131D1*
X865387Y1194930D1*
X865487Y1194797D1*
X865621Y1194596D1*
X865688Y1194462D1*
X865755Y1194362D1*
X865854Y1194161D1*
X865888Y1194060D1*
X865955Y1193927D1*
X866055Y1193626D1*
X866122Y1193360D1*
X866156Y1193192D1*
X866189Y1192991D1*
Y1183665D1*
X866156Y1183465D1*
X866122Y1183297D1*
X866055Y1183030D1*
X865955Y1182730D1*
X865888Y1182596D1*
X865854Y1182495D1*
X865755Y1182294D1*
X865688Y1182194D1*
X865621Y1182060D1*
X865487Y1181860D1*
X865387Y1181726D1*
X865220Y1181525D1*
X864886Y1181192D1*
X864685Y1181025D1*
X864551Y1180924D1*
X864350Y1180790D1*
X864184Y1180690D1*
X863916Y1180556D1*
X863682Y1180455D1*
X863382Y1180356D1*
X863114Y1180289D1*
X862946Y1180256D1*
X862747Y1180222D1*
X861743D1*
X861543Y1180256D1*
X861375Y1180289D1*
X861108Y1180356D1*
X860807Y1180455D1*
X860573Y1180556D1*
X860306Y1180690D1*
X860138Y1180790D1*
X859938Y1180924D1*
X859804Y1181025D1*
X859604Y1181192D1*
X859269Y1181525D1*
X859102Y1181726D1*
X859001Y1181860D1*
X858869Y1182060D1*
X858802Y1182194D1*
X858735Y1182294D1*
X858634Y1182495D1*
X858601Y1182596D1*
X858534Y1182730D1*
X858433Y1183030D1*
X858366Y1183297D1*
X858333Y1183465D1*
X858299Y1183665D1*
Y1192991D1*
X858333Y1193192D1*
X858366Y1193360D1*
X858433Y1193626D1*
X858534Y1193927D1*
X858601Y1194060D1*
X858634Y1194161D1*
X858735Y1194362D1*
X858802Y1194462D1*
X858869Y1194596D1*
X859001Y1194797D1*
X859102Y1194930D1*
X859269Y1195131D1*
X859604Y1195465D1*
X859804Y1195633D1*
X859938Y1195732D1*
X860138Y1195866D1*
X860306Y1195966D1*
X860573Y1196100D1*
X860807Y1196201D1*
X861108Y1196301D1*
X861375Y1196367D1*
X861543Y1196400D1*
X861743Y1196434D1*
X862747D1*
G37*
G36*
X858802Y1146995D2*
X858969Y1146962D1*
X859269Y1146861D1*
X859537Y1146728D1*
X859638Y1146661D1*
X859770Y1146560D1*
X860072Y1146260D1*
X860172Y1146126D1*
X860239Y1146026D1*
X860373Y1145759D1*
X860472Y1145458D1*
X860507Y1145290D1*
Y1138171D1*
X860472Y1138003D1*
X860373Y1137702D1*
X860239Y1137434D1*
X860172Y1137335D1*
X860072Y1137201D1*
X859770Y1136900D1*
X859638Y1136801D1*
X859537Y1136734D1*
X859269Y1136600D1*
X858969Y1136499D1*
X858802Y1136466D1*
X858100D1*
X857932Y1136499D1*
X857631Y1136600D1*
X857364Y1136734D1*
X857264Y1136801D1*
X857130Y1136900D1*
X856829Y1137201D1*
X856728Y1137335D1*
X856661Y1137434D1*
X856528Y1137702D1*
X856428Y1138003D1*
X856394Y1138171D1*
Y1145290D1*
X856428Y1145458D1*
X856528Y1145759D1*
X856661Y1146026D1*
X856728Y1146126D1*
X856829Y1146260D1*
X857130Y1146560D1*
X857264Y1146661D1*
X857364Y1146728D1*
X857631Y1146861D1*
X857932Y1146962D1*
X858100Y1146995D1*
X858802D1*
G37*
G36*
X846064D2*
X846232Y1146962D1*
X846533Y1146861D1*
X846799Y1146728D1*
X846900Y1146661D1*
X847034Y1146560D1*
X847335Y1146260D1*
X847434Y1146126D1*
X847501Y1146026D1*
X847635Y1145759D1*
X847736Y1145458D1*
X847769Y1145290D1*
Y1138171D1*
X847736Y1138003D1*
X847635Y1137702D1*
X847501Y1137434D1*
X847434Y1137335D1*
X847335Y1137201D1*
X847034Y1136900D1*
X846900Y1136801D1*
X846799Y1136734D1*
X846533Y1136600D1*
X846232Y1136499D1*
X846064Y1136466D1*
X845362D1*
X845196Y1136499D1*
X844894Y1136600D1*
X844627Y1136734D1*
X844526Y1136801D1*
X844392Y1136900D1*
X844092Y1137201D1*
X843992Y1137335D1*
X843925Y1137434D1*
X843791Y1137702D1*
X843690Y1138003D1*
X843657Y1138171D1*
Y1145290D1*
X843690Y1145458D1*
X843791Y1145759D1*
X843925Y1146026D1*
X843992Y1146126D1*
X844092Y1146260D1*
X844392Y1146560D1*
X844526Y1146661D1*
X844627Y1146728D1*
X844894Y1146861D1*
X845196Y1146962D1*
X845362Y1146995D1*
X846064D1*
G37*
G36*
X853252Y1088765D2*
X853453Y1088564D1*
X853520Y1088530D1*
X854289Y1087761D1*
X854622Y1087394D1*
X854857Y1087127D1*
X855058Y1086892D1*
X855458Y1086391D1*
X855959Y1085723D1*
X856093Y1085522D1*
X856194Y1085388D1*
X856594Y1084786D1*
X856629Y1084720D1*
X856762Y1084520D1*
X856795Y1084453D1*
X856929Y1084252D1*
X856963Y1084185D1*
X857029Y1084084D1*
X857096Y1083951D1*
X857163Y1083850D1*
X857230Y1083718D1*
X857297Y1083617D1*
X857364Y1083483D1*
X857430Y1083383D1*
X857598Y1083049D1*
X857665Y1082949D1*
X858133Y1082012D1*
X858167Y1081912D1*
X858333Y1081577D1*
X858366Y1081478D1*
X858500Y1081210D1*
X858534Y1081110D1*
X858601Y1080976D1*
X858634Y1080875D1*
X858668Y1080808D1*
X858701Y1080709D1*
X858768Y1080575D1*
X858802Y1080475D1*
X858835Y1080408D1*
X858869Y1080307D1*
X858902Y1080240D1*
X858936Y1080140D1*
X858969Y1080073D1*
X859035Y1079873D1*
X859068Y1079806D1*
X859135Y1079605D1*
X859169Y1079538D1*
X859236Y1079339D1*
X859269Y1079272D1*
X859705Y1077967D1*
X859738Y1077833D1*
X859804Y1077634D1*
X859837Y1077500D1*
X859904Y1077299D1*
X859938Y1077165D1*
X859971Y1077064D1*
X860038Y1076798D1*
X860072Y1076697D1*
X860339Y1075627D1*
X860373Y1075461D1*
X860406Y1075327D1*
X860440Y1075160D1*
X860472Y1075026D1*
X860673Y1074024D1*
X860707Y1073823D1*
X860740Y1073655D1*
X860841Y1073054D1*
X860974Y1072118D1*
X861008Y1071850D1*
X861075Y1071249D1*
X861108Y1070915D1*
X861142Y1070513D1*
X861175Y1070045D1*
X861209Y1069444D1*
Y1066836D1*
X861175Y1066268D1*
X861142Y1065833D1*
X861108Y1065466D1*
X861075Y1065165D1*
X861008Y1064630D1*
X860941Y1064163D1*
X860907Y1063995D1*
X860841Y1063593D1*
X860774Y1063260D1*
X860740Y1063126D1*
X860707Y1062958D1*
X860673Y1062824D1*
X860640Y1062657D1*
X860573Y1062391D1*
X860539Y1062290D1*
X860507Y1062156D1*
X860472Y1062056D1*
X860440Y1061923D1*
X860373Y1061722D1*
X860339Y1061588D1*
X860239Y1061287D1*
X860205Y1061220D1*
X860138Y1061020D1*
X860105Y1060953D1*
X860072Y1060853D1*
X860038Y1060786D1*
X860005Y1060686D1*
X859971Y1060619D1*
X859938Y1060518D1*
X859504Y1059650D1*
X859437Y1059549D1*
X859403Y1059482D1*
X859135Y1059081D1*
X858936Y1058814D1*
X858768Y1058613D1*
X858400Y1058245D1*
X858199Y1058079D1*
X858066Y1057978D1*
X857865Y1057844D1*
X857398Y1057610D1*
X857230Y1057543D1*
X857130Y1057509D1*
X856862Y1057444D1*
X856696Y1057409D1*
X856394Y1057377D1*
X855959D1*
X855693Y1057409D1*
X855291Y1057509D1*
X854957Y1057643D1*
X854823Y1057710D1*
X854589Y1057844D1*
X854388Y1057978D1*
X854255Y1058079D1*
X854054Y1058245D1*
X853552Y1058747D1*
X853386Y1058948D1*
X853252Y1059114D1*
X853152Y1059248D1*
X853085Y1059348D1*
X852984Y1059482D1*
X852951Y1059549D1*
X852751Y1059850D1*
X852684Y1059983D1*
X852617Y1060084D1*
X852550Y1060218D1*
X852483Y1060318D1*
X852182Y1060920D1*
X852148Y1061020D1*
X852049Y1061220D1*
X852016Y1061320D1*
X851949Y1061454D1*
X851915Y1061555D1*
X851882Y1061622D1*
X851848Y1061722D1*
X851815Y1061789D1*
X851781Y1061888D1*
X851748Y1061955D1*
X851647Y1062257D1*
X851614Y1062324D1*
X851413Y1062925D1*
X851379Y1063059D1*
X851312Y1063260D1*
X851280Y1063394D1*
X851247Y1063493D1*
X851213Y1063627D1*
X851180Y1063727D1*
X850945Y1064663D1*
X850912Y1064831D1*
X850878Y1064965D1*
X850677Y1065967D1*
X850543Y1066769D1*
X850478Y1067238D1*
X850377Y1068039D1*
X850310Y1068642D1*
X850277Y1069009D1*
X850243Y1069411D1*
X850210Y1069845D1*
X850176Y1070413D1*
X850143Y1071081D1*
X850110Y1072486D1*
Y1073322D1*
X850143Y1074825D1*
X850176Y1075594D1*
X850210Y1076196D1*
X850243Y1076664D1*
X850277Y1077098D1*
X850310Y1077500D1*
X850344Y1077867D1*
X850377Y1078168D1*
X850411Y1078503D1*
X850444Y1078769D1*
X850478Y1079071D1*
X850510Y1079304D1*
X850543Y1079572D1*
X850610Y1080041D1*
X850644Y1080240D1*
X850677Y1080475D1*
X850778Y1081076D1*
X850811Y1081243D1*
X850845Y1081444D1*
X851046Y1082446D1*
X851079Y1082580D1*
X851113Y1082748D1*
X851146Y1082882D1*
X851180Y1083049D1*
X851413Y1083984D1*
X851446Y1084084D1*
X851513Y1084352D1*
X851547Y1084453D1*
X851580Y1084587D1*
X851647Y1084786D1*
X851681Y1084920D1*
X851815Y1085322D1*
X851848Y1085455D1*
X851949Y1085756D1*
X851982Y1085823D1*
X852148Y1086324D1*
X852182Y1086391D1*
X852249Y1086592D1*
X852282Y1086659D1*
X852316Y1086759D1*
X852349Y1086825D1*
X852383Y1086927D1*
X852416Y1086993D1*
X852449Y1087093D1*
X852516Y1087227D1*
X852550Y1087327D1*
X852583Y1087394D1*
X852617Y1087495D1*
X852717Y1087694D1*
X852751Y1087795D1*
X853218Y1088731D1*
X853252Y1088765D1*
G37*
X751730Y1170239D2*
D33*
X743108D1*
X740256Y1171190D1*
X739284Y1172162D1*
X738333Y1174064D1*
Y1176938D1*
X739284Y1178839D1*
X740256Y1179812D1*
X743108Y1180762D1*
X751730D1*
Y1160666D1*
X724809Y1174064D2*
X726710Y1173113D1*
X728633Y1171190D1*
X729584Y1168315D1*
Y1166414D1*
X728633Y1163540D1*
X726710Y1161639D1*
X724809Y1160666D1*
X721935D1*
X720011Y1161639D1*
X718110Y1163540D1*
X717137Y1166414D1*
Y1168315D1*
X718110Y1171190D1*
X720011Y1173113D1*
X721935Y1174064D1*
X724809D1*
X703613D2*
X705514Y1173113D1*
X707438Y1171190D1*
X708388Y1168315D1*
Y1166414D1*
X707438Y1163540D1*
X705514Y1161639D1*
X703613Y1160666D1*
X700739D1*
X698816Y1161639D1*
X696915Y1163540D1*
X695942Y1166414D1*
Y1168315D1*
X696915Y1171190D1*
X698816Y1173113D1*
X700739Y1174064D1*
X703613D1*
X687193D2*
X683368Y1160666D1*
X679544Y1174064D1*
X675719Y1160666D1*
X671894Y1174064D1*
X655496Y1180762D2*
X657397D1*
X659321Y1179812D1*
X660271Y1176938D1*
Y1160666D1*
X663145Y1174064D2*
X656447D1*
X624734Y1180762D2*
Y1160666D1*
X613260D1*
X593037Y1174064D2*
Y1160666D1*
Y1171190D2*
X594938Y1173113D1*
X596861Y1174064D1*
X599713D1*
X601637Y1173113D1*
X603538Y1171190D1*
X604511Y1168315D1*
Y1166414D1*
X603538Y1163540D1*
X601637Y1161639D1*
X599713Y1160666D1*
X596861D1*
X594938Y1161639D1*
X593037Y1163540D1*
X584288Y1180762D2*
Y1160666D1*
Y1171190D2*
X582364Y1173113D1*
X580463Y1174064D1*
X577589D1*
X575688Y1173113D1*
X573765Y1171190D1*
X572814Y1168315D1*
Y1166414D1*
X573765Y1163540D1*
X575688Y1161639D1*
X577589Y1160666D1*
X580463D1*
X582364Y1161639D1*
X584288Y1163540D1*
X553542Y1171190D2*
X554492Y1173113D1*
X557366Y1174064D1*
X560240D1*
X563114Y1173113D1*
X564065Y1171190D1*
X563114Y1169288D1*
X561191Y1168315D1*
X556416Y1167365D1*
X554492Y1166414D1*
X553542Y1164491D1*
Y1163540D1*
X554492Y1161639D1*
X557366Y1160666D1*
X560240D1*
X563114Y1161639D1*
X564065Y1163540D1*
X736410Y1121423D2*
X744081Y1141519D1*
X751730Y1121423D1*
X748856Y1128122D2*
X739284D1*
X714263Y1138645D2*
X716165Y1140569D1*
X719039Y1141519D1*
X722863D1*
X725737Y1140569D1*
X727661Y1138645D1*
Y1136744D1*
X726688Y1134821D1*
X725737Y1133870D1*
X723836Y1132919D1*
X718088Y1130996D1*
X716165Y1130045D1*
X715214Y1129073D1*
X714263Y1127171D1*
Y1124297D1*
X716165Y1122396D1*
X719039Y1121423D1*
X722863D1*
X725737Y1122396D1*
X727661Y1124297D1*
X705514Y1131947D2*
X696915D1*
X694041Y1132919D1*
X693068Y1133870D1*
X692117Y1135771D1*
Y1137695D1*
X693068Y1139596D1*
X694041Y1140569D1*
X696915Y1141519D1*
X705514D1*
Y1121423D1*
X698816Y1131947D2*
X692117Y1121423D1*
X678593Y1134821D2*
X680494Y1133870D1*
X682418Y1131947D1*
X683368Y1129073D1*
Y1127171D1*
X682418Y1124297D1*
X680494Y1122396D1*
X678593Y1121423D1*
X675719D1*
X673796Y1122396D1*
X671894Y1124297D1*
X670922Y1127171D1*
Y1129073D1*
X671894Y1131947D1*
X673796Y1133870D1*
X675719Y1134821D1*
X678593D1*
X650677Y1131947D2*
X652600Y1133870D1*
X654523Y1134821D1*
X657375D1*
X659299Y1133870D1*
X661200Y1131947D1*
X662173Y1129073D1*
Y1127171D1*
X661200Y1124297D1*
X659299Y1122396D1*
X657375Y1121423D1*
X654523D1*
X652600Y1122396D1*
X650677Y1124297D1*
X641928Y1141519D2*
Y1121423D1*
X632355Y1134821D2*
X641928Y1125248D1*
X638103Y1129073D2*
X631404Y1121423D1*
X600642Y1137673D2*
X598718Y1138645D1*
X595844Y1141497D1*
Y1121423D1*
X577523D2*
Y1141497D1*
X587096Y1128122D1*
X572748D1*
X563999Y1131460D2*
X552945D1*
X544196Y1130996D2*
X535574D1*
X532722Y1131947D1*
X531749Y1132919D1*
X530799Y1134821D1*
Y1137695D1*
X531749Y1139596D1*
X532722Y1140569D1*
X535574Y1141519D1*
X544196D1*
Y1121423D1*
X522050Y1141519D2*
Y1121423D1*
X499903Y1141519D2*
Y1121423D1*
X513301Y1141519D1*
Y1121423D1*
X751730Y1102276D2*
Y1082180D1*
X742981Y1095578D2*
Y1082180D1*
Y1091753D2*
X740107Y1094627D1*
X738184Y1095578D1*
X735332D1*
X733409Y1094627D1*
X732458Y1091753D1*
Y1082180D1*
X716060Y1102276D2*
X717961D1*
X719885Y1101326D1*
X720835Y1098452D1*
Y1082180D1*
X723709Y1095578D2*
X717011D1*
X707311Y1102276D2*
X706360Y1101326D1*
X705388Y1102276D1*
X706360Y1103249D1*
X707311Y1102276D1*
X706360Y1095578D2*
Y1082180D1*
X696639Y1095578D2*
Y1082180D1*
Y1091753D2*
X693765Y1094627D1*
X691841Y1095578D1*
X688989D1*
X687066Y1094627D1*
X686115Y1091753D1*
Y1082180D1*
X677366Y1089830D2*
X665893D1*
Y1091753D1*
X666843Y1093677D1*
X667794Y1094627D1*
X669717Y1095578D1*
X672591D1*
X674492Y1094627D1*
X676416Y1092704D1*
X677366Y1089830D1*
Y1087929D1*
X676416Y1085055D1*
X674492Y1083153D1*
X672591Y1082180D1*
X669717D1*
X667794Y1083153D1*
X665893Y1085055D1*
X652368Y1095578D2*
X654270Y1094627D1*
X656193Y1092704D1*
X657144Y1089830D1*
Y1087929D1*
X656193Y1085055D1*
X654270Y1083153D1*
X652368Y1082180D1*
X649494D1*
X647571Y1083153D1*
X645670Y1085055D1*
X644697Y1087929D1*
Y1089830D1*
X645670Y1092704D1*
X647571Y1094627D1*
X649494Y1095578D1*
X652368D1*
X635948D2*
Y1082180D1*
Y1091753D2*
X633074Y1094627D1*
X631151Y1095578D1*
X628299D1*
X626375Y1094627D1*
X625425Y1091753D1*
Y1082180D1*
X587964Y1102276D2*
Y1082180D1*
X594662Y1102276D2*
X581265D1*
X572516Y1091753D2*
X563894D1*
X561042Y1092704D1*
X560069Y1093677D1*
X559119Y1095578D1*
Y1098452D1*
X560069Y1100353D1*
X561042Y1101326D1*
X563894Y1102276D1*
X572516D1*
Y1082180D1*
X535071D2*
Y1102276D1*
X542720Y1082180D1*
X550370Y1102276D1*
Y1082180D1*
X503336Y1097479D2*
Y1098430D1*
X502385Y1100353D1*
X501435Y1101304D1*
X499511Y1102254D1*
X495687D1*
X493785Y1101304D1*
X492835Y1100353D1*
X491862Y1098430D1*
Y1096528D1*
X492835Y1094605D1*
X494736Y1091753D1*
X504309Y1082180D1*
X490911D1*
X481212Y1084104D2*
X482162Y1083131D1*
X481212Y1082180D1*
X480239Y1083131D1*
X481212Y1084104D1*
X465742Y1102254D2*
X468616Y1101304D1*
X470539Y1098430D1*
X471490Y1093654D1*
Y1090780D1*
X470539Y1086005D1*
X468616Y1083131D1*
X465742Y1082180D1*
X463841D1*
X460967Y1083131D1*
X459065Y1086005D1*
X458093Y1090780D1*
Y1093654D1*
X459065Y1098430D1*
X460967Y1101304D1*
X463841Y1102254D1*
X465742D1*
X459065Y1098430D2*
X470539Y1086005D1*
X751730Y1063034D2*
Y1042938D1*
X743108D1*
X740234Y1043910D1*
X739284Y1044861D1*
X738333Y1046762D1*
Y1049636D1*
X739284Y1051560D1*
X740234Y1052510D1*
X743108Y1053461D1*
X740234Y1054434D1*
X739284Y1055384D1*
X738333Y1057286D1*
Y1059209D1*
X739284Y1061110D1*
X740234Y1062083D1*
X743108Y1063034D1*
X751730D1*
Y1053461D2*
X743108D1*
X724809Y1056335D2*
X726710Y1055384D1*
X728633Y1053461D1*
X729584Y1050587D1*
Y1048686D1*
X728633Y1045812D1*
X726710Y1043910D1*
X724809Y1042938D1*
X721935D1*
X720011Y1043910D1*
X718110Y1045812D1*
X717137Y1048686D1*
Y1050587D1*
X718110Y1053461D1*
X720011Y1055384D1*
X721935Y1056335D1*
X724809D1*
X696915D2*
Y1042938D1*
Y1053461D2*
X698816Y1055384D1*
X700739Y1056335D1*
X703591D1*
X705514Y1055384D1*
X707416Y1053461D1*
X708388Y1050587D1*
Y1048686D1*
X707416Y1045812D1*
X705514Y1043910D1*
X703591Y1042938D1*
X700739D1*
X698816Y1043910D1*
X696915Y1045812D1*
X688166Y1056335D2*
Y1042938D1*
Y1050587D2*
X687193Y1053461D1*
X685292Y1055384D1*
X683368Y1056335D1*
X680494D1*
X660271Y1063034D2*
Y1042938D1*
Y1053461D2*
X662173Y1055384D1*
X664096Y1056335D1*
X666970D1*
X668871Y1055384D1*
X670795Y1053461D1*
X671745Y1050587D1*
Y1048686D1*
X670795Y1045812D1*
X668871Y1043910D1*
X666970Y1042938D1*
X664096D1*
X662173Y1043910D1*
X660271Y1045812D1*
X629509Y1053461D2*
X620909D1*
X618035Y1054434D1*
X617062Y1055384D1*
X616112Y1057286D1*
Y1059209D1*
X617062Y1061110D1*
X618035Y1062083D1*
X620909Y1063034D1*
X629509D1*
Y1042938D1*
X622810Y1053461D2*
X616112Y1042938D1*
X607363Y1050587D2*
X595889D1*
Y1052510D1*
X596839Y1054434D1*
X597790Y1055384D1*
X599713Y1056335D1*
X602587D1*
X604489Y1055384D1*
X606412Y1053461D1*
X607363Y1050587D1*
Y1048686D1*
X606412Y1045812D1*
X604489Y1043910D1*
X602587Y1042938D1*
X599713D1*
X597790Y1043910D1*
X595889Y1045812D1*
X587140Y1056335D2*
X581392Y1042938D1*
X575666Y1056335D1*
X544903Y1059187D2*
X542980Y1060160D1*
X540106Y1063012D1*
Y1042938D1*
X530406Y1044861D2*
X531357Y1043888D1*
X530406Y1042938D1*
X529434Y1043888D1*
X530406Y1044861D1*
X514937Y1063012D2*
X517811Y1062061D1*
X519734Y1059187D1*
X520685Y1054412D1*
Y1051538D1*
X519734Y1046762D1*
X517811Y1043888D1*
X514937Y1042938D1*
X513035D1*
X510161Y1043888D1*
X508260Y1046762D1*
X507287Y1051538D1*
Y1054412D1*
X508260Y1059187D1*
X510161Y1062061D1*
X513035Y1063012D1*
X514937D1*
X508260Y1059187D2*
X519734Y1046762D1*
M02*
