M48
INCH
T01C0.0191
T02C0.0366
%
T01
X+006657Y+008709
X+006205Y+009315
X+005177Y+008370
X+006055Y+006859
X+007484Y+007161
X+008268Y+007118
X+008340Y+009096
X+008634Y+009650
X+007733Y+009402
T02
X+009205Y+005537
X+009205Y+006325
X+008417Y+006325
X+008417Y+005537
X+007630Y+005537
X+007630Y+006325
X+006843Y+006325
X+006843Y+005537
X+006055Y+005537
X+006055Y+006325
X+005268Y+006325
X+005268Y+005537
X+004480Y+005537
X+004480Y+006325
T00
M30
