G04 DipTrace 4.1.3.1*
G04 TopMask.gbr*
%MOIN*%
G04 #@! TF.FileFunction,Soldermask,Top*
G04 #@! TF.Part,Single*
%AMOUTLINE1*
4,1,28,
-0.023031,-0.009775,
-0.023032,0.009774,
-0.022659,0.012604,
-0.021517,0.015362,
-0.0197,0.01773,
-0.017332,0.019547,
-0.014574,0.02069,
-0.011744,0.021063,
0.011742,0.021063,
0.014573,0.020691,
0.017331,0.019549,
0.019699,0.017732,
0.021516,0.015364,
0.022658,0.012606,
0.023031,0.009775,
0.023032,-0.009774,
0.022659,-0.012604,
0.021517,-0.015362,
0.0197,-0.01773,
0.017332,-0.019547,
0.014574,-0.02069,
0.011744,-0.021063,
-0.011742,-0.021063,
-0.014573,-0.020691,
-0.017331,-0.019549,
-0.019699,-0.017732,
-0.021516,-0.015364,
-0.022658,-0.012606,
-0.023031,-0.009775,
0*%
%AMOUTLINE4*
4,1,28,
0.023031,0.009775,
0.023032,-0.009774,
0.022659,-0.012604,
0.021517,-0.015362,
0.0197,-0.01773,
0.017332,-0.019547,
0.014574,-0.02069,
0.011744,-0.021063,
-0.011742,-0.021063,
-0.014573,-0.020691,
-0.017331,-0.019549,
-0.019699,-0.017732,
-0.021516,-0.015364,
-0.022658,-0.012606,
-0.023031,-0.009775,
-0.023032,0.009774,
-0.022659,0.012604,
-0.021517,0.015362,
-0.0197,0.01773,
-0.017332,0.019547,
-0.014574,0.02069,
-0.011744,0.021063,
0.011742,0.021063,
0.014573,0.020691,
0.017331,0.019549,
0.019699,0.017732,
0.021516,0.015364,
0.022658,0.012606,
0.023031,0.009775,
0*%
%AMOUTLINE7*
4,1,28,
-0.023031,-0.008594,
-0.023032,0.008593,
-0.022699,0.011118,
-0.021675,0.013591,
-0.020046,0.015714,
-0.017922,0.017344,
-0.015449,0.018368,
-0.012925,0.018701,
0.012924,0.018701,
0.015449,0.018369,
0.017922,0.017344,
0.020045,0.015715,
0.021675,0.013592,
0.022699,0.011119,
0.023031,0.008594,
0.023032,-0.008593,
0.022699,-0.011118,
0.021675,-0.013591,
0.020046,-0.015714,
0.017922,-0.017344,
0.015449,-0.018368,
0.012925,-0.018701,
-0.012924,-0.018701,
-0.015449,-0.018369,
-0.017922,-0.017344,
-0.020045,-0.015715,
-0.021675,-0.013592,
-0.022699,-0.011119,
-0.023031,-0.008594,
0*%
%AMOUTLINE10*
4,1,28,
0.023031,0.008594,
0.023032,-0.008593,
0.022699,-0.011118,
0.021675,-0.013591,
0.020046,-0.015714,
0.017922,-0.017344,
0.015449,-0.018368,
0.012925,-0.018701,
-0.012924,-0.018701,
-0.015449,-0.018369,
-0.017922,-0.017344,
-0.020045,-0.015715,
-0.021675,-0.013592,
-0.022699,-0.011119,
-0.023031,-0.008594,
-0.023032,0.008593,
-0.022699,0.011118,
-0.021675,0.013591,
-0.020046,0.015714,
-0.017922,0.017344,
-0.015449,0.018368,
-0.012925,0.018701,
0.012924,0.018701,
0.015449,0.018369,
0.017922,0.017344,
0.020045,0.015715,
0.021675,0.013592,
0.022699,0.011119,
0.023031,0.008594,
0*%
%ADD26C,0.059055*%
%ADD28R,0.059055X0.059055*%
%ADD30R,0.015354X0.057087*%
%ADD35OUTLINE1*%
%ADD38OUTLINE4*%
%ADD41OUTLINE7*%
%ADD44OUTLINE10*%
%FSLAX26Y26*%
G04*
G70*
G90*
G75*
G01*
G04 TopMask*
%LPD*%
D30*
X799401Y1002572D3*
X773810Y1002570D3*
X748219Y1002568D3*
X722629Y1002566D3*
X697038Y1002564D3*
X671448Y1002562D3*
X645857Y1002560D3*
X620267Y1002558D3*
X594676Y1002556D3*
X569086Y1002554D3*
X543495Y1002552D3*
X517905Y1002550D3*
X492314Y1002548D3*
X466723Y1002546D3*
X466741Y772231D3*
X492332Y772233D3*
X517922Y772235D3*
X543513Y772237D3*
X569103Y772239D3*
X594694Y772241D3*
X620284Y772243D3*
X645875Y772245D3*
X671466Y772247D3*
X697056Y772249D3*
X722647Y772251D3*
X748237Y772253D3*
X773828Y772255D3*
X799418Y772257D3*
D28*
X920472Y553740D3*
D26*
Y632480D3*
X841732Y553740D3*
Y632480D3*
X762992Y553740D3*
Y632480D3*
X684252Y553740D3*
Y632480D3*
X605512Y553740D3*
Y632480D3*
X526772Y553740D3*
Y632480D3*
X448031Y553740D3*
Y632480D3*
D35*
X490157Y1133071D3*
D38*
X490155Y1196063D3*
D35*
X590158Y1133071D3*
D38*
X590155Y1196063D3*
D35*
X690158Y1133071D3*
D38*
X690155Y1196063D3*
D35*
X790158Y1133071D3*
D38*
X790155Y1196063D3*
D35*
X890159Y1133071D3*
D38*
X890156Y1196063D3*
D41*
X921654Y967471D3*
D44*
X921653Y1034007D3*
D41*
X921802Y817520D3*
D44*
X921799Y884055D3*
M02*
