G04 DipTrace 4.1.3.1*
G04 TopSilk.gbr*
%MOIN*%
G04 #@! TF.FileFunction,Legend,Top*
G04 #@! TF.Part,Single*
%ADD10C,0.004724*%
%ADD16C,0.005906*%
%ADD32C,0.003088*%
%FSLAX26Y26*%
G04*
G70*
G90*
G75*
G01*
G04 TopSilk*
%LPD*%
X440182Y823269D2*
D10*
X825970Y823298D1*
X440172Y951505D2*
X825960Y951535D1*
X825970Y823298D2*
X825960Y951535D1*
X440182Y823269D2*
X440179Y866654D1*
X440176Y908119D2*
X440172Y951505D1*
X440179Y866654D2*
G03X440176Y908119I-1088J20732D01*
G01*
X393898Y677215D2*
Y393751D1*
X974606D1*
Y677215D1*
G36*
X983858Y553740D2*
X983942Y555025D1*
X984194Y556288D1*
X984607Y557507D1*
X985177Y558661D1*
X985892Y559732D1*
X986741Y560700D1*
X987709Y561549D1*
X988780Y562264D1*
X989934Y562833D1*
X991153Y563247D1*
X992416Y563498D1*
X993701Y563583D1*
X994985Y563498D1*
X996248Y563247D1*
X997467Y562833D1*
X998622Y562264D1*
X999693Y561549D1*
X1000660Y560700D1*
X1001509Y559732D1*
X1002225Y558661D1*
X1002794Y557507D1*
X1003208Y556288D1*
X1003459Y555025D1*
X1003543Y553740D1*
D1*
X1003459Y552455D1*
X1003208Y551193D1*
X1002794Y549974D1*
X1002225Y548819D1*
X1001509Y547748D1*
X1000660Y546780D1*
X999693Y545932D1*
X998622Y545216D1*
X997467Y544647D1*
X996248Y544233D1*
X994985Y543982D1*
X993701Y543898D1*
X992416Y543982D1*
X991153Y544233D1*
X989934Y544647D1*
X988780Y545216D1*
X987709Y545932D1*
X986741Y546780D1*
X985892Y547748D1*
X985177Y548819D1*
X984607Y549974D1*
X984194Y551193D1*
X983942Y552455D1*
X983858Y553740D1*
D1*
G37*
X471259Y1161023D2*
D16*
X471258Y1168110D1*
X509054Y1161024D2*
Y1168111D1*
X571259Y1161023D2*
X571258Y1168109D1*
X609054Y1161025D2*
Y1168111D1*
X671259Y1161023D2*
X671258Y1168109D1*
X709054Y1161025D2*
Y1168111D1*
X771259Y1161023D2*
X771258Y1168109D1*
X809054Y1161025D2*
Y1168111D1*
X871260Y1161023D2*
Y1168109D1*
X909055Y1161025D2*
Y1168111D1*
X872050Y1105117D2*
X908271Y1105119D1*
X902756Y992864D2*
Y1008613D1*
X940551Y992865D2*
Y1008613D1*
X902903Y842912D2*
Y858661D1*
X940699Y842914D2*
X940698Y858662D1*
X586707Y468807D2*
D32*
Y453508D1*
X585757Y450634D1*
X584784Y449684D1*
X582883Y448711D1*
X580959D1*
X579058Y449684D1*
X578107Y450634D1*
X577134Y453508D1*
Y455410D1*
X592883Y468807D2*
Y448711D1*
X604357D1*
X624880Y464032D2*
X623930Y465933D1*
X622006Y467856D1*
X620105Y468807D1*
X616281D1*
X614357Y467856D1*
X612456Y465933D1*
X611483Y464032D1*
X610533Y461158D1*
Y456360D1*
X611483Y453508D1*
X612456Y451585D1*
X614357Y449684D1*
X616281Y448711D1*
X620105D1*
X622006Y449684D1*
X623930Y451585D1*
X624880Y453508D1*
X640629Y468807D2*
Y453508D1*
X639678Y450634D1*
X638705Y449684D1*
X636804Y448711D1*
X634881D1*
X632980Y449684D1*
X632029Y450634D1*
X631056Y453508D1*
Y455410D1*
X646805Y468807D2*
Y448711D1*
X658279D1*
X678802Y464032D2*
X677852Y465933D1*
X675928Y467856D1*
X674027Y468807D1*
X670202D1*
X668279Y467856D1*
X666378Y465933D1*
X665405Y464032D1*
X664454Y461158D1*
Y456360D1*
X665405Y453508D1*
X666378Y451585D1*
X668279Y449684D1*
X670202Y448711D1*
X674027D1*
X675928Y449684D1*
X677852Y451585D1*
X678802Y453508D1*
X694551Y468807D2*
Y453508D1*
X693600Y450634D1*
X692627Y449684D1*
X690726Y448711D1*
X688803D1*
X686901Y449684D1*
X685951Y450634D1*
X684978Y453508D1*
Y455410D1*
X700726Y468807D2*
Y448711D1*
X712200D1*
X732724Y464032D2*
X731773Y465933D1*
X729850Y467856D1*
X727949Y468807D1*
X724124D1*
X722201Y467856D1*
X720299Y465933D1*
X719327Y464032D1*
X718376Y461158D1*
Y456360D1*
X719327Y453508D1*
X720299Y451585D1*
X722201Y449684D1*
X724124Y448711D1*
X727949D1*
X729850Y449684D1*
X731773Y451585D1*
X732724Y453508D1*
X748472Y468807D2*
Y453508D1*
X747522Y450634D1*
X746549Y449684D1*
X744648Y448711D1*
X742724D1*
X740823Y449684D1*
X739872Y450634D1*
X738900Y453508D1*
Y455410D1*
X754648Y468807D2*
Y448711D1*
X766122D1*
X786646Y464032D2*
X785695Y465933D1*
X783772Y467856D1*
X781870Y468807D1*
X778046D1*
X776122Y467856D1*
X774221Y465933D1*
X773248Y464032D1*
X772298Y461158D1*
Y456360D1*
X773248Y453508D1*
X774221Y451585D1*
X776122Y449684D1*
X778046Y448711D1*
X781870D1*
X783772Y449684D1*
X785695Y451585D1*
X786646Y453508D1*
X410889Y875199D2*
X425237Y875200D1*
X428111Y876151D1*
X430012Y878075D1*
X430984Y880949D1*
Y882850D1*
X430011Y885724D1*
X428110Y887647D1*
X425236Y888598D1*
X410888Y888597D1*
X414734Y894773D2*
X413761Y896696D1*
X410909Y899570D1*
X430983Y899571D1*
X692016Y706504D2*
Y691206D1*
X691066Y688332D1*
X690093Y687381D1*
X688192Y686408D1*
X686268D1*
X684367Y687381D1*
X683416Y688332D1*
X682444Y691206D1*
Y693107D1*
X698192Y702658D2*
X700115Y703630D1*
X702989Y706482D1*
Y686408D1*
X428634Y1166252D2*
X426733Y1165302D1*
X424810Y1163378D1*
X423859Y1161477D1*
Y1157652D1*
X424810Y1155729D1*
X426733Y1153828D1*
X428635Y1152855D1*
X431509Y1151904D1*
X436306Y1151905D1*
X439158Y1152855D1*
X441081Y1153828D1*
X442983Y1155729D1*
X443955Y1157653D1*
Y1161478D1*
X442982Y1163379D1*
X441081Y1165302D1*
X439158Y1166253D1*
X427706Y1172428D2*
X426733Y1174351D1*
X423881Y1177225D1*
X443955Y1177226D1*
X528634Y1161951D2*
X526733Y1161001D1*
X524810Y1159077D1*
X523859Y1157176D1*
X523860Y1153351D1*
X524810Y1151428D1*
X526734Y1149527D1*
X528635Y1148554D1*
X531509Y1147604D1*
X536307D1*
X539158Y1148555D1*
X541082Y1149527D1*
X542983Y1151429D1*
X543956Y1153352D1*
X543955Y1157177D1*
X542983Y1159078D1*
X541081Y1161001D1*
X539158Y1161952D1*
X528656Y1169100D2*
X527706D1*
X525782Y1170050D1*
X524831Y1171001D1*
X523881Y1172924D1*
Y1176749D1*
X524831Y1178650D1*
X525782Y1179601D1*
X527705Y1180574D1*
X529606D1*
X531530Y1179601D1*
X534382Y1177700D1*
X543955Y1168128D1*
X543954Y1181525D1*
X628634Y1161951D2*
X626733Y1161001D1*
X624810Y1159077D1*
X623859Y1157176D1*
X623860Y1153351D1*
X624810Y1151428D1*
X626734Y1149527D1*
X628635Y1148554D1*
X631509Y1147604D1*
X636307D1*
X639158Y1148555D1*
X641082Y1149527D1*
X642983Y1151429D1*
X643956Y1153352D1*
X643955Y1157177D1*
X642983Y1159078D1*
X641081Y1161001D1*
X639158Y1161952D1*
X623881Y1170050D2*
X623880Y1180552D1*
X631530Y1174826D1*
Y1177700D1*
X632480Y1179601D1*
X633431Y1180552D1*
X636305Y1181525D1*
X638206D1*
X641080Y1180552D1*
X643004Y1178651D1*
X643955Y1175777D1*
Y1172903D1*
X643004Y1170051D1*
X642031Y1169101D1*
X640130Y1168128D1*
X728634Y1161476D2*
X726733Y1160525D1*
X724810Y1158602D1*
X723859Y1156701D1*
X723860Y1152876D1*
X724810Y1150953D1*
X726734Y1149051D1*
X728635Y1148079D1*
X731509Y1147128D1*
X736307Y1147129D1*
X739158Y1148079D1*
X741082Y1149052D1*
X742983Y1150954D1*
X743956Y1152877D1*
X743955Y1156702D1*
X742983Y1158603D1*
X741081Y1160526D1*
X739158Y1161477D1*
X743954Y1177225D2*
X723881Y1177224D1*
X737256Y1167652D1*
Y1182000D1*
X828636Y1161951D2*
X826735Y1161001D1*
X824811Y1159077D1*
X823861Y1157176D1*
Y1153351D1*
X824812Y1151428D1*
X826735Y1149527D1*
X828636Y1148554D1*
X831510Y1147604D1*
X836308D1*
X839160Y1148555D1*
X841083Y1149527D1*
X842984Y1151429D1*
X843957Y1153352D1*
Y1157177D1*
X842984Y1159078D1*
X841083Y1161001D1*
X839159Y1161952D1*
X823882Y1179601D2*
Y1170050D1*
X832482Y1169100D1*
X831532Y1170051D1*
X830559Y1172925D1*
Y1175777D1*
X831531Y1178651D1*
X833432Y1180574D1*
X836306Y1181525D1*
X838208D1*
X841082Y1180574D1*
X843005Y1178651D1*
X843956Y1175777D1*
Y1172925D1*
X843005Y1170051D1*
X842033Y1169101D1*
X840132Y1168128D1*
X864929Y988553D2*
Y997153D1*
X863956Y1000027D1*
X863006Y1000999D1*
X861104Y1001950D1*
X859181D1*
X857280Y1000999D1*
X856307Y1000026D1*
X855357Y997152D1*
Y988552D1*
X875453Y988553D1*
X864929Y995251D2*
X875452Y1001950D1*
X859203Y1008126D2*
X858230Y1010049D1*
X855378Y1012923D1*
X875452D1*
X865077Y834300D2*
X865076Y842899D1*
X864104Y845773D1*
X863153Y846746D1*
X861252Y847697D1*
X859328D1*
X857427Y846746D1*
X856454Y845773D1*
X855504Y842899D1*
Y834299D1*
X875600Y834300D1*
X865077Y840998D2*
X875600Y847697D1*
X860301Y854845D2*
X859350D1*
X857427Y855796D1*
X856476Y856746D1*
X855525Y858669D1*
Y862494D1*
X856476Y864395D1*
X857426Y865346D1*
X859349Y866319D1*
X861251D1*
X863174Y865346D1*
X866026Y863445D1*
X875599Y853873D1*
Y867270D1*
M02*
