G04 DipTrace 4.1.3.1*
G04 2 - Bottom.gbr*
%MOIN*%
G04 #@! TF.FileFunction,Copper,L2,Bot*
G04 #@! TF.Part,Single*
G04 #@! TA.AperFunction,Conductor*
%ADD13C,0.011417*%
%ADD14C,0.005906*%
%ADD15C,0.009843*%
G04 #@! TA.AperFunction,ComponentPad*
%ADD17R,0.055118X0.055118*%
%ADD18C,0.055118*%
G04 #@! TA.AperFunction,ViaPad*
%ADD19C,0.04*%
%FSLAX26Y26*%
G04*
G70*
G90*
G75*
G01*
G04 Bottom*
%LPD*%
X693618Y915005D2*
D14*
Y927786D1*
D15*
X650147Y971257D1*
X545556D1*
X446106Y1070707D1*
D14*
X438807D1*
D15*
Y765875D1*
X485524Y719159D1*
D14*
Y518018D1*
D15*
X535441Y468101D1*
X762756D1*
Y553661D1*
X1077717Y632402D2*
D13*
Y672587D1*
X1085710Y680580D1*
Y990335D1*
X1058311D1*
X1046537Y1002109D1*
X804778D1*
X751606Y948936D1*
Y900537D1*
D14*
X752917D1*
X1036634Y921820D2*
X1036219D1*
Y595159D1*
X1077717Y553661D1*
X899087Y934517D2*
Y821381D1*
X880583Y802877D1*
Y593315D1*
X920236Y553661D1*
X811081Y927799D2*
X802517Y919235D1*
Y592640D1*
X841496Y553661D1*
X850016Y877832D2*
Y838976D1*
X840824Y829784D1*
Y632402D1*
X841496D1*
X990986Y962076D2*
X958757Y929848D1*
Y593881D1*
X998976Y553661D1*
X621394Y903810D2*
X631915D1*
X762756Y772969D1*
Y632402D1*
X517091Y904873D2*
X559577D1*
X612113Y852337D1*
Y851719D1*
X644459Y819373D1*
Y593218D1*
X684016Y553661D1*
X526535Y632402D2*
Y810722D1*
X474154Y863104D1*
Y871606D1*
D19*
X693618Y915005D3*
X438807Y1070707D3*
X752917Y900537D3*
X1085710Y990335D3*
X899087Y934517D3*
X811081Y927799D3*
X850016Y877832D3*
X621394Y903810D3*
X517091Y904873D3*
X474154Y871606D3*
X1036634Y921820D3*
X990986Y962076D3*
D17*
X1077717Y553661D3*
D18*
Y632402D3*
X998976Y553661D3*
Y632402D3*
X920236Y553661D3*
Y632402D3*
X841496Y553661D3*
Y632402D3*
X762756Y553661D3*
Y632402D3*
X684016Y553661D3*
Y632402D3*
X605276Y553661D3*
Y632402D3*
X526535Y553661D3*
Y632402D3*
X447795Y553661D3*
Y632402D3*
M02*
