G04 DipTrace 4.1.3.1*
G04 BottomSilk.gbr*
%MOIN*%
G04 #@! TF.FileFunction,Legend,Bot*
G04 #@! TF.Part,Single*
%ADD32C,0.006562*%
%FSLAX26Y26*%
G04*
G70*
G90*
G75*
G01*
G04 BotSilk*
%LPD*%
G36*
X949232Y995201D2*
Y984138D1*
X949247Y983961D1*
X949262Y983829D1*
X949277Y983711D1*
X949306Y983535D1*
X949350Y983314D1*
X949365Y983255D1*
X949380Y983182D1*
X949394Y983137D1*
X949424Y983020D1*
X949438Y982976D1*
X949453Y982917D1*
X949556Y982608D1*
X949571Y982578D1*
X949600Y982490D1*
X949615Y982461D1*
X949630Y982416D1*
X949659Y982358D1*
X949674Y982314D1*
X949718Y982225D1*
X949733Y982181D1*
X949865Y981916D1*
X949894Y981872D1*
X949939Y981784D1*
X949968Y981740D1*
X949997Y981681D1*
X950056Y981593D1*
X950071Y981563D1*
X950248Y981298D1*
X950292Y981240D1*
X950321Y981195D1*
X950380Y981122D1*
X950424Y981063D1*
X950483Y980989D1*
X950557Y980901D1*
X950645Y980798D1*
X950807Y980622D1*
X950998Y980430D1*
X951174Y980269D1*
X951292Y980166D1*
X951380Y980092D1*
X951439Y980048D1*
X951513Y979989D1*
X951689Y979857D1*
X951822Y979768D1*
X951881Y979724D1*
X951954Y979680D1*
X952043Y979621D1*
X952190Y979533D1*
X952293Y979474D1*
X952454Y979386D1*
X952690Y979268D1*
X952852Y979195D1*
X952955Y979150D1*
X953175Y979062D1*
X953293Y979018D1*
X953602Y978915D1*
X953808Y978856D1*
X954102Y978783D1*
X954397Y978724D1*
X954573Y978694D1*
X954676Y978680D1*
X954794Y978665D1*
X954926Y978650D1*
X955103Y978635D1*
X955338Y978621D1*
X1054119D1*
X1054355Y978635D1*
X1054517Y978650D1*
X1054649Y978665D1*
X1054767Y978680D1*
X1054870Y978694D1*
X1055134Y978738D1*
X1055282Y978768D1*
X1055414Y978797D1*
X1055591Y978841D1*
X1055752Y978886D1*
X1055944Y978944D1*
X1056120Y979003D1*
X1056356Y979092D1*
X1056429Y979121D1*
X1056635Y979209D1*
X1057135Y979459D1*
X1057238Y979518D1*
X1057459Y979651D1*
X1057680Y979798D1*
X1057739Y979842D1*
X1057783Y979871D1*
X1057959Y980004D1*
X1058106Y980121D1*
X1058195Y980195D1*
X1058312Y980298D1*
X1058783Y980769D1*
X1058886Y980886D1*
X1058960Y980975D1*
X1059019Y981048D1*
X1059195Y981284D1*
X1059254Y981372D1*
X1059298Y981431D1*
X1059313Y981460D1*
X1059401Y981593D1*
X1059416Y981622D1*
X1059445Y981666D1*
X1059460Y981696D1*
X1059489Y981740D1*
X1059519Y981799D1*
X1059548Y981843D1*
X1059740Y982225D1*
X1059754Y982269D1*
X1059798Y982358D1*
X1059813Y982402D1*
X1059828Y982431D1*
X1059843Y982475D1*
X1059857Y982505D1*
X1059872Y982549D1*
X1059887Y982578D1*
X1060004Y982931D1*
X1060019Y982990D1*
X1060034Y983034D1*
X1060107Y983329D1*
X1060137Y983476D1*
X1060166Y983652D1*
X1060196Y983858D1*
X1060210Y984005D1*
X1060225Y984211D1*
Y1080474D1*
X1082471Y1080488D1*
X1082824Y1080503D1*
X1082971Y1080518D1*
X1083089Y1080532D1*
X1083192Y1080547D1*
X1083280Y1080562D1*
X1083427Y1080591D1*
X1083559Y1080621D1*
X1083618Y1080635D1*
X1083824Y1080694D1*
X1084089Y1080783D1*
X1084310Y1080871D1*
X1084472Y1080944D1*
X1084619Y1081018D1*
X1084781Y1081106D1*
X1084928Y1081195D1*
X1084972Y1081224D1*
X1085045Y1081268D1*
X1085090Y1081298D1*
X1085148Y1081342D1*
X1085193Y1081371D1*
X1085369Y1081504D1*
X1085443Y1081562D1*
X1085531Y1081636D1*
X1085678Y1081768D1*
X1085884Y1081974D1*
X1086016Y1082121D1*
X1086164Y1082298D1*
X1086252Y1082416D1*
X1086281Y1082460D1*
X1086325Y1082519D1*
X1086443Y1082695D1*
X1086458Y1082725D1*
X1086487Y1082769D1*
X1086502Y1082798D1*
X1086531Y1082842D1*
X1086561Y1082901D1*
X1086590Y1082945D1*
X1086752Y1083269D1*
X1086767Y1083313D1*
X1086796Y1083372D1*
X1086811Y1083416D1*
X1086826Y1083446D1*
X1086840Y1083490D1*
X1086855Y1083519D1*
X1086870Y1083563D1*
X1086885Y1083593D1*
X1086958Y1083813D1*
X1086973Y1083872D1*
X1086987Y1083916D1*
X1087002Y1083975D1*
X1087017Y1084019D1*
X1087046Y1084137D1*
X1087061Y1084211D1*
X1087076Y1084269D1*
X1087090Y1084358D1*
X1087105Y1084431D1*
X1087135Y1084637D1*
X1087149Y1084770D1*
X1087164Y1084976D1*
Y1098614D1*
X1087149Y1098805D1*
X1087135Y1098938D1*
X1087120Y1099055D1*
X1087090Y1099232D1*
X1087061Y1099379D1*
X1087002Y1099614D1*
X1086987Y1099658D1*
X1086973Y1099717D1*
X1086870Y1100026D1*
X1086855Y1100056D1*
X1086840Y1100100D1*
X1086826Y1100129D1*
X1086811Y1100173D1*
X1086782Y1100232D1*
X1086767Y1100276D1*
X1086576Y1100659D1*
X1086546Y1100703D1*
X1086517Y1100762D1*
X1086487Y1100806D1*
X1086473Y1100835D1*
X1086414Y1100924D1*
X1086399Y1100953D1*
X1086370Y1100997D1*
X1086325Y1101056D1*
X1086267Y1101144D1*
X1086178Y1101262D1*
X1086119Y1101336D1*
X1086046Y1101424D1*
X1085943Y1101542D1*
X1085619Y1101865D1*
X1085502Y1101968D1*
X1085413Y1102042D1*
X1085340Y1102101D1*
X1085222Y1102189D1*
X1085134Y1102248D1*
X1085075Y1102292D1*
X1085001Y1102336D1*
X1084913Y1102395D1*
X1084839Y1102439D1*
X1084736Y1102498D1*
X1084354Y1102689D1*
X1084251Y1102733D1*
X1084177Y1102763D1*
X1084060Y1102807D1*
X1083795Y1102895D1*
X1083692Y1102925D1*
X1083515Y1102969D1*
X1083383Y1102998D1*
X1083221Y1103028D1*
X1083015Y1103057D1*
X1082868Y1103072D1*
X1082662Y1103086D1*
X1049029Y1103101D1*
X1049032Y1103112D1*
X1049043Y1103131D1*
X1049073Y1103189D1*
X1049102Y1103233D1*
X1049161Y1103351D1*
X1049191Y1103395D1*
X1049279Y1103572D1*
X1049308Y1103616D1*
X1049426Y1103851D1*
X1049455Y1103896D1*
X1050117Y1105220D1*
X1050132Y1105264D1*
X1050250Y1105499D1*
X1050265Y1105543D1*
X1050368Y1105749D1*
X1050382Y1105793D1*
X1050441Y1105911D1*
X1050456Y1105955D1*
X1050515Y1106073D1*
X1050529Y1106117D1*
X1050588Y1106235D1*
X1050603Y1106279D1*
X1050647Y1106367D1*
X1050662Y1106411D1*
X1050706Y1106500D1*
X1050721Y1106544D1*
X1050750Y1106603D1*
X1050765Y1106647D1*
X1050809Y1106735D1*
X1050824Y1106779D1*
X1050853Y1106838D1*
X1050868Y1106882D1*
X1050882Y1106912D1*
X1050897Y1106956D1*
X1050927Y1107015D1*
X1050941Y1107059D1*
X1050971Y1107118D1*
X1050985Y1107162D1*
X1051015Y1107221D1*
X1051030Y1107265D1*
X1051044Y1107294D1*
X1051059Y1107338D1*
X1051088Y1107397D1*
X1051103Y1107441D1*
X1051118Y1107471D1*
X1051133Y1107515D1*
X1051147Y1107544D1*
X1051162Y1107588D1*
X1051191Y1107647D1*
X1051206Y1107691D1*
X1051221Y1107721D1*
X1051236Y1107765D1*
X1051250Y1107794D1*
X1051265Y1107838D1*
X1051280Y1107868D1*
X1051294Y1107912D1*
X1051309Y1107941D1*
X1051324Y1107986D1*
X1051339Y1108015D1*
X1051353Y1108059D1*
X1051368Y1108089D1*
X1051397Y1108177D1*
X1051412Y1108206D1*
X1051427Y1108250D1*
X1051442Y1108280D1*
X1051456Y1108324D1*
X1051471Y1108353D1*
X1051500Y1108442D1*
X1051515Y1108471D1*
X1051530Y1108515D1*
X1051545Y1108545D1*
X1051574Y1108633D1*
X1051589Y1108662D1*
X1051618Y1108751D1*
X1051633Y1108780D1*
X1051662Y1108868D1*
X1051677Y1108898D1*
X1051721Y1109030D1*
X1051736Y1109060D1*
X1051765Y1109148D1*
X1051780Y1109177D1*
X1051839Y1109354D1*
X1051854Y1109383D1*
X1051912Y1109560D1*
X1051927Y1109589D1*
X1052015Y1109854D1*
X1052030Y1109883D1*
X1052295Y1110678D1*
X1052310Y1110737D1*
X1052398Y1111002D1*
X1052413Y1111060D1*
X1052457Y1111193D1*
X1052471Y1111252D1*
X1052516Y1111384D1*
X1052530Y1111443D1*
X1052560Y1111531D1*
X1052574Y1111590D1*
X1052604Y1111678D1*
X1052619Y1111737D1*
X1052648Y1111825D1*
X1052663Y1111884D1*
X1052677Y1111928D1*
X1052692Y1111987D1*
X1052707Y1112031D1*
X1052722Y1112090D1*
X1052736Y1112134D1*
X1052751Y1112193D1*
X1052766Y1112237D1*
X1052780Y1112296D1*
X1052795Y1112340D1*
X1052825Y1112458D1*
X1052839Y1112502D1*
X1052854Y1112561D1*
X1052869Y1112605D1*
X1052913Y1112782D1*
X1052928Y1112826D1*
X1052972Y1113002D1*
X1052986Y1113047D1*
X1053222Y1113988D1*
X1053237Y1114062D1*
X1053266Y1114179D1*
X1053281Y1114253D1*
X1053310Y1114371D1*
X1053325Y1114444D1*
X1053340Y1114503D1*
X1053354Y1114577D1*
X1053384Y1114694D1*
X1053413Y1114841D1*
X1053428Y1114900D1*
X1053457Y1115047D1*
X1053472Y1115106D1*
X1053648Y1115989D1*
X1053663Y1116077D1*
X1053678Y1116151D1*
X1053693Y1116239D1*
X1053707Y1116313D1*
X1053722Y1116401D1*
X1053737Y1116475D1*
X1053766Y1116651D1*
X1053781Y1116725D1*
X1053854Y1117166D1*
X1053869Y1117269D1*
X1053899Y1117446D1*
X1053928Y1117652D1*
X1053943Y1117740D1*
X1054002Y1118152D1*
X1054016Y1118269D1*
X1054031Y1118372D1*
X1054046Y1118490D1*
X1054060Y1118593D1*
X1054075Y1118725D1*
X1054119Y1119079D1*
X1054163Y1119476D1*
X1054222Y1120064D1*
X1054237Y1120226D1*
X1054281Y1120756D1*
X1054296Y1120947D1*
X1054325Y1121388D1*
X1054340Y1121639D1*
X1054355Y1121903D1*
X1054369Y1122212D1*
X1054384Y1122595D1*
X1054399Y1123095D1*
Y1125169D1*
X1054384Y1125684D1*
X1054369Y1126052D1*
X1054355Y1126361D1*
X1054340Y1126626D1*
X1054325Y1126876D1*
X1054311Y1127097D1*
X1054281Y1127509D1*
X1054266Y1127685D1*
X1054252Y1127877D1*
X1054222Y1128200D1*
X1054163Y1128789D1*
X1054119Y1129186D1*
X1054075Y1129539D1*
X1054060Y1129671D1*
X1054046Y1129774D1*
X1054031Y1129892D1*
X1054016Y1129995D1*
X1054002Y1130113D1*
X1053943Y1130525D1*
X1053928Y1130613D1*
X1053913Y1130716D1*
X1053899Y1130804D1*
X1053884Y1130907D1*
X1053869Y1130996D1*
X1053854Y1131098D1*
X1053781Y1131540D1*
X1053766Y1131613D1*
X1053737Y1131790D1*
X1053722Y1131864D1*
X1053707Y1131952D1*
X1053693Y1132025D1*
X1053678Y1132114D1*
X1053648Y1132261D1*
X1053634Y1132349D1*
X1053472Y1133158D1*
X1053457Y1133217D1*
X1053428Y1133364D1*
X1053413Y1133423D1*
X1053398Y1133497D1*
X1053384Y1133555D1*
X1053369Y1133629D1*
X1053354Y1133688D1*
X1053340Y1133761D1*
X1053325Y1133820D1*
X1053310Y1133894D1*
X1053281Y1134012D1*
X1053266Y1134085D1*
X1053207Y1134320D1*
X1053192Y1134394D1*
X1053016Y1135100D1*
X1053001Y1135144D1*
X1052942Y1135380D1*
X1052928Y1135424D1*
X1052883Y1135600D1*
X1052869Y1135645D1*
X1052839Y1135762D1*
X1052825Y1135806D1*
X1052810Y1135865D1*
X1052795Y1135909D1*
X1052766Y1136027D1*
X1052751Y1136071D1*
X1052736Y1136130D1*
X1052722Y1136174D1*
X1052707Y1136233D1*
X1052677Y1136321D1*
X1052663Y1136380D1*
X1052648Y1136424D1*
X1052633Y1136483D1*
X1052604Y1136571D1*
X1052589Y1136630D1*
X1052574Y1136674D1*
X1052560Y1136733D1*
X1052516Y1136866D1*
X1052501Y1136925D1*
X1052471Y1137013D1*
X1052457Y1137072D1*
X1052383Y1137292D1*
X1052368Y1137351D1*
X1052265Y1137660D1*
X1052251Y1137719D1*
X1052089Y1138205D1*
X1052074Y1138234D1*
X1051957Y1138587D1*
X1051942Y1138616D1*
X1051868Y1138837D1*
X1051854Y1138867D1*
X1051795Y1139043D1*
X1051780Y1139073D1*
X1051736Y1139205D1*
X1051721Y1139234D1*
X1051692Y1139323D1*
X1051677Y1139352D1*
X1051648Y1139440D1*
X1051633Y1139470D1*
X1051603Y1139558D1*
X1051589Y1139587D1*
X1051559Y1139676D1*
X1051545Y1139705D1*
X1051515Y1139793D1*
X1051500Y1139823D1*
X1051486Y1139867D1*
X1051471Y1139896D1*
X1051456Y1139941D1*
X1051442Y1139970D1*
X1051412Y1140058D1*
X1051397Y1140088D1*
X1051383Y1140132D1*
X1051368Y1140161D1*
X1051353Y1140205D1*
X1051339Y1140235D1*
X1051324Y1140279D1*
X1051309Y1140308D1*
X1051294Y1140353D1*
X1051280Y1140382D1*
X1051265Y1140426D1*
X1051250Y1140455D1*
X1051236Y1140500D1*
X1051221Y1140529D1*
X1051206Y1140573D1*
X1051191Y1140603D1*
X1051177Y1140647D1*
X1051162Y1140676D1*
X1051147Y1140720D1*
X1051118Y1140779D1*
X1051103Y1140823D1*
X1051088Y1140853D1*
X1051074Y1140897D1*
X1051044Y1140956D1*
X1051030Y1141000D1*
X1051015Y1141029D1*
X1051000Y1141073D1*
X1050971Y1141132D1*
X1050956Y1141176D1*
X1050941Y1141206D1*
X1050927Y1141250D1*
X1050897Y1141309D1*
X1050882Y1141353D1*
X1050853Y1141412D1*
X1050838Y1141456D1*
X1050794Y1141544D1*
X1050780Y1141588D1*
X1050750Y1141647D1*
X1050735Y1141691D1*
X1050691Y1141780D1*
X1050677Y1141824D1*
X1050632Y1141912D1*
X1050618Y1141956D1*
X1050574Y1142044D1*
X1050559Y1142089D1*
X1050515Y1142177D1*
X1050500Y1142221D1*
X1050426Y1142368D1*
X1050412Y1142412D1*
X1050338Y1142559D1*
X1050323Y1142603D1*
X1050235Y1142780D1*
X1050220Y1142824D1*
X1050088Y1143089D1*
X1050073Y1143133D1*
X1049514Y1144251D1*
X1049485Y1144295D1*
X1049352Y1144560D1*
X1049323Y1144604D1*
X1049220Y1144810D1*
X1049191Y1144854D1*
X1049117Y1145002D1*
X1049088Y1145046D1*
X1049029Y1145163D1*
X1048999Y1145208D1*
X1048955Y1145296D1*
X1048926Y1145340D1*
X1048882Y1145428D1*
X1048852Y1145472D1*
X1048823Y1145531D1*
X1048793Y1145575D1*
X1048749Y1145664D1*
X1048720Y1145708D1*
X1048690Y1145767D1*
X1048661Y1145811D1*
X1048631Y1145870D1*
X1048602Y1145914D1*
X1048573Y1145973D1*
X1048543Y1146017D1*
X1048528Y1146046D1*
X1048499Y1146090D1*
X1048470Y1146149D1*
X1048440Y1146193D1*
X1048425Y1146223D1*
X1048396Y1146267D1*
X1048367Y1146326D1*
X1048337Y1146370D1*
X1048322Y1146399D1*
X1048293Y1146443D1*
X1048278Y1146473D1*
X1048249Y1146517D1*
X1048234Y1146546D1*
X1048205Y1146590D1*
X1048190Y1146620D1*
X1048161Y1146664D1*
X1048146Y1146693D1*
X1048117Y1146738D1*
X1048102Y1146767D1*
X1048072Y1146811D1*
X1048058Y1146841D1*
X1047999Y1146929D1*
X1047984Y1146958D1*
X1047955Y1147002D1*
X1047940Y1147032D1*
X1047881Y1147120D1*
X1047866Y1147150D1*
X1047837Y1147194D1*
X1047822Y1147223D1*
X1047763Y1147311D1*
X1047749Y1147341D1*
X1047660Y1147473D1*
X1047646Y1147503D1*
X1047587Y1147591D1*
X1047572Y1147620D1*
X1047454Y1147797D1*
X1047440Y1147826D1*
X1047263Y1148091D1*
X1047248Y1148121D1*
X1046895Y1148650D1*
X1046851Y1148709D1*
X1046704Y1148930D1*
X1046660Y1148989D1*
X1046572Y1149121D1*
X1046528Y1149180D1*
X1046469Y1149268D1*
X1046425Y1149327D1*
X1046395Y1149371D1*
X1046351Y1149430D1*
X1046292Y1149518D1*
X1046204Y1149636D1*
X1046174Y1149680D1*
X1046130Y1149739D1*
X1046101Y1149783D1*
X1046013Y1149901D1*
X1045983Y1149945D1*
X1045851Y1150121D1*
X1045821Y1150166D1*
X1045512Y1150578D1*
X1045454Y1150651D1*
X1045321Y1150828D1*
X1045262Y1150901D1*
X1045218Y1150960D1*
X1045159Y1151034D1*
X1045115Y1151092D1*
X1044997Y1151240D1*
X1044953Y1151298D1*
X1044659Y1151666D1*
X1044585Y1151754D1*
X1044527Y1151828D1*
X1044453Y1151916D1*
X1044394Y1151990D1*
X1044100Y1152343D1*
X1044012Y1152446D1*
X1043938Y1152534D1*
X1043850Y1152637D1*
X1043747Y1152755D1*
X1043659Y1152858D1*
X1043453Y1153093D1*
X1043217Y1153358D1*
X1043085Y1153505D1*
X1042938Y1153667D1*
X1042761Y1153858D1*
X1042570Y1154064D1*
X1042334Y1154314D1*
X1041937Y1154726D1*
X1041172Y1155491D1*
X1040775Y1155874D1*
X1040525Y1156109D1*
X1040304Y1156315D1*
X1040128Y1156477D1*
X1039966Y1156624D1*
X1039819Y1156757D1*
X1039554Y1156992D1*
X1039201Y1157301D1*
X1038995Y1157478D1*
X1038906Y1157551D1*
X1038803Y1157639D1*
X1038450Y1157934D1*
X1038377Y1157992D1*
X1038288Y1158066D1*
X1038215Y1158125D1*
X1038127Y1158198D1*
X1037685Y1158552D1*
X1037626Y1158596D1*
X1037553Y1158655D1*
X1037494Y1158699D1*
X1037420Y1158758D1*
X1037362Y1158802D1*
X1037288Y1158861D1*
X1037170Y1158949D1*
X1037097Y1159008D1*
X1036567Y1159405D1*
X1036523Y1159434D1*
X1036346Y1159567D1*
X1036302Y1159596D1*
X1036243Y1159640D1*
X1036199Y1159670D1*
X1036082Y1159758D1*
X1036037Y1159787D1*
X1035979Y1159832D1*
X1035934Y1159861D1*
X1035876Y1159905D1*
X1035787Y1159964D1*
X1035728Y1160008D1*
X1035640Y1160067D1*
X1035581Y1160111D1*
X1035493Y1160170D1*
X1035449Y1160214D1*
Y1205057D1*
X1035434Y1205248D1*
X1035419Y1205381D1*
X1035405Y1205498D1*
X1035390Y1205601D1*
X1035361Y1205778D1*
X1035302Y1206072D1*
X1035243Y1206308D1*
X1035228Y1206352D1*
X1035213Y1206411D1*
X1035199Y1206455D1*
X1035184Y1206513D1*
X1035081Y1206822D1*
X1035066Y1206852D1*
X1035037Y1206940D1*
X1035022Y1206970D1*
X1035007Y1207014D1*
X1034993Y1207043D1*
X1034978Y1207087D1*
X1034963Y1207117D1*
X1034949Y1207161D1*
X1034919Y1207220D1*
X1034904Y1207264D1*
X1034846Y1207382D1*
X1034831Y1207426D1*
X1034669Y1207749D1*
X1034640Y1207793D1*
X1034596Y1207882D1*
X1034566Y1207926D1*
X1034537Y1207985D1*
X1034507Y1208029D1*
X1034493Y1208058D1*
X1034463Y1208102D1*
X1034448Y1208132D1*
X1034419Y1208176D1*
X1034404Y1208205D1*
X1034169Y1208558D1*
X1034125Y1208617D1*
X1034095Y1208661D1*
X1034007Y1208779D1*
X1033948Y1208853D1*
X1033904Y1208912D1*
X1033786Y1209059D1*
X1033610Y1209265D1*
X1033477Y1209412D1*
X1032962Y1209927D1*
X1032815Y1210059D1*
X1032698Y1210162D1*
X1032595Y1210250D1*
X1032521Y1210309D1*
X1032433Y1210383D1*
X1032374Y1210427D1*
X1032300Y1210486D1*
X1032006Y1210706D1*
X1031962Y1210736D1*
X1031903Y1210780D1*
X1031815Y1210839D1*
X1031756Y1210883D1*
X1031535Y1211030D1*
X1031462Y1211074D1*
X1031373Y1211133D1*
X1031226Y1211221D1*
X1031182Y1211251D1*
X1031079Y1211310D1*
X1031006Y1211354D1*
X1030903Y1211413D1*
X1030770Y1211486D1*
X1030608Y1211575D1*
X1030079Y1211839D1*
X1029887Y1211928D1*
X1029623Y1212045D1*
X1029549Y1212075D1*
X1029446Y1212119D1*
X1029152Y1212237D1*
X1028916Y1212325D1*
X1028666Y1212413D1*
X1028357Y1212516D1*
X1028122Y1212590D1*
X1028019Y1212619D1*
X1027872Y1212663D1*
X1027710Y1212707D1*
X1027489Y1212766D1*
X1027313Y1212810D1*
X1027063Y1212869D1*
X1026930Y1212899D1*
X1026415Y1213002D1*
X1026253Y1213031D1*
X1026077Y1213060D1*
X1025886Y1213090D1*
X1025577Y1213134D1*
X1025341Y1213163D1*
X1025076Y1213193D1*
X1024753Y1213222D1*
X1024561Y1213237D1*
X1024326Y1213252D1*
X1024032Y1213266D1*
X1023340Y1213281D1*
X1023281D1*
X1022605Y1213266D1*
X1022310Y1213252D1*
X1022075Y1213237D1*
X1021884Y1213222D1*
X1021560Y1213193D1*
X1021295Y1213163D1*
X1021060Y1213134D1*
X1020648Y1213075D1*
X1020383Y1213031D1*
X1020133Y1212987D1*
X1019839Y1212928D1*
X1019574Y1212869D1*
X1019383Y1212825D1*
X1019029Y1212737D1*
X1018868Y1212693D1*
X1018559Y1212604D1*
X1018367Y1212546D1*
X1017838Y1212369D1*
X1017676Y1212310D1*
X1017558Y1212266D1*
X1017485Y1212237D1*
X1017367Y1212192D1*
X1017220Y1212134D1*
X1017117Y1212089D1*
X1017043Y1212060D1*
X1016940Y1212016D1*
X1016808Y1211957D1*
X1016646Y1211883D1*
X1015940Y1211530D1*
X1015778Y1211442D1*
X1015572Y1211324D1*
X1015351Y1211192D1*
X1015307Y1211163D1*
X1015234Y1211118D1*
X1015189Y1211089D1*
X1015116Y1211045D1*
X1014851Y1210868D1*
X1014792Y1210824D1*
X1014704Y1210765D1*
X1014645Y1210721D1*
X1014601Y1210692D1*
X1014366Y1210515D1*
X1014292Y1210456D1*
X1014233Y1210412D1*
X1014160Y1210353D1*
X1013983Y1210206D1*
X1013880Y1210118D1*
X1013748Y1210000D1*
X1013556Y1209824D1*
X1013247Y1209515D1*
X1013071Y1209324D1*
X1012968Y1209206D1*
X1012880Y1209103D1*
X1012821Y1209029D1*
X1012747Y1208941D1*
X1012703Y1208882D1*
X1012644Y1208809D1*
X1012556Y1208691D1*
X1012526Y1208647D1*
X1012482Y1208588D1*
X1012453Y1208544D1*
X1012409Y1208485D1*
X1012291Y1208308D1*
X1012276Y1208279D1*
X1012188Y1208147D1*
X1012173Y1208117D1*
X1012144Y1208073D1*
X1012129Y1208044D1*
X1012100Y1207999D1*
X1012070Y1207941D1*
X1012041Y1207896D1*
X1011997Y1207808D1*
X1011967Y1207764D1*
X1011776Y1207382D1*
X1011761Y1207337D1*
X1011717Y1207249D1*
X1011703Y1207205D1*
X1011673Y1207146D1*
X1011658Y1207102D1*
X1011644Y1207073D1*
X1011629Y1207028D1*
X1011614Y1206999D1*
X1011600Y1206955D1*
X1011585Y1206925D1*
X1011541Y1206793D1*
X1011526Y1206764D1*
X1011467Y1206587D1*
X1011452Y1206528D1*
X1011423Y1206440D1*
X1011408Y1206381D1*
X1011394Y1206337D1*
X1011335Y1206102D1*
X1011320Y1206028D1*
X1011305Y1205969D1*
X1011276Y1205822D1*
X1011232Y1205557D1*
X1011202Y1205322D1*
X1011188Y1205160D1*
X1011173Y1204925D1*
Y1167938D1*
X998579Y1167923D1*
X997887Y1167909D1*
X997446Y1167894D1*
X997093Y1167879D1*
X996799Y1167864D1*
X996534Y1167850D1*
X996298Y1167835D1*
X996078Y1167820D1*
X995872Y1167806D1*
X995680Y1167791D1*
X995313Y1167761D1*
X995297Y1167745D1*
X995289Y1167748D1*
X995283Y1167761D1*
X995033Y1168512D1*
X995018Y1168571D1*
X994768Y1169321D1*
X994754Y1169380D1*
X994503Y1170130D1*
X994489Y1170189D1*
X994239Y1170939D1*
X994224Y1170998D1*
X993974Y1171748D1*
X993959Y1171807D1*
X993709Y1172558D1*
X993694Y1172616D1*
X993444Y1173367D1*
X993429Y1173426D1*
X993179Y1174176D1*
X993165Y1174235D1*
X992914Y1174985D1*
X992900Y1175044D1*
X992650Y1175794D1*
X992635Y1175853D1*
X992385Y1176603D1*
X992370Y1176662D1*
X992105Y1177457D1*
X992091Y1177516D1*
X991840Y1178266D1*
X991826Y1178325D1*
X991576Y1179075D1*
X991561Y1179134D1*
X991311Y1179884D1*
X991296Y1179943D1*
X991046Y1180693D1*
X991031Y1180752D1*
X990781Y1181503D1*
X990766Y1181562D1*
X990516Y1182312D1*
X990502Y1182371D1*
X990251Y1183121D1*
X990237Y1183180D1*
X989987Y1183930D1*
X989972Y1183989D1*
X989722Y1184739D1*
X989707Y1184798D1*
X989457Y1185549D1*
X989442Y1185607D1*
X989192Y1186358D1*
X989177Y1186417D1*
X988927Y1187167D1*
X988913Y1187226D1*
X988662Y1187976D1*
X988648Y1188035D1*
X988398Y1188785D1*
X988383Y1188844D1*
X988133Y1189594D1*
X988118Y1189653D1*
X987868Y1190404D1*
X987853Y1190462D1*
X987603Y1191213D1*
X987588Y1191272D1*
X987338Y1192022D1*
X987324Y1192081D1*
X987073Y1192831D1*
X987059Y1192890D1*
X986809Y1193640D1*
X986794Y1193699D1*
X986544Y1194449D1*
X986529Y1194508D1*
X986279Y1195259D1*
X986264Y1195317D1*
X986014Y1196068D1*
X985999Y1196127D1*
X985749Y1196877D1*
X985735Y1196936D1*
X985485Y1197686D1*
X985470Y1197745D1*
X985220Y1198495D1*
X985205Y1198554D1*
X984955Y1199304D1*
X984940Y1199363D1*
X984675Y1200158D1*
X984661Y1200217D1*
X984410Y1200967D1*
X984396Y1201026D1*
X984146Y1201776D1*
X984131Y1201835D1*
X983881Y1202585D1*
X983866Y1202644D1*
X983616Y1203394D1*
X983601Y1203453D1*
X983351Y1204204D1*
X983336Y1204263D1*
X983086Y1205013D1*
X983072Y1205072D1*
X982821Y1205822D1*
X982807Y1205881D1*
X982557Y1206631D1*
X982542Y1206690D1*
X982292Y1207440D1*
X982277Y1207499D1*
X982027Y1208250D1*
X982012Y1208308D1*
X981762Y1209059D1*
X981747Y1209118D1*
X981497Y1209868D1*
X981483Y1209927D1*
X981233Y1210677D1*
X981218Y1210736D1*
X980968Y1211486D1*
X980953Y1211545D1*
X980703Y1212295D1*
X980688Y1212354D1*
X980438Y1213105D1*
X980423Y1213163D1*
X980173Y1213914D1*
X980158Y1213973D1*
X979908Y1214723D1*
X979894Y1214782D1*
X979644Y1215532D1*
X979629Y1215591D1*
X979379Y1216341D1*
X979364Y1216400D1*
X979114Y1217150D1*
X979099Y1217209D1*
X978849Y1217960D1*
X978834Y1218018D1*
X978658Y1218548D1*
X978643Y1218578D1*
X978599Y1218710D1*
X978584Y1218739D1*
X978570Y1218784D1*
X978555Y1218813D1*
X978540Y1218857D1*
X978511Y1218916D1*
X978496Y1218960D1*
X978452Y1219048D1*
X978437Y1219092D1*
X978261Y1219446D1*
X978231Y1219490D1*
X978187Y1219578D1*
X978158Y1219622D1*
X978143Y1219652D1*
X978113Y1219696D1*
X978099Y1219725D1*
X978069Y1219769D1*
X978055Y1219799D1*
X977966Y1219931D1*
X977952Y1219960D1*
X977907Y1220019D1*
X977819Y1220152D1*
X977687Y1220328D1*
X977510Y1220549D1*
X977422Y1220652D1*
X977290Y1220799D1*
X976892Y1221196D1*
X976745Y1221329D1*
X976642Y1221417D1*
X976554Y1221491D1*
X976407Y1221608D1*
X976171Y1221785D1*
X976127Y1221814D1*
X976068Y1221858D1*
X975759Y1222064D1*
X975686Y1222108D1*
X975642Y1222138D1*
X975495Y1222226D1*
X975392Y1222285D1*
X975259Y1222359D1*
X974950Y1222520D1*
X974921Y1222535D1*
X974671Y1222653D1*
X974538Y1222712D1*
X974332Y1222800D1*
X974185Y1222859D1*
X973950Y1222947D1*
X973788Y1223006D1*
X973567Y1223079D1*
X973332Y1223153D1*
X973126Y1223212D1*
X972964Y1223256D1*
X972670Y1223330D1*
X972405Y1223388D1*
X972111Y1223447D1*
X971861Y1223491D1*
X971669Y1223521D1*
X971463Y1223550D1*
X971228Y1223580D1*
X971095Y1223594D1*
X970948Y1223609D1*
X970787Y1223624D1*
X970610Y1223639D1*
X970360Y1223653D1*
X969977Y1223668D1*
X969212D1*
X968830Y1223653D1*
X968580Y1223639D1*
X968388Y1223624D1*
X968212Y1223609D1*
X967918Y1223580D1*
X967785Y1223565D1*
X967550Y1223536D1*
X967241Y1223491D1*
X966799Y1223418D1*
X966638Y1223388D1*
X966343Y1223330D1*
X966137Y1223285D1*
X965946Y1223241D1*
X965358Y1223094D1*
X965255Y1223065D1*
X965093Y1223021D1*
X964798Y1222932D1*
X964563Y1222859D1*
X964166Y1222726D1*
X963960Y1222653D1*
X963842Y1222609D1*
X963680Y1222550D1*
X963165Y1222344D1*
X962856Y1222211D1*
X962533Y1222064D1*
X961709Y1221652D1*
X961547Y1221564D1*
X961415Y1221491D1*
X961209Y1221373D1*
X960841Y1221152D1*
X960797Y1221123D1*
X960723Y1221079D1*
X960591Y1220990D1*
X960517Y1220946D1*
X960296Y1220799D1*
X969124D1*
X969438Y1220814D1*
X969752D1*
X970066Y1220799D1*
X970345Y1220784D1*
X970536Y1220770D1*
X970698Y1220755D1*
X970845Y1220740D1*
X971081Y1220711D1*
X971287Y1220681D1*
X971463Y1220652D1*
X971537Y1220637D1*
X971625Y1220623D1*
X971772Y1220593D1*
X971831Y1220578D1*
X971964Y1220549D1*
X972037Y1220534D1*
X972214Y1220490D1*
X972258Y1220475D1*
X972420Y1220431D1*
X972523Y1220402D1*
X972581Y1220387D1*
X972935Y1220269D1*
X972964Y1220255D1*
X973082Y1220211D1*
X973302Y1220122D1*
X973435Y1220063D1*
X973479Y1220049D1*
X973950Y1219813D1*
X973964Y1219799D1*
X974067Y1219740D1*
X974141Y1219696D1*
X974185Y1219666D1*
X974259Y1219622D1*
X974435Y1219504D1*
X974612Y1219372D1*
X974759Y1219254D1*
X974862Y1219166D1*
X974891Y1219151D1*
X975244Y1218798D1*
Y1218784D1*
X975333Y1218681D1*
X975392Y1218607D1*
X975524Y1218430D1*
X975612Y1218298D1*
X975627Y1218269D1*
X975656Y1218224D1*
X975671Y1218195D1*
X975701Y1218151D1*
X975730Y1218092D1*
X975759Y1218048D1*
X975818Y1217930D1*
X975833Y1217886D1*
X975877Y1217798D1*
X975892Y1217754D1*
X975907Y1217724D1*
X975921Y1217680D1*
X975936Y1217651D1*
X976127Y1217077D1*
X976142Y1217018D1*
X976392Y1216268D1*
X976407Y1216209D1*
X976657Y1215459D1*
X976672Y1215400D1*
X976936Y1214605D1*
X976951Y1214546D1*
X977201Y1213796D1*
X977216Y1213737D1*
X977466Y1212987D1*
X977481Y1212928D1*
X977731Y1212178D1*
X977746Y1212119D1*
X977996Y1211369D1*
X978010Y1211310D1*
X978261Y1210559D1*
X978275Y1210501D1*
X978525Y1209750D1*
X978540Y1209691D1*
X978805Y1208897D1*
X978820Y1208838D1*
X979070Y1208088D1*
X979084Y1208029D1*
X979335Y1207279D1*
X979349Y1207220D1*
X979599Y1206469D1*
X979614Y1206411D1*
X979864Y1205660D1*
X979879Y1205601D1*
X980129Y1204851D1*
X980144Y1204792D1*
X980394Y1204042D1*
X980409Y1203983D1*
X980659Y1203233D1*
X980673Y1203174D1*
X980938Y1202379D1*
X980953Y1202321D1*
X981203Y1201570D1*
X981218Y1201511D1*
X981468Y1200761D1*
X981483Y1200702D1*
X981733Y1199952D1*
X981747Y1199893D1*
X981998Y1199143D1*
X982012Y1199084D1*
X982262Y1198333D1*
X982277Y1198275D1*
X982527Y1197524D1*
X982542Y1197465D1*
X982807Y1196671D1*
X982821Y1196612D1*
X983072Y1195862D1*
X983086Y1195803D1*
X983336Y1195053D1*
X983351Y1194994D1*
X983601Y1194243D1*
X983616Y1194185D1*
X983866Y1193434D1*
X983881Y1193375D1*
X984131Y1192625D1*
X984146Y1192566D1*
X984396Y1191816D1*
X984410Y1191757D1*
X984675Y1190963D1*
X984690Y1190904D1*
X984940Y1190153D1*
X984955Y1190095D1*
X985205Y1189344D1*
X985220Y1189285D1*
X985470Y1188535D1*
X985485Y1188476D1*
X985735Y1187726D1*
X985749Y1187667D1*
X985999Y1186917D1*
X986014Y1186858D1*
X986264Y1186108D1*
X986279Y1186049D1*
X986544Y1185254D1*
X986559Y1185195D1*
X986809Y1184445D1*
X986823Y1184386D1*
X987073Y1183636D1*
X987088Y1183577D1*
X987338Y1182827D1*
X987353Y1182768D1*
X987603Y1182018D1*
X987618Y1181959D1*
X987868Y1181208D1*
X987883Y1181150D1*
X988133Y1180399D1*
X988148Y1180340D1*
X988412Y1179546D1*
X988427Y1179487D1*
X988677Y1178737D1*
X988692Y1178678D1*
X988942Y1177928D1*
X988957Y1177869D1*
X989207Y1177118D1*
X989222Y1177060D1*
X989472Y1176309D1*
X989486Y1176250D1*
X989736Y1175500D1*
X989751Y1175441D1*
X990001Y1174691D1*
X990016Y1174632D1*
X990281Y1173838D1*
X990296Y1173779D1*
X990546Y1173028D1*
X990560Y1172970D1*
X990811Y1172219D1*
X990825Y1172160D1*
X991075Y1171410D1*
X991090Y1171351D1*
X991340Y1170601D1*
X991355Y1170542D1*
X991605Y1169792D1*
X991620Y1169733D1*
X991870Y1168983D1*
X991885Y1168924D1*
X992149Y1168129D1*
X992164Y1168070D1*
X992414Y1167320D1*
X992429Y1167261D1*
X992679Y1166511D1*
X992694Y1166452D1*
X992944Y1165702D1*
X992959Y1165672D1*
X992973Y1165628D1*
X993032Y1165510D1*
X993062Y1165466D1*
X993076Y1165437D1*
X993120Y1165378D1*
X993150Y1165334D1*
X993238Y1165231D1*
X993282Y1165187D1*
X993385Y1165099D1*
X993444Y1165054D1*
X993532Y1164996D1*
X993606Y1164951D1*
X993665Y1164922D1*
X993768Y1164878D1*
X993856Y1164848D1*
X993974Y1164819D1*
X994047Y1164804D1*
X994150Y1164790D1*
X994400D1*
X994548Y1164804D1*
X994812Y1164834D1*
X995254Y1164878D1*
X995577Y1164907D1*
X995754Y1164922D1*
X996137Y1164951D1*
X996342Y1164966D1*
X996813Y1164996D1*
X997093Y1165010D1*
X997417Y1165025D1*
X997814Y1165040D1*
X998402Y1165054D1*
X1002728Y1165069D1*
X1007053D1*
X1011379Y1165054D1*
X1011953Y1165040D1*
X1012350Y1165025D1*
X1012762D1*
X1012850Y1165040D1*
X1012924Y1165054D1*
X1012983Y1165069D1*
X1013115Y1165113D1*
X1013189Y1165143D1*
X1013306Y1165201D1*
X1013380Y1165246D1*
X1013424Y1165275D1*
X1013483Y1165319D1*
X1013586Y1165407D1*
X1013645Y1165466D1*
X1013733Y1165569D1*
X1013851Y1165746D1*
X1013909Y1165864D1*
X1013924Y1165908D1*
X1013939Y1165937D1*
X1013983Y1166070D1*
X1013998Y1166128D1*
X1014012Y1166202D1*
X1014027Y1166305D1*
X1014042Y1204866D1*
X1014057Y1205028D1*
X1014071Y1205145D1*
X1014101Y1205322D1*
X1014115Y1205395D1*
X1014174Y1205631D1*
X1014277Y1205940D1*
X1014292Y1205969D1*
X1014307Y1206013D1*
X1014321Y1206043D1*
X1014336Y1206087D1*
X1014380Y1206175D1*
X1014395Y1206219D1*
X1014483Y1206396D1*
X1014513Y1206440D1*
X1014557Y1206528D1*
X1014586Y1206572D1*
X1014601Y1206602D1*
X1014660Y1206690D1*
X1014675Y1206719D1*
X1014763Y1206852D1*
X1014807Y1206911D1*
X1014836Y1206955D1*
X1014925Y1207073D1*
X1015042Y1207220D1*
X1015116Y1207308D1*
X1015248Y1207455D1*
Y1207470D1*
X1015587Y1207808D1*
X1015616Y1207823D1*
X1015763Y1207955D1*
X1015866Y1208044D1*
X1015955Y1208117D1*
X1016102Y1208235D1*
X1016278Y1208367D1*
X1016322Y1208397D1*
X1016381Y1208441D1*
X1016469Y1208500D1*
X1016528Y1208544D1*
X1016617Y1208603D1*
X1016690Y1208647D1*
X1016778Y1208706D1*
X1016999Y1208838D1*
X1017205Y1208956D1*
X1017396Y1209059D1*
X1017411Y1209073D1*
X1017705Y1209221D1*
X1017749Y1209235D1*
X1017970Y1209338D1*
X1018103Y1209397D1*
X1018206Y1209441D1*
X1018279Y1209471D1*
X1018382Y1209515D1*
X1018500Y1209559D1*
X1018573Y1209588D1*
X1018735Y1209647D1*
X1018765Y1209662D1*
X1019250Y1209824D1*
X1019309Y1209838D1*
X1019456Y1209883D1*
X1019559Y1209912D1*
X1019721Y1209956D1*
X1019765Y1209971D1*
X1020059Y1210044D1*
X1020133Y1210059D1*
X1020251Y1210089D1*
X1020766Y1210192D1*
X1021119Y1210250D1*
X1021325Y1210280D1*
X1021678Y1210324D1*
X1021972Y1210353D1*
X1022149Y1210368D1*
X1022340Y1210383D1*
X1022605Y1210398D1*
X1023061Y1210412D1*
X1023228Y1210427D1*
X1023394D1*
X1023561Y1210412D1*
X1024017Y1210398D1*
X1024282Y1210383D1*
X1024488Y1210368D1*
X1024664Y1210353D1*
X1024812Y1210339D1*
X1025076Y1210309D1*
X1025194Y1210295D1*
X1025606Y1210236D1*
X1025783Y1210206D1*
X1025856Y1210192D1*
X1025944Y1210177D1*
X1026312Y1210103D1*
X1026371Y1210089D1*
X1026562Y1210044D1*
X1026636Y1210030D1*
X1026813Y1209986D1*
X1026857Y1209971D1*
X1027077Y1209912D1*
X1027180Y1209883D1*
X1027372Y1209824D1*
X1027430Y1209809D1*
X1027828Y1209677D1*
X1027857Y1209662D1*
X1028019Y1209603D1*
X1028137Y1209559D1*
X1028357Y1209471D1*
X1028563Y1209382D1*
X1028725Y1209309D1*
X1028769Y1209294D1*
X1029358Y1209000D1*
X1029373Y1208985D1*
X1029505Y1208912D1*
X1029608Y1208853D1*
X1029829Y1208720D1*
X1029873Y1208691D1*
X1029946Y1208647D1*
X1030167Y1208500D1*
X1030226Y1208456D1*
X1030270Y1208426D1*
X1030329Y1208382D1*
X1030373Y1208353D1*
X1030491Y1208264D1*
X1030711Y1208088D1*
X1030800Y1208014D1*
X1030917Y1207911D1*
X1031109Y1207735D1*
X1031138Y1207720D1*
X1031300Y1207558D1*
Y1207543D1*
X1031476Y1207352D1*
X1031565Y1207249D1*
X1031682Y1207102D1*
X1031727Y1207043D1*
X1031785Y1206970D1*
X1031844Y1206881D1*
X1031888Y1206822D1*
X1031947Y1206734D1*
X1031962Y1206705D1*
X1032021Y1206616D1*
X1032036Y1206587D1*
X1032065Y1206543D1*
X1032094Y1206484D1*
X1032124Y1206440D1*
X1032256Y1206175D1*
X1032271Y1206131D1*
X1032300Y1206072D1*
X1032315Y1206028D1*
X1032330Y1205999D1*
X1032344Y1205954D1*
X1032359Y1205925D1*
X1032447Y1205660D1*
X1032462Y1205601D1*
X1032477Y1205557D1*
X1032506Y1205440D1*
X1032536Y1205292D1*
X1032550Y1205204D1*
X1032565Y1205101D1*
X1032580Y1204983D1*
X1032595Y1204733D1*
X1032609Y1159243D1*
X1032624Y1159155D1*
X1032653Y1159037D1*
X1032698Y1158905D1*
X1032801Y1158699D1*
X1032889Y1158566D1*
X1032948Y1158493D1*
X1033080Y1158360D1*
X1033168Y1158287D1*
X1033521Y1158051D1*
X1033580Y1158007D1*
X1033801Y1157860D1*
X1033860Y1157816D1*
X1033992Y1157728D1*
X1034051Y1157684D1*
X1034139Y1157625D1*
X1034198Y1157581D1*
X1034242Y1157551D1*
X1034301Y1157507D1*
X1034345Y1157478D1*
X1034404Y1157433D1*
X1034448Y1157404D1*
X1034507Y1157360D1*
X1034551Y1157330D1*
X1034669Y1157242D1*
X1034713Y1157213D1*
X1034890Y1157080D1*
X1034934Y1157051D1*
X1035346Y1156742D1*
X1035419Y1156683D1*
X1035596Y1156551D1*
X1035670Y1156492D1*
X1035728Y1156448D1*
X1035876Y1156330D1*
X1035934Y1156286D1*
X1036376Y1155933D1*
X1036464Y1155859D1*
X1036538Y1155800D1*
X1036626Y1155727D1*
X1036699Y1155668D1*
X1036876Y1155521D1*
X1036979Y1155433D1*
X1037067Y1155359D1*
X1037479Y1155006D1*
X1037597Y1154903D1*
X1037994Y1154550D1*
X1038156Y1154403D1*
X1038333Y1154241D1*
X1038524Y1154064D1*
X1038774Y1153829D1*
X1039142Y1153476D1*
X1039171Y1153461D1*
X1039966Y1152667D1*
Y1152652D1*
X1040333Y1152269D1*
X1040554Y1152034D1*
X1040745Y1151828D1*
X1040907Y1151652D1*
X1041172Y1151357D1*
X1041290Y1151225D1*
X1041599Y1150872D1*
X1041775Y1150666D1*
X1041849Y1150578D1*
X1041937Y1150475D1*
X1042231Y1150121D1*
X1042290Y1150048D1*
X1042364Y1149960D1*
X1042482Y1149812D1*
X1042555Y1149724D1*
X1042614Y1149651D1*
X1042658Y1149592D1*
X1042835Y1149371D1*
X1042879Y1149312D1*
X1042938Y1149239D1*
X1042982Y1149180D1*
X1043041Y1149106D1*
X1043129Y1148989D1*
X1043188Y1148915D1*
X1043585Y1148385D1*
X1043614Y1148341D1*
X1043703Y1148224D1*
X1043732Y1148179D1*
X1043820Y1148062D1*
X1043850Y1148018D1*
X1043894Y1147959D1*
X1043923Y1147915D1*
X1043968Y1147856D1*
X1043997Y1147812D1*
X1044041Y1147753D1*
X1044071Y1147709D1*
X1044115Y1147650D1*
X1044174Y1147562D1*
X1044218Y1147503D1*
X1044306Y1147370D1*
X1044350Y1147311D1*
X1044556Y1147002D1*
X1044600Y1146944D1*
X1044777Y1146679D1*
X1044791Y1146649D1*
X1044997Y1146340D1*
X1045012Y1146311D1*
X1045130Y1146134D1*
X1045145Y1146105D1*
X1045233Y1145973D1*
X1045248Y1145943D1*
X1045306Y1145855D1*
X1045321Y1145825D1*
X1045380Y1145737D1*
X1045395Y1145708D1*
X1045454Y1145619D1*
X1045468Y1145590D1*
X1045498Y1145546D1*
X1045512Y1145517D1*
X1045571Y1145428D1*
X1045586Y1145399D1*
X1045615Y1145355D1*
X1045630Y1145325D1*
X1045659Y1145281D1*
X1045674Y1145252D1*
X1045704Y1145208D1*
X1045718Y1145178D1*
X1045748Y1145134D1*
X1045762Y1145105D1*
X1045792Y1145060D1*
X1045807Y1145031D1*
X1045836Y1144987D1*
X1045851Y1144957D1*
X1045880Y1144913D1*
X1045910Y1144854D1*
X1045939Y1144810D1*
X1045954Y1144781D1*
X1045983Y1144737D1*
X1046013Y1144678D1*
X1046042Y1144634D1*
X1046057Y1144604D1*
X1046086Y1144560D1*
X1046116Y1144501D1*
X1046145Y1144457D1*
X1046174Y1144398D1*
X1046204Y1144354D1*
X1046233Y1144295D1*
X1046263Y1144251D1*
X1046307Y1144163D1*
X1046336Y1144119D1*
X1046380Y1144031D1*
X1046410Y1143986D1*
X1046454Y1143898D1*
X1046483Y1143854D1*
X1046542Y1143736D1*
X1046572Y1143692D1*
X1046631Y1143574D1*
X1046660Y1143530D1*
X1046748Y1143354D1*
X1046778Y1143310D1*
X1046881Y1143104D1*
X1046910Y1143060D1*
X1047528Y1141824D1*
X1047543Y1141780D1*
X1047660Y1141544D1*
X1047675Y1141500D1*
X1047763Y1141324D1*
X1047778Y1141279D1*
X1047837Y1141162D1*
X1047852Y1141118D1*
X1047911Y1141000D1*
X1047925Y1140956D1*
X1047969Y1140867D1*
X1047984Y1140823D1*
X1048043Y1140706D1*
X1048058Y1140661D1*
X1048087Y1140603D1*
X1048102Y1140558D1*
X1048146Y1140470D1*
X1048161Y1140426D1*
X1048190Y1140367D1*
X1048205Y1140323D1*
X1048234Y1140264D1*
X1048249Y1140220D1*
X1048278Y1140161D1*
X1048293Y1140117D1*
X1048322Y1140058D1*
X1048337Y1140014D1*
X1048352Y1139985D1*
X1048367Y1139941D1*
X1048396Y1139882D1*
X1048411Y1139838D1*
X1048425Y1139808D1*
X1048440Y1139764D1*
X1048455Y1139735D1*
X1048470Y1139690D1*
X1048499Y1139632D1*
X1048514Y1139587D1*
X1048528Y1139558D1*
X1048543Y1139514D1*
X1048558Y1139484D1*
X1048573Y1139440D1*
X1048587Y1139411D1*
X1048602Y1139367D1*
X1048617Y1139337D1*
X1048631Y1139293D1*
X1048646Y1139264D1*
X1048661Y1139220D1*
X1048676Y1139190D1*
X1048690Y1139146D1*
X1048705Y1139117D1*
X1048720Y1139073D1*
X1048734Y1139043D1*
X1048764Y1138955D1*
X1048779Y1138925D1*
X1048793Y1138881D1*
X1048808Y1138852D1*
X1048837Y1138764D1*
X1048852Y1138734D1*
X1048867Y1138690D1*
X1048882Y1138661D1*
X1048911Y1138572D1*
X1048926Y1138543D1*
X1048955Y1138455D1*
X1048970Y1138425D1*
X1049014Y1138293D1*
X1049029Y1138263D1*
X1049073Y1138131D1*
X1049088Y1138102D1*
X1049132Y1137969D1*
X1049146Y1137940D1*
X1049205Y1137763D1*
X1049220Y1137734D1*
X1049352Y1137336D1*
X1049367Y1137307D1*
X1049500Y1136910D1*
X1049514Y1136851D1*
X1049632Y1136498D1*
X1049647Y1136439D1*
X1049705Y1136262D1*
X1049720Y1136204D1*
X1049764Y1136071D1*
X1049779Y1136012D1*
X1049808Y1135924D1*
X1049823Y1135865D1*
X1049853Y1135777D1*
X1049867Y1135718D1*
X1049882Y1135674D1*
X1049897Y1135615D1*
X1049911Y1135571D1*
X1049926Y1135512D1*
X1049941Y1135468D1*
X1049956Y1135409D1*
X1049970Y1135365D1*
X1049985Y1135306D1*
X1050000Y1135262D1*
X1050014Y1135203D1*
X1050029Y1135159D1*
X1050044Y1135100D1*
X1050059Y1135056D1*
X1050088Y1134938D1*
X1050103Y1134894D1*
X1050147Y1134718D1*
X1050162Y1134674D1*
X1050220Y1134438D1*
X1050235Y1134394D1*
X1050382Y1133806D1*
X1050397Y1133732D1*
X1050456Y1133497D1*
X1050471Y1133423D1*
X1050500Y1133305D1*
X1050515Y1133232D1*
X1050529Y1133173D1*
X1050544Y1133099D1*
X1050559Y1133041D1*
X1050574Y1132967D1*
X1050588Y1132908D1*
X1050603Y1132835D1*
X1050618Y1132776D1*
X1050662Y1132555D1*
X1050677Y1132496D1*
X1050794Y1131908D1*
X1050809Y1131819D1*
X1050838Y1131672D1*
X1050853Y1131584D1*
X1050868Y1131510D1*
X1050882Y1131422D1*
X1050897Y1131349D1*
X1050927Y1131172D1*
X1050941Y1131098D1*
X1051015Y1130657D1*
X1051030Y1130554D1*
X1051044Y1130466D1*
X1051059Y1130363D1*
X1051074Y1130275D1*
X1051162Y1129657D1*
X1051177Y1129539D1*
X1051191Y1129436D1*
X1051236Y1129083D1*
X1051250Y1128951D1*
X1051265Y1128833D1*
X1051294Y1128568D1*
X1051309Y1128421D1*
X1051324Y1128288D1*
X1051339Y1128141D1*
X1051383Y1127656D1*
X1051397Y1127479D1*
X1051427Y1127097D1*
X1051456Y1126655D1*
X1051471Y1126405D1*
X1051486Y1126111D1*
X1051500Y1125773D1*
X1051515Y1125361D1*
X1051530Y1124655D1*
X1051545Y1124640D1*
Y1123581D1*
X1051530Y1123566D1*
X1051515Y1122874D1*
X1051500Y1122448D1*
X1051486Y1122109D1*
X1051471Y1121830D1*
X1051456Y1121580D1*
X1051442Y1121344D1*
X1051427Y1121138D1*
X1051397Y1120756D1*
X1051383Y1120579D1*
X1051353Y1120256D1*
X1051339Y1120108D1*
X1051324Y1119947D1*
X1051309Y1119814D1*
X1051294Y1119667D1*
X1051280Y1119535D1*
X1051265Y1119417D1*
X1051250Y1119285D1*
X1051177Y1118696D1*
X1051162Y1118593D1*
X1051147Y1118475D1*
X1051103Y1118166D1*
X1051088Y1118078D1*
X1051059Y1117872D1*
X1051030Y1117696D1*
X1051015Y1117593D1*
X1050941Y1117151D1*
X1050927Y1117078D1*
X1050897Y1116901D1*
X1050882Y1116828D1*
X1050868Y1116739D1*
X1050853Y1116666D1*
X1050838Y1116578D1*
X1050794Y1116357D1*
X1050780Y1116269D1*
X1050691Y1115827D1*
X1050677Y1115768D1*
X1050632Y1115548D1*
X1050618Y1115489D1*
X1050603Y1115415D1*
X1050588Y1115356D1*
X1050559Y1115209D1*
X1050529Y1115092D1*
X1050515Y1115018D1*
X1050500Y1114959D1*
X1050485Y1114886D1*
X1050441Y1114709D1*
X1050426Y1114635D1*
X1050338Y1114282D1*
X1050323Y1114209D1*
X1050309Y1114165D1*
X1050191Y1113694D1*
X1050176Y1113650D1*
X1050132Y1113473D1*
X1050117Y1113429D1*
X1050088Y1113311D1*
X1050073Y1113267D1*
X1050044Y1113150D1*
X1050029Y1113105D1*
X1050014Y1113047D1*
X1050000Y1113002D1*
X1049985Y1112944D1*
X1049970Y1112899D1*
X1049956Y1112841D1*
X1049941Y1112796D1*
X1049926Y1112738D1*
X1049911Y1112693D1*
X1049897Y1112635D1*
X1049882Y1112590D1*
X1049867Y1112532D1*
X1049838Y1112443D1*
X1049823Y1112385D1*
X1049794Y1112296D1*
X1049779Y1112237D1*
X1049735Y1112105D1*
X1049720Y1112046D1*
X1049676Y1111914D1*
X1049661Y1111855D1*
X1049573Y1111590D1*
X1049558Y1111531D1*
X1049308Y1110781D1*
X1049294Y1110751D1*
X1049205Y1110487D1*
X1049191Y1110457D1*
X1049132Y1110281D1*
X1049117Y1110251D1*
X1049073Y1110119D1*
X1049058Y1110089D1*
X1049014Y1109957D1*
X1048999Y1109928D1*
X1048970Y1109839D1*
X1048955Y1109810D1*
X1048926Y1109722D1*
X1048911Y1109692D1*
X1048882Y1109604D1*
X1048867Y1109574D1*
X1048837Y1109486D1*
X1048823Y1109457D1*
X1048808Y1109413D1*
X1048793Y1109383D1*
X1048764Y1109295D1*
X1048749Y1109266D1*
X1048734Y1109221D1*
X1048720Y1109192D1*
X1048705Y1109148D1*
X1048690Y1109118D1*
X1048676Y1109074D1*
X1048661Y1109045D1*
X1048646Y1109001D1*
X1048631Y1108971D1*
X1048617Y1108927D1*
X1048602Y1108898D1*
X1048587Y1108854D1*
X1048573Y1108824D1*
X1048558Y1108780D1*
X1048543Y1108751D1*
X1048528Y1108706D1*
X1048514Y1108677D1*
X1048499Y1108633D1*
X1048484Y1108603D1*
X1048470Y1108559D1*
X1048440Y1108500D1*
X1048425Y1108456D1*
X1048411Y1108427D1*
X1048396Y1108383D1*
X1048381Y1108353D1*
X1048367Y1108309D1*
X1048337Y1108250D1*
X1048322Y1108206D1*
X1048293Y1108147D1*
X1048278Y1108103D1*
X1048249Y1108044D1*
X1048234Y1108000D1*
X1048205Y1107941D1*
X1048190Y1107897D1*
X1048161Y1107838D1*
X1048146Y1107794D1*
X1048117Y1107735D1*
X1048102Y1107691D1*
X1048058Y1107603D1*
X1048043Y1107559D1*
X1047999Y1107471D1*
X1047984Y1107426D1*
X1047940Y1107338D1*
X1047925Y1107294D1*
X1047866Y1107176D1*
X1047852Y1107132D1*
X1047778Y1106985D1*
X1047763Y1106941D1*
X1047690Y1106794D1*
X1047675Y1106750D1*
X1047557Y1106514D1*
X1047543Y1106470D1*
X1047278Y1105941D1*
X1047263Y1105896D1*
X1047204Y1105779D1*
X1047175Y1105735D1*
X1046910Y1105205D1*
X1046881Y1105161D1*
X1046763Y1104925D1*
X1046734Y1104881D1*
X1046660Y1104734D1*
X1046631Y1104690D1*
X1046572Y1104572D1*
X1046542Y1104528D1*
X1046483Y1104410D1*
X1046454Y1104366D1*
X1046410Y1104278D1*
X1046380Y1104234D1*
X1046336Y1104146D1*
X1046307Y1104102D1*
X1046263Y1104013D1*
X1046233Y1103969D1*
X1046204Y1103910D1*
X1046174Y1103866D1*
X1046145Y1103807D1*
X1046116Y1103763D1*
X1046086Y1103704D1*
X1046057Y1103660D1*
X1046042Y1103631D1*
X1046013Y1103587D1*
X1045983Y1103528D1*
X1045954Y1103484D1*
X1045939Y1103454D1*
X1045910Y1103410D1*
X1045895Y1103381D1*
X1045865Y1103336D1*
X1045836Y1103278D1*
X1045807Y1103233D1*
X1045792Y1103204D1*
X1045762Y1103160D1*
X1045748Y1103131D1*
X1045743Y1103113D1*
X1045733Y1103101D1*
X1018495Y1103086D1*
X991257D1*
X964019Y1103101D1*
Y1103116D1*
X963989Y1103160D1*
X963975Y1103189D1*
X963945Y1103233D1*
X963916Y1103292D1*
X963886Y1103336D1*
X963872Y1103366D1*
X963842Y1103410D1*
X963827Y1103439D1*
X963798Y1103484D1*
X963769Y1103542D1*
X963739Y1103587D1*
X963724Y1103616D1*
X963695Y1103660D1*
X963666Y1103719D1*
X963636Y1103763D1*
X963607Y1103822D1*
X963577Y1103866D1*
X963548Y1103925D1*
X963518Y1103969D1*
X963489Y1104028D1*
X963460Y1104072D1*
X963415Y1104160D1*
X963386Y1104205D1*
X963342Y1104293D1*
X963312Y1104337D1*
X963268Y1104425D1*
X963239Y1104469D1*
X963180Y1104587D1*
X963151Y1104631D1*
X963077Y1104778D1*
X963048Y1104822D1*
X962959Y1104999D1*
X962930Y1105043D1*
X962783Y1105337D1*
X962753Y1105381D1*
X962297Y1106294D1*
X962283Y1106338D1*
X962135Y1106632D1*
X962121Y1106676D1*
X962032Y1106853D1*
X962018Y1106897D1*
X961944Y1107044D1*
X961929Y1107088D1*
X961871Y1107206D1*
X961856Y1107250D1*
X961797Y1107368D1*
X961782Y1107412D1*
X961738Y1107500D1*
X961723Y1107544D1*
X961679Y1107632D1*
X961665Y1107677D1*
X961635Y1107735D1*
X961620Y1107780D1*
X961576Y1107868D1*
X961562Y1107912D1*
X961532Y1107971D1*
X961517Y1108015D1*
X961488Y1108074D1*
X961473Y1108118D1*
X961459Y1108147D1*
X961444Y1108192D1*
X961415Y1108250D1*
X961400Y1108295D1*
X961370Y1108353D1*
X961356Y1108397D1*
X961341Y1108427D1*
X961326Y1108471D1*
X961312Y1108500D1*
X961297Y1108545D1*
X961267Y1108603D1*
X961253Y1108648D1*
X961238Y1108677D1*
X961223Y1108721D1*
X961209Y1108751D1*
X961194Y1108795D1*
X961179Y1108824D1*
X961164Y1108868D1*
X961150Y1108898D1*
X961135Y1108942D1*
X961120Y1108971D1*
X961106Y1109015D1*
X961091Y1109045D1*
X961076Y1109089D1*
X961061Y1109118D1*
X961047Y1109163D1*
X961032Y1109192D1*
X961017Y1109236D1*
X961003Y1109266D1*
X960973Y1109354D1*
X960958Y1109383D1*
X960944Y1109427D1*
X960929Y1109457D1*
X960900Y1109545D1*
X960885Y1109574D1*
X960870Y1109619D1*
X960855Y1109648D1*
X960811Y1109780D1*
X960797Y1109810D1*
X960767Y1109898D1*
X960752Y1109928D1*
X960723Y1110016D1*
X960708Y1110045D1*
X960664Y1110178D1*
X960649Y1110207D1*
X960591Y1110384D1*
X960576Y1110413D1*
X960502Y1110634D1*
X960488Y1110663D1*
X960149Y1111678D1*
X960135Y1111737D1*
X960076Y1111914D1*
X960061Y1111973D1*
X960002Y1112149D1*
X959987Y1112208D1*
X959958Y1112296D1*
X959943Y1112355D1*
X959914Y1112443D1*
X959899Y1112502D1*
X959884Y1112546D1*
X959870Y1112605D1*
X959840Y1112693D1*
X959826Y1112752D1*
X959811Y1112796D1*
X959796Y1112855D1*
X959781Y1112899D1*
X959767Y1112958D1*
X959752Y1113002D1*
X959723Y1113120D1*
X959708Y1113164D1*
X959693Y1113223D1*
X959678Y1113267D1*
X959649Y1113385D1*
X959634Y1113429D1*
X959590Y1113606D1*
X959575Y1113650D1*
X959487Y1114003D1*
X959472Y1114047D1*
X959399Y1114341D1*
X959384Y1114415D1*
X959311Y1114709D1*
X959296Y1114783D1*
X959266Y1114900D1*
X959252Y1114974D1*
X959222Y1115092D1*
X959208Y1115165D1*
X959193Y1115224D1*
X959178Y1115298D1*
X959163Y1115356D1*
X959134Y1115504D1*
X959119Y1115562D1*
X959075Y1115783D1*
X959060Y1115842D1*
X958972Y1116283D1*
X958957Y1116372D1*
X958913Y1116592D1*
X958899Y1116680D1*
X958884Y1116754D1*
X958869Y1116842D1*
X958854Y1116916D1*
X958825Y1117092D1*
X958810Y1117166D1*
X958752Y1117519D1*
X958737Y1117622D1*
X958707Y1117799D1*
X958693Y1117902D1*
X958678Y1117990D1*
X958590Y1118608D1*
X958575Y1118725D1*
X958560Y1118828D1*
X958516Y1119182D1*
X958501Y1119314D1*
X958487Y1119432D1*
X958457Y1119697D1*
X958443Y1119844D1*
X958428Y1119976D1*
X958413Y1120138D1*
X958398Y1120285D1*
X958369Y1120609D1*
X958354Y1120800D1*
X958340Y1120976D1*
X958310Y1121388D1*
X958295Y1121624D1*
X958281Y1121889D1*
X958266Y1122183D1*
X958251Y1122521D1*
X958237Y1122963D1*
X958222Y1123845D1*
X958207Y1123860D1*
Y1124360D1*
X958222Y1124375D1*
X958237Y1125243D1*
X958251Y1125699D1*
X958266Y1126037D1*
X958281Y1126332D1*
X958295Y1126582D1*
X958310Y1126817D1*
X958340Y1127229D1*
X958354Y1127420D1*
X958369Y1127597D1*
X958413Y1128082D1*
X958428Y1128215D1*
X958457Y1128509D1*
X958487Y1128774D1*
X958501Y1128892D1*
X958516Y1129024D1*
X958546Y1129259D1*
X958560Y1129362D1*
X958590Y1129598D1*
X958663Y1130113D1*
X958678Y1130201D1*
X958693Y1130304D1*
X958707Y1130392D1*
X958722Y1130495D1*
X958840Y1131201D1*
X958854Y1131275D1*
X958869Y1131363D1*
X958884Y1131437D1*
X958899Y1131525D1*
X958928Y1131672D1*
X958943Y1131761D1*
X959090Y1132496D1*
X959105Y1132555D1*
X959134Y1132702D1*
X959149Y1132761D1*
X959163Y1132835D1*
X959178Y1132893D1*
X959193Y1132967D1*
X959208Y1133026D1*
X959222Y1133099D1*
X959237Y1133158D1*
X959252Y1133232D1*
X959281Y1133349D1*
X959296Y1133423D1*
X959355Y1133658D1*
X959369Y1133732D1*
X959517Y1134320D1*
X959531Y1134365D1*
X959590Y1134600D1*
X959605Y1134644D1*
X959649Y1134821D1*
X959664Y1134865D1*
X959693Y1134983D1*
X959708Y1135027D1*
X959723Y1135086D1*
X959737Y1135130D1*
X959752Y1135189D1*
X959767Y1135233D1*
X959781Y1135291D1*
X959796Y1135336D1*
X959811Y1135394D1*
X959826Y1135439D1*
X959840Y1135497D1*
X959855Y1135542D1*
X959870Y1135600D1*
X959899Y1135689D1*
X959914Y1135748D1*
X959929Y1135792D1*
X959943Y1135851D1*
X959987Y1135983D1*
X960002Y1136042D1*
X960032Y1136130D1*
X960046Y1136189D1*
X960105Y1136365D1*
X960120Y1136424D1*
X960252Y1136822D1*
X960267Y1136880D1*
X960385Y1137234D1*
X960399Y1137263D1*
X960517Y1137616D1*
X960532Y1137645D1*
X960605Y1137866D1*
X960620Y1137896D1*
X960679Y1138072D1*
X960694Y1138102D1*
X960723Y1138190D1*
X960738Y1138219D1*
X960782Y1138352D1*
X960797Y1138381D1*
X960826Y1138469D1*
X960841Y1138499D1*
X960870Y1138587D1*
X960885Y1138616D1*
X960900Y1138661D1*
X960914Y1138690D1*
X960944Y1138778D1*
X960958Y1138808D1*
X960988Y1138896D1*
X961003Y1138925D1*
X961017Y1138970D1*
X961032Y1138999D1*
X961047Y1139043D1*
X961061Y1139073D1*
X961076Y1139117D1*
X961091Y1139146D1*
X961106Y1139190D1*
X961120Y1139220D1*
X961135Y1139264D1*
X961150Y1139293D1*
X961164Y1139337D1*
X961179Y1139367D1*
X961194Y1139411D1*
X961209Y1139440D1*
X961223Y1139484D1*
X961238Y1139514D1*
X961253Y1139558D1*
X961267Y1139587D1*
X961282Y1139632D1*
X961297Y1139661D1*
X961312Y1139705D1*
X961341Y1139764D1*
X961356Y1139808D1*
X961370Y1139838D1*
X961385Y1139882D1*
X961415Y1139941D1*
X961429Y1139985D1*
X961459Y1140044D1*
X961473Y1140088D1*
X961488Y1140117D1*
X961503Y1140161D1*
X961532Y1140220D1*
X961547Y1140264D1*
X961576Y1140323D1*
X961591Y1140367D1*
X961635Y1140455D1*
X961650Y1140500D1*
X961679Y1140558D1*
X961694Y1140603D1*
X961738Y1140691D1*
X961753Y1140735D1*
X961797Y1140823D1*
X961812Y1140867D1*
X961871Y1140985D1*
X961885Y1141029D1*
X961944Y1141147D1*
X961959Y1141191D1*
X962032Y1141338D1*
X962047Y1141382D1*
X962135Y1141559D1*
X962150Y1141603D1*
X962283Y1141868D1*
X962297Y1141912D1*
X962798Y1142912D1*
X962827Y1142957D1*
X962959Y1143221D1*
X962989Y1143266D1*
X963077Y1143442D1*
X963106Y1143486D1*
X963180Y1143633D1*
X963209Y1143677D1*
X963268Y1143795D1*
X963298Y1143839D1*
X963342Y1143928D1*
X963371Y1143972D1*
X963415Y1144060D1*
X963445Y1144104D1*
X963489Y1144192D1*
X963518Y1144237D1*
X963548Y1144295D1*
X963577Y1144340D1*
X963607Y1144398D1*
X963636Y1144443D1*
X963666Y1144501D1*
X963695Y1144545D1*
X963724Y1144604D1*
X963754Y1144648D1*
X963783Y1144707D1*
X963813Y1144751D1*
X963827Y1144781D1*
X963857Y1144825D1*
X963872Y1144854D1*
X963901Y1144899D1*
X963930Y1144957D1*
X963960Y1145002D1*
X963975Y1145031D1*
X964004Y1145075D1*
X964019Y1145105D1*
X964048Y1145149D1*
X964063Y1145178D1*
X964092Y1145222D1*
X964107Y1145252D1*
X964136Y1145296D1*
X964151Y1145325D1*
X964180Y1145369D1*
X964195Y1145399D1*
X964254Y1145487D1*
X964269Y1145517D1*
X964298Y1145561D1*
X964313Y1145590D1*
X964372Y1145678D1*
X964386Y1145708D1*
X964416Y1145752D1*
X964431Y1145781D1*
X964489Y1145870D1*
X964504Y1145899D1*
X964592Y1146031D1*
X964607Y1146061D1*
X964695Y1146193D1*
X964710Y1146223D1*
X964828Y1146399D1*
X964843Y1146429D1*
X965402Y1147267D1*
X965446Y1147326D1*
X965534Y1147459D1*
X965578Y1147517D1*
X965637Y1147606D1*
X965681Y1147664D1*
X965740Y1147753D1*
X965784Y1147812D1*
X965814Y1147856D1*
X965858Y1147915D1*
X965887Y1147959D1*
X965931Y1148018D1*
X965961Y1148062D1*
X966005Y1148121D1*
X966034Y1148165D1*
X966123Y1148282D1*
X966152Y1148327D1*
X966682Y1149033D1*
X966741Y1149106D1*
X966829Y1149224D1*
X966888Y1149298D1*
X966932Y1149356D1*
X967049Y1149504D1*
X967094Y1149562D1*
X967329Y1149857D1*
X967403Y1149945D1*
X967520Y1150092D1*
X967962Y1150622D1*
X968226Y1150931D1*
X968535Y1151284D1*
X968653Y1151416D1*
X968786Y1151563D1*
X969080Y1151887D1*
X969271Y1152093D1*
X969506Y1152343D1*
X969889Y1152740D1*
Y1152755D1*
X970595Y1153461D1*
X970625Y1153476D1*
X971022Y1153858D1*
X971272Y1154094D1*
X971478Y1154285D1*
X971655Y1154447D1*
X971949Y1154712D1*
X972081Y1154829D1*
X972434Y1155138D1*
X972743Y1155403D1*
X973273Y1155845D1*
X973420Y1155962D1*
X973508Y1156036D1*
X973729Y1156212D1*
X973788Y1156256D1*
X973935Y1156374D1*
X973994Y1156418D1*
X974141Y1156536D1*
X974318Y1156668D1*
X974391Y1156727D1*
X974921Y1157124D1*
X974965Y1157154D1*
X975200Y1157330D1*
X975377Y1157507D1*
X975436Y1157581D1*
X975495Y1157669D1*
X975509Y1157698D1*
X975539Y1157742D1*
X975583Y1157831D1*
X975598Y1157875D1*
X975612Y1157904D1*
X975671Y1158081D1*
X975686Y1158154D1*
X975701Y1158243D1*
Y1158625D1*
X975686Y1158713D1*
X975656Y1158831D1*
X975509Y1159272D1*
X975495Y1159331D1*
X975244Y1160082D1*
X975230Y1160140D1*
X974980Y1160891D1*
X974965Y1160950D1*
X974715Y1161700D1*
X974700Y1161759D1*
X974450Y1162509D1*
X974435Y1162568D1*
X974185Y1163318D1*
X974170Y1163377D1*
X973920Y1164128D1*
X973906Y1164186D1*
X973655Y1164937D1*
X973641Y1164996D1*
X973391Y1165746D1*
X973376Y1165805D1*
X973126Y1166555D1*
X973111Y1166614D1*
X972861Y1167364D1*
X972846Y1167423D1*
X972596Y1168173D1*
X972581Y1168232D1*
X972331Y1168983D1*
X972317Y1169041D1*
X972067Y1169792D1*
X972052Y1169851D1*
X971802Y1170601D1*
X971787Y1170660D1*
X971537Y1171410D1*
X971522Y1171469D1*
X971272Y1172219D1*
X971257Y1172278D1*
X971007Y1173028D1*
X970992Y1173087D1*
X970742Y1173838D1*
X970728Y1173896D1*
X970478Y1174647D1*
X970463Y1174706D1*
X970213Y1175456D1*
X970198Y1175515D1*
X969948Y1176265D1*
X969933Y1176324D1*
X969683Y1177074D1*
X969668Y1177133D1*
X969418Y1177883D1*
X969404Y1177942D1*
X969153Y1178693D1*
X969139Y1178751D1*
X968889Y1179502D1*
X968874Y1179561D1*
X968624Y1180311D1*
X968609Y1180370D1*
X968359Y1181120D1*
X968344Y1181179D1*
X968094Y1181929D1*
X968079Y1181988D1*
X967829Y1182738D1*
X967815Y1182797D1*
X967564Y1183548D1*
X967550Y1183607D1*
X967300Y1184357D1*
X967285Y1184416D1*
X967035Y1185166D1*
X967020Y1185225D1*
X966770Y1185975D1*
X966755Y1186034D1*
X966505Y1186784D1*
X966490Y1186843D1*
X966240Y1187594D1*
X966226Y1187652D1*
X965975Y1188403D1*
X965961Y1188462D1*
X965711Y1189212D1*
X965696Y1189271D1*
X965446Y1190021D1*
X965431Y1190080D1*
X965181Y1190830D1*
X965166Y1190889D1*
X964916Y1191639D1*
X964901Y1191698D1*
X964637Y1192493D1*
X964622Y1192552D1*
X964372Y1193302D1*
X964357Y1193361D1*
X964107Y1194111D1*
X964092Y1194170D1*
X963842Y1194920D1*
X963827Y1194979D1*
X963577Y1195729D1*
X963563Y1195788D1*
X963312Y1196539D1*
X963298Y1196597D1*
X963048Y1197348D1*
X963033Y1197407D1*
X962783Y1198157D1*
X962768Y1198216D1*
X962518Y1198966D1*
X962503Y1199025D1*
X962253Y1199775D1*
X962238Y1199834D1*
X961988Y1200584D1*
X961974Y1200643D1*
X961723Y1201394D1*
X961709Y1201452D1*
X961459Y1202203D1*
X961444Y1202262D1*
X961194Y1203012D1*
X961179Y1203071D1*
X960929Y1203821D1*
X960914Y1203880D1*
X960664Y1204630D1*
X960649Y1204689D1*
X960399Y1205440D1*
X960385Y1205498D1*
X960135Y1206249D1*
X960120Y1206308D1*
X959870Y1207058D1*
X959855Y1207117D1*
X959605Y1207867D1*
X959590Y1207926D1*
X959340Y1208676D1*
X959325Y1208735D1*
X959075Y1209485D1*
X959060Y1209544D1*
X958810Y1210295D1*
X958796Y1210353D1*
X958546Y1211104D1*
X958531Y1211163D1*
X958340Y1211736D1*
X958325Y1211795D1*
X958295Y1211883D1*
X958266Y1212001D1*
X958251Y1212075D1*
X958237Y1212134D1*
X958207Y1212310D1*
X958192Y1212428D1*
X958178Y1212590D1*
X958163Y1212604D1*
Y1213090D1*
X958178Y1213105D1*
X958192Y1213281D1*
X958207Y1213399D1*
X958222Y1213502D1*
X958237Y1213590D1*
X958266Y1213737D1*
X958340Y1214031D1*
X958369Y1214120D1*
X958384Y1214179D1*
X958443Y1214355D1*
X958457Y1214385D1*
X958487Y1214473D1*
X958501Y1214502D1*
X958516Y1214546D1*
X958531Y1214576D1*
X958546Y1214620D1*
X958575Y1214679D1*
X958590Y1214723D1*
X958649Y1214841D1*
X958663Y1214885D1*
X958766Y1215091D1*
X958796Y1215135D1*
X958854Y1215253D1*
X958884Y1215297D1*
X958913Y1215356D1*
X958943Y1215400D1*
X958957Y1215429D1*
X958987Y1215473D1*
X959002Y1215503D1*
X959090Y1215635D1*
X959105Y1215665D1*
X959163Y1215753D1*
X959208Y1215812D1*
X959266Y1215900D1*
X959311Y1215959D1*
X959340Y1216003D1*
X959472Y1216179D1*
X959649Y1216400D1*
X959723Y1216488D1*
X959811Y1216591D1*
X959929Y1216724D1*
X960149Y1216959D1*
Y1216974D1*
X960385Y1217209D1*
X960414Y1217224D1*
X960649Y1217445D1*
X960782Y1217562D1*
X960988Y1217739D1*
X961061Y1217798D1*
X961150Y1217871D1*
X961223Y1217930D1*
X961282Y1217974D1*
X961356Y1218033D1*
X961532Y1218166D1*
X961576Y1218195D1*
X961694Y1218283D1*
X961782Y1218342D1*
X961841Y1218386D1*
X962150Y1218592D1*
X962224Y1218636D1*
X962268Y1218666D1*
X962341Y1218710D1*
X962386Y1218739D1*
X962533Y1218828D1*
X962842Y1219004D1*
X962974Y1219078D1*
X963283Y1219240D1*
X963298Y1219254D1*
X963474Y1219343D1*
X963518Y1219357D1*
X963827Y1219504D1*
X964092Y1219622D1*
X964298Y1219710D1*
X964666Y1219858D1*
X964784Y1219902D1*
X964946Y1219960D1*
X964975Y1219975D1*
X965593Y1220181D1*
X965652Y1220196D1*
X965799Y1220240D1*
X966005Y1220299D1*
X966167Y1220343D1*
X966211Y1220358D1*
X966505Y1220431D1*
X966579Y1220446D1*
X966770Y1220490D1*
X966829Y1220505D1*
X967270Y1220593D1*
X967623Y1220652D1*
X967932Y1220696D1*
X968168Y1220726D1*
X968300Y1220740D1*
X968624Y1220770D1*
X968830Y1220784D1*
X969124Y1220799D1*
X960296D1*
X960252Y1220770D1*
X960193Y1220726D1*
X960105Y1220667D1*
X960046Y1220623D1*
X960002Y1220593D1*
X959943Y1220549D1*
X959899Y1220520D1*
X959487Y1220211D1*
X959266Y1220034D1*
X959002Y1219813D1*
X958766Y1219607D1*
X958590Y1219446D1*
X957898Y1218754D1*
X957751Y1218592D1*
X957648Y1218475D1*
X957560Y1218372D1*
X957413Y1218195D1*
X957236Y1217974D1*
X957015Y1217680D1*
X956986Y1217636D1*
X956942Y1217577D1*
X956912Y1217533D1*
X956868Y1217474D1*
X956692Y1217209D1*
X956677Y1217180D1*
X956589Y1217047D1*
X956574Y1217018D1*
X956545Y1216974D1*
X956530Y1216944D1*
X956500Y1216900D1*
X956486Y1216871D1*
X956456Y1216827D1*
X956427Y1216768D1*
X956397Y1216724D1*
X956368Y1216665D1*
X956339Y1216621D1*
X956280Y1216503D1*
X956250Y1216459D1*
X956074Y1216106D1*
X956059Y1216062D1*
X955986Y1215915D1*
X955971Y1215870D1*
X955941Y1215812D1*
X955927Y1215768D1*
X955897Y1215709D1*
X955883Y1215665D1*
X955868Y1215635D1*
X955853Y1215591D1*
X955838Y1215562D1*
X955824Y1215517D1*
X955809Y1215488D1*
X955780Y1215400D1*
X955765Y1215370D1*
X955618Y1214929D1*
X955603Y1214870D1*
X955588Y1214826D1*
X955574Y1214767D1*
X955559Y1214723D1*
X955471Y1214370D1*
X955412Y1214076D1*
X955382Y1213899D1*
X955353Y1213693D1*
X955338Y1213561D1*
X955323Y1213414D1*
X955309Y1213208D1*
Y1212487D1*
X955323Y1212281D1*
X955338Y1212134D1*
X955353Y1212001D1*
X955368Y1211898D1*
X955397Y1211722D1*
X955456Y1211427D1*
X955529Y1211133D1*
X955544Y1211089D1*
X955559Y1211030D1*
X955603Y1210898D1*
X955618Y1210839D1*
X955853Y1210133D1*
X955868Y1210074D1*
X956118Y1209324D1*
X956133Y1209265D1*
X956383Y1208514D1*
X956397Y1208456D1*
X956648Y1207705D1*
X956662Y1207646D1*
X956912Y1206896D1*
X956927Y1206837D1*
X957177Y1206087D1*
X957192Y1206028D1*
X957457Y1205234D1*
X957471Y1205175D1*
X957722Y1204424D1*
X957736Y1204366D1*
X957986Y1203615D1*
X958001Y1203556D1*
X958251Y1202806D1*
X958266Y1202747D1*
X958516Y1201997D1*
X958531Y1201938D1*
X958781Y1201188D1*
X958796Y1201129D1*
X959046Y1200378D1*
X959060Y1200320D1*
X959311Y1199569D1*
X959325Y1199510D1*
X959575Y1198760D1*
X959590Y1198701D1*
X959840Y1197951D1*
X959855Y1197892D1*
X960120Y1197098D1*
X960135Y1197039D1*
X960385Y1196288D1*
X960399Y1196230D1*
X960649Y1195479D1*
X960664Y1195420D1*
X960914Y1194670D1*
X960929Y1194611D1*
X961179Y1193861D1*
X961194Y1193802D1*
X961444Y1193052D1*
X961459Y1192993D1*
X961709Y1192243D1*
X961723Y1192184D1*
X961974Y1191433D1*
X961988Y1191375D1*
X962238Y1190624D1*
X962253Y1190565D1*
X962503Y1189815D1*
X962518Y1189756D1*
X962783Y1188962D1*
X962798Y1188903D1*
X963048Y1188153D1*
X963062Y1188094D1*
X963312Y1187343D1*
X963327Y1187285D1*
X963577Y1186534D1*
X963592Y1186475D1*
X963842Y1185725D1*
X963857Y1185666D1*
X964107Y1184916D1*
X964122Y1184857D1*
X964372Y1184107D1*
X964386Y1184048D1*
X964637Y1183298D1*
X964651Y1183239D1*
X964901Y1182488D1*
X964916Y1182430D1*
X965166Y1181679D1*
X965181Y1181620D1*
X965431Y1180870D1*
X965446Y1180811D1*
X965711Y1180017D1*
X965725Y1179958D1*
X965975Y1179208D1*
X965990Y1179149D1*
X966240Y1178398D1*
X966255Y1178340D1*
X966505Y1177589D1*
X966520Y1177530D1*
X966770Y1176780D1*
X966785Y1176721D1*
X967035Y1175971D1*
X967049Y1175912D1*
X967300Y1175162D1*
X967314Y1175103D1*
X967564Y1174353D1*
X967579Y1174294D1*
X967829Y1173543D1*
X967844Y1173484D1*
X968094Y1172734D1*
X968109Y1172675D1*
X968374Y1171881D1*
X968388Y1171822D1*
X968638Y1171072D1*
X968653Y1171013D1*
X968903Y1170263D1*
X968918Y1170204D1*
X969168Y1169453D1*
X969183Y1169394D1*
X969433Y1168644D1*
X969448Y1168585D1*
X969698Y1167835D1*
X969712Y1167776D1*
X969963Y1167026D1*
X969977Y1166967D1*
X970227Y1166217D1*
X970242Y1166158D1*
X970492Y1165407D1*
X970507Y1165349D1*
X970757Y1164598D1*
X970772Y1164539D1*
X971022Y1163789D1*
X971037Y1163730D1*
X971301Y1162936D1*
X971316Y1162877D1*
X971566Y1162127D1*
X971581Y1162068D1*
X971831Y1161317D1*
X971846Y1161259D1*
X972096Y1160508D1*
X972111Y1160449D1*
X972361Y1159699D1*
X972375Y1159640D1*
X972581Y1159022D1*
X972596Y1159008D1*
Y1158964D1*
X972552Y1158919D1*
X972523Y1158905D1*
X972405Y1158816D1*
X972331Y1158758D1*
X972272Y1158713D1*
X972199Y1158655D1*
X972140Y1158610D1*
X971919Y1158434D1*
X971861Y1158390D1*
X971772Y1158316D1*
X971478Y1158081D1*
X971301Y1157934D1*
X971228Y1157875D1*
X970963Y1157654D1*
X970860Y1157566D1*
X970772Y1157492D1*
X970566Y1157316D1*
X970448Y1157213D1*
X970345Y1157124D1*
X970213Y1157007D1*
X970095Y1156904D1*
X969963Y1156786D1*
X969815Y1156654D1*
X969654Y1156507D1*
X969477Y1156345D1*
X969286Y1156168D1*
X969036Y1155933D1*
X968712Y1155624D1*
X967667Y1154579D1*
X967344Y1154241D1*
X967123Y1154005D1*
X966932Y1153800D1*
X966770Y1153623D1*
X966623Y1153461D1*
X966270Y1153064D1*
X966064Y1152828D1*
X965711Y1152417D1*
X965269Y1151887D1*
X965152Y1151740D1*
X965078Y1151652D1*
X964784Y1151284D1*
X964740Y1151225D1*
X964622Y1151078D1*
X964578Y1151019D1*
X964519Y1150945D1*
X964431Y1150828D1*
X964372Y1150754D1*
X964195Y1150519D1*
X964136Y1150445D1*
X964107Y1150401D1*
X963798Y1149989D1*
X963769Y1149945D1*
X963680Y1149827D1*
X963651Y1149783D1*
X963607Y1149724D1*
X963577Y1149680D1*
X963533Y1149621D1*
X963504Y1149577D1*
X963460Y1149518D1*
X963430Y1149474D1*
X963386Y1149415D1*
X963357Y1149371D1*
X963312Y1149312D1*
X963254Y1149224D1*
X963209Y1149165D1*
X963121Y1149033D1*
X963077Y1148974D1*
X962959Y1148797D1*
X962915Y1148738D1*
X962474Y1148076D1*
X962459Y1148047D1*
X962312Y1147826D1*
X962297Y1147797D1*
X962180Y1147620D1*
X962165Y1147591D1*
X962077Y1147459D1*
X962062Y1147429D1*
X962003Y1147341D1*
X961988Y1147311D1*
X961929Y1147223D1*
X961915Y1147194D1*
X961885Y1147150D1*
X961871Y1147120D1*
X961812Y1147032D1*
X961797Y1147002D1*
X961768Y1146958D1*
X961753Y1146929D1*
X961723Y1146885D1*
X961709Y1146855D1*
X961650Y1146767D1*
X961635Y1146738D1*
X961606Y1146693D1*
X961591Y1146664D1*
X961562Y1146620D1*
X961547Y1146590D1*
X961517Y1146546D1*
X961503Y1146517D1*
X961473Y1146473D1*
X961444Y1146414D1*
X961415Y1146370D1*
X961400Y1146340D1*
X961370Y1146296D1*
X961356Y1146267D1*
X961326Y1146223D1*
X961297Y1146164D1*
X961267Y1146120D1*
X961253Y1146090D1*
X961223Y1146046D1*
X961194Y1145987D1*
X961164Y1145943D1*
X961135Y1145884D1*
X961106Y1145840D1*
X961076Y1145781D1*
X961047Y1145737D1*
X961017Y1145678D1*
X960988Y1145634D1*
X960944Y1145546D1*
X960914Y1145502D1*
X960885Y1145443D1*
X960855Y1145399D1*
X960811Y1145311D1*
X960782Y1145266D1*
X960723Y1145149D1*
X960694Y1145105D1*
X960635Y1144987D1*
X960605Y1144943D1*
X960532Y1144796D1*
X960502Y1144751D1*
X960399Y1144545D1*
X960370Y1144501D1*
X960208Y1144178D1*
X960179Y1144134D1*
X959781Y1143339D1*
X959767Y1143295D1*
X959605Y1142971D1*
X959590Y1142927D1*
X959472Y1142692D1*
X959458Y1142648D1*
X959384Y1142500D1*
X959369Y1142456D1*
X959296Y1142309D1*
X959281Y1142265D1*
X959237Y1142177D1*
X959222Y1142133D1*
X959163Y1142015D1*
X959149Y1141971D1*
X959105Y1141883D1*
X959090Y1141838D1*
X959046Y1141750D1*
X959031Y1141706D1*
X959002Y1141647D1*
X958987Y1141603D1*
X958957Y1141544D1*
X958943Y1141500D1*
X958913Y1141441D1*
X958899Y1141397D1*
X958869Y1141338D1*
X958854Y1141294D1*
X958825Y1141235D1*
X958810Y1141191D1*
X958781Y1141132D1*
X958766Y1141088D1*
X958752Y1141059D1*
X958737Y1141015D1*
X958707Y1140956D1*
X958693Y1140912D1*
X958678Y1140882D1*
X958663Y1140838D1*
X958634Y1140779D1*
X958619Y1140735D1*
X958604Y1140706D1*
X958590Y1140661D1*
X958575Y1140632D1*
X958560Y1140588D1*
X958546Y1140558D1*
X958531Y1140514D1*
X958516Y1140485D1*
X958501Y1140441D1*
X958487Y1140411D1*
X958472Y1140367D1*
X958457Y1140338D1*
X958443Y1140294D1*
X958428Y1140264D1*
X958413Y1140220D1*
X958398Y1140191D1*
X958384Y1140147D1*
X958369Y1140117D1*
X958354Y1140073D1*
X958340Y1140044D1*
X958310Y1139955D1*
X958295Y1139926D1*
X958281Y1139882D1*
X958266Y1139852D1*
X958237Y1139764D1*
X958222Y1139735D1*
X958192Y1139646D1*
X958178Y1139617D1*
X958148Y1139529D1*
X958134Y1139499D1*
X958104Y1139411D1*
X958089Y1139381D1*
X958060Y1139293D1*
X958045Y1139264D1*
X958001Y1139131D1*
X957986Y1139102D1*
X957942Y1138970D1*
X957928Y1138940D1*
X957869Y1138764D1*
X957854Y1138734D1*
X957766Y1138469D1*
X957751Y1138440D1*
X957471Y1137601D1*
X957457Y1137542D1*
X957369Y1137278D1*
X957354Y1137219D1*
X957295Y1137042D1*
X957280Y1136983D1*
X957251Y1136895D1*
X957236Y1136836D1*
X957192Y1136704D1*
X957177Y1136645D1*
X957163Y1136601D1*
X957148Y1136542D1*
X957118Y1136454D1*
X957104Y1136395D1*
X957089Y1136351D1*
X957074Y1136292D1*
X957060Y1136248D1*
X957045Y1136189D1*
X957030Y1136145D1*
X957015Y1136086D1*
X957001Y1136042D1*
X956986Y1135983D1*
X956971Y1135939D1*
X956942Y1135821D1*
X956927Y1135777D1*
X956912Y1135718D1*
X956898Y1135674D1*
X956854Y1135497D1*
X956839Y1135453D1*
X956795Y1135277D1*
X956780Y1135233D1*
X956545Y1134291D1*
X956530Y1134217D1*
X956500Y1134100D1*
X956486Y1134026D1*
X956456Y1133909D1*
X956442Y1133835D1*
X956412Y1133717D1*
X956397Y1133644D1*
X956383Y1133585D1*
X956353Y1133438D1*
X956339Y1133379D1*
X956324Y1133305D1*
X956309Y1133246D1*
X956118Y1132290D1*
X956103Y1132202D1*
X956074Y1132055D1*
X956059Y1131967D1*
X956044Y1131893D1*
X956015Y1131716D1*
X956000Y1131643D1*
X955912Y1131113D1*
X955897Y1131010D1*
X955868Y1130834D1*
X955838Y1130628D1*
X955824Y1130539D1*
X955765Y1130127D1*
X955750Y1130010D1*
X955735Y1129907D1*
X955721Y1129789D1*
X955706Y1129686D1*
X955677Y1129451D1*
X955662Y1129318D1*
X955647Y1129201D1*
X955588Y1128671D1*
X955559Y1128377D1*
X955515Y1127891D1*
X955500Y1127715D1*
X955471Y1127332D1*
X955456Y1127126D1*
X955441Y1126906D1*
X955426Y1126655D1*
X955412Y1126391D1*
X955397Y1126082D1*
X955382Y1125714D1*
X955368Y1125228D1*
Y1123036D1*
X955382Y1122565D1*
X955397Y1122198D1*
X955412Y1121889D1*
X955426Y1121624D1*
X955441Y1121374D1*
X955456Y1121153D1*
X955485Y1120741D1*
X955515Y1120388D1*
X955559Y1119902D1*
X955588Y1119608D1*
X955618Y1119343D1*
X955632Y1119196D1*
X955647Y1119079D1*
X955662Y1118946D1*
X955721Y1118475D1*
X955735Y1118372D1*
X955750Y1118255D1*
X955853Y1117534D1*
X955883Y1117357D1*
X955897Y1117254D1*
X956015Y1116548D1*
X956030Y1116475D1*
X956044Y1116386D1*
X956059Y1116313D1*
X956074Y1116224D1*
X956089Y1116151D1*
X956103Y1116063D1*
X956133Y1115915D1*
X956147Y1115827D1*
X956265Y1115239D1*
X956280Y1115180D1*
X956324Y1114959D1*
X956339Y1114900D1*
X956353Y1114827D1*
X956368Y1114768D1*
X956383Y1114694D1*
X956397Y1114635D1*
X956412Y1114562D1*
X956427Y1114503D1*
X956442Y1114430D1*
X956456Y1114371D1*
X956471Y1114297D1*
X956500Y1114179D1*
X956515Y1114106D1*
X956589Y1113812D1*
X956603Y1113738D1*
X956721Y1113267D1*
X956736Y1113223D1*
X956809Y1112929D1*
X956824Y1112885D1*
X956868Y1112708D1*
X956883Y1112664D1*
X956912Y1112546D1*
X956927Y1112502D1*
X956957Y1112385D1*
X956971Y1112340D1*
X956986Y1112282D1*
X957001Y1112237D1*
X957015Y1112179D1*
X957030Y1112134D1*
X957045Y1112076D1*
X957060Y1112031D1*
X957074Y1111973D1*
X957089Y1111928D1*
X957104Y1111870D1*
X957118Y1111825D1*
X957133Y1111767D1*
X957163Y1111678D1*
X957177Y1111619D1*
X957207Y1111531D1*
X957221Y1111472D1*
X957251Y1111384D1*
X957266Y1111325D1*
X957310Y1111193D1*
X957324Y1111134D1*
X957383Y1110957D1*
X957398Y1110899D1*
X957530Y1110501D1*
X957545Y1110442D1*
X957663Y1110089D1*
X957677Y1110060D1*
X957825Y1109619D1*
X957839Y1109589D1*
X957898Y1109413D1*
X957913Y1109383D1*
X957972Y1109207D1*
X957986Y1109177D1*
X958016Y1109089D1*
X958031Y1109060D1*
X958075Y1108927D1*
X958089Y1108898D1*
X958119Y1108809D1*
X958134Y1108780D1*
X958163Y1108692D1*
X958178Y1108662D1*
X958207Y1108574D1*
X958222Y1108545D1*
X958251Y1108456D1*
X958266Y1108427D1*
X958281Y1108383D1*
X958295Y1108353D1*
X958325Y1108265D1*
X958340Y1108236D1*
X958354Y1108192D1*
X958369Y1108162D1*
X958384Y1108118D1*
X958398Y1108089D1*
X958413Y1108044D1*
X958428Y1108015D1*
X958443Y1107971D1*
X958457Y1107941D1*
X958472Y1107897D1*
X958487Y1107868D1*
X958501Y1107824D1*
X958516Y1107794D1*
X958531Y1107750D1*
X958546Y1107721D1*
X958560Y1107677D1*
X958575Y1107647D1*
X958590Y1107603D1*
X958604Y1107574D1*
X958619Y1107529D1*
X958634Y1107500D1*
X958649Y1107456D1*
X958678Y1107397D1*
X958693Y1107353D1*
X958707Y1107324D1*
X958722Y1107279D1*
X958752Y1107221D1*
X958766Y1107176D1*
X958781Y1107147D1*
X958796Y1107103D1*
X958825Y1107044D1*
X958840Y1107000D1*
X958869Y1106941D1*
X958884Y1106897D1*
X958913Y1106838D1*
X958928Y1106794D1*
X958957Y1106735D1*
X958972Y1106691D1*
X959002Y1106632D1*
X959016Y1106588D1*
X959060Y1106500D1*
X959075Y1106455D1*
X959119Y1106367D1*
X959134Y1106323D1*
X959178Y1106235D1*
X959193Y1106191D1*
X959237Y1106102D1*
X959252Y1106058D1*
X959311Y1105941D1*
X959325Y1105896D1*
X959399Y1105749D1*
X959414Y1105705D1*
X959502Y1105529D1*
X959517Y1105484D1*
X959649Y1105220D1*
X959664Y1105176D1*
X960311Y1103881D1*
X960340Y1103837D1*
X960458Y1103601D1*
X960488Y1103557D1*
X960576Y1103381D1*
X960605Y1103336D1*
X960679Y1103189D1*
X960708Y1103145D1*
X960723Y1103116D1*
X926825Y1103086D1*
X926619Y1103072D1*
X926472Y1103057D1*
X926266Y1103028D1*
X926104Y1102998D1*
X925972Y1102969D1*
X925795Y1102925D1*
X925692Y1102895D1*
X925427Y1102807D1*
X925310Y1102763D1*
X925236Y1102733D1*
X925133Y1102689D1*
X924750Y1102498D1*
X924647Y1102439D1*
X924574Y1102395D1*
X924486Y1102336D1*
X924412Y1102292D1*
X924353Y1102248D1*
X924265Y1102189D1*
X924147Y1102101D1*
X924074Y1102042D1*
X923985Y1101968D1*
X923868Y1101865D1*
X923544Y1101542D1*
X923441Y1101424D1*
X923367Y1101336D1*
X923309Y1101262D1*
X923220Y1101144D1*
X923161Y1101056D1*
X923117Y1100997D1*
X923088Y1100953D1*
X923073Y1100924D1*
X923014Y1100835D1*
X923000Y1100806D1*
X922970Y1100762D1*
X922941Y1100703D1*
X922911Y1100659D1*
X922720Y1100276D1*
X922705Y1100232D1*
X922676Y1100173D1*
X922661Y1100129D1*
X922647Y1100100D1*
X922632Y1100056D1*
X922617Y1100026D1*
X922514Y1099717D1*
X922499Y1099658D1*
X922485Y1099614D1*
X922426Y1099379D1*
X922396Y1099232D1*
X922367Y1099055D1*
X922352Y1098938D1*
X922338Y1098805D1*
X922323Y1098614D1*
Y1084976D1*
X922338Y1084770D1*
X922352Y1084637D1*
X922382Y1084431D1*
X922441Y1084137D1*
X922470Y1084019D1*
X922485Y1083975D1*
X922499Y1083916D1*
X922514Y1083872D1*
X922529Y1083813D1*
X922588Y1083637D1*
X922602Y1083607D1*
X922632Y1083519D1*
X922647Y1083490D1*
X922661Y1083446D1*
X922676Y1083416D1*
X922691Y1083372D1*
X922735Y1083284D1*
X922750Y1083240D1*
X922882Y1082975D1*
X922911Y1082931D1*
X922941Y1082872D1*
X922970Y1082828D1*
X923000Y1082769D1*
X923058Y1082680D1*
X923073Y1082651D1*
X923132Y1082563D1*
X923176Y1082504D1*
X923206Y1082460D1*
X923338Y1082283D1*
X923397Y1082210D1*
X923485Y1082107D1*
X923632Y1081945D1*
X923765Y1081812D1*
X923927Y1081665D1*
X924030Y1081577D1*
X924177Y1081459D1*
X924235Y1081415D1*
X924280Y1081386D1*
X924338Y1081342D1*
X924515Y1081224D1*
X924736Y1081092D1*
X925118Y1080900D1*
X925221Y1080856D1*
X925368Y1080797D1*
X925530Y1080738D1*
X925574Y1080724D1*
X925721Y1080680D1*
X925824Y1080650D1*
X926001Y1080606D1*
X926222Y1080562D1*
X926310Y1080547D1*
X926413Y1080532D1*
X926545Y1080518D1*
X926707Y1080503D1*
X949218Y1080488D1*
X949232Y1080474D1*
Y1075177D1*
X1023061D1*
X1023326Y1075192D1*
X1023590D1*
X1023855Y1075177D1*
X1023958Y1075163D1*
X1024032Y1075148D1*
X1024091Y1075133D1*
X1024311Y1075060D1*
X1024547Y1074942D1*
X1024561Y1074927D1*
X1024635Y1074883D1*
X1024753Y1074795D1*
X1024841Y1074721D1*
X1024870Y1074706D1*
X1025018Y1074559D1*
Y1074545D1*
X1025106Y1074442D1*
X1025150Y1074383D1*
X1025238Y1074250D1*
X1025253Y1074221D1*
X1025282Y1074177D1*
X1025327Y1074089D1*
X1025341Y1074044D1*
X1025356Y1074015D1*
X1025371Y1073971D1*
X1025385Y1073941D1*
X1025415Y1073853D1*
X1025444Y1073735D1*
X1025459Y1073662D1*
X1025474Y1073559D1*
X1025488Y1073544D1*
Y1073191D1*
X1025474Y1073176D1*
X1025459Y1073073D1*
X1025444Y1073000D1*
X1025415Y1072882D1*
X1025385Y1072794D1*
X1025371Y1072764D1*
X1025356Y1072720D1*
X1025282Y1072573D1*
X1025194Y1072441D1*
X1025150Y1072382D1*
Y1072367D1*
X1024929Y1072147D1*
X1024900Y1072132D1*
X1024826Y1072073D1*
X1024738Y1072014D1*
X1024664Y1071970D1*
X1024650Y1071955D1*
X1024532Y1071896D1*
X1024488Y1071882D1*
X1024414Y1071852D1*
X1024385Y1071838D1*
X1024297Y1071808D1*
X1024238Y1071793D1*
X1024194Y1071779D1*
X1024047Y1071749D1*
X1023958Y1071735D1*
X1023796Y1071720D1*
X1023178Y1071705D1*
X1022914Y1071690D1*
X1022722Y1071676D1*
X1022561Y1071661D1*
X1022413Y1071646D1*
X1022178Y1071617D1*
X1021972Y1071587D1*
X1021619Y1071529D1*
X1021325Y1071470D1*
X1021192Y1071440D1*
X1020721Y1071323D1*
X1020412Y1071234D1*
X1020177Y1071161D1*
X1020089Y1071131D1*
X1019839Y1071043D1*
X1019677Y1070984D1*
X1019309Y1070837D1*
X1019103Y1070749D1*
X1018971Y1070690D1*
X1018750Y1070587D1*
X1018397Y1070410D1*
X1018176Y1070293D1*
X1018044Y1070219D1*
X1017838Y1070102D1*
X1017617Y1069969D1*
X1017573Y1069940D1*
X1017499Y1069896D1*
X1017411Y1069837D1*
X1017338Y1069793D1*
X1017073Y1069616D1*
X1017014Y1069572D1*
X1016926Y1069513D1*
X1016867Y1069469D1*
X1016823Y1069439D1*
X1016764Y1069395D1*
X1016720Y1069366D1*
X1016425Y1069145D1*
X1016352Y1069086D1*
X1016293Y1069042D1*
X1016219Y1068983D1*
X1016131Y1068910D1*
X1016058Y1068851D1*
X1015969Y1068777D1*
X1015763Y1068601D1*
X1015646Y1068498D1*
X1015498Y1068365D1*
X1015278Y1068159D1*
X1014748Y1067630D1*
X1014542Y1067409D1*
X1014410Y1067262D1*
X1014292Y1067130D1*
X1014115Y1066924D1*
X1013895Y1066659D1*
X1013865Y1066615D1*
Y1066600D1*
X1013924Y1066541D1*
X1014027Y1066453D1*
X1014292Y1066217D1*
X1014439Y1066085D1*
X1014616Y1065923D1*
X1014836Y1065717D1*
X1015204Y1065364D1*
X1015234Y1065349D1*
X1015704Y1064879D1*
Y1064864D1*
X1016058Y1064496D1*
X1016278Y1064261D1*
X1016440Y1064084D1*
X1016572Y1063937D1*
X1016808Y1063672D1*
X1016911Y1063555D1*
X1017176Y1063246D1*
X1017470Y1062893D1*
X1017588Y1062745D1*
X1017661Y1062657D1*
X1017779Y1062510D1*
X1017823Y1062451D1*
X1017941Y1062304D1*
X1017985Y1062245D1*
X1018044Y1062172D1*
X1018132Y1062054D1*
X1018191Y1061980D1*
X1018500Y1061568D1*
X1018529Y1061524D1*
X1018618Y1061407D1*
X1018647Y1061362D1*
X1018735Y1061245D1*
X1018765Y1061201D1*
X1018809Y1061142D1*
X1018838Y1061098D1*
X1018882Y1061039D1*
X1018941Y1060950D1*
X1018985Y1060892D1*
X1019044Y1060803D1*
X1019088Y1060745D1*
X1019235Y1060524D1*
X1019280Y1060465D1*
X1019544Y1060068D1*
X1019559Y1060038D1*
X1019706Y1059818D1*
X1019721Y1059788D1*
X1019839Y1059612D1*
X1019853Y1059582D1*
X1019912Y1059494D1*
X1019927Y1059465D1*
X1019986Y1059376D1*
X1020001Y1059347D1*
X1020059Y1059259D1*
X1020074Y1059229D1*
X1020104Y1059185D1*
X1020118Y1059156D1*
X1020177Y1059067D1*
X1020192Y1059038D1*
X1020221Y1058994D1*
X1020236Y1058964D1*
X1020265Y1058920D1*
X1020280Y1058891D1*
X1020309Y1058847D1*
X1020324Y1058817D1*
X1020354Y1058773D1*
X1020368Y1058744D1*
X1020398Y1058700D1*
X1020427Y1058641D1*
X1020457Y1058597D1*
X1020471Y1058567D1*
X1020501Y1058523D1*
X1020515Y1058494D1*
X1020545Y1058449D1*
X1020574Y1058391D1*
X1020604Y1058346D1*
X1020633Y1058288D1*
X1020663Y1058243D1*
X1020692Y1058185D1*
X1020721Y1058140D1*
X1020751Y1058082D1*
X1020780Y1058037D1*
X1020810Y1057979D1*
X1020839Y1057934D1*
X1020883Y1057846D1*
X1020913Y1057802D1*
X1020957Y1057714D1*
X1020986Y1057670D1*
X1021045Y1057552D1*
X1021075Y1057508D1*
X1021148Y1057361D1*
X1021178Y1057317D1*
X1021251Y1057169D1*
X1021281Y1057125D1*
X1021428Y1056831D1*
X1021457Y1056787D1*
X1021898Y1055904D1*
X1021913Y1055860D1*
X1022060Y1055566D1*
X1022075Y1055522D1*
X1022163Y1055345D1*
X1022178Y1055301D1*
X1022252Y1055154D1*
X1022266Y1055110D1*
X1022325Y1054992D1*
X1022340Y1054948D1*
X1022399Y1054830D1*
X1022413Y1054786D1*
X1022458Y1054698D1*
X1022472Y1054654D1*
X1022516Y1054565D1*
X1022531Y1054521D1*
X1022561Y1054462D1*
X1022575Y1054418D1*
X1022605Y1054359D1*
X1022619Y1054315D1*
X1022649Y1054256D1*
X1022664Y1054212D1*
X1022693Y1054153D1*
X1022708Y1054109D1*
X1022737Y1054050D1*
X1022752Y1054006D1*
X1022781Y1053947D1*
X1022796Y1053903D1*
X1022811Y1053874D1*
X1022825Y1053830D1*
X1022855Y1053771D1*
X1022869Y1053727D1*
X1022884Y1053697D1*
X1022899Y1053653D1*
X1022928Y1053594D1*
X1022943Y1053550D1*
X1022958Y1053521D1*
X1022972Y1053477D1*
X1022987Y1053447D1*
X1023002Y1053403D1*
X1023017Y1053374D1*
X1023031Y1053330D1*
X1023046Y1053300D1*
X1023061Y1053256D1*
X1023075Y1053227D1*
X1023090Y1053182D1*
X1023105Y1053153D1*
X1023120Y1053109D1*
X1023134Y1053079D1*
X1023149Y1053035D1*
X1023164Y1053006D1*
X1023193Y1052918D1*
X1023208Y1052888D1*
X1023223Y1052844D1*
X1023237Y1052815D1*
X1023252Y1052770D1*
X1023267Y1052741D1*
X1023296Y1052653D1*
X1023311Y1052623D1*
X1023340Y1052535D1*
X1023355Y1052506D1*
X1023384Y1052417D1*
X1023399Y1052388D1*
X1023429Y1052300D1*
X1023443Y1052270D1*
X1023473Y1052182D1*
X1023487Y1052153D1*
X1023532Y1052020D1*
X1023546Y1051991D1*
X1023590Y1051858D1*
X1023605Y1051829D1*
X1023664Y1051652D1*
X1023679Y1051623D1*
X1023782Y1051314D1*
X1023796Y1051285D1*
X1024061Y1050490D1*
X1024076Y1050431D1*
X1024164Y1050166D1*
X1024179Y1050108D1*
X1024238Y1049931D1*
X1024252Y1049872D1*
X1024282Y1049784D1*
X1024297Y1049725D1*
X1024326Y1049637D1*
X1024341Y1049578D1*
X1024370Y1049490D1*
X1024385Y1049431D1*
X1024414Y1049343D1*
X1024429Y1049284D1*
X1024444Y1049240D1*
X1024458Y1049181D1*
X1024473Y1049137D1*
X1024488Y1049078D1*
X1024503Y1049034D1*
X1024517Y1048975D1*
X1024532Y1048931D1*
X1024547Y1048872D1*
X1024561Y1048828D1*
X1024576Y1048769D1*
X1024591Y1048725D1*
X1024620Y1048607D1*
X1024635Y1048563D1*
X1024650Y1048504D1*
X1024664Y1048460D1*
X1024709Y1048283D1*
X1024723Y1048239D1*
X1024767Y1048063D1*
X1024782Y1048018D1*
X1025018Y1047077D1*
X1025032Y1047003D1*
X1025076Y1046827D1*
X1025091Y1046753D1*
X1025121Y1046635D1*
X1025135Y1046562D1*
X1025150Y1046503D1*
X1025165Y1046429D1*
X1025179Y1046371D1*
X1025194Y1046297D1*
X1025209Y1046238D1*
X1025224Y1046165D1*
X1025238Y1046106D1*
X1025268Y1045959D1*
X1025282Y1045900D1*
X1025327Y1045679D1*
X1025341Y1045620D1*
X1025459Y1045032D1*
X1025474Y1044944D1*
X1025503Y1044796D1*
X1025518Y1044708D1*
X1025547Y1044561D1*
X1025577Y1044384D1*
X1025591Y1044311D1*
X1025621Y1044134D1*
X1025635Y1044061D1*
X1025709Y1043619D1*
X1025724Y1043516D1*
X1025753Y1043340D1*
X1025768Y1043237D1*
X1025783Y1043149D1*
X1025886Y1042428D1*
X1025900Y1042310D1*
X1025915Y1042207D1*
X1025989Y1041619D1*
X1026062Y1040957D1*
X1026092Y1040662D1*
X1026106Y1040500D1*
X1026121Y1040353D1*
X1026136Y1040177D1*
X1026150Y1040015D1*
X1026165Y1039824D1*
X1026180Y1039647D1*
X1026195Y1039441D1*
X1026224Y1039000D1*
X1026239Y1038750D1*
X1026253Y1038470D1*
X1026268Y1038147D1*
X1026283Y1037779D1*
X1026298Y1037264D1*
X1026312Y1037249D1*
Y1035145D1*
X1026298Y1035130D1*
X1026283Y1034601D1*
X1026268Y1034218D1*
X1026253Y1033895D1*
X1026239Y1033615D1*
X1026224Y1033365D1*
X1026209Y1033130D1*
X1026195Y1032924D1*
X1026165Y1032541D1*
X1026150Y1032379D1*
X1026136Y1032203D1*
X1026077Y1031614D1*
X1026062Y1031482D1*
X1026047Y1031364D1*
X1026033Y1031232D1*
X1025974Y1030761D1*
X1025900Y1030246D1*
X1025886Y1030158D1*
X1025871Y1030055D1*
X1025783Y1029525D1*
X1025768Y1029452D1*
X1025753Y1029363D1*
X1025738Y1029290D1*
X1025724Y1029201D1*
X1025606Y1028613D1*
X1025591Y1028554D1*
X1025577Y1028481D1*
X1025562Y1028422D1*
X1025547Y1028348D1*
X1025532Y1028289D1*
X1025518Y1028216D1*
X1025488Y1028098D1*
X1025474Y1028024D1*
X1025341Y1027495D1*
X1025327Y1027451D1*
X1025282Y1027274D1*
X1025268Y1027230D1*
X1025253Y1027171D1*
X1025238Y1027127D1*
X1025224Y1027068D1*
X1025209Y1027024D1*
X1025194Y1026965D1*
X1025179Y1026921D1*
X1025165Y1026862D1*
X1025135Y1026774D1*
X1025121Y1026715D1*
X1025076Y1026583D1*
X1025062Y1026524D1*
X1024841Y1025862D1*
X1024826Y1025832D1*
X1024782Y1025700D1*
X1024767Y1025671D1*
X1024738Y1025582D1*
X1024723Y1025553D1*
X1024694Y1025465D1*
X1024679Y1025435D1*
X1024664Y1025391D1*
X1024650Y1025362D1*
X1024620Y1025273D1*
X1024606Y1025244D1*
X1024591Y1025200D1*
X1024576Y1025170D1*
X1024561Y1025126D1*
X1024532Y1025067D1*
X1024517Y1025023D1*
X1024503Y1024994D1*
X1024488Y1024950D1*
X1024458Y1024891D1*
X1024444Y1024847D1*
X1024414Y1024788D1*
X1024400Y1024744D1*
X1024355Y1024655D1*
X1024341Y1024611D1*
X1024282Y1024494D1*
X1024267Y1024449D1*
X1024150Y1024214D1*
X1024135Y1024170D1*
X1024032Y1023964D1*
X1024002Y1023920D1*
X1023885Y1023684D1*
X1023855Y1023640D1*
X1023811Y1023552D1*
X1023782Y1023508D1*
X1023738Y1023420D1*
X1023708Y1023375D1*
X1023693Y1023346D1*
X1023664Y1023302D1*
X1023635Y1023243D1*
X1023605Y1023199D1*
X1023590Y1023169D1*
X1023532Y1023081D1*
X1023517Y1023052D1*
X1023487Y1023008D1*
X1023473Y1022978D1*
X1023355Y1022802D1*
X1023340Y1022772D1*
X1023252Y1022640D1*
X1023208Y1022581D1*
X1023149Y1022493D1*
X1023105Y1022434D1*
X1023075Y1022390D1*
X1023031Y1022331D1*
X1023002Y1022287D1*
X1022914Y1022169D1*
X1022855Y1022095D1*
X1022811Y1022037D1*
X1022693Y1021889D1*
X1022546Y1021713D1*
X1022443Y1021595D1*
X1022310Y1021448D1*
Y1021433D1*
X1021781Y1020904D1*
X1021751Y1020889D1*
X1021604Y1020757D1*
X1021487Y1020654D1*
X1021398Y1020580D1*
X1021178Y1020404D1*
X1021001Y1020271D1*
X1020957Y1020242D1*
X1020898Y1020198D1*
X1020589Y1019992D1*
X1020368Y1019859D1*
X1020265Y1019800D1*
X1020133Y1019727D1*
X1020118Y1019712D1*
X1019706Y1019506D1*
X1019662Y1019491D1*
X1019500Y1019418D1*
X1019397Y1019374D1*
X1019250Y1019315D1*
X1019132Y1019271D1*
X1018926Y1019197D1*
X1018897Y1019182D1*
X1018853Y1019168D1*
X1018794Y1019153D1*
X1018559Y1019079D1*
X1018397Y1019035D1*
X1018353Y1019021D1*
X1018176Y1018976D1*
X1018103Y1018962D1*
X1018044Y1018947D1*
X1017749Y1018888D1*
X1017485Y1018844D1*
X1017279Y1018815D1*
X1017014Y1018785D1*
X1016837Y1018770D1*
X1016617Y1018756D1*
X1016102Y1018741D1*
X1016082Y1018726D1*
X1016062D1*
X1016043Y1018741D1*
X1015557Y1018756D1*
X1015351Y1018770D1*
X1015204Y1018785D1*
X1015072Y1018800D1*
X1014954Y1018815D1*
X1014748Y1018844D1*
X1014660Y1018859D1*
X1014586Y1018873D1*
X1014498Y1018888D1*
X1014351Y1018918D1*
X1014292Y1018932D1*
X1014218Y1018947D1*
X1013924Y1019021D1*
X1013880Y1019035D1*
X1013777Y1019065D1*
X1013718Y1019079D1*
X1013277Y1019227D1*
X1013247Y1019241D1*
X1013130Y1019285D1*
X1012983Y1019344D1*
X1012880Y1019388D1*
X1012747Y1019447D1*
X1012703Y1019462D1*
X1012173Y1019727D1*
X1012159Y1019741D1*
X1012026Y1019815D1*
X1011923Y1019874D1*
X1011850Y1019918D1*
X1011806Y1019947D1*
X1011732Y1019992D1*
X1011688Y1020021D1*
X1011614Y1020065D1*
X1011438Y1020183D1*
X1011379Y1020227D1*
X1011335Y1020256D1*
X1011276Y1020301D1*
X1011232Y1020330D1*
X1011055Y1020462D1*
X1010835Y1020639D1*
X1010658Y1020786D1*
X1010540Y1020889D1*
X1010393Y1021021D1*
X1010364Y1021036D1*
X1009731Y1021669D1*
Y1021683D1*
X1009599Y1021831D1*
X1009496Y1021948D1*
X1009407Y1022051D1*
X1009260Y1022228D1*
X1009084Y1022449D1*
X1009040Y1022507D1*
X1008981Y1022581D1*
X1008892Y1022699D1*
X1008863Y1022743D1*
X1008775Y1022860D1*
X1008745Y1022905D1*
X1008701Y1022963D1*
X1008642Y1023052D1*
X1008598Y1023111D1*
X1008363Y1023464D1*
X1008348Y1023493D1*
X1008260Y1023626D1*
X1008245Y1023655D1*
X1008186Y1023743D1*
X1008171Y1023773D1*
X1008142Y1023817D1*
X1008127Y1023846D1*
X1008098Y1023890D1*
X1008083Y1023920D1*
X1008054Y1023964D1*
X1008039Y1023993D1*
X1008010Y1024037D1*
X1007995Y1024067D1*
X1007966Y1024111D1*
X1007936Y1024170D1*
X1007907Y1024214D1*
X1007863Y1024302D1*
X1007833Y1024346D1*
X1007804Y1024405D1*
X1007774Y1024449D1*
X1007701Y1024597D1*
X1007671Y1024641D1*
X1007554Y1024876D1*
X1007524Y1024920D1*
X1007362Y1025244D1*
X1007348Y1025288D1*
X1007215Y1025553D1*
X1007200Y1025597D1*
X1007127Y1025744D1*
X1007112Y1025788D1*
X1007068Y1025876D1*
X1007053Y1025921D1*
X1007009Y1026009D1*
X1006994Y1026053D1*
X1006965Y1026112D1*
X1006950Y1026156D1*
X1006921Y1026215D1*
X1006906Y1026259D1*
X1006877Y1026318D1*
X1006862Y1026362D1*
X1006847Y1026391D1*
X1006833Y1026436D1*
X1006803Y1026494D1*
X1006789Y1026539D1*
X1006774Y1026568D1*
X1006759Y1026612D1*
X1006744Y1026642D1*
X1006730Y1026686D1*
X1006715Y1026715D1*
X1006700Y1026759D1*
X1006686Y1026789D1*
X1006656Y1026877D1*
X1006641Y1026906D1*
X1006627Y1026950D1*
X1006612Y1026980D1*
X1006597Y1027024D1*
X1006583Y1027053D1*
X1006553Y1027142D1*
X1006538Y1027171D1*
X1006494Y1027304D1*
X1006480Y1027333D1*
X1006450Y1027421D1*
X1006435Y1027451D1*
X1006362Y1027671D1*
X1006347Y1027701D1*
X1006097Y1028451D1*
X1006082Y1028510D1*
X1006023Y1028687D1*
X1006009Y1028745D1*
X1005979Y1028834D1*
X1005965Y1028892D1*
X1005935Y1028981D1*
X1005920Y1029040D1*
X1005906Y1029084D1*
X1005891Y1029143D1*
X1005876Y1029187D1*
X1005862Y1029246D1*
X1005847Y1029290D1*
X1005832Y1029349D1*
X1005817Y1029393D1*
X1005803Y1029452D1*
X1005788Y1029496D1*
X1005759Y1029613D1*
X1005744Y1029658D1*
X1005714Y1029775D1*
X1005700Y1029819D1*
X1005626Y1030114D1*
X1005611Y1030158D1*
X1005538Y1030452D1*
X1005523Y1030526D1*
X1005464Y1030761D1*
X1005450Y1030835D1*
X1005420Y1030952D1*
X1005406Y1031026D1*
X1005376Y1031143D1*
X1005347Y1031291D1*
X1005332Y1031349D1*
X1005317Y1031423D1*
X1005303Y1031482D1*
X1005258Y1031703D1*
X1005244Y1031761D1*
X1005170Y1032129D1*
X1005155Y1032217D1*
X1005111Y1032438D1*
X1005097Y1032526D1*
X1005082Y1032600D1*
X1005067Y1032688D1*
X1005052Y1032762D1*
X1005038Y1032850D1*
X1005023Y1032924D1*
X1004920Y1033542D1*
X1004905Y1033645D1*
X1004891Y1033733D1*
X1004876Y1033836D1*
X1004861Y1033924D1*
X1004832Y1034130D1*
X1004817Y1034218D1*
X1004802Y1034321D1*
X1004788Y1034439D1*
X1004758Y1034645D1*
X1004743Y1034763D1*
X1004729Y1034866D1*
X1004670Y1035336D1*
X1004655Y1035469D1*
X1004640Y1035587D1*
X1004611Y1035851D1*
X1004596Y1035999D1*
X1004582Y1036131D1*
X1004537Y1036572D1*
X1004493Y1037058D1*
X1004464Y1037411D1*
X1004434Y1037793D1*
X1004420Y1038014D1*
X1004405Y1038220D1*
X1004390Y1038455D1*
X1004376Y1038706D1*
X1004361Y1038970D1*
X1004346Y1039265D1*
X1004331Y1039588D1*
X1004317Y1039956D1*
X1004302Y1040383D1*
X1004287Y1040942D1*
X1004273Y1041898D1*
X1004258Y1041913D1*
Y1043105D1*
X1004273Y1043119D1*
X1004287Y1044090D1*
X1004302Y1044664D1*
X1004317Y1045105D1*
X1004331Y1045488D1*
X1004346Y1045826D1*
X1004361Y1046121D1*
X1004376Y1046400D1*
X1004390Y1046665D1*
X1004420Y1047136D1*
X1004434Y1047356D1*
X1004464Y1047768D1*
X1004479Y1047960D1*
X1004537Y1048666D1*
X1004567Y1048989D1*
X1004640Y1049725D1*
X1004714Y1050387D1*
X1004729Y1050505D1*
X1004743Y1050637D1*
X1004817Y1051226D1*
X1004832Y1051329D1*
X1004846Y1051446D1*
X1004876Y1051652D1*
X1004891Y1051770D1*
X1004935Y1052079D1*
X1004949Y1052167D1*
X1004994Y1052476D1*
X1005008Y1052565D1*
X1005023Y1052667D1*
X1005052Y1052844D1*
X1005067Y1052947D1*
X1005170Y1053565D1*
X1005185Y1053639D1*
X1005214Y1053815D1*
X1005229Y1053889D1*
X1005258Y1054065D1*
X1005288Y1054212D1*
X1005303Y1054301D1*
X1005332Y1054448D1*
X1005347Y1054536D1*
X1005538Y1055492D1*
X1005553Y1055551D1*
X1005582Y1055698D1*
X1005597Y1055757D1*
X1005626Y1055904D1*
X1005641Y1055963D1*
X1005656Y1056037D1*
X1005670Y1056095D1*
X1005685Y1056169D1*
X1005714Y1056287D1*
X1005729Y1056360D1*
X1005759Y1056478D1*
X1005773Y1056552D1*
X1005803Y1056669D1*
X1005817Y1056743D1*
X1006082Y1057802D1*
X1006097Y1057846D1*
X1006156Y1058082D1*
X1006171Y1058126D1*
X1006200Y1058243D1*
X1006215Y1058288D1*
X1006244Y1058405D1*
X1006259Y1058449D1*
X1006274Y1058508D1*
X1006288Y1058552D1*
X1006303Y1058611D1*
X1006318Y1058655D1*
X1006332Y1058714D1*
X1006347Y1058758D1*
X1006362Y1058817D1*
X1006377Y1058861D1*
X1006391Y1058920D1*
X1006406Y1058964D1*
X1006421Y1059023D1*
X1006450Y1059111D1*
X1006465Y1059170D1*
X1006480Y1059214D1*
X1006494Y1059273D1*
X1006538Y1059406D1*
X1006553Y1059465D1*
X1006583Y1059553D1*
X1006597Y1059612D1*
X1006656Y1059788D1*
X1006671Y1059847D1*
X1006759Y1060112D1*
X1006774Y1060171D1*
X1006980Y1060789D1*
X1006994Y1060818D1*
X1007097Y1061127D1*
X1007112Y1061156D1*
X1007171Y1061333D1*
X1007186Y1061362D1*
X1007230Y1061495D1*
X1007245Y1061524D1*
X1007274Y1061613D1*
X1007289Y1061642D1*
X1007333Y1061774D1*
X1007348Y1061804D1*
X1007377Y1061892D1*
X1007392Y1061921D1*
X1007406Y1061966D1*
X1007421Y1061995D1*
X1007451Y1062083D1*
X1007465Y1062113D1*
X1007480Y1062157D1*
X1007495Y1062186D1*
X1007524Y1062275D1*
X1007539Y1062304D1*
X1007554Y1062348D1*
X1007568Y1062378D1*
X1007583Y1062422D1*
X1007598Y1062451D1*
X1007612Y1062495D1*
X1007627Y1062525D1*
X1007642Y1062569D1*
X1007657Y1062598D1*
X1007671Y1062642D1*
X1007686Y1062672D1*
X1007701Y1062716D1*
X1007715Y1062745D1*
X1007730Y1062790D1*
X1007760Y1062848D1*
X1007774Y1062893D1*
X1007789Y1062922D1*
X1007804Y1062966D1*
X1007833Y1063025D1*
X1007848Y1063069D1*
X1007863Y1063098D1*
X1007877Y1063143D1*
X1007907Y1063201D1*
X1007921Y1063246D1*
X1007951Y1063304D1*
X1007966Y1063349D1*
X1007995Y1063407D1*
X1008010Y1063452D1*
X1008054Y1063540D1*
X1008069Y1063584D1*
X1008098Y1063643D1*
X1008113Y1063687D1*
X1008171Y1063805D1*
X1008186Y1063849D1*
X1008230Y1063937D1*
X1008245Y1063981D1*
X1008319Y1064128D1*
X1008333Y1064172D1*
X1008422Y1064349D1*
X1008436Y1064393D1*
X1008642Y1064805D1*
X1008657Y1064849D1*
X1008775Y1065085D1*
X1008804Y1065129D1*
X1008995Y1065511D1*
X1009025Y1065555D1*
X1009040Y1065585D1*
Y1065614D1*
X1008995Y1065644D1*
X1008922Y1065688D1*
X1008789Y1065761D1*
X1008686Y1065820D1*
X1008525Y1065909D1*
X1008333Y1066012D1*
X1007627Y1066365D1*
X1007406Y1066468D1*
X1007245Y1066541D1*
X1007112Y1066600D1*
X1006803Y1066732D1*
X1006288Y1066938D1*
X1005935Y1067071D1*
X1005685Y1067159D1*
X1005288Y1067291D1*
X1005052Y1067365D1*
X1004758Y1067453D1*
X1004655Y1067483D1*
X1004493Y1067527D1*
X1004390Y1067556D1*
X1003743Y1067718D1*
X1003346Y1067806D1*
X1002978Y1067880D1*
X1002654Y1067939D1*
X1002301Y1067998D1*
X1001786Y1068071D1*
X1001551Y1068101D1*
X1001286Y1068130D1*
X1001139Y1068145D1*
X1000815Y1068174D1*
X1000624Y1068189D1*
X1000418Y1068204D1*
X1000168Y1068218D1*
X999844Y1068233D1*
X999285Y1068248D1*
X998755D1*
X998285Y1068233D1*
X998005Y1068218D1*
X997799Y1068204D1*
X997622Y1068189D1*
X997328Y1068159D1*
X996975Y1068115D1*
X996666Y1068071D1*
X996490Y1068042D1*
X996166Y1067983D1*
X996019Y1067954D1*
X995813Y1067909D1*
X995622Y1067865D1*
X995327Y1067792D1*
X995165Y1067748D1*
X994959Y1067689D1*
X994812Y1067645D1*
X994533Y1067556D1*
X994239Y1067453D1*
X994077Y1067394D1*
X994003Y1067365D1*
X993885Y1067321D1*
X993738Y1067262D1*
X993429Y1067130D1*
X993297Y1067071D1*
X993047Y1066953D1*
X992811Y1066835D1*
X992561Y1066703D1*
X992429Y1066629D1*
X992326Y1066571D1*
X992032Y1066394D1*
X991988Y1066365D1*
X991914Y1066320D1*
X991473Y1066026D1*
X991414Y1065982D1*
X991370Y1065953D1*
X991016Y1065688D1*
X990869Y1065570D1*
X990693Y1065423D1*
X990590Y1065335D1*
X990457Y1065217D1*
X990281Y1065055D1*
X989854Y1064629D1*
X989692Y1064452D1*
X989589Y1064334D1*
X989501Y1064231D1*
X989354Y1064055D1*
X989236Y1063908D1*
X989016Y1063613D1*
X988986Y1063569D1*
X988942Y1063510D1*
X988854Y1063378D1*
X988810Y1063319D1*
X988751Y1063231D1*
X988736Y1063201D1*
X988648Y1063069D1*
X988633Y1063040D1*
X988574Y1062951D1*
X988559Y1062922D1*
X988530Y1062878D1*
X988515Y1062848D1*
X988486Y1062804D1*
X988456Y1062745D1*
X988427Y1062701D1*
X988398Y1062642D1*
X988368Y1062598D1*
X988324Y1062510D1*
X988295Y1062466D1*
X988015Y1061907D1*
X988000Y1061863D1*
X987956Y1061774D1*
X987942Y1061730D1*
X987897Y1061642D1*
X987883Y1061598D1*
X987868Y1061568D1*
X987853Y1061524D1*
X987824Y1061465D1*
X987809Y1061421D1*
X987794Y1061392D1*
X987765Y1061304D1*
X987750Y1061274D1*
X987736Y1061230D1*
X987721Y1061201D1*
X987677Y1061068D1*
X987662Y1061039D1*
X987530Y1060642D1*
X987515Y1060583D1*
X987485Y1060494D1*
X987471Y1060436D1*
X987456Y1060391D1*
X987441Y1060333D1*
X987427Y1060288D1*
X987309Y1059818D1*
X987294Y1059744D1*
X987279Y1059685D1*
X987235Y1059465D1*
X987221Y1059376D1*
X987206Y1059303D1*
X987162Y1059038D1*
X987147Y1058935D1*
X987132Y1058817D1*
X987118Y1058714D1*
X987103Y1058582D1*
X987088Y1058435D1*
X987073Y1058273D1*
X987059Y1058082D1*
X987044Y1057831D1*
Y1056772D1*
X987059Y1056522D1*
X987073Y1056346D1*
X987088Y1056184D1*
X987103Y1056051D1*
X987118Y1055934D1*
X987147Y1055728D1*
X987206Y1055375D1*
X987250Y1055154D1*
X987265Y1055095D1*
X987279Y1055021D1*
X987309Y1054904D1*
X987324Y1054830D1*
X987353Y1054712D1*
X987368Y1054668D1*
X987397Y1054551D1*
X987412Y1054507D1*
X987427Y1054448D1*
X987441Y1054404D1*
X987456Y1054345D1*
X987500Y1054212D1*
X987515Y1054153D1*
X987588Y1053933D1*
X987603Y1053903D1*
X987662Y1053727D1*
X987677Y1053697D1*
X987691Y1053653D1*
X987706Y1053624D1*
X987736Y1053536D1*
X987750Y1053506D1*
X987765Y1053462D1*
X987794Y1053403D1*
X987809Y1053359D1*
X987824Y1053330D1*
X987839Y1053285D1*
X987868Y1053227D1*
X987883Y1053182D1*
X987927Y1053094D1*
X987942Y1053050D1*
X988059Y1052815D1*
X988074Y1052770D1*
X988133Y1052653D1*
X988162Y1052609D1*
X988265Y1052403D1*
X988295Y1052359D1*
X988339Y1052270D1*
X988368Y1052226D1*
X988398Y1052167D1*
X988427Y1052123D1*
X988456Y1052064D1*
X988486Y1052020D1*
X988501Y1051991D1*
X988559Y1051902D1*
X988574Y1051873D1*
X988633Y1051785D1*
X988648Y1051755D1*
X988913Y1051358D1*
X988957Y1051299D1*
X988986Y1051255D1*
X989074Y1051137D1*
X989104Y1051093D1*
X989148Y1051034D1*
X989207Y1050961D1*
X989251Y1050902D1*
X989486Y1050608D1*
X989663Y1050402D1*
X989781Y1050269D1*
X989928Y1050108D1*
X990516Y1049519D1*
X990693Y1049357D1*
X990928Y1049151D1*
X991193Y1048931D1*
X991267Y1048872D1*
X991325Y1048828D1*
X991399Y1048769D1*
X991458Y1048725D1*
X991531Y1048666D1*
X991590Y1048622D1*
X991634Y1048592D1*
X991811Y1048460D1*
X991899Y1048401D1*
X991958Y1048357D1*
X992444Y1048033D1*
X992517Y1047989D1*
X992561Y1047960D1*
X992929Y1047739D1*
X993032Y1047680D1*
X993165Y1047606D1*
X993326Y1047518D1*
X994003Y1047180D1*
X994165Y1047106D1*
X994297Y1047047D1*
X994503Y1046959D1*
X994798Y1046841D1*
X995033Y1046753D1*
X995195Y1046694D1*
X995592Y1046562D1*
X995783Y1046503D1*
X995989Y1046444D1*
X996151Y1046400D1*
X996445Y1046327D1*
X996710Y1046268D1*
X996931Y1046224D1*
X997093Y1046194D1*
X997269Y1046165D1*
X997475Y1046135D1*
X997711Y1046106D1*
X997858Y1046091D1*
X998020Y1046076D1*
X998240Y1046062D1*
X998388Y1046047D1*
X998476Y1046032D1*
X998623Y1046003D1*
X998682Y1045988D1*
X998902Y1045915D1*
X998932Y1045900D1*
X998976Y1045885D1*
X999182Y1045782D1*
X999197Y1045767D1*
X999329Y1045679D1*
X999403Y1045620D1*
X999432Y1045606D1*
X999653Y1045385D1*
Y1045370D1*
X999741Y1045253D1*
X999771Y1045208D1*
X999874Y1045002D1*
X999932Y1044826D1*
X999947Y1044767D1*
X999962Y1044693D1*
X999977Y1044590D1*
X999991Y1044576D1*
Y1044208D1*
X999977Y1044193D1*
X999962Y1044061D1*
X999932Y1043914D1*
X999903Y1043796D1*
X999844Y1043619D1*
X999815Y1043561D1*
X999800Y1043516D1*
X999756Y1043428D1*
X999726Y1043384D1*
X999712Y1043355D1*
X999623Y1043222D1*
X999565Y1043149D1*
Y1043134D1*
X999344Y1042913D1*
X999314Y1042899D1*
X999241Y1042840D1*
X999153Y1042781D1*
X999079Y1042737D1*
X999064Y1042722D1*
X998976Y1042678D1*
X998932Y1042663D1*
X998873Y1042634D1*
X998697Y1042575D1*
X998579Y1042545D1*
X998491Y1042531D1*
X998388Y1042516D1*
X998157Y1042501D1*
X997927D1*
X997696Y1042516D1*
X997446Y1042531D1*
X997269Y1042545D1*
X997108Y1042560D1*
X996975Y1042575D1*
X996740Y1042604D1*
X996431Y1042648D1*
X996254Y1042678D1*
X996181Y1042693D1*
X996092Y1042707D1*
X995725Y1042781D1*
X995666Y1042796D1*
X995474Y1042840D1*
X995401Y1042854D1*
X995165Y1042913D1*
X995121Y1042928D1*
X994901Y1042987D1*
X994695Y1043046D1*
X994548Y1043090D1*
X994489Y1043105D1*
X993827Y1043325D1*
X993797Y1043340D1*
X993635Y1043399D1*
X993400Y1043487D1*
X993179Y1043575D1*
X993076Y1043619D1*
X993003Y1043649D1*
X992797Y1043737D1*
X992664Y1043796D1*
X992502Y1043870D1*
X992282Y1043973D1*
X992238Y1043987D1*
X991679Y1044267D1*
X991664Y1044282D1*
X991443Y1044399D1*
X991281Y1044487D1*
X990972Y1044664D1*
X990605Y1044885D1*
X990560Y1044914D1*
X990487Y1044958D1*
X990443Y1044988D1*
X990369Y1045032D1*
X989839Y1045385D1*
X989781Y1045429D1*
X989736Y1045458D1*
X989678Y1045503D1*
X989633Y1045532D1*
X989575Y1045576D1*
X989530Y1045606D1*
X989236Y1045826D1*
X989163Y1045885D1*
X989104Y1045929D1*
X988810Y1046165D1*
X988545Y1046385D1*
X988442Y1046474D1*
X988324Y1046577D1*
X988177Y1046709D1*
X988000Y1046871D1*
X987971Y1046886D1*
X987206Y1047651D1*
Y1047665D1*
X987044Y1047842D1*
X986912Y1047989D1*
X986647Y1048298D1*
X986573Y1048386D1*
X986338Y1048680D1*
X986294Y1048739D1*
X986235Y1048813D1*
X986102Y1048989D1*
X986073Y1049034D1*
X985985Y1049151D1*
X985955Y1049195D1*
X985911Y1049254D1*
X985852Y1049343D1*
X985808Y1049401D1*
X985602Y1049710D1*
X985587Y1049740D1*
X985499Y1049872D1*
X985485Y1049902D1*
X985426Y1049990D1*
X985411Y1050019D1*
X985382Y1050063D1*
X985367Y1050093D1*
X985337Y1050137D1*
X985323Y1050166D1*
X985293Y1050211D1*
X985279Y1050240D1*
X985249Y1050284D1*
X985220Y1050343D1*
X985190Y1050387D1*
X985161Y1050446D1*
X985131Y1050490D1*
X985087Y1050578D1*
X985058Y1050622D1*
X984970Y1050799D1*
X984940Y1050843D1*
X984734Y1051255D1*
X984719Y1051299D1*
X984631Y1051476D1*
X984616Y1051520D1*
X984572Y1051608D1*
X984558Y1051652D1*
X984513Y1051741D1*
X984499Y1051785D1*
X984469Y1051844D1*
X984455Y1051888D1*
X984440Y1051917D1*
X984425Y1051961D1*
X984410Y1051991D1*
X984396Y1052035D1*
X984366Y1052094D1*
X984337Y1052182D1*
X984322Y1052211D1*
X984307Y1052256D1*
X984293Y1052285D1*
X984263Y1052373D1*
X984249Y1052403D1*
X984204Y1052535D1*
X984190Y1052565D1*
X984013Y1053094D1*
X983999Y1053153D1*
X983969Y1053241D1*
X983954Y1053300D1*
X983940Y1053344D1*
X983925Y1053403D1*
X983910Y1053447D1*
X983896Y1053506D1*
X983881Y1053550D1*
X983837Y1053727D1*
X983822Y1053771D1*
X983807Y1053830D1*
X983793Y1053903D1*
X983748Y1054080D1*
X983734Y1054153D1*
X983719Y1054212D1*
X983704Y1054286D1*
X983690Y1054345D1*
X983645Y1054565D1*
X983631Y1054654D1*
X983616Y1054727D1*
X983557Y1055080D1*
X983528Y1055286D1*
X983513Y1055404D1*
X983498Y1055507D1*
X983469Y1055772D1*
X983439Y1056095D1*
X983425Y1056301D1*
X983410Y1056566D1*
X983395Y1057022D1*
X983381Y1057037D1*
Y1057523D1*
X983395Y1057537D1*
X983410Y1058023D1*
X983425Y1058288D1*
X983439Y1058494D1*
X983454Y1058670D1*
X983469Y1058832D1*
X983498Y1059097D1*
X983528Y1059332D1*
X983572Y1059641D1*
X983631Y1059994D1*
X983645Y1060068D1*
X983660Y1060156D1*
X983719Y1060450D1*
X983734Y1060509D1*
X983748Y1060583D1*
X983763Y1060642D1*
X983778Y1060715D1*
X983896Y1061186D1*
X983910Y1061230D1*
X983925Y1061289D1*
X983940Y1061333D1*
X983954Y1061392D1*
X983969Y1061436D1*
X983984Y1061495D1*
X983999Y1061539D1*
X984013Y1061598D1*
X984057Y1061730D1*
X984072Y1061789D1*
X984204Y1062186D1*
X984219Y1062216D1*
X984278Y1062392D1*
X984293Y1062422D1*
X984322Y1062510D1*
X984337Y1062539D1*
X984352Y1062584D1*
X984366Y1062613D1*
X984396Y1062701D1*
X984410Y1062731D1*
X984425Y1062775D1*
X984455Y1062834D1*
X984469Y1062878D1*
X984484Y1062907D1*
X984499Y1062951D1*
X984528Y1063010D1*
X984543Y1063054D1*
X984572Y1063113D1*
X984587Y1063157D1*
X984616Y1063216D1*
X984631Y1063260D1*
X984690Y1063378D1*
X984705Y1063422D1*
X985058Y1064128D1*
X985087Y1064172D1*
X985146Y1064290D1*
X985176Y1064334D1*
X985205Y1064393D1*
X985234Y1064437D1*
X985264Y1064496D1*
X985293Y1064540D1*
X985308Y1064570D1*
X985337Y1064614D1*
X985367Y1064673D1*
X985426Y1064761D1*
X985440Y1064790D1*
X985470Y1064835D1*
X985485Y1064864D1*
X985543Y1064952D1*
X985558Y1064982D1*
X985882Y1065467D1*
X985926Y1065526D1*
X985955Y1065570D1*
X985999Y1065629D1*
X986029Y1065673D1*
X986250Y1065967D1*
X986544Y1066335D1*
X986617Y1066423D1*
X986706Y1066526D1*
X986809Y1066644D1*
X986926Y1066777D1*
X987088Y1066953D1*
Y1066968D1*
X987736Y1067615D1*
X987765Y1067630D1*
X987942Y1067792D1*
X988074Y1067909D1*
X988192Y1068012D1*
X988295Y1068101D1*
X988471Y1068248D1*
X988692Y1068424D1*
X988751Y1068468D1*
X988824Y1068527D1*
X989001Y1068660D1*
X989045Y1068689D1*
X989163Y1068777D1*
X989207Y1068807D1*
X989266Y1068851D1*
X989354Y1068910D1*
X989413Y1068954D1*
X989678Y1069130D1*
X989751Y1069175D1*
X989839Y1069233D1*
X989913Y1069278D1*
X989957Y1069307D1*
X990251Y1069484D1*
X990354Y1069542D1*
X990428Y1069587D1*
X990560Y1069660D1*
X990722Y1069748D1*
X991031Y1069910D1*
X991046Y1069925D1*
X991222Y1070013D1*
X991267Y1070028D1*
X991576Y1070175D1*
X991737Y1070249D1*
X992002Y1070366D1*
X992076Y1070396D1*
X992179Y1070440D1*
X992473Y1070558D1*
X992708Y1070646D1*
X992870Y1070705D1*
X992900Y1070719D1*
X993518Y1070925D1*
X993576Y1070940D1*
X993871Y1071028D1*
X994194Y1071117D1*
X994239Y1071131D1*
X994651Y1071234D1*
X994724Y1071249D1*
X994989Y1071308D1*
X995048Y1071323D1*
X995416Y1071396D1*
X995504Y1071411D1*
X995666Y1071440D1*
X995739Y1071455D1*
X995916Y1071484D1*
X996019Y1071499D1*
X996107Y1071514D1*
X996313Y1071543D1*
X996784Y1071602D1*
X996916Y1071617D1*
X997063Y1071632D1*
X997225Y1071646D1*
X997402Y1071661D1*
X997593Y1071676D1*
X997828Y1071690D1*
X998123Y1071705D1*
X998608Y1071720D1*
X998888Y1071735D1*
X999167D1*
X999447Y1071720D1*
X1000006Y1071705D1*
X1000344Y1071690D1*
X1000609Y1071676D1*
X1000845Y1071661D1*
X1001051Y1071646D1*
X1001404Y1071617D1*
X1001845Y1071573D1*
X1002110Y1071543D1*
X1002345Y1071514D1*
X1002448Y1071499D1*
X1002566Y1071484D1*
X1002875Y1071440D1*
X1002963Y1071426D1*
X1003066Y1071411D1*
X1003508Y1071337D1*
X1003581Y1071323D1*
X1003817Y1071278D1*
X1003905Y1071264D1*
X1004199Y1071205D1*
X1004258Y1071190D1*
X1004464Y1071146D1*
X1004596Y1071117D1*
X1004788Y1071073D1*
X1004861Y1071058D1*
X1005450Y1070911D1*
X1005494Y1070896D1*
X1005714Y1070837D1*
X1006126Y1070719D1*
X1006509Y1070602D1*
X1006568Y1070587D1*
X1007230Y1070366D1*
X1007259Y1070352D1*
X1007465Y1070278D1*
X1007627Y1070219D1*
X1007863Y1070131D1*
X1007936Y1070102D1*
X1008054Y1070057D1*
X1008348Y1069940D1*
X1008451Y1069896D1*
X1008525Y1069866D1*
X1008834Y1069734D1*
X1009098Y1069616D1*
X1009260Y1069542D1*
X1009481Y1069439D1*
X1009525Y1069425D1*
X1010496Y1068939D1*
X1010511Y1068925D1*
X1010702Y1068822D1*
X1010864Y1068733D1*
X1010996Y1068660D1*
X1011114Y1068601D1*
X1011129D1*
X1011349Y1068895D1*
X1011408Y1068969D1*
X1011452Y1069028D1*
X1011629Y1069248D1*
X1011850Y1069513D1*
X1012026Y1069719D1*
X1012144Y1069851D1*
X1012276Y1069999D1*
X1012468Y1070204D1*
Y1070219D1*
X1013159Y1070911D1*
X1013189Y1070925D1*
X1013395Y1071117D1*
X1013542Y1071249D1*
X1013777Y1071455D1*
X1013880Y1071543D1*
X1014057Y1071690D1*
X1014351Y1071926D1*
X1014410Y1071970D1*
X1014483Y1072029D1*
X1014719Y1072205D1*
X1014763Y1072235D1*
X1014880Y1072323D1*
X1014925Y1072352D1*
X1014983Y1072397D1*
X1015072Y1072455D1*
X1015131Y1072500D1*
X1015528Y1072764D1*
X1015601Y1072809D1*
X1015646Y1072838D1*
X1015719Y1072882D1*
X1015763Y1072912D1*
X1016131Y1073132D1*
X1016337Y1073250D1*
X1016499Y1073338D1*
X1016690Y1073441D1*
X1016705Y1073456D1*
X1017293Y1073750D1*
X1017338Y1073765D1*
X1017558Y1073868D1*
X1017691Y1073927D1*
X1018000Y1074059D1*
X1018367Y1074206D1*
X1018485Y1074250D1*
X1018647Y1074309D1*
X1018676Y1074324D1*
X1019294Y1074530D1*
X1019353Y1074545D1*
X1019500Y1074589D1*
X1019706Y1074648D1*
X1019868Y1074692D1*
X1019912Y1074706D1*
X1020265Y1074795D1*
X1020339Y1074809D1*
X1020604Y1074868D1*
X1020663Y1074883D1*
X1020810Y1074912D1*
X1020898Y1074927D1*
X1021045Y1074957D1*
X1021398Y1075015D1*
X1021707Y1075060D1*
X1021943Y1075089D1*
X1022207Y1075118D1*
X1022369Y1075133D1*
X1022561Y1075148D1*
X1022767Y1075163D1*
X1023061Y1075177D1*
X949232D1*
Y1004117D1*
X952072D1*
X987172Y1004132D1*
X1022271D1*
X1057371Y1004117D1*
Y998114D1*
X1022271Y998100D1*
X987172D1*
X952072Y998114D1*
Y1004117D1*
X949232D1*
Y995201D1*
X952072D1*
X987172Y995216D1*
X1022271D1*
X1057371Y995201D1*
Y989199D1*
X1022271Y989184D1*
X987172D1*
X952072Y989199D1*
Y995201D1*
X949232D1*
G37*
G36*
X969198Y1213620D2*
X968992Y1213605D1*
X968859Y1213590D1*
X968741Y1213575D1*
X968477Y1213531D1*
X968403Y1213517D1*
X968271Y1213487D1*
X968094Y1213443D1*
X967991Y1213414D1*
X967638Y1213296D1*
X967520Y1213252D1*
X967417Y1213208D1*
X967344Y1213178D1*
X966902Y1212957D1*
X966682Y1212825D1*
X966417Y1212649D1*
X966240Y1212516D1*
X966167Y1212457D1*
X966078Y1212384D1*
X965975Y1212295D1*
X965578Y1211898D1*
X965475Y1211780D1*
X965402Y1211692D1*
X965358Y1211633D1*
X965299Y1211560D1*
X965255Y1211501D1*
X965225Y1211457D1*
X965181Y1211398D1*
X965034Y1211177D1*
X965019Y1211148D1*
X964990Y1211104D1*
X964975Y1211074D1*
X964946Y1211030D1*
X964916Y1210971D1*
X964887Y1210927D1*
X964695Y1210545D1*
X964681Y1210501D1*
X964637Y1210412D1*
X964622Y1210368D1*
X964607Y1210339D1*
X964592Y1210295D1*
X964578Y1210265D1*
X964534Y1210133D1*
X964519Y1210103D1*
X964475Y1209971D1*
X964460Y1209912D1*
X964431Y1209824D1*
X964357Y1209530D1*
X964313Y1209309D1*
X964283Y1209132D1*
X964269Y1209015D1*
X964254Y1208882D1*
X964239Y1208676D1*
Y1208102D1*
X964254Y1207911D1*
X964269Y1207779D1*
X964283Y1207661D1*
X964328Y1207396D1*
X964342Y1207323D1*
X964357Y1207264D1*
X964372Y1207190D1*
X964401Y1207073D1*
X964416Y1207028D1*
X964431Y1206970D1*
X964445Y1206925D1*
X964460Y1206867D1*
X964475Y1206822D1*
X964489Y1206764D1*
X964504Y1206719D1*
X964519Y1206661D1*
X964534Y1206616D1*
X964548Y1206558D1*
X964563Y1206513D1*
X964578Y1206455D1*
X964607Y1206366D1*
X964622Y1206308D1*
X964637Y1206263D1*
X964651Y1206205D1*
X964666Y1206160D1*
X964681Y1206102D1*
X964695Y1206057D1*
X964710Y1205999D1*
X964725Y1205954D1*
X964740Y1205896D1*
X964769Y1205807D1*
X964784Y1205748D1*
X964798Y1205704D1*
X964813Y1205645D1*
X964828Y1205601D1*
X964843Y1205542D1*
X964857Y1205498D1*
X964872Y1205440D1*
X964887Y1205395D1*
X964901Y1205337D1*
X964931Y1205248D1*
X964946Y1205189D1*
X964960Y1205145D1*
X964975Y1205086D1*
X964990Y1205042D1*
X965004Y1204983D1*
X965019Y1204939D1*
X965034Y1204880D1*
X965063Y1204792D1*
X965078Y1204733D1*
X965093Y1204689D1*
X965107Y1204630D1*
X965122Y1204586D1*
X965137Y1204527D1*
X965152Y1204483D1*
X965166Y1204424D1*
X965181Y1204380D1*
X965196Y1204321D1*
X965225Y1204233D1*
X965240Y1204174D1*
X965255Y1204130D1*
X965269Y1204071D1*
X965284Y1204027D1*
X965299Y1203968D1*
X965313Y1203924D1*
X965328Y1203865D1*
X965343Y1203821D1*
X965358Y1203762D1*
X965387Y1203674D1*
X965402Y1203615D1*
X965416Y1203571D1*
X965431Y1203512D1*
X965446Y1203468D1*
X965461Y1203409D1*
X965475Y1203365D1*
X965490Y1203306D1*
X965505Y1203262D1*
X965519Y1203203D1*
X965549Y1203115D1*
X965563Y1203056D1*
X965578Y1203012D1*
X965593Y1202953D1*
X965608Y1202909D1*
X965622Y1202850D1*
X965637Y1202806D1*
X965652Y1202747D1*
X965666Y1202703D1*
X965681Y1202644D1*
X965711Y1202556D1*
X965725Y1202497D1*
X965740Y1202453D1*
X965755Y1202394D1*
X965769Y1202350D1*
X965784Y1202291D1*
X965799Y1202247D1*
X965814Y1202188D1*
X965828Y1202144D1*
X965843Y1202085D1*
X965872Y1201997D1*
X965887Y1201938D1*
X965902Y1201894D1*
X965917Y1201835D1*
X965931Y1201791D1*
X965946Y1201732D1*
X965961Y1201688D1*
X965975Y1201629D1*
X965990Y1201585D1*
X966005Y1201526D1*
X966034Y1201438D1*
X966049Y1201379D1*
X966064Y1201335D1*
X966078Y1201276D1*
X966093Y1201232D1*
X966108Y1201173D1*
X966123Y1201129D1*
X966137Y1201070D1*
X966167Y1200982D1*
X966181Y1200923D1*
X966196Y1200879D1*
X966211Y1200820D1*
X966226Y1200776D1*
X966240Y1200717D1*
X966255Y1200673D1*
X966270Y1200614D1*
X966284Y1200570D1*
X966299Y1200511D1*
X966329Y1200423D1*
X966343Y1200364D1*
X966358Y1200320D1*
X966373Y1200261D1*
X966387Y1200217D1*
X966402Y1200158D1*
X966417Y1200114D1*
X966432Y1200055D1*
X966446Y1200011D1*
X966461Y1199952D1*
X966490Y1199864D1*
X966505Y1199805D1*
X966520Y1199761D1*
X966535Y1199702D1*
X966549Y1199658D1*
X966564Y1199599D1*
X966579Y1199555D1*
X966593Y1199496D1*
X966608Y1199452D1*
X966623Y1199393D1*
X966652Y1199304D1*
X966667Y1199246D1*
X966682Y1199202D1*
X966696Y1199143D1*
X966711Y1199099D1*
X966726Y1199040D1*
X966741Y1198996D1*
X966755Y1198937D1*
X966770Y1198893D1*
X966785Y1198834D1*
X966814Y1198745D1*
X966829Y1198687D1*
X966843Y1198642D1*
X966858Y1198584D1*
X966873Y1198539D1*
X966888Y1198481D1*
X966902Y1198436D1*
X966917Y1198378D1*
X966932Y1198333D1*
X966946Y1198275D1*
X966976Y1198186D1*
X966991Y1198128D1*
X967005Y1198083D1*
X967020Y1198025D1*
X967035Y1197980D1*
X967049Y1197922D1*
X967064Y1197877D1*
X967079Y1197819D1*
X967108Y1197730D1*
X967123Y1197671D1*
X967138Y1197627D1*
X967152Y1197568D1*
X967167Y1197524D1*
X967182Y1197465D1*
X967197Y1197421D1*
X967211Y1197362D1*
X967226Y1197318D1*
X967241Y1197259D1*
X967270Y1197171D1*
X967285Y1197112D1*
X967300Y1197068D1*
X967314Y1197009D1*
X967329Y1196965D1*
X967344Y1196906D1*
X967358Y1196862D1*
X967373Y1196803D1*
X967388Y1196759D1*
X967403Y1196700D1*
X967432Y1196612D1*
X967447Y1196553D1*
X967461Y1196509D1*
X967476Y1196450D1*
X967491Y1196406D1*
X967506Y1196347D1*
X967623Y1195994D1*
X967638Y1195965D1*
X967653Y1195921D1*
X967667Y1195891D1*
X967682Y1195847D1*
X967697Y1195818D1*
X967712Y1195774D1*
X967756Y1195685D1*
X967770Y1195641D1*
X967918Y1195347D1*
X967947Y1195303D1*
X967976Y1195244D1*
X968006Y1195200D1*
X968035Y1195141D1*
X968094Y1195053D1*
X968109Y1195023D1*
X968226Y1194847D1*
X968271Y1194788D1*
X968300Y1194744D1*
X968388Y1194626D1*
X968506Y1194479D1*
X968594Y1194376D1*
X968771Y1194185D1*
X968859Y1194096D1*
X969050Y1193920D1*
X969153Y1193832D1*
X969301Y1193714D1*
X969477Y1193581D1*
X969742Y1193405D1*
X969963Y1193272D1*
X970404Y1193052D1*
X970507Y1193008D1*
X970654Y1192949D1*
X970816Y1192890D1*
X970948Y1192846D1*
X971154Y1192787D1*
X971390Y1192728D1*
X971610Y1192684D1*
X971699Y1192669D1*
X971802Y1192655D1*
X971919Y1192640D1*
X972052Y1192625D1*
X972272Y1192610D1*
X972773D1*
X972979Y1192625D1*
X973126Y1192640D1*
X973244Y1192655D1*
X973508Y1192699D1*
X973582Y1192713D1*
X973714Y1192743D1*
X973891Y1192787D1*
X973994Y1192816D1*
X974347Y1192934D1*
X974465Y1192978D1*
X974568Y1193022D1*
X974641Y1193052D1*
X975083Y1193272D1*
X975303Y1193405D1*
X975568Y1193581D1*
X975745Y1193714D1*
X975892Y1193832D1*
X976010Y1193935D1*
X976421Y1194346D1*
X976510Y1194449D1*
X976583Y1194538D1*
X976642Y1194611D1*
X976775Y1194788D1*
X976951Y1195053D1*
X976966Y1195082D1*
X976995Y1195126D1*
X977010Y1195156D1*
X977039Y1195200D1*
X977054Y1195229D1*
X977084Y1195273D1*
X977157Y1195420D1*
X977187Y1195465D1*
X977216Y1195523D1*
X977231Y1195568D1*
X977304Y1195715D1*
X977319Y1195759D1*
X977348Y1195818D1*
X977363Y1195862D1*
X977378Y1195891D1*
X977393Y1195935D1*
X977407Y1195965D1*
X977437Y1196053D1*
X977451Y1196083D1*
X977525Y1196303D1*
X977540Y1196362D1*
X977554Y1196406D1*
X977569Y1196465D1*
X977584Y1196509D1*
X977613Y1196627D1*
X977628Y1196700D1*
X977643Y1196759D1*
X977672Y1196906D1*
X977687Y1196995D1*
X977716Y1197201D1*
X977731Y1197333D1*
X977746Y1197524D1*
Y1198157D1*
X977731Y1198333D1*
X977716Y1198466D1*
X977701Y1198584D1*
X977672Y1198760D1*
X977628Y1198981D1*
X977569Y1199216D1*
X977554Y1199260D1*
X977540Y1199319D1*
X977525Y1199363D1*
X977510Y1199422D1*
X977495Y1199466D1*
X977481Y1199525D1*
X977466Y1199569D1*
X977451Y1199628D1*
X977422Y1199716D1*
X977407Y1199775D1*
X977393Y1199819D1*
X977378Y1199878D1*
X977363Y1199922D1*
X977348Y1199981D1*
X977334Y1200025D1*
X977319Y1200084D1*
X977304Y1200128D1*
X977290Y1200187D1*
X977260Y1200276D1*
X977245Y1200334D1*
X977231Y1200378D1*
X977216Y1200437D1*
X977201Y1200481D1*
X977187Y1200540D1*
X977172Y1200584D1*
X977157Y1200643D1*
X977142Y1200687D1*
X977128Y1200746D1*
X977098Y1200835D1*
X977084Y1200893D1*
X977069Y1200938D1*
X977054Y1200996D1*
X977039Y1201041D1*
X977025Y1201099D1*
X977010Y1201144D1*
X976995Y1201202D1*
X976981Y1201247D1*
X976966Y1201305D1*
X976936Y1201394D1*
X976922Y1201452D1*
X976907Y1201497D1*
X976892Y1201555D1*
X976878Y1201600D1*
X976863Y1201658D1*
X976848Y1201703D1*
X976833Y1201761D1*
X976819Y1201806D1*
X976804Y1201864D1*
X976775Y1201953D1*
X976760Y1202012D1*
X976745Y1202056D1*
X976730Y1202115D1*
X976716Y1202159D1*
X976701Y1202218D1*
X976686Y1202262D1*
X976672Y1202321D1*
X976657Y1202365D1*
X976642Y1202423D1*
X976613Y1202512D1*
X976598Y1202571D1*
X976583Y1202615D1*
X976569Y1202674D1*
X976554Y1202718D1*
X976539Y1202777D1*
X976524Y1202821D1*
X976510Y1202880D1*
X976480Y1202968D1*
X976466Y1203027D1*
X976451Y1203071D1*
X976436Y1203130D1*
X976421Y1203174D1*
X976407Y1203233D1*
X976392Y1203277D1*
X976377Y1203336D1*
X976363Y1203380D1*
X976348Y1203439D1*
X976318Y1203527D1*
X976304Y1203586D1*
X976289Y1203630D1*
X976274Y1203689D1*
X976260Y1203733D1*
X976245Y1203792D1*
X976230Y1203836D1*
X976215Y1203895D1*
X976201Y1203939D1*
X976186Y1203998D1*
X976157Y1204086D1*
X976142Y1204145D1*
X976127Y1204189D1*
X976113Y1204248D1*
X976098Y1204292D1*
X976083Y1204351D1*
X976068Y1204395D1*
X976054Y1204454D1*
X976039Y1204498D1*
X976024Y1204557D1*
X975995Y1204645D1*
X975980Y1204704D1*
X975965Y1204748D1*
X975951Y1204807D1*
X975936Y1204851D1*
X975921Y1204910D1*
X975907Y1204954D1*
X975892Y1205013D1*
X975877Y1205057D1*
X975862Y1205116D1*
X975833Y1205204D1*
X975818Y1205263D1*
X975804Y1205307D1*
X975789Y1205366D1*
X975774Y1205410D1*
X975759Y1205469D1*
X975745Y1205513D1*
X975730Y1205572D1*
X975715Y1205616D1*
X975701Y1205675D1*
X975671Y1205763D1*
X975656Y1205822D1*
X975642Y1205866D1*
X975627Y1205925D1*
X975612Y1205969D1*
X975598Y1206028D1*
X975583Y1206072D1*
X975568Y1206131D1*
X975539Y1206219D1*
X975524Y1206278D1*
X975509Y1206322D1*
X975495Y1206381D1*
X975480Y1206425D1*
X975465Y1206484D1*
X975450Y1206528D1*
X975436Y1206587D1*
X975421Y1206631D1*
X975406Y1206690D1*
X975377Y1206778D1*
X975362Y1206837D1*
X975347Y1206881D1*
X975333Y1206940D1*
X975318Y1206984D1*
X975303Y1207043D1*
X975289Y1207087D1*
X975274Y1207146D1*
X975259Y1207190D1*
X975244Y1207249D1*
X975215Y1207337D1*
X975200Y1207396D1*
X975186Y1207440D1*
X975171Y1207499D1*
X975156Y1207543D1*
X975141Y1207602D1*
X975127Y1207646D1*
X975112Y1207705D1*
X975097Y1207749D1*
X975083Y1207808D1*
X975053Y1207896D1*
X975038Y1207955D1*
X975024Y1207999D1*
X975009Y1208058D1*
X974994Y1208102D1*
X974980Y1208161D1*
X974965Y1208205D1*
X974950Y1208264D1*
X974935Y1208308D1*
X974921Y1208367D1*
X974891Y1208456D1*
X974877Y1208514D1*
X974862Y1208558D1*
X974847Y1208617D1*
X974832Y1208661D1*
X974818Y1208720D1*
X974803Y1208764D1*
X974788Y1208823D1*
X974774Y1208867D1*
X974759Y1208926D1*
X974730Y1209015D1*
X974715Y1209073D1*
X974700Y1209118D1*
X974685Y1209176D1*
X974671Y1209221D1*
X974656Y1209279D1*
X974641Y1209324D1*
X974627Y1209382D1*
X974612Y1209427D1*
X974597Y1209485D1*
X974568Y1209574D1*
X974553Y1209632D1*
X974538Y1209677D1*
X974524Y1209735D1*
X974509Y1209780D1*
X974494Y1209838D1*
X974465Y1209927D1*
X974450Y1209986D1*
X974406Y1210118D1*
X974391Y1210147D1*
X974347Y1210280D1*
X974332Y1210309D1*
X974318Y1210353D1*
X974288Y1210412D1*
X974273Y1210456D1*
X974244Y1210515D1*
X974229Y1210559D1*
X974053Y1210912D1*
X974023Y1210957D1*
X973994Y1211015D1*
X973964Y1211060D1*
X973950Y1211089D1*
X973920Y1211133D1*
X973906Y1211163D1*
X973729Y1211427D1*
X973685Y1211486D1*
X973655Y1211530D1*
X973597Y1211604D1*
X973552Y1211663D1*
X973494Y1211736D1*
X973405Y1211839D1*
X973258Y1212001D1*
X973082Y1212178D1*
X972920Y1212325D1*
X972817Y1212413D1*
X972670Y1212531D1*
X972552Y1212619D1*
X972464Y1212678D1*
X972405Y1212722D1*
X972317Y1212781D1*
X972243Y1212825D1*
X972199Y1212854D1*
X972125Y1212899D1*
X972022Y1212957D1*
X971861Y1213046D1*
X971743Y1213105D1*
X971581Y1213178D1*
X971478Y1213222D1*
X971331Y1213281D1*
X971213Y1213325D1*
X970992Y1213399D1*
X970889Y1213428D1*
X970595Y1213502D1*
X970375Y1213546D1*
X970286Y1213561D1*
X970080Y1213590D1*
X969933Y1213605D1*
X969727Y1213620D1*
X969198D1*
G37*
G36*
X1023561Y1204866D2*
X1023340Y1204851D1*
X1023208Y1204836D1*
X1023090Y1204822D1*
X1022987Y1204807D1*
X1022899Y1204792D1*
X1022678Y1204748D1*
X1022384Y1204674D1*
X1022281Y1204645D1*
X1022060Y1204571D1*
X1021943Y1204527D1*
X1021795Y1204468D1*
X1021692Y1204424D1*
X1021531Y1204351D1*
X1021442Y1204307D1*
X1021251Y1204204D1*
X1021030Y1204071D1*
X1020766Y1203895D1*
X1020589Y1203762D1*
X1020515Y1203703D1*
X1020427Y1203630D1*
X1020324Y1203542D1*
X1019912Y1203130D1*
X1019824Y1203027D1*
X1019750Y1202938D1*
X1019692Y1202865D1*
X1019559Y1202688D1*
X1019383Y1202423D1*
X1019368Y1202394D1*
X1019309Y1202306D1*
X1019280Y1202247D1*
X1019250Y1202203D1*
X1019191Y1202085D1*
X1019162Y1202041D1*
X1019088Y1201894D1*
X1019074Y1201850D1*
X1019015Y1201732D1*
X1019000Y1201688D1*
X1018985Y1201658D1*
X1018971Y1201614D1*
X1018956Y1201585D1*
X1018941Y1201541D1*
X1018926Y1201511D1*
X1018912Y1201467D1*
X1018897Y1201438D1*
X1018809Y1201173D1*
X1018794Y1201114D1*
X1018779Y1201070D1*
X1018765Y1201011D1*
X1018750Y1200967D1*
X1018721Y1200849D1*
X1018706Y1200776D1*
X1018691Y1200717D1*
X1018676Y1200643D1*
X1018632Y1200378D1*
X1018618Y1200261D1*
X1018603Y1200114D1*
X1018588Y1199922D1*
Y1188388D1*
X1018603Y1188197D1*
X1018618Y1188050D1*
X1018632Y1187932D1*
X1018676Y1187667D1*
X1018691Y1187594D1*
X1018706Y1187535D1*
X1018721Y1187461D1*
X1018750Y1187343D1*
X1018765Y1187299D1*
X1018779Y1187240D1*
X1018794Y1187196D1*
X1018809Y1187137D1*
X1018897Y1186873D1*
X1018912Y1186843D1*
X1018926Y1186799D1*
X1018941Y1186770D1*
X1018956Y1186726D1*
X1018971Y1186696D1*
X1018985Y1186652D1*
X1019000Y1186623D1*
X1019015Y1186578D1*
X1019074Y1186461D1*
X1019088Y1186417D1*
X1019162Y1186269D1*
X1019191Y1186225D1*
X1019250Y1186108D1*
X1019280Y1186063D1*
X1019309Y1186005D1*
X1019368Y1185916D1*
X1019383Y1185887D1*
X1019559Y1185622D1*
X1019692Y1185446D1*
X1019750Y1185372D1*
X1019824Y1185284D1*
X1019912Y1185181D1*
X1020309Y1184784D1*
X1020427Y1184681D1*
X1020515Y1184607D1*
X1020589Y1184548D1*
X1020707Y1184460D1*
X1020751Y1184430D1*
X1020810Y1184386D1*
X1021030Y1184239D1*
X1021251Y1184107D1*
X1021442Y1184004D1*
X1021501Y1183974D1*
X1021692Y1183886D1*
X1021795Y1183842D1*
X1021943Y1183783D1*
X1022060Y1183739D1*
X1022237Y1183680D1*
X1022384Y1183636D1*
X1022678Y1183562D1*
X1022899Y1183518D1*
X1022987Y1183504D1*
X1023090Y1183489D1*
X1023208Y1183474D1*
X1023355Y1183459D1*
X1023561Y1183445D1*
X1024061D1*
X1024282Y1183459D1*
X1024414Y1183474D1*
X1024532Y1183489D1*
X1024635Y1183504D1*
X1024723Y1183518D1*
X1025018Y1183577D1*
X1025135Y1183607D1*
X1025341Y1183665D1*
X1025606Y1183754D1*
X1025724Y1183798D1*
X1025797Y1183827D1*
X1025900Y1183871D1*
X1026033Y1183930D1*
X1026268Y1184048D1*
X1026401Y1184121D1*
X1026621Y1184254D1*
X1026798Y1184372D1*
X1026857Y1184416D1*
X1026901Y1184445D1*
X1027018Y1184533D1*
X1027166Y1184651D1*
X1027269Y1184739D1*
X1027445Y1184901D1*
X1027578Y1185034D1*
X1027739Y1185210D1*
X1027828Y1185313D1*
X1027945Y1185460D1*
X1028078Y1185637D1*
X1028254Y1185902D1*
X1028269Y1185931D1*
X1028298Y1185975D1*
X1028313Y1186005D1*
X1028343Y1186049D1*
X1028372Y1186108D1*
X1028401Y1186152D1*
X1028578Y1186505D1*
X1028593Y1186549D1*
X1028637Y1186637D1*
X1028652Y1186681D1*
X1028666Y1186711D1*
X1028681Y1186755D1*
X1028696Y1186784D1*
X1028725Y1186873D1*
X1028740Y1186902D1*
X1028813Y1187123D1*
X1028828Y1187182D1*
X1028843Y1187226D1*
X1028858Y1187285D1*
X1028872Y1187329D1*
X1028902Y1187446D1*
X1028916Y1187520D1*
X1028931Y1187579D1*
X1028961Y1187726D1*
X1028990Y1187902D1*
X1029005Y1188020D1*
X1029019Y1188153D1*
X1029034Y1188314D1*
Y1199981D1*
X1029019Y1200158D1*
X1029005Y1200290D1*
X1028990Y1200408D1*
X1028961Y1200584D1*
X1028931Y1200732D1*
X1028916Y1200790D1*
X1028902Y1200864D1*
X1028872Y1200982D1*
X1028858Y1201026D1*
X1028843Y1201085D1*
X1028828Y1201129D1*
X1028813Y1201188D1*
X1028740Y1201408D1*
X1028725Y1201438D1*
X1028696Y1201526D1*
X1028681Y1201555D1*
X1028666Y1201600D1*
X1028652Y1201629D1*
X1028637Y1201673D1*
X1028593Y1201761D1*
X1028578Y1201806D1*
X1028401Y1202159D1*
X1028372Y1202203D1*
X1028343Y1202262D1*
X1028313Y1202306D1*
X1028298Y1202335D1*
X1028269Y1202379D1*
X1028254Y1202409D1*
X1028078Y1202674D1*
X1027945Y1202850D1*
X1027828Y1202997D1*
X1027739Y1203100D1*
X1027578Y1203277D1*
X1027445Y1203409D1*
X1027269Y1203571D1*
X1027166Y1203659D1*
X1027018Y1203777D1*
X1026901Y1203865D1*
X1026857Y1203895D1*
X1026798Y1203939D1*
X1026621Y1204057D1*
X1026401Y1204189D1*
X1026268Y1204263D1*
X1026033Y1204380D1*
X1025900Y1204439D1*
X1025797Y1204483D1*
X1025724Y1204513D1*
X1025606Y1204557D1*
X1025341Y1204645D1*
X1025135Y1204704D1*
X1025018Y1204733D1*
X1024885Y1204763D1*
X1024812Y1204777D1*
X1024635Y1204807D1*
X1024429Y1204836D1*
X1024282Y1204851D1*
X1024076Y1204866D1*
X1023561D1*
G37*
G36*
X1001801Y1139573D2*
X1001654Y1139558D1*
X1001551Y1139543D1*
X1001404Y1139514D1*
X1001227Y1139470D1*
X1001051Y1139411D1*
X1000903Y1139352D1*
X1000668Y1139234D1*
X1000565Y1139176D1*
X1000433Y1139087D1*
X1000256Y1138955D1*
X1000138Y1138852D1*
X999991Y1138705D1*
X999888Y1138587D1*
X999829Y1138513D1*
X999800Y1138469D1*
X999756Y1138410D1*
X999668Y1138278D1*
X999653Y1138249D1*
X999623Y1138205D1*
X999491Y1137940D1*
X999476Y1137896D1*
X999447Y1137837D1*
X999373Y1137616D1*
X999359Y1137557D1*
X999344Y1137513D1*
X999329Y1137439D1*
X999314Y1137381D1*
X999285Y1137204D1*
X999270Y1137057D1*
Y1128141D1*
X999285Y1128009D1*
X999300Y1127906D1*
X999329Y1127759D1*
X999373Y1127582D1*
X999432Y1127406D1*
X999447Y1127376D1*
X999462Y1127332D1*
X999491Y1127273D1*
X999506Y1127229D1*
X999609Y1127023D1*
X999638Y1126979D1*
X999653Y1126950D1*
X999800Y1126729D1*
X999844Y1126670D1*
X999918Y1126582D1*
X1000227Y1126273D1*
X1000300Y1126214D1*
X1000418Y1126126D1*
X1000550Y1126037D1*
X1000624Y1125993D1*
X1000727Y1125934D1*
X1000815Y1125890D1*
X1000948Y1125832D1*
X1001021Y1125802D1*
X1001242Y1125729D1*
X1001418Y1125684D1*
X1001492Y1125670D1*
X1001580Y1125655D1*
X1001683Y1125640D1*
X1001874Y1125626D1*
X1002139D1*
X1002316Y1125640D1*
X1002419Y1125655D1*
X1002507Y1125670D1*
X1002581Y1125684D1*
X1002757Y1125729D1*
X1002860Y1125758D1*
X1003022Y1125817D1*
X1003125Y1125861D1*
X1003331Y1125964D1*
X1003478Y1126052D1*
X1003566Y1126111D1*
X1003684Y1126199D1*
X1003758Y1126258D1*
X1003861Y1126346D1*
X1004023Y1126508D1*
X1004111Y1126611D1*
X1004170Y1126685D1*
X1004214Y1126744D1*
X1004361Y1126964D1*
X1004405Y1127053D1*
X1004434Y1127097D1*
X1004479Y1127185D1*
X1004493Y1127229D1*
X1004537Y1127317D1*
X1004552Y1127362D1*
X1004567Y1127391D1*
X1004626Y1127568D1*
X1004640Y1127626D1*
X1004655Y1127671D1*
X1004670Y1127729D1*
X1004699Y1127877D1*
X1004714Y1127965D1*
X1004729Y1128082D1*
Y1137116D1*
X1004714Y1137234D1*
X1004699Y1137322D1*
X1004670Y1137469D1*
X1004640Y1137587D1*
X1004567Y1137807D1*
X1004552Y1137837D1*
X1004537Y1137881D1*
X1004523Y1137910D1*
X1004508Y1137954D1*
X1004405Y1138160D1*
X1004376Y1138205D1*
X1004361Y1138234D1*
X1004331Y1138278D1*
X1004317Y1138308D1*
X1004228Y1138440D1*
X1004184Y1138499D1*
X1004126Y1138572D1*
X1004052Y1138661D1*
X1003817Y1138896D1*
X1003728Y1138970D1*
X1003552Y1139102D1*
X1003508Y1139131D1*
X1003434Y1139176D1*
X1003390Y1139205D1*
X1003257Y1139279D1*
X1003199Y1139308D1*
X1003066Y1139367D1*
X1002993Y1139396D1*
X1002772Y1139470D1*
X1002669Y1139499D1*
X1002537Y1139529D1*
X1002448Y1139543D1*
X1002345Y1139558D1*
X1002213Y1139573D1*
X1001801D1*
G37*
G36*
X1018632D2*
X1018485Y1139558D1*
X1018382Y1139543D1*
X1018235Y1139514D1*
X1018058Y1139470D1*
X1017838Y1139396D1*
X1017735Y1139352D1*
X1017470Y1139220D1*
X1017396Y1139176D1*
X1017220Y1139058D1*
X1017161Y1139014D1*
X1017087Y1138955D1*
X1016984Y1138867D1*
X1016793Y1138675D1*
X1016720Y1138587D1*
X1016661Y1138513D1*
X1016617Y1138455D1*
X1016499Y1138278D1*
X1016484Y1138249D1*
X1016455Y1138205D1*
X1016425Y1138146D1*
X1016396Y1138102D1*
X1016366Y1138043D1*
X1016352Y1137999D1*
X1016308Y1137910D1*
X1016293Y1137866D1*
X1016278Y1137837D1*
X1016263Y1137793D1*
X1016249Y1137763D1*
X1016219Y1137675D1*
X1016205Y1137616D1*
X1016190Y1137572D1*
X1016161Y1137454D1*
X1016131Y1137307D1*
X1016116Y1137219D1*
X1016102Y1137086D1*
Y1128082D1*
X1016116Y1127950D1*
X1016131Y1127862D1*
X1016161Y1127715D1*
X1016190Y1127597D1*
X1016205Y1127553D1*
X1016219Y1127494D1*
X1016249Y1127406D1*
X1016263Y1127376D1*
X1016278Y1127332D1*
X1016293Y1127303D1*
X1016308Y1127259D1*
X1016352Y1127170D1*
X1016366Y1127126D1*
X1016396Y1127067D1*
X1016425Y1127023D1*
X1016469Y1126935D1*
X1016617Y1126714D1*
X1016661Y1126655D1*
X1016720Y1126582D1*
X1016793Y1126494D1*
X1016984Y1126302D1*
X1017087Y1126214D1*
X1017161Y1126155D1*
X1017220Y1126111D1*
X1017396Y1125993D1*
X1017470Y1125949D1*
X1017735Y1125817D1*
X1017838Y1125773D1*
X1018058Y1125699D1*
X1018235Y1125655D1*
X1018382Y1125626D1*
X1018485Y1125611D1*
X1018632Y1125596D1*
X1019029D1*
X1019177Y1125611D1*
X1019280Y1125626D1*
X1019368Y1125640D1*
X1019500Y1125670D1*
X1019603Y1125699D1*
X1019824Y1125773D1*
X1019898Y1125802D1*
X1020192Y1125949D1*
X1020265Y1125993D1*
X1020442Y1126111D1*
X1020501Y1126155D1*
X1020574Y1126214D1*
X1020663Y1126288D1*
X1020869Y1126494D1*
X1020957Y1126597D1*
X1021089Y1126773D1*
X1021119Y1126817D1*
X1021133Y1126847D1*
X1021192Y1126935D1*
X1021222Y1126994D1*
X1021251Y1127038D1*
X1021310Y1127156D1*
X1021325Y1127200D1*
X1021369Y1127288D1*
X1021398Y1127376D1*
X1021413Y1127406D1*
X1021457Y1127538D1*
X1021516Y1127774D1*
X1021545Y1127950D1*
X1021560Y1128068D1*
Y1137086D1*
X1021545Y1137219D1*
X1021516Y1137395D1*
X1021457Y1137631D1*
X1021413Y1137763D1*
X1021398Y1137793D1*
X1021384Y1137837D1*
X1021369Y1137866D1*
X1021354Y1137910D1*
X1021325Y1137969D1*
X1021310Y1138013D1*
X1021266Y1138102D1*
X1021236Y1138146D1*
X1021192Y1138234D1*
X1021133Y1138322D1*
X1021119Y1138352D1*
X1021075Y1138410D1*
X1021045Y1138455D1*
X1020957Y1138572D1*
X1020869Y1138675D1*
X1020663Y1138881D1*
X1020574Y1138955D1*
X1020501Y1139014D1*
X1020442Y1139058D1*
X1020265Y1139176D1*
X1020192Y1139220D1*
X1019898Y1139367D1*
X1019824Y1139396D1*
X1019603Y1139470D1*
X1019368Y1139529D1*
X1019280Y1139543D1*
X1019177Y1139558D1*
X1019029Y1139573D1*
X1018632D1*
G37*
G36*
X1012115Y1063525D2*
X1012100Y1063510D1*
X1011967Y1063246D1*
X1011938Y1063201D1*
X1011820Y1062966D1*
X1011806Y1062922D1*
X1011629Y1062569D1*
X1011614Y1062525D1*
X1011526Y1062348D1*
X1011511Y1062304D1*
X1011452Y1062186D1*
X1011438Y1062142D1*
X1011394Y1062054D1*
X1011379Y1062010D1*
X1011335Y1061921D1*
X1011320Y1061877D1*
X1011291Y1061819D1*
X1011276Y1061774D1*
X1011246Y1061716D1*
X1011232Y1061671D1*
X1011202Y1061613D1*
X1011188Y1061568D1*
X1011158Y1061510D1*
X1011143Y1061465D1*
X1011129Y1061436D1*
X1011114Y1061392D1*
X1011099Y1061362D1*
X1011085Y1061318D1*
X1011055Y1061259D1*
X1011040Y1061215D1*
X1011026Y1061186D1*
X1011011Y1061142D1*
X1010996Y1061112D1*
X1010982Y1061068D1*
X1010967Y1061039D1*
X1010952Y1060995D1*
X1010937Y1060965D1*
X1010923Y1060921D1*
X1010908Y1060892D1*
X1010879Y1060803D1*
X1010864Y1060774D1*
X1010849Y1060730D1*
X1010835Y1060700D1*
X1010805Y1060612D1*
X1010790Y1060583D1*
X1010761Y1060494D1*
X1010746Y1060465D1*
X1010717Y1060377D1*
X1010702Y1060347D1*
X1010673Y1060259D1*
X1010658Y1060230D1*
X1010614Y1060097D1*
X1010599Y1060068D1*
X1010526Y1059847D1*
X1010511Y1059818D1*
X1010202Y1058891D1*
X1010187Y1058832D1*
X1010128Y1058655D1*
X1010114Y1058597D1*
X1010069Y1058464D1*
X1010055Y1058405D1*
X1010025Y1058317D1*
X1010011Y1058258D1*
X1009981Y1058170D1*
X1009966Y1058111D1*
X1009952Y1058067D1*
X1009937Y1058008D1*
X1009922Y1057964D1*
X1009908Y1057905D1*
X1009893Y1057861D1*
X1009878Y1057802D1*
X1009863Y1057758D1*
X1009849Y1057699D1*
X1009834Y1057655D1*
X1009805Y1057537D1*
X1009790Y1057493D1*
X1009760Y1057375D1*
X1009746Y1057331D1*
X1009716Y1057214D1*
X1009702Y1057169D1*
X1009628Y1056875D1*
X1009613Y1056831D1*
X1009496Y1056360D1*
X1009481Y1056287D1*
X1009422Y1056051D1*
X1009407Y1055978D1*
X1009363Y1055801D1*
X1009349Y1055728D1*
X1009334Y1055669D1*
X1009319Y1055595D1*
X1009304Y1055536D1*
X1009290Y1055463D1*
X1009275Y1055404D1*
X1009260Y1055330D1*
X1009246Y1055272D1*
X1009216Y1055124D1*
X1009201Y1055066D1*
X1009157Y1054845D1*
X1009143Y1054786D1*
X1009040Y1054271D1*
X1009025Y1054183D1*
X1008981Y1053962D1*
X1008966Y1053874D1*
X1008951Y1053800D1*
X1008937Y1053712D1*
X1008922Y1053639D1*
X1008907Y1053550D1*
X1008892Y1053477D1*
X1008863Y1053300D1*
X1008848Y1053227D1*
X1008745Y1052609D1*
X1008731Y1052506D1*
X1008716Y1052417D1*
X1008701Y1052314D1*
X1008686Y1052226D1*
X1008672Y1052123D1*
X1008657Y1052035D1*
X1008569Y1051417D1*
X1008554Y1051299D1*
X1008539Y1051196D1*
X1008525Y1051079D1*
X1008510Y1050976D1*
X1008436Y1050387D1*
X1008407Y1050122D1*
X1008392Y1050005D1*
X1008377Y1049872D1*
X1008363Y1049725D1*
X1008333Y1049460D1*
X1008304Y1049166D1*
X1008289Y1049004D1*
X1008274Y1048857D1*
X1008245Y1048533D1*
X1008201Y1048004D1*
X1008171Y1047621D1*
X1008142Y1047209D1*
X1008127Y1046989D1*
X1008113Y1046753D1*
X1008098Y1046503D1*
X1008083Y1046224D1*
X1008069Y1045929D1*
X1008054Y1045620D1*
X1008039Y1045267D1*
X1008024Y1044841D1*
X1008010Y1044340D1*
X1007995Y1043619D1*
Y1041501D1*
X1008010Y1040868D1*
X1008024Y1040397D1*
X1008039Y1040015D1*
X1008054Y1039691D1*
X1008069Y1039397D1*
X1008083Y1039132D1*
X1008098Y1038882D1*
X1008113Y1038647D1*
X1008157Y1038029D1*
X1008171Y1037852D1*
X1008186Y1037661D1*
X1008245Y1037014D1*
X1008289Y1036572D1*
X1008348Y1036043D1*
X1008377Y1035807D1*
X1008392Y1035675D1*
X1008407Y1035557D1*
X1008422Y1035454D1*
X1008436Y1035336D1*
X1008451Y1035233D1*
X1008466Y1035116D1*
X1008554Y1034498D1*
X1008569Y1034410D1*
X1008583Y1034307D1*
X1008613Y1034130D1*
X1008628Y1034027D1*
X1008672Y1033762D1*
X1008686Y1033689D1*
X1008731Y1033424D1*
X1008745Y1033350D1*
X1008760Y1033262D1*
X1008775Y1033188D1*
X1008789Y1033100D1*
X1008834Y1032880D1*
X1008848Y1032791D1*
X1008937Y1032350D1*
X1008951Y1032291D1*
X1008981Y1032144D1*
X1008995Y1032085D1*
X1009025Y1031938D1*
X1009040Y1031879D1*
X1009054Y1031806D1*
X1009069Y1031747D1*
X1009084Y1031673D1*
X1009113Y1031555D1*
X1009128Y1031482D1*
X1009201Y1031188D1*
X1009216Y1031114D1*
X1009290Y1030820D1*
X1009304Y1030776D1*
X1009363Y1030540D1*
X1009378Y1030496D1*
X1009422Y1030320D1*
X1009437Y1030275D1*
X1009452Y1030217D1*
X1009466Y1030172D1*
X1009481Y1030114D1*
X1009496Y1030069D1*
X1009510Y1030011D1*
X1009525Y1029966D1*
X1009540Y1029908D1*
X1009554Y1029864D1*
X1009569Y1029805D1*
X1009599Y1029716D1*
X1009613Y1029658D1*
X1009643Y1029569D1*
X1009657Y1029510D1*
X1009702Y1029378D1*
X1009716Y1029319D1*
X1009996Y1028481D1*
X1010011Y1028451D1*
X1010069Y1028275D1*
X1010084Y1028245D1*
X1010114Y1028157D1*
X1010128Y1028127D1*
X1010158Y1028039D1*
X1010172Y1028010D1*
X1010202Y1027921D1*
X1010217Y1027892D1*
X1010231Y1027848D1*
X1010246Y1027819D1*
X1010275Y1027730D1*
X1010290Y1027701D1*
X1010305Y1027657D1*
X1010320Y1027627D1*
X1010334Y1027583D1*
X1010364Y1027524D1*
X1010378Y1027480D1*
X1010393Y1027451D1*
X1010408Y1027407D1*
X1010423Y1027377D1*
X1010437Y1027333D1*
X1010467Y1027274D1*
X1010481Y1027230D1*
X1010511Y1027171D1*
X1010526Y1027127D1*
X1010555Y1027068D1*
X1010570Y1027024D1*
X1010614Y1026936D1*
X1010629Y1026892D1*
X1010702Y1026745D1*
X1010717Y1026700D1*
X1010820Y1026494D1*
X1010835Y1026450D1*
X1011026Y1026068D1*
X1011055Y1026024D1*
X1011158Y1025818D1*
X1011188Y1025773D1*
X1011232Y1025685D1*
X1011261Y1025641D1*
X1011305Y1025553D1*
X1011335Y1025509D1*
X1011349Y1025479D1*
X1011379Y1025435D1*
X1011408Y1025376D1*
X1011438Y1025332D1*
X1011452Y1025303D1*
X1011482Y1025259D1*
X1011497Y1025229D1*
X1011526Y1025185D1*
X1011541Y1025156D1*
X1011600Y1025067D1*
X1011614Y1025038D1*
X1011909Y1024597D1*
X1011953Y1024538D1*
X1011982Y1024494D1*
X1012070Y1024376D1*
X1012100Y1024332D1*
X1012144Y1024273D1*
X1012203Y1024199D1*
X1012247Y1024140D1*
X1012306Y1024067D1*
X1012453Y1023890D1*
X1012541Y1023787D1*
X1012659Y1023655D1*
X1013086Y1023228D1*
X1013218Y1023111D1*
X1013321Y1023022D1*
X1013468Y1022905D1*
X1013586Y1022816D1*
X1013630Y1022787D1*
X1013689Y1022743D1*
X1013909Y1022596D1*
X1014057Y1022507D1*
X1014160Y1022449D1*
X1014424Y1022316D1*
X1014557Y1022257D1*
X1014630Y1022228D1*
X1014748Y1022184D1*
X1014925Y1022125D1*
X1015028Y1022095D1*
X1015204Y1022051D1*
X1015351Y1022022D1*
X1015440Y1022007D1*
X1015543Y1021992D1*
X1015675Y1021978D1*
X1015969Y1021963D1*
X1016028D1*
X1016352Y1021978D1*
X1016499Y1021992D1*
X1016705Y1022022D1*
X1016926Y1022066D1*
X1017102Y1022110D1*
X1017205Y1022140D1*
X1017426Y1022213D1*
X1017543Y1022257D1*
X1017749Y1022346D1*
X1017985Y1022463D1*
X1018088Y1022522D1*
X1018235Y1022610D1*
X1018456Y1022757D1*
X1018515Y1022802D1*
X1018559Y1022831D1*
X1018618Y1022875D1*
X1018765Y1022993D1*
X1018868Y1023081D1*
X1019000Y1023199D1*
X1019309Y1023508D1*
X1019441Y1023655D1*
X1019530Y1023758D1*
X1019706Y1023979D1*
X1019839Y1024155D1*
X1019868Y1024199D1*
X1019912Y1024258D1*
X1020177Y1024655D1*
X1020192Y1024685D1*
X1020221Y1024729D1*
X1020236Y1024758D1*
X1020265Y1024802D1*
X1020280Y1024832D1*
X1020309Y1024876D1*
X1020324Y1024905D1*
X1020354Y1024950D1*
X1020383Y1025008D1*
X1020412Y1025053D1*
X1020457Y1025141D1*
X1020486Y1025185D1*
X1020574Y1025362D1*
X1020604Y1025406D1*
X1020721Y1025641D1*
X1020736Y1025685D1*
X1020839Y1025891D1*
X1020854Y1025935D1*
X1020898Y1026024D1*
X1020913Y1026068D1*
X1020957Y1026156D1*
X1020972Y1026200D1*
X1021001Y1026259D1*
X1021016Y1026303D1*
X1021030Y1026333D1*
X1021045Y1026377D1*
X1021075Y1026436D1*
X1021089Y1026480D1*
X1021104Y1026509D1*
X1021119Y1026553D1*
X1021133Y1026583D1*
X1021163Y1026671D1*
X1021178Y1026700D1*
X1021192Y1026745D1*
X1021207Y1026774D1*
X1021236Y1026862D1*
X1021251Y1026892D1*
X1021295Y1027024D1*
X1021310Y1027053D1*
X1021531Y1027716D1*
X1021545Y1027774D1*
X1021589Y1027907D1*
X1021604Y1027966D1*
X1021619Y1028010D1*
X1021634Y1028069D1*
X1021663Y1028157D1*
X1021692Y1028275D1*
X1021707Y1028319D1*
X1021722Y1028378D1*
X1021737Y1028422D1*
X1021781Y1028598D1*
X1021795Y1028642D1*
X1021884Y1028995D1*
X1021898Y1029069D1*
X1021943Y1029246D1*
X1021957Y1029319D1*
X1021972Y1029378D1*
X1021987Y1029452D1*
X1022001Y1029510D1*
X1022016Y1029584D1*
X1022031Y1029643D1*
X1022134Y1030158D1*
X1022149Y1030246D1*
X1022178Y1030393D1*
X1022222Y1030658D1*
X1022237Y1030732D1*
X1022252Y1030820D1*
X1022266Y1030923D1*
X1022296Y1031099D1*
X1022325Y1031305D1*
X1022340Y1031394D1*
X1022355Y1031511D1*
X1022384Y1031717D1*
X1022443Y1032188D1*
X1022472Y1032453D1*
X1022487Y1032600D1*
X1022502Y1032732D1*
X1022516Y1032894D1*
X1022531Y1033041D1*
X1022561Y1033394D1*
X1022575Y1033586D1*
X1022590Y1033792D1*
X1022605Y1034027D1*
X1022619Y1034277D1*
X1022634Y1034586D1*
X1022649Y1034954D1*
X1022664Y1035484D1*
Y1036970D1*
X1022649Y1037514D1*
X1022634Y1037882D1*
X1022619Y1038191D1*
X1022605Y1038455D1*
X1022590Y1038706D1*
X1022575Y1038926D1*
X1022561Y1039132D1*
X1022546Y1039323D1*
X1022516Y1039677D1*
X1022487Y1040000D1*
X1022443Y1040442D1*
X1022384Y1040971D1*
X1022369Y1041089D1*
X1022355Y1041221D1*
X1022325Y1041457D1*
X1022310Y1041560D1*
X1022296Y1041677D1*
X1022281Y1041780D1*
X1022266Y1041898D1*
X1022193Y1042413D1*
X1022178Y1042501D1*
X1022163Y1042604D1*
X1022149Y1042693D1*
X1022134Y1042796D1*
X1022001Y1043590D1*
X1021987Y1043664D1*
X1021957Y1043840D1*
X1021928Y1043987D1*
X1021913Y1044076D1*
X1021884Y1044223D1*
X1021869Y1044311D1*
X1021707Y1045120D1*
X1021692Y1045179D1*
X1021663Y1045326D1*
X1021648Y1045385D1*
X1021634Y1045458D1*
X1021619Y1045517D1*
X1021589Y1045664D1*
X1021560Y1045782D1*
X1021545Y1045856D1*
X1021531Y1045915D1*
X1021516Y1045988D1*
X1021487Y1046106D1*
X1021472Y1046179D1*
X1021413Y1046415D1*
X1021398Y1046488D1*
X1021222Y1047195D1*
X1021207Y1047239D1*
X1021148Y1047474D1*
X1021133Y1047518D1*
X1021089Y1047695D1*
X1021075Y1047739D1*
X1021045Y1047857D1*
X1021030Y1047901D1*
X1021016Y1047960D1*
X1021001Y1048004D1*
X1020986Y1048063D1*
X1020972Y1048107D1*
X1020942Y1048224D1*
X1020927Y1048269D1*
X1020913Y1048327D1*
X1020898Y1048372D1*
X1020883Y1048430D1*
X1020854Y1048519D1*
X1020839Y1048577D1*
X1020824Y1048622D1*
X1020810Y1048680D1*
X1020780Y1048769D1*
X1020766Y1048828D1*
X1020736Y1048916D1*
X1020721Y1048975D1*
X1020692Y1049063D1*
X1020677Y1049122D1*
X1020618Y1049298D1*
X1020604Y1049357D1*
X1020530Y1049578D1*
X1020515Y1049637D1*
X1020206Y1050564D1*
X1020192Y1050593D1*
X1020104Y1050858D1*
X1020089Y1050887D1*
X1020030Y1051064D1*
X1020015Y1051093D1*
X1019971Y1051226D1*
X1019956Y1051255D1*
X1019912Y1051388D1*
X1019898Y1051417D1*
X1019868Y1051505D1*
X1019853Y1051535D1*
X1019824Y1051623D1*
X1019809Y1051652D1*
X1019780Y1051741D1*
X1019765Y1051770D1*
X1019750Y1051814D1*
X1019736Y1051844D1*
X1019706Y1051932D1*
X1019692Y1051961D1*
X1019677Y1052005D1*
X1019662Y1052035D1*
X1019647Y1052079D1*
X1019633Y1052108D1*
X1019618Y1052153D1*
X1019603Y1052182D1*
X1019574Y1052270D1*
X1019559Y1052300D1*
X1019544Y1052344D1*
X1019530Y1052373D1*
X1019515Y1052417D1*
X1019500Y1052447D1*
X1019486Y1052491D1*
X1019456Y1052550D1*
X1019441Y1052594D1*
X1019427Y1052623D1*
X1019412Y1052667D1*
X1019397Y1052697D1*
X1019383Y1052741D1*
X1019368Y1052770D1*
X1019353Y1052815D1*
X1019324Y1052873D1*
X1019309Y1052918D1*
X1019294Y1052947D1*
X1019280Y1052991D1*
X1019250Y1053050D1*
X1019235Y1053094D1*
X1019206Y1053153D1*
X1019191Y1053197D1*
X1019162Y1053256D1*
X1019147Y1053300D1*
X1019118Y1053359D1*
X1019103Y1053403D1*
X1019074Y1053462D1*
X1019059Y1053506D1*
X1019015Y1053594D1*
X1019000Y1053639D1*
X1018956Y1053727D1*
X1018941Y1053771D1*
X1018897Y1053859D1*
X1018882Y1053903D1*
X1018824Y1054021D1*
X1018809Y1054065D1*
X1018750Y1054183D1*
X1018735Y1054227D1*
X1018647Y1054404D1*
X1018632Y1054448D1*
X1018500Y1054712D1*
X1018485Y1054757D1*
X1018029Y1055669D1*
X1018000Y1055713D1*
X1017882Y1055948D1*
X1017852Y1055992D1*
X1017764Y1056169D1*
X1017735Y1056213D1*
X1017676Y1056331D1*
X1017646Y1056375D1*
X1017602Y1056463D1*
X1017573Y1056507D1*
X1017529Y1056596D1*
X1017499Y1056640D1*
X1017455Y1056728D1*
X1017426Y1056772D1*
X1017396Y1056831D1*
X1017367Y1056875D1*
X1017338Y1056934D1*
X1017308Y1056978D1*
X1017279Y1057037D1*
X1017249Y1057081D1*
X1017235Y1057111D1*
X1017205Y1057155D1*
X1017176Y1057214D1*
X1017146Y1057258D1*
X1017132Y1057287D1*
X1017102Y1057331D1*
X1017087Y1057361D1*
X1017058Y1057405D1*
X1017043Y1057434D1*
X1017014Y1057478D1*
X1016999Y1057508D1*
X1016970Y1057552D1*
X1016955Y1057581D1*
X1016926Y1057626D1*
X1016911Y1057655D1*
X1016881Y1057699D1*
X1016867Y1057729D1*
X1016808Y1057817D1*
X1016793Y1057846D1*
X1016734Y1057934D1*
X1016720Y1057964D1*
X1016661Y1058052D1*
X1016646Y1058082D1*
X1016558Y1058214D1*
X1016543Y1058243D1*
X1016396Y1058464D1*
X1016381Y1058494D1*
X1016116Y1058891D1*
X1016072Y1058950D1*
X1015955Y1059126D1*
X1015910Y1059185D1*
X1015852Y1059273D1*
X1015807Y1059332D1*
X1015749Y1059420D1*
X1015704Y1059479D1*
X1015675Y1059523D1*
X1015587Y1059641D1*
X1015557Y1059685D1*
X1015469Y1059803D1*
X1015440Y1059847D1*
X1015219Y1060141D1*
X1015160Y1060215D1*
X1015072Y1060333D1*
X1015013Y1060406D1*
X1014969Y1060465D1*
X1014675Y1060833D1*
X1014601Y1060921D1*
X1014542Y1060995D1*
X1014395Y1061171D1*
X1014130Y1061480D1*
X1013924Y1061716D1*
X1013792Y1061863D1*
X1013630Y1062039D1*
X1013424Y1062260D1*
X1012497Y1063187D1*
X1012276Y1063393D1*
X1012129Y1063525D1*
X1012115D1*
G37*
X900710Y1186441D2*
D32*
X887777D1*
X883499Y1187867D1*
X882040Y1189326D1*
X880614Y1192178D1*
Y1196489D1*
X882040Y1199341D1*
X883499Y1200800D1*
X887777Y1202226D1*
X900710D1*
Y1172082D1*
X860327Y1192178D2*
X863179Y1190752D1*
X866064Y1187867D1*
X867490Y1183556D1*
Y1180704D1*
X866064Y1176393D1*
X863179Y1173541D1*
X860327Y1172082D1*
X856016D1*
X853131Y1173541D1*
X850279Y1176393D1*
X848820Y1180704D1*
Y1183556D1*
X850279Y1187867D1*
X853131Y1190752D1*
X856016Y1192178D1*
X860327D1*
X828534D2*
X831386Y1190752D1*
X834271Y1187867D1*
X835697Y1183556D1*
Y1180704D1*
X834271Y1176393D1*
X831386Y1173541D1*
X828534Y1172082D1*
X824223D1*
X821338Y1173541D1*
X818486Y1176393D1*
X817027Y1180704D1*
Y1183556D1*
X818486Y1187867D1*
X821338Y1190752D1*
X824223Y1192178D1*
X828534D1*
X803903D2*
X798167Y1172082D1*
X792430Y1192178D1*
X786693Y1172082D1*
X780956Y1192178D1*
X756358Y1202226D2*
X759210D1*
X762095Y1200800D1*
X763521Y1196489D1*
Y1172082D1*
X767832Y1192178D2*
X757784D1*
X710215Y1202226D2*
Y1172082D1*
X693004D1*
X662669Y1192178D2*
Y1172082D1*
Y1187867D2*
X665521Y1190752D1*
X668406Y1192178D1*
X672684D1*
X675569Y1190752D1*
X678421Y1187867D1*
X679880Y1183556D1*
Y1180704D1*
X678421Y1176393D1*
X675569Y1173541D1*
X672684Y1172082D1*
X668406D1*
X665521Y1173541D1*
X662669Y1176393D1*
X649546Y1202226D2*
Y1172082D1*
Y1187867D2*
X646661Y1190752D1*
X643809Y1192178D1*
X639498D1*
X636646Y1190752D1*
X633761Y1187867D1*
X632335Y1183556D1*
Y1180704D1*
X633761Y1176393D1*
X636646Y1173541D1*
X639498Y1172082D1*
X643809D1*
X646661Y1173541D1*
X649546Y1176393D1*
X603427Y1187867D2*
X604853Y1190752D1*
X609164Y1192178D1*
X613475D1*
X617786Y1190752D1*
X619212Y1187867D1*
X617786Y1185015D1*
X614901Y1183556D1*
X607738Y1182130D1*
X604853Y1180704D1*
X603427Y1177819D1*
Y1176393D1*
X604853Y1173541D1*
X609164Y1172082D1*
X613475D1*
X617786Y1173541D1*
X619212Y1176393D1*
X877729Y1113218D2*
X889236Y1143362D1*
X900710Y1113218D1*
X896399Y1123266D2*
X882040D1*
X844509Y1139051D2*
X847361Y1141936D1*
X851672Y1143362D1*
X857409D1*
X861720Y1141936D1*
X864605Y1139051D1*
Y1136199D1*
X863146Y1133314D1*
X861720Y1131888D1*
X858868Y1130462D1*
X850246Y1127577D1*
X847361Y1126151D1*
X845935Y1124692D1*
X844509Y1121840D1*
Y1117529D1*
X847361Y1114677D1*
X851672Y1113218D1*
X857409D1*
X861720Y1114677D1*
X864605Y1117529D1*
X831386Y1129003D2*
X818486D1*
X814175Y1130462D1*
X812716Y1131888D1*
X811290Y1134740D1*
Y1137625D1*
X812716Y1140477D1*
X814175Y1141936D1*
X818486Y1143362D1*
X831386D1*
Y1113218D1*
X821338Y1129003D2*
X811290Y1113218D1*
X791004Y1133314D2*
X793855Y1131888D1*
X796741Y1129003D1*
X798167Y1124692D1*
Y1121840D1*
X796741Y1117529D1*
X793855Y1114677D1*
X791004Y1113218D1*
X786693D1*
X783807Y1114677D1*
X780956Y1117529D1*
X779496Y1121840D1*
Y1124692D1*
X780956Y1129003D1*
X783807Y1131888D1*
X786693Y1133314D1*
X791004D1*
X749129Y1129003D2*
X752014Y1131888D1*
X754899Y1133314D1*
X759177D1*
X762062Y1131888D1*
X764914Y1129003D1*
X766373Y1124692D1*
Y1121840D1*
X764914Y1117529D1*
X762062Y1114677D1*
X759177Y1113218D1*
X754899D1*
X752014Y1114677D1*
X749129Y1117529D1*
X736006Y1143362D2*
Y1113218D1*
X721647Y1133314D2*
X736006Y1118955D1*
X730269Y1124692D2*
X720221Y1113218D1*
X674077Y1137592D2*
X671192Y1139051D1*
X666881Y1143329D1*
Y1113218D1*
X646595Y1143329D2*
X650872Y1141903D1*
X652332Y1139051D1*
Y1136166D1*
X650872Y1133314D1*
X648020Y1131855D1*
X642284Y1130429D1*
X637972Y1129003D1*
X635121Y1126118D1*
X633695Y1123266D1*
Y1118955D1*
X635121Y1116103D1*
X636547Y1114644D1*
X640858Y1113218D1*
X646595D1*
X650872Y1114644D1*
X652332Y1116103D1*
X653757Y1118955D1*
Y1123266D1*
X652332Y1126118D1*
X649446Y1129003D1*
X645169Y1130429D1*
X639432Y1131855D1*
X636547Y1133314D1*
X635121Y1136166D1*
Y1139051D1*
X636547Y1141903D1*
X640858Y1143329D1*
X646595D1*
X620571Y1128273D2*
X603990D1*
X590867Y1127577D2*
X577934D1*
X573656Y1129003D1*
X572197Y1130462D1*
X570771Y1133314D1*
Y1137625D1*
X572197Y1140477D1*
X573656Y1141936D1*
X577934Y1143362D1*
X590867D1*
Y1113218D1*
X557648Y1143362D2*
Y1113218D1*
X524428Y1143362D2*
Y1113218D1*
X544524Y1143362D1*
Y1113218D1*
X900710Y1084497D2*
Y1054353D1*
X887586Y1074449D2*
Y1054353D1*
Y1068712D2*
X883275Y1073023D1*
X880390Y1074449D1*
X876112D1*
X873227Y1073023D1*
X871801Y1068712D1*
Y1054353D1*
X847204Y1084497D2*
X850056D1*
X852941Y1083071D1*
X854367Y1078760D1*
Y1054353D1*
X858678Y1074449D2*
X848630D1*
X834081Y1084497D2*
X832655Y1083071D1*
X831196Y1084497D1*
X832655Y1085957D1*
X834081Y1084497D1*
X832655Y1074449D2*
Y1054353D1*
X818072Y1074449D2*
Y1054353D1*
Y1068712D2*
X813761Y1073023D1*
X810876Y1074449D1*
X806598D1*
X803713Y1073023D1*
X802287Y1068712D1*
Y1054353D1*
X789164Y1065827D2*
X771953D1*
Y1068712D1*
X773379Y1071598D1*
X774805Y1073023D1*
X777690Y1074449D1*
X782001D1*
X784853Y1073023D1*
X787738Y1070138D1*
X789164Y1065827D1*
Y1062975D1*
X787738Y1058664D1*
X784853Y1055813D1*
X782001Y1054353D1*
X777690D1*
X774805Y1055813D1*
X771953Y1058664D1*
X751667Y1074449D2*
X754519Y1073023D1*
X757404Y1070138D1*
X758830Y1065827D1*
Y1062975D1*
X757404Y1058664D1*
X754519Y1055813D1*
X751667Y1054353D1*
X747356D1*
X744471Y1055813D1*
X741619Y1058664D1*
X740160Y1062975D1*
Y1065827D1*
X741619Y1070138D1*
X744471Y1073023D1*
X747356Y1074449D1*
X751667D1*
X727036D2*
Y1054353D1*
Y1068712D2*
X722725Y1073023D1*
X719840Y1074449D1*
X715562D1*
X712677Y1073023D1*
X711251Y1068712D1*
Y1054353D1*
X655059Y1084497D2*
Y1054353D1*
X665107Y1084497D2*
X645011D1*
X631888Y1068712D2*
X618955D1*
X614677Y1070138D1*
X613218Y1071598D1*
X611792Y1074449D1*
Y1078760D1*
X613218Y1081612D1*
X614677Y1083071D1*
X618955Y1084497D1*
X631888D1*
Y1054353D1*
X575721D2*
Y1084497D1*
X587195Y1054353D1*
X598669Y1084497D1*
Y1054353D1*
X528118Y1077301D2*
Y1078727D1*
X526692Y1081612D1*
X525266Y1083038D1*
X522381Y1084464D1*
X516644D1*
X513792Y1083038D1*
X512366Y1081612D1*
X510907Y1078727D1*
Y1075875D1*
X512366Y1072990D1*
X515218Y1068712D1*
X529577Y1054353D1*
X509481D1*
X494932Y1057238D2*
X496358Y1055779D1*
X494932Y1054353D1*
X493473Y1055779D1*
X494932Y1057238D1*
X471727Y1084464D2*
X476038Y1083038D1*
X478923Y1078727D1*
X480349Y1071564D1*
Y1067253D1*
X478923Y1060090D1*
X476038Y1055779D1*
X471727Y1054353D1*
X468875D1*
X464564Y1055779D1*
X461712Y1060090D1*
X460253Y1067253D1*
Y1071564D1*
X461712Y1078727D1*
X464564Y1083038D1*
X468875Y1084464D1*
X471727D1*
X461712Y1078727D2*
X478923Y1060090D1*
X900710Y1025633D2*
Y995489D1*
X887777D1*
X883466Y996948D1*
X882040Y998374D1*
X880614Y1001226D1*
Y1005537D1*
X882040Y1008422D1*
X883466Y1009848D1*
X887777Y1011274D1*
X883466Y1012733D1*
X882040Y1014159D1*
X880614Y1017011D1*
Y1019896D1*
X882040Y1022748D1*
X883466Y1024207D1*
X887777Y1025633D1*
X900710D1*
Y1011274D2*
X887777D1*
X860327Y1015585D2*
X863179Y1014159D1*
X866064Y1011274D1*
X867490Y1006963D1*
Y1004111D1*
X866064Y999800D1*
X863179Y996948D1*
X860327Y995489D1*
X856016D1*
X853131Y996948D1*
X850279Y999800D1*
X848820Y1004111D1*
Y1006963D1*
X850279Y1011274D1*
X853131Y1014159D1*
X856016Y1015585D1*
X860327D1*
X818486D2*
Y995489D1*
Y1011274D2*
X821338Y1014159D1*
X824223Y1015585D1*
X828501D1*
X831386Y1014159D1*
X834238Y1011274D1*
X835697Y1006963D1*
Y1004111D1*
X834238Y999800D1*
X831386Y996948D1*
X828501Y995489D1*
X824223D1*
X821338Y996948D1*
X818486Y999800D1*
X805363Y1015585D2*
Y995489D1*
Y1006963D2*
X803903Y1011274D1*
X801052Y1014159D1*
X798167Y1015585D1*
X793855D1*
X763521Y1025633D2*
Y995489D1*
Y1011274D2*
X766373Y1014159D1*
X769258Y1015585D1*
X773569D1*
X776421Y1014159D1*
X779306Y1011274D1*
X780732Y1006963D1*
Y1004111D1*
X779306Y999800D1*
X776421Y996948D1*
X773569Y995489D1*
X769258D1*
X766373Y996948D1*
X763521Y999800D1*
X717377Y1011274D2*
X704478D1*
X700167Y1012733D1*
X698707Y1014159D1*
X697281Y1017011D1*
Y1019896D1*
X698707Y1022748D1*
X700167Y1024207D1*
X704478Y1025633D1*
X717377D1*
Y995489D1*
X707329Y1011274D2*
X697281Y995489D1*
X684158Y1006963D2*
X666947D1*
Y1009848D1*
X668373Y1012733D1*
X669799Y1014159D1*
X672684Y1015585D1*
X676995D1*
X679847Y1014159D1*
X682732Y1011274D1*
X684158Y1006963D1*
Y1004111D1*
X682732Y999800D1*
X679847Y996948D1*
X676995Y995489D1*
X672684D1*
X669799Y996948D1*
X666947Y999800D1*
X653824Y1015585D2*
X645202Y995489D1*
X636613Y1015585D1*
X590469Y1019863D2*
X587584Y1021322D1*
X583273Y1025600D1*
Y995489D1*
X568724Y998374D2*
X570150Y996915D1*
X568724Y995489D1*
X567265Y996915D1*
X568724Y998374D1*
X545519Y1025600D2*
X549830Y1024174D1*
X552715Y1019863D1*
X554141Y1012700D1*
Y1008389D1*
X552715Y1001226D1*
X549830Y996915D1*
X545519Y995489D1*
X542667D1*
X538356Y996915D1*
X535504Y1001226D1*
X534045Y1008389D1*
Y1012700D1*
X535504Y1019863D1*
X538356Y1024174D1*
X542667Y1025600D1*
X545519D1*
X535504Y1019863D2*
X552715Y1001226D1*
M02*
