M48
INCH
T01C0.0191
T02C0.0366
%
T01
X+006936Y+009150
X+007529Y+009005
X+008111Y+009278
X+008500Y+008778
X+008991Y+009345
X+009910Y+009621
X+010366Y+009218
X+010857Y+009903
X+006214Y+009038
X+005171Y+009049
X+004742Y+008716
X+004388Y+010707
T02
X+010777Y+005537
X+009990Y+005537
X+009990Y+006324
X+010777Y+006324
X+009202Y+006324
X+008415Y+006324
X+008415Y+005537
X+009202Y+005537
X+007628Y+005537
X+007628Y+006324
X+006840Y+006324
X+006840Y+005537
X+006053Y+005537
X+006053Y+006324
X+005265Y+006324
X+004478Y+006324
X+004478Y+005537
X+005265Y+005537
T00
M30
