M48
INCH
T01C0.0191
T02C0.0366
%
T01
X+007594Y+009148
X+007905Y+008646
X+007347Y+008519
X+006440Y+008592
X+005774Y+008626
X+005716Y+009408
X+006738Y+009224
X+008371Y+009288
X+009170Y+009360
X+008969Y+007482
X+004995Y+007087
X+004687Y+009848
X+004522Y+011868
T02
X+004478Y+006324
X+004478Y+005537
X+005265Y+005537
X+006053Y+005537
X+006053Y+006324
X+005265Y+006324
X+006840Y+006324
X+007628Y+006324
X+007628Y+005537
X+006840Y+005537
X+008415Y+005537
X+008415Y+006324
X+009202Y+006324
X+009202Y+005537
X+009990Y+005537
X+010777Y+005537
X+010777Y+006324
X+009990Y+006324
T00
M30
