G04 DipTrace 4.1.3.1*
G04 1 - Top.gbr*
%MOIN*%
G04 #@! TF.FileFunction,Copper,L1,Top*
G04 #@! TF.Part,Single*
%AMOUTLINE0*
4,1,28,
-0.021063,-0.009646,
-0.021063,0.009646,
-0.020741,0.012091,
-0.019797,0.01437,
-0.018295,0.016327,
-0.016339,0.017829,
-0.01406,0.018773,
-0.011614,0.019094,
0.011614,0.019094,
0.01406,0.018773,
0.016339,0.017829,
0.018295,0.016327,
0.019797,0.01437,
0.020741,0.012091,
0.021063,0.009646,
0.021063,-0.009646,
0.020741,-0.012091,
0.019797,-0.01437,
0.018295,-0.016327,
0.016339,-0.017829,
0.01406,-0.018773,
0.011614,-0.019094,
-0.011614,-0.019094,
-0.01406,-0.018773,
-0.016339,-0.017829,
-0.018295,-0.016327,
-0.019797,-0.01437,
-0.020741,-0.012091,
-0.021063,-0.009646,
0*%
%AMOUTLINE3*
4,1,28,
0.021063,0.009646,
0.021063,-0.009646,
0.020741,-0.012091,
0.019797,-0.01437,
0.018295,-0.016327,
0.016339,-0.017829,
0.01406,-0.018773,
0.011614,-0.019094,
-0.011614,-0.019094,
-0.01406,-0.018773,
-0.016339,-0.017829,
-0.018295,-0.016327,
-0.019797,-0.01437,
-0.020741,-0.012091,
-0.021063,-0.009646,
-0.021063,0.009646,
-0.020741,0.012091,
-0.019797,0.01437,
-0.018295,0.016327,
-0.016339,0.017829,
-0.01406,0.018773,
-0.011614,0.019094,
0.011614,0.019094,
0.01406,0.018773,
0.016339,0.017829,
0.018295,0.016327,
0.019797,0.01437,
0.020741,0.012091,
0.021063,0.009646,
0*%
%AMOUTLINE6*
4,1,28,
-0.008465,0.021063,
0.008465,0.021063,
0.010604,0.020781,
0.012598,0.019955,
0.014311,0.018641,
0.015625,0.016929,
0.016451,0.014935,
0.016732,0.012795,
0.016732,-0.012795,
0.016451,-0.014935,
0.015625,-0.016929,
0.014311,-0.018641,
0.012598,-0.019955,
0.010604,-0.020781,
0.008465,-0.021063,
-0.008465,-0.021063,
-0.010604,-0.020781,
-0.012598,-0.019955,
-0.014311,-0.018641,
-0.015625,-0.016929,
-0.016451,-0.014935,
-0.016732,-0.012795,
-0.016732,0.012795,
-0.016451,0.014935,
-0.015625,0.016929,
-0.014311,0.018641,
-0.012598,0.019955,
-0.010604,0.020781,
-0.008465,0.021063,
0*%
%AMOUTLINE9*
4,1,28,
0.008465,-0.021063,
-0.008465,-0.021063,
-0.010604,-0.020781,
-0.012598,-0.019955,
-0.014311,-0.018641,
-0.015625,-0.016929,
-0.016451,-0.014935,
-0.016732,-0.012795,
-0.016732,0.012795,
-0.016451,0.014935,
-0.015625,0.016929,
-0.014311,0.018641,
-0.012598,0.019955,
-0.010604,0.020781,
-0.008465,0.021063,
0.008465,0.021063,
0.010604,0.020781,
0.012598,0.019955,
0.014311,0.018641,
0.015625,0.016929,
0.016451,0.014935,
0.016732,0.012795,
0.016732,-0.012795,
0.016451,-0.014935,
0.015625,-0.016929,
0.014311,-0.018641,
0.012598,-0.019955,
0.010604,-0.020781,
0.008465,-0.021063,
0*%
G04 #@! TA.AperFunction,Conductor*
%ADD13C,0.011417*%
%ADD14C,0.005906*%
%ADD16R,0.011417X0.05315*%
G04 #@! TA.AperFunction,ComponentPad*
%ADD17R,0.055118X0.055118*%
%ADD18C,0.055118*%
G04 #@! TA.AperFunction,ViaPad*
%ADD19C,0.04*%
%ADD33OUTLINE0*%
%ADD36OUTLINE3*%
%ADD39OUTLINE6*%
%ADD42OUTLINE9*%
%FSLAX26Y26*%
G04*
G70*
G90*
G75*
G01*
G04 Top*
%LPD*%
X483966Y1122756D2*
D13*
Y1070707D1*
D14*
X438807D1*
X1036850Y1122402D2*
D13*
X896467Y1122165D1*
X582047Y773425D2*
Y739385D1*
X597941Y723491D1*
X696491D1*
X710000Y737000D1*
Y773425D1*
X582047Y1003740D2*
Y773425D1*
X438807Y1070707D2*
X514522D1*
X548488Y1104673D1*
X582047Y1071113D1*
Y1003740D1*
X621467Y1122598D2*
X566413D1*
X548488Y1104673D1*
X752717Y1122165D2*
X621467Y1122598D1*
X896467Y1122165D2*
X752717D1*
X693618Y915005D2*
D14*
Y923377D1*
D13*
X710000Y939758D1*
Y1003740D1*
X735591Y773425D2*
Y725906D1*
X684016Y674331D1*
Y632402D1*
X556457Y1003740D2*
Y773425D1*
X1032719Y859306D2*
Y754898D1*
X483966Y1185748D2*
X621467Y1185591D1*
X684016Y632402D2*
D14*
X644328Y592714D1*
Y489484D1*
D13*
X511972D1*
X447795Y553661D1*
X556457Y773425D2*
Y698493D1*
X568986Y685965D1*
X630453D1*
X684016Y632402D1*
X1077717D2*
D14*
X1037290Y591975D1*
Y512493D1*
D13*
X1014281Y489484D1*
X644328D1*
X1032719Y754898D2*
X1077717D1*
Y632402D1*
X752917Y900537D2*
Y928724D1*
X735591Y946051D1*
Y1003740D1*
X1085710Y990335D2*
Y1185394D1*
D14*
X1036850D1*
X896467Y1185157D2*
D13*
X1085710D1*
D14*
Y990335D1*
X752717Y1185157D2*
D13*
X896467D1*
X621467Y1185591D2*
X752717Y1185157D1*
X607638Y773425D2*
D14*
Y824938D1*
X618732Y836033D1*
X900390D1*
X923663Y859306D1*
X966184D1*
X633228Y773425D2*
Y816156D1*
X852043D1*
X913301Y754898D1*
X966184D1*
X1036634Y921820D2*
Y912520D1*
X984323D1*
X851188Y1045655D1*
X658819D1*
Y1003740D1*
X899087Y934517D2*
X895650D1*
X869538Y960629D1*
X794705D1*
X786772Y968562D1*
Y1003740D1*
X811081Y927799D2*
X792172D1*
X761181Y958790D1*
Y1003740D1*
X850016Y877832D2*
X808928D1*
X792825Y861730D1*
X685278D1*
X655571Y891437D1*
Y938201D1*
X684409Y967039D1*
Y1003740D1*
X990986Y962076D2*
Y969144D1*
X880970Y1079160D1*
X636030D1*
X633228Y1076360D1*
Y1003740D1*
X621394Y903810D2*
Y934411D1*
X607035Y948770D1*
Y1003740D1*
X607638D1*
X517091Y904873D2*
Y945685D1*
X530866Y959461D1*
Y1003740D1*
X474154Y871606D2*
Y940353D1*
X505276Y971475D1*
Y1003740D1*
D19*
X693618Y915005D3*
X438807Y1070707D3*
X752917Y900537D3*
X1085710Y990335D3*
X899087Y934517D3*
X811081Y927799D3*
X850016Y877832D3*
X621394Y903810D3*
X517091Y904873D3*
X474154Y871606D3*
X1036634Y921820D3*
X990986Y962076D3*
D16*
X479685Y773425D3*
X505276D3*
X530866D3*
X556457D3*
X582047D3*
X607638D3*
X633228D3*
X658819D3*
X684409D3*
X710000D3*
X735591D3*
X761181D3*
X786772D3*
X812362D3*
Y1003740D3*
X786772D3*
X761181D3*
X735591D3*
X710000D3*
X684409D3*
X658819D3*
X633228D3*
X607638D3*
X582047D3*
X556457D3*
X530866D3*
X505276D3*
X479685D3*
D33*
X483966Y1122756D3*
D36*
Y1185748D3*
D33*
X621467Y1122598D3*
D36*
Y1185591D3*
D33*
X752717Y1122165D3*
D36*
Y1185157D3*
D33*
X896467Y1122165D3*
D36*
Y1185157D3*
D33*
X1036850Y1122402D3*
D36*
Y1185394D3*
D39*
X966184Y859306D3*
D42*
X1032719D3*
D39*
X966184Y754898D3*
D42*
X1032719D3*
D17*
X1077717Y553661D3*
D18*
Y632402D3*
X998976Y553661D3*
Y632402D3*
X920236Y553661D3*
Y632402D3*
X841496Y553661D3*
Y632402D3*
X762756Y553661D3*
Y632402D3*
X684016Y553661D3*
Y632402D3*
X605276Y553661D3*
Y632402D3*
X526535Y553661D3*
Y632402D3*
X447795Y553661D3*
Y632402D3*
M02*
