G04 DipTrace 4.1.3.1*
G04 BottomSilk.gbr*
%MOIN*%
G04 #@! TF.FileFunction,Legend,Bot*
G04 #@! TF.Part,Single*
%ADD32C,0.004374*%
%FSLAX26Y26*%
G04*
G70*
G90*
G75*
G01*
G04 BotSilk*
%LPD*%
G36*
X970920Y1033735D2*
Y1025277D1*
X970887Y1025076D1*
X970820Y1024810D1*
X970787Y1024642D1*
X970686Y1024240D1*
X970654Y1024073D1*
X970619Y1023940D1*
X970486Y1023538D1*
X970252Y1023071D1*
X970051Y1022770D1*
X969951Y1022636D1*
X969885Y1022535D1*
X969783Y1022402D1*
X969717Y1022302D1*
X969617Y1022168D1*
X969450Y1021967D1*
X969282Y1021801D1*
X969049Y1021600D1*
X968647Y1021299D1*
X968547Y1021232D1*
X968413Y1021133D1*
X968113Y1020932D1*
X967878Y1020798D1*
X967745Y1020731D1*
X967510Y1020630D1*
X967344Y1020564D1*
X967243Y1020530D1*
X967009Y1020463D1*
X966608Y1020364D1*
X966039Y1020230D1*
X965706Y1020163D1*
X965505Y1020129D1*
X965004Y1020096D1*
X890588D1*
X890119Y1020129D1*
X889886Y1020163D1*
X889719Y1020196D1*
X889283Y1020297D1*
X888715Y1020430D1*
X888581Y1020463D1*
X888080Y1020630D1*
X887546Y1020898D1*
X887144Y1021165D1*
X887010Y1021266D1*
X886911Y1021333D1*
X886777Y1021433D1*
X886676Y1021500D1*
X886509Y1021634D1*
X886008Y1022135D1*
X885908Y1022269D1*
X885841Y1022369D1*
X885640Y1022636D1*
X885573Y1022736D1*
X885472Y1022870D1*
X885406Y1022971D1*
X885373Y1023038D1*
X885306Y1023138D1*
X885139Y1023471D1*
X885105Y1023572D1*
X885072Y1023639D1*
X885005Y1023840D1*
X884871Y1024374D1*
X884837Y1024542D1*
X884738Y1024942D1*
X884703Y1025110D1*
X884671Y1025377D1*
Y1097213D1*
X868824Y1097247D1*
X868524Y1097280D1*
X868089Y1097381D1*
X867521Y1097514D1*
X867387Y1097547D1*
X867087Y1097647D1*
X866919Y1097714D1*
X866786Y1097781D1*
X866618Y1097881D1*
X866417Y1098014D1*
X866283Y1098115D1*
X866184Y1098182D1*
X865916Y1098383D1*
X865749Y1098517D1*
X865549Y1098717D1*
X865415Y1098885D1*
X865348Y1098984D1*
X865147Y1099252D1*
X865080Y1099352D1*
X864980Y1099486D1*
X864913Y1099587D1*
X864881Y1099652D1*
X864814Y1099753D1*
X864747Y1099887D1*
X864713Y1099987D1*
X864680Y1100054D1*
X864613Y1100255D1*
X864445Y1100924D1*
X864412Y1101091D1*
X864345Y1101358D1*
X864311Y1101525D1*
X864278Y1101927D1*
Y1111887D1*
X864311Y1112289D1*
X864345Y1112455D1*
X864445Y1112857D1*
X864479Y1113024D1*
X864613Y1113559D1*
X864680Y1113760D1*
X864881Y1114160D1*
X865080Y1114462D1*
X865181Y1114594D1*
X865248Y1114696D1*
X865348Y1114829D1*
X865415Y1114929D1*
X865581Y1115130D1*
X865715Y1115264D1*
X865916Y1115430D1*
X866017Y1115497D1*
X866150Y1115597D1*
X866251Y1115664D1*
X866385Y1115765D1*
X866685Y1115966D1*
X867087Y1116167D1*
X867286Y1116234D1*
X867822Y1116366D1*
X868390Y1116500D1*
X868558Y1116534D1*
X868925Y1116567D1*
X892660Y1116634D1*
X892654Y1116657D1*
X892627Y1116701D1*
X892593Y1116768D1*
X892560Y1116869D1*
X892392Y1117202D1*
X892360Y1117303D1*
X892259Y1117503D1*
X892226Y1117604D1*
X892159Y1117738D1*
X892126Y1117837D1*
X892059Y1117971D1*
X892025Y1118071D1*
X891992Y1118138D1*
X891958Y1118239D1*
X891891Y1118373D1*
X891858Y1118472D1*
X891824Y1118539D1*
X891791Y1118640D1*
X891759Y1118707D1*
X891692Y1118907D1*
X891657Y1118974D1*
X891625Y1119075D1*
X891591Y1119140D1*
X891491Y1119442D1*
X891457Y1119509D1*
X891290Y1120010D1*
X891256Y1120077D1*
X891122Y1120479D1*
X891089Y1120612D1*
X890955Y1121013D1*
X890923Y1121147D1*
X890856Y1121348D1*
X890822Y1121482D1*
X890789Y1121581D1*
X890755Y1121715D1*
X890722Y1121815D1*
X890688Y1121949D1*
X890655Y1122050D1*
X890353Y1123253D1*
X890320Y1123420D1*
X890220Y1123822D1*
X890186Y1123988D1*
X890119Y1124256D1*
X890087Y1124423D1*
X890052Y1124556D1*
X889852Y1125559D1*
X889786Y1125961D1*
X889752Y1126127D1*
X889719Y1126361D1*
X889685Y1126562D1*
X889618Y1127030D1*
X889551Y1127566D1*
X889484Y1128167D1*
X889451Y1128534D1*
X889417Y1128936D1*
X889385Y1129404D1*
X889350Y1130072D1*
Y1132713D1*
X889385Y1133348D1*
X889417Y1133849D1*
X889451Y1134251D1*
X889484Y1134618D1*
X889551Y1135219D1*
X889618Y1135755D1*
X889685Y1136223D1*
X889852Y1137226D1*
X890052Y1138228D1*
X890087Y1138362D1*
X890119Y1138529D1*
X890186Y1138797D1*
X890220Y1138963D1*
X890320Y1139365D1*
X890353Y1139531D1*
X890621Y1140601D1*
X890655Y1140702D1*
X890722Y1140970D1*
X890755Y1141070D1*
X890789Y1141203D1*
X890822Y1141303D1*
X890856Y1141437D1*
X890923Y1141638D1*
X890955Y1141772D1*
X891122Y1142273D1*
X891156Y1142407D1*
X891223Y1142608D1*
X891256Y1142675D1*
X891457Y1143276D1*
X891491Y1143343D1*
X891558Y1143543D1*
X891591Y1143610D1*
X891657Y1143811D1*
X891692Y1143878D1*
X891724Y1143978D1*
X891759Y1144045D1*
X891791Y1144144D1*
X891824Y1144211D1*
X891858Y1144312D1*
X891891Y1144379D1*
X891925Y1144479D1*
X891958Y1144546D1*
X891992Y1144646D1*
X892025Y1144713D1*
X892059Y1144814D1*
X892126Y1144948D1*
X892159Y1145047D1*
X892226Y1145181D1*
X892259Y1145282D1*
X892360Y1145482D1*
X892392Y1145583D1*
X892593Y1145983D1*
X892627Y1146084D1*
X893262Y1147354D1*
X893329Y1147454D1*
X893496Y1147789D1*
X893563Y1147888D1*
X893664Y1148089D1*
X893730Y1148189D1*
X893797Y1148323D1*
X893864Y1148424D1*
X893898Y1148491D1*
X893965Y1148591D1*
X894031Y1148724D1*
X894097Y1148825D1*
X894131Y1148892D1*
X894198Y1148992D1*
X894231Y1149059D1*
X894365Y1149259D1*
X894399Y1149325D1*
X894533Y1149526D1*
X894566Y1149593D1*
X895369Y1150797D1*
X895469Y1150930D1*
X895602Y1151131D1*
X895702Y1151265D1*
X895769Y1151365D1*
X895970Y1151633D1*
X896037Y1151732D1*
X896639Y1152535D1*
X896772Y1152702D1*
X896873Y1152836D1*
X897140Y1153171D1*
X897642Y1153772D1*
X897843Y1154007D1*
X898109Y1154307D1*
X898411Y1154640D1*
X898945Y1155210D1*
X899815Y1156079D1*
X900349Y1156580D1*
X900684Y1156881D1*
X900984Y1157148D1*
X901219Y1157349D1*
X901820Y1157850D1*
X902155Y1158117D1*
X902222Y1158151D1*
Y1158251D1*
X902188Y1158285D1*
X901954Y1158987D1*
X901920Y1159121D1*
X901353Y1160825D1*
X901319Y1160959D1*
X900751Y1162664D1*
X900717Y1162798D1*
X900148Y1164503D1*
X900115Y1164636D1*
X899580Y1166240D1*
X899547Y1166374D1*
X898979Y1168079D1*
X898945Y1168213D1*
X898377Y1169917D1*
X898344Y1170051D1*
X897776Y1171756D1*
X897741Y1171890D1*
X897173Y1173594D1*
X897140Y1173728D1*
X896605Y1175333D1*
X896572Y1175467D1*
X896003Y1177172D1*
X895970Y1177304D1*
X895402Y1179010D1*
X895369Y1179143D1*
X894801Y1180848D1*
X894766Y1180982D1*
X894198Y1182686D1*
X894164Y1182820D1*
X893630Y1184425D1*
X893597Y1184559D1*
X893028Y1186264D1*
X892995Y1186398D1*
X892427Y1188102D1*
X892392Y1188235D1*
X891824Y1189941D1*
X891791Y1190073D1*
X891223Y1191778D1*
X891189Y1191912D1*
X890655Y1193517D1*
X890621Y1193651D1*
X890052Y1195356D1*
X890020Y1195490D1*
X889652Y1196593D1*
X889618Y1196727D1*
X889585Y1196894D1*
X889484Y1197294D1*
X889451Y1197462D1*
X889350Y1197862D1*
X889318Y1198097D1*
X889283Y1198564D1*
Y1198631D1*
X889318Y1199100D1*
X889350Y1199333D1*
X889385Y1199501D1*
X889484Y1199902D1*
X889518Y1200070D1*
X889685Y1200738D1*
X889819Y1201139D1*
X889852Y1201206D1*
X889886Y1201306D1*
X889953Y1201440D1*
X889986Y1201539D1*
X890154Y1201874D1*
X890220Y1201975D1*
X890286Y1202108D1*
X890621Y1202609D1*
X890722Y1202743D1*
X890789Y1202844D1*
X890888Y1202978D1*
X890955Y1203077D1*
X891156Y1203345D1*
X891290Y1203512D1*
X891457Y1203713D1*
X892226Y1204482D1*
X892459Y1204682D1*
X892794Y1204949D1*
X892895Y1205016D1*
X893161Y1205217D1*
X893262Y1205283D1*
X893396Y1205385D1*
X893496Y1205451D1*
X893630Y1205551D1*
X894031Y1205819D1*
X894198Y1205919D1*
X894298Y1205986D1*
X894533Y1206119D1*
X894833Y1206286D1*
X895302Y1206521D1*
X895669Y1206688D1*
X896171Y1206888D1*
X896538Y1207022D1*
X896839Y1207122D1*
X897173Y1207223D1*
X898109Y1207457D1*
X898677Y1207591D1*
X898979Y1207657D1*
X899146Y1207690D1*
X899547Y1207757D1*
X899781Y1207790D1*
X900049Y1207824D1*
X900383Y1207857D1*
X901085Y1207891D1*
X901319D1*
X902021Y1207857D1*
X902356Y1207824D1*
X902823Y1207757D1*
X903157Y1207690D1*
X904294Y1207423D1*
X904428Y1207390D1*
X904661Y1207323D1*
X905164Y1207156D1*
X905497Y1207022D1*
X906033Y1206755D1*
X906199Y1206654D1*
X906701Y1206320D1*
X906835Y1206219D1*
X906936Y1206152D1*
X907336Y1205852D1*
X907503Y1205685D1*
X901353D1*
X901252Y1205718D1*
X901152D1*
X901051Y1205685D1*
X900349Y1205651D1*
X900014Y1205618D1*
X899748Y1205585D1*
X899513Y1205551D1*
X899314Y1205518D1*
X898979Y1205451D1*
X898845Y1205417D1*
X898677Y1205385D1*
X898143Y1205251D1*
X897942Y1205184D1*
X897808Y1205150D1*
X897408Y1205016D1*
X897341Y1204983D1*
X897073Y1204882D1*
X896739Y1204749D1*
X896438Y1204615D1*
X896337Y1204581D1*
X895736Y1204281D1*
X895702Y1204247D1*
X895402Y1204080D1*
X895067Y1203879D1*
X894667Y1203613D1*
X894265Y1203311D1*
X894097Y1203177D1*
X893898Y1203010D1*
X893496Y1202643D1*
X893429Y1202609D1*
X893329Y1202509D1*
Y1202475D1*
X892928Y1202042D1*
X892660Y1201707D1*
X892560Y1201573D1*
X892493Y1201472D1*
X892392Y1201339D1*
X892360Y1201273D1*
X892226Y1201072D1*
X892159Y1200938D1*
X892092Y1200837D1*
X891925Y1200504D1*
X891891Y1200403D1*
X891824Y1200270D1*
X891657Y1199768D1*
X891591Y1199501D1*
X891558Y1199333D1*
X891524Y1199100D1*
X891491Y1198665D1*
X891457Y1198631D1*
Y1198564D1*
X891491Y1198531D1*
X891524Y1198063D1*
X891558Y1197862D1*
X891591Y1197696D1*
X891625Y1197596D1*
X891657Y1197462D1*
X891925Y1196660D1*
X891958Y1196526D1*
X892526Y1194822D1*
X892560Y1194688D1*
X893129Y1192983D1*
X893161Y1192849D1*
X893730Y1191144D1*
X893764Y1191010D1*
X894298Y1189406D1*
X894332Y1189272D1*
X894900Y1187567D1*
X894933Y1187433D1*
X895503Y1185728D1*
X895535Y1185594D1*
X896104Y1183890D1*
X896136Y1183756D1*
X896706Y1182051D1*
X896739Y1181917D1*
X897274Y1180314D1*
X897307Y1180180D1*
X897875Y1178475D1*
X897908Y1178341D1*
X898478Y1176636D1*
X898510Y1176503D1*
X899079Y1174798D1*
X899113Y1174664D1*
X899681Y1172959D1*
X899714Y1172825D1*
X900249Y1171220D1*
X900282Y1171088D1*
X900850Y1169383D1*
X900885Y1169249D1*
X901453Y1167545D1*
X901486Y1167411D1*
X902054Y1165706D1*
X902088Y1165572D1*
X902656Y1163867D1*
X902689Y1163734D1*
X903224Y1162129D1*
X903259Y1161995D1*
X903825Y1160290D1*
X903860Y1160156D1*
X904428Y1158451D1*
X904461Y1158318D1*
X904762Y1157416D1*
Y1157349D1*
X903959Y1156747D1*
X903291Y1156213D1*
X902890Y1155878D1*
X902656Y1155677D1*
X902388Y1155444D1*
X902054Y1155143D1*
X901587Y1154707D1*
X901520Y1154675D1*
X900282Y1153438D1*
Y1153404D1*
X899848Y1152936D1*
X899314Y1152335D1*
X899146Y1152134D1*
X898945Y1151900D1*
X898778Y1151699D1*
X898377Y1151198D1*
X898277Y1151064D1*
X898143Y1150898D1*
X897642Y1150228D1*
X897575Y1150129D1*
X897475Y1149995D1*
X897408Y1149895D1*
X897307Y1149761D1*
X897173Y1149560D1*
X897073Y1149427D1*
X896672Y1148825D1*
X896639Y1148759D1*
X896438Y1148457D1*
X896404Y1148390D1*
X896270Y1148189D1*
X896238Y1148123D1*
X896171Y1148022D1*
X896136Y1147955D1*
X896070Y1147856D1*
X896037Y1147789D1*
X895970Y1147688D1*
X895937Y1147621D1*
X895870Y1147521D1*
X895836Y1147454D1*
X895769Y1147354D1*
X895669Y1147154D1*
X895602Y1147054D1*
X895535Y1146920D1*
X895469Y1146819D1*
X895302Y1146484D1*
X895235Y1146385D1*
X894533Y1144980D1*
X894499Y1144881D1*
X894365Y1144613D1*
X894332Y1144513D1*
X894231Y1144312D1*
X894198Y1144211D1*
X894131Y1144077D1*
X894097Y1143978D1*
X894031Y1143844D1*
X893997Y1143744D1*
X893930Y1143610D1*
X893898Y1143510D1*
X893864Y1143444D1*
X893831Y1143343D1*
X893797Y1143276D1*
X893764Y1143176D1*
X893730Y1143109D1*
X893664Y1142908D1*
X893630Y1142841D1*
X893597Y1142741D1*
X893563Y1142675D1*
X893463Y1142373D1*
X893429Y1142306D1*
X893262Y1141806D1*
X893228Y1141739D1*
X893094Y1141337D1*
X893062Y1141203D1*
X892928Y1140802D1*
X892895Y1140668D1*
X892828Y1140467D1*
X892794Y1140335D1*
X892761Y1140234D1*
X892727Y1140100D1*
X892694Y1140000D1*
X892627Y1139732D1*
X892593Y1139633D1*
X892392Y1138829D1*
X892360Y1138663D1*
X892293Y1138395D1*
X892226Y1138062D1*
X892192Y1137928D1*
X892126Y1137593D1*
X892092Y1137392D1*
X892025Y1137058D1*
X891925Y1136457D1*
X891791Y1135521D1*
X891759Y1135253D1*
X891724Y1134953D1*
X891657Y1134283D1*
X891625Y1133883D1*
X891591Y1133381D1*
X891558Y1132747D1*
X891524Y1132713D1*
Y1130072D1*
X891558Y1130038D1*
X891591Y1129404D1*
X891625Y1128902D1*
X891657Y1128501D1*
X891692Y1128133D1*
X891759Y1127531D1*
X891791Y1127264D1*
X891925Y1126328D1*
X892025Y1125727D1*
X892059Y1125559D1*
X892092Y1125358D1*
X892192Y1124857D1*
X892226Y1124723D1*
X892293Y1124390D1*
X892325Y1124256D1*
X892360Y1124089D1*
X892593Y1123152D1*
X892627Y1123052D1*
X892694Y1122785D1*
X892727Y1122684D1*
X892761Y1122551D1*
X892794Y1122450D1*
X892828Y1122318D1*
X892895Y1122117D1*
X892928Y1121983D1*
X893028Y1121681D1*
X893062Y1121549D1*
X893295Y1120846D1*
X893329Y1120780D1*
X893463Y1120378D1*
X893496Y1120311D1*
X893563Y1120110D1*
X893597Y1120043D1*
X893664Y1119843D1*
X893697Y1119777D1*
X893730Y1119676D1*
X893764Y1119609D1*
X893797Y1119509D1*
X893831Y1119442D1*
X893864Y1119341D1*
X893898Y1119274D1*
X893930Y1119175D1*
X893997Y1119041D1*
X894031Y1118941D1*
X894064Y1118874D1*
X894097Y1118774D1*
X894164Y1118640D1*
X894198Y1118539D1*
X894298Y1118339D1*
X894332Y1118239D1*
X894466Y1117971D1*
X894499Y1117871D1*
X895101Y1116668D1*
X895112Y1116627D1*
X895134Y1116601D1*
X916997Y1116567D1*
X938861D1*
X960724Y1116601D1*
X960791Y1116668D1*
Y1116701D1*
X961193Y1117503D1*
X961226Y1117604D1*
X961427Y1118005D1*
X961459Y1118105D1*
X961593Y1118373D1*
X961627Y1118472D1*
X961694Y1118606D1*
X961727Y1118707D1*
X961794Y1118840D1*
X961828Y1118941D1*
X961895Y1119075D1*
X961928Y1119175D1*
X961962Y1119241D1*
X961995Y1119341D1*
X962028Y1119408D1*
X962062Y1119509D1*
X962094Y1119576D1*
X962129Y1119676D1*
X962161Y1119743D1*
X962228Y1119944D1*
X962262Y1120010D1*
X962295Y1120110D1*
X962329Y1120177D1*
X962429Y1120479D1*
X962463Y1120546D1*
X962898Y1121849D1*
X962930Y1121983D1*
X962997Y1122184D1*
X963031Y1122318D1*
X963098Y1122517D1*
X963164Y1122785D1*
X963198Y1122885D1*
X963265Y1123152D1*
X963298Y1123253D1*
X963466Y1123921D1*
X963499Y1124089D1*
X963566Y1124356D1*
X963633Y1124690D1*
X963667Y1124824D1*
X963766Y1125325D1*
X963801Y1125526D1*
X963833Y1125693D1*
X963967Y1126495D1*
X964034Y1126963D1*
X964134Y1127765D1*
X964168Y1128066D1*
X964201Y1128434D1*
X964235Y1128835D1*
X964268Y1129270D1*
X964302Y1129904D1*
X964335Y1131142D1*
X964369Y1131176D1*
Y1131576D1*
X964335Y1131609D1*
X964302Y1132881D1*
X964268Y1133514D1*
X964235Y1133950D1*
X964201Y1134350D1*
X964134Y1135020D1*
X964034Y1135822D1*
X963967Y1136290D1*
X963833Y1137092D1*
X963801Y1137259D1*
X963766Y1137459D1*
X963667Y1137961D1*
X963633Y1138094D1*
X963600Y1138262D1*
X963566Y1138395D1*
X963533Y1138563D1*
X963466Y1138829D1*
X963432Y1138997D1*
X963298Y1139531D1*
X963265Y1139633D1*
X963198Y1139900D1*
X963164Y1140000D1*
X963131Y1140134D1*
X963098Y1140234D1*
X963064Y1140367D1*
X963031Y1140467D1*
X962997Y1140601D1*
X962930Y1140802D1*
X962898Y1140936D1*
X962496Y1142139D1*
X962463Y1142206D1*
X962362Y1142507D1*
X962329Y1142573D1*
X962262Y1142774D1*
X962228Y1142841D1*
X962161Y1143042D1*
X962129Y1143109D1*
X962094Y1143209D1*
X962062Y1143276D1*
X962028Y1143377D1*
X961995Y1143444D1*
X961962Y1143543D1*
X961895Y1143677D1*
X961861Y1143777D1*
X961828Y1143844D1*
X961794Y1143944D1*
X961727Y1144077D1*
X961694Y1144178D1*
X961593Y1144379D1*
X961560Y1144479D1*
X961427Y1144747D1*
X961392Y1144846D1*
X961193Y1145248D1*
X961159Y1145349D1*
X960825Y1146017D1*
X960759Y1146117D1*
X960524Y1146585D1*
X960457Y1146685D1*
X960323Y1146953D1*
X960256Y1147054D1*
X960189Y1147186D1*
X960122Y1147287D1*
X960056Y1147421D1*
X959990Y1147521D1*
X959955Y1147588D1*
X959888Y1147688D1*
X959856Y1147755D1*
X959789Y1147856D1*
X959755Y1147923D1*
X959688Y1148022D1*
X959655Y1148089D1*
X959588Y1148189D1*
X959554Y1148256D1*
X959420Y1148457D1*
X959387Y1148524D1*
X958652Y1149627D1*
X958551Y1149761D1*
X958417Y1149961D1*
X958318Y1150094D1*
X958251Y1150196D1*
X957749Y1150864D1*
X957615Y1151030D1*
X957514Y1151164D1*
X957114Y1151667D1*
X956780Y1152067D1*
X956579Y1152302D1*
X956345Y1152568D1*
X956077Y1152869D1*
X955676Y1153304D1*
Y1153337D1*
X954239Y1154774D1*
X954172Y1154808D1*
X953738Y1155210D1*
X953437Y1155476D1*
X953169Y1155711D1*
X952936Y1155912D1*
X952534Y1156245D1*
X952033Y1156647D1*
X951899Y1156747D1*
X951731Y1156881D1*
X951063Y1157382D1*
X950963Y1157449D1*
X950829Y1157550D1*
X950629Y1157684D1*
X950495Y1157783D1*
X950093Y1158051D1*
X950026Y1158117D1*
X949993Y1192480D1*
X949959Y1192882D1*
X949927Y1193083D1*
X949892Y1193249D1*
X949860Y1193383D1*
X949726Y1193785D1*
X949659Y1193919D1*
X949626Y1194018D1*
X949525Y1194219D1*
X949458Y1194319D1*
X949425Y1194386D1*
X949224Y1194688D1*
X949024Y1194955D1*
X948790Y1195222D1*
Y1195256D1*
X948490Y1195556D1*
X948423Y1195589D1*
X948155Y1195824D1*
X947987Y1195958D1*
X947853Y1196058D1*
X947753Y1196125D1*
X947619Y1196224D1*
X947453Y1196325D1*
X947353Y1196392D1*
X947118Y1196526D1*
X947085Y1196559D1*
X946349Y1196927D1*
X946249Y1196961D1*
X946014Y1197060D1*
X945647Y1197194D1*
X945580Y1197227D1*
X945480Y1197261D1*
X945346Y1197294D1*
X945012Y1197395D1*
X944912Y1197428D1*
X944510Y1197529D1*
X944009Y1197629D1*
X943608Y1197696D1*
X943341Y1197730D1*
X943039Y1197762D1*
X942572Y1197795D1*
X942115Y1197829D1*
X941657D1*
X941201Y1197795D1*
X940766Y1197762D1*
X940432Y1197730D1*
X939965Y1197663D1*
X939797Y1197629D1*
X939597Y1197596D1*
X939429Y1197562D1*
X938761Y1197395D1*
X938660Y1197361D1*
X938526Y1197328D1*
X938025Y1197160D1*
X937958Y1197127D1*
X937625Y1196993D1*
X937323Y1196860D1*
X937223Y1196827D1*
X936822Y1196626D1*
X936789Y1196593D1*
X936554Y1196459D1*
X936387Y1196358D1*
X935986Y1196091D1*
X935719Y1195891D1*
X935484Y1195690D1*
X935417Y1195656D1*
X934883Y1195122D1*
Y1195088D1*
X934715Y1194888D1*
X934615Y1194755D1*
X934549Y1194654D1*
X934448Y1194520D1*
X934415Y1194453D1*
X934348Y1194353D1*
X934281Y1194219D1*
X934214Y1194119D1*
X934181Y1194018D1*
X934080Y1193818D1*
X933948Y1193417D1*
X933881Y1193150D1*
X933846Y1192983D1*
X933814Y1192715D1*
X933780Y1163432D1*
X933680D1*
X929857Y1163466D1*
X926035D1*
X922213Y1163432D1*
X921545Y1163399D1*
X921076Y1163366D1*
X920675Y1163332D1*
X920007Y1163265D1*
X919906D1*
X919873Y1163332D1*
X919471Y1164535D1*
X919438Y1164669D1*
X918870Y1166374D1*
X918836Y1166508D1*
X918302Y1168113D1*
X918268Y1168247D1*
X917699Y1169951D1*
X917667Y1170085D1*
X917097Y1171790D1*
X917064Y1171924D1*
X916496Y1173629D1*
X916463Y1173761D1*
X915895Y1175467D1*
X915861Y1175600D1*
X915325Y1177205D1*
X915293Y1177339D1*
X914724Y1179043D1*
X914692Y1179177D1*
X914122Y1180882D1*
X914089Y1181016D1*
X913521Y1182720D1*
X913487Y1182854D1*
X912919Y1184559D1*
X912886Y1184692D1*
X912350Y1186297D1*
X912318Y1186430D1*
X911749Y1188135D1*
X911715Y1188269D1*
X911147Y1189974D1*
X911114Y1190108D1*
X910546Y1191812D1*
X910512Y1191946D1*
X909944Y1193651D1*
X909911Y1193785D1*
X909375Y1195388D1*
X909343Y1195522D1*
X908774Y1197227D1*
X908740Y1197361D1*
X908172Y1199066D1*
X908139Y1199199D1*
X907570Y1200904D1*
X907537Y1201038D1*
X907003Y1202643D1*
X906969Y1202710D1*
X906936Y1202810D1*
X906802Y1203077D1*
X906735Y1203177D1*
X906701Y1203244D1*
X906567Y1203445D1*
X906467Y1203579D1*
X906301Y1203780D1*
Y1203814D1*
X905966Y1204147D1*
X905899Y1204180D1*
X905698Y1204348D1*
X905430Y1204549D1*
X905331Y1204615D1*
X905164Y1204715D1*
X905130Y1204749D1*
X904528Y1205050D1*
X904428Y1205083D1*
X904261Y1205150D1*
X904194Y1205184D1*
X903692Y1205350D1*
X903559Y1205385D1*
X903458Y1205417D1*
X903324Y1205451D1*
X902823Y1205551D1*
X902622Y1205585D1*
X902356Y1205618D1*
X902054Y1205651D1*
X901353Y1205685D1*
X907503D1*
X907636Y1205585D1*
X907703Y1205518D1*
X907971Y1205217D1*
X908072Y1205083D1*
X908139Y1204983D1*
X908339Y1204715D1*
X908406Y1204615D1*
X908507Y1204482D1*
X908640Y1204281D1*
X908673Y1204214D1*
X908740Y1204114D1*
X908908Y1203780D1*
X908941Y1203680D1*
X908975Y1203613D1*
X909475Y1202108D1*
X909509Y1201975D1*
X910045Y1200370D1*
X910077Y1200236D1*
X910646Y1198531D1*
X910680Y1198398D1*
X911248Y1196693D1*
X911281Y1196559D1*
X911849Y1194854D1*
X911883Y1194720D1*
X912451Y1193016D1*
X912484Y1192882D1*
X913020Y1191278D1*
X913052Y1191144D1*
X913621Y1189440D1*
X913655Y1189306D1*
X914223Y1187601D1*
X914256Y1187467D1*
X914824Y1185762D1*
X914858Y1185629D1*
X915427Y1183924D1*
X915459Y1183790D1*
X915995Y1182185D1*
X916028Y1182051D1*
X916597Y1180346D1*
X916630Y1180213D1*
X917198Y1178508D1*
X917231Y1178374D1*
X917801Y1176669D1*
X917833Y1176535D1*
X918402Y1174831D1*
X918436Y1174698D1*
X918970Y1173093D1*
X919004Y1172959D1*
X919572Y1171255D1*
X919605Y1171121D1*
X920173Y1169416D1*
X920207Y1169282D1*
X920776Y1167577D1*
X920808Y1167444D1*
X921377Y1165739D1*
Y1165639D1*
X921411Y1165605D1*
X921466Y1165572D1*
X921522D1*
X921577Y1165605D1*
X922247Y1165639D1*
X931606Y1165672D1*
Y1192681D1*
X931640Y1192949D1*
X931673Y1193150D1*
X931774Y1193550D1*
X931807Y1193718D1*
X931975Y1194386D1*
X932075Y1194688D1*
X932108Y1194755D1*
X932142Y1194854D1*
X932409Y1195388D1*
X932743Y1195891D1*
X932844Y1196024D1*
X932911Y1196125D1*
X933211Y1196526D1*
X933412Y1196760D1*
X933814Y1197160D1*
X934047Y1197361D1*
X934214Y1197495D1*
X934482Y1197696D1*
X934581Y1197762D1*
X934715Y1197862D1*
X934816Y1197929D1*
X934950Y1198030D1*
X935451Y1198365D1*
X935685Y1198499D1*
X935986Y1198665D1*
X936186Y1198765D1*
X936554Y1198932D1*
X936888Y1199066D1*
X937156Y1199167D1*
X937558Y1199301D1*
X937791Y1199367D1*
X938727Y1199601D1*
X939295Y1199735D1*
X939797Y1199835D1*
X940198Y1199902D1*
X940466Y1199936D1*
X940801Y1199969D1*
X941235Y1200003D1*
X942572D1*
X943007Y1199969D1*
X943341Y1199936D1*
X943808Y1199869D1*
X944009Y1199835D1*
X944344Y1199768D1*
X944644Y1199701D1*
X945213Y1199567D1*
X945881Y1199400D1*
X946115Y1199333D1*
X946818Y1199100D1*
X947152Y1198966D1*
X947386Y1198865D1*
X948054Y1198531D1*
X948388Y1198331D1*
X948890Y1197996D1*
X949024Y1197896D1*
X949125Y1197829D1*
X949259Y1197730D1*
X949358Y1197663D1*
X949626Y1197462D1*
X949825Y1197294D1*
X950495Y1196626D1*
X950661Y1196425D1*
X950728Y1196325D1*
X950929Y1196058D1*
X950996Y1195958D1*
X951097Y1195824D1*
X951364Y1195423D1*
X951430Y1195289D1*
X951497Y1195189D1*
X951564Y1195055D1*
X951598Y1194955D1*
X951664Y1194822D1*
X951698Y1194720D1*
X951731Y1194654D1*
X951832Y1194353D1*
X951899Y1194085D1*
X951932Y1193919D1*
X952033Y1193517D1*
X952066Y1193350D1*
X952133Y1193083D1*
X952167Y1192849D1*
X952199Y1192448D1*
Y1159255D1*
X952266Y1159188D1*
X952333Y1159154D1*
X952601Y1158953D1*
X952701Y1158886D1*
X953370Y1158385D1*
X953537Y1158251D1*
X953671Y1158151D1*
X954005Y1157883D1*
X954606Y1157382D1*
X954841Y1157181D1*
X955108Y1156948D1*
X955442Y1156647D1*
X955911Y1156213D1*
X957080Y1155042D1*
X957514Y1154573D1*
X957816Y1154240D1*
X958050Y1153972D1*
X958451Y1153504D1*
X958585Y1153337D1*
X958752Y1153136D1*
X959020Y1152802D1*
X959119Y1152669D1*
X959253Y1152501D1*
X959755Y1151833D1*
X959822Y1151732D1*
X960022Y1151466D1*
X960089Y1151365D1*
X960189Y1151231D1*
X960256Y1151131D1*
X960357Y1150997D1*
X960491Y1150797D1*
X960591Y1150664D1*
X961259Y1149660D1*
X961293Y1149593D1*
X961427Y1149392D1*
X961459Y1149325D1*
X961593Y1149126D1*
X961627Y1149059D1*
X961694Y1148958D1*
X961727Y1148892D1*
X961794Y1148791D1*
X961828Y1148724D1*
X961895Y1148625D1*
X961962Y1148491D1*
X962028Y1148390D1*
X962094Y1148256D1*
X962161Y1148156D1*
X962228Y1148022D1*
X962295Y1147923D1*
X962429Y1147655D1*
X962496Y1147554D1*
X962898Y1146752D1*
X962965Y1146652D1*
X962997Y1146551D1*
X963332Y1145883D1*
X963365Y1145782D1*
X963499Y1145516D1*
X963533Y1145415D1*
X963633Y1145215D1*
X963667Y1145114D1*
X963734Y1144980D1*
X963766Y1144881D1*
X963833Y1144747D1*
X963867Y1144646D1*
X963900Y1144580D1*
X963933Y1144479D1*
X963967Y1144412D1*
X964000Y1144312D1*
X964034Y1144245D1*
X964067Y1144144D1*
X964101Y1144077D1*
X964134Y1143978D1*
X964168Y1143911D1*
X964201Y1143811D1*
X964235Y1143744D1*
X964302Y1143543D1*
X964335Y1143476D1*
X964436Y1143176D1*
X964469Y1143109D1*
X964870Y1141906D1*
X964903Y1141772D1*
X964970Y1141571D1*
X965004Y1141437D1*
X965037Y1141337D1*
X965070Y1141203D1*
X965104Y1141102D1*
X965136Y1140970D1*
X965171Y1140869D1*
X965238Y1140601D1*
X965270Y1140501D1*
X965438Y1139833D1*
X965471Y1139665D1*
X965605Y1139131D1*
X965639Y1138963D1*
X965739Y1138563D1*
X965773Y1138395D1*
X965806Y1138262D1*
X966007Y1137259D1*
X966073Y1136857D1*
X966106Y1136690D1*
X966140Y1136457D1*
X966173Y1136256D1*
X966274Y1135554D1*
X966307Y1135286D1*
X966374Y1134685D1*
X966441Y1133950D1*
X966475Y1133482D1*
X966508Y1132846D1*
X966542Y1131576D1*
Y1131176D1*
X966508Y1129938D1*
X966475Y1129303D1*
X966441Y1128835D1*
X966374Y1128100D1*
X966307Y1127499D1*
X966274Y1127231D1*
X966140Y1126294D1*
X966073Y1125894D1*
X966039Y1125727D1*
X966007Y1125526D1*
X965806Y1124522D1*
X965773Y1124390D1*
X965739Y1124222D1*
X965639Y1123822D1*
X965605Y1123654D1*
X965505Y1123253D1*
X965471Y1123085D1*
X965270Y1122283D1*
X965238Y1122184D1*
X965171Y1121916D1*
X965136Y1121815D1*
X965070Y1121549D1*
X965004Y1121348D1*
X964970Y1121214D1*
X964903Y1121013D1*
X964870Y1120879D1*
X964469Y1119676D1*
X964436Y1119609D1*
X964335Y1119308D1*
X964302Y1119241D1*
X964235Y1119041D1*
X964201Y1118974D1*
X964168Y1118874D1*
X964134Y1118807D1*
X964067Y1118606D1*
X964034Y1118539D1*
X964000Y1118440D1*
X963967Y1118373D1*
X963933Y1118272D1*
X963867Y1118138D1*
X963833Y1118038D1*
X963801Y1117971D1*
X963766Y1117871D1*
X963667Y1117671D1*
X963633Y1117570D1*
X963566Y1117436D1*
X963533Y1117336D1*
X963399Y1117068D1*
X963365Y1116969D1*
X963198Y1116634D1*
X986699Y1116567D1*
X987067Y1116534D1*
X987235Y1116500D1*
X987803Y1116366D1*
X988337Y1116234D1*
X988538Y1116167D1*
X988940Y1115966D1*
X989240Y1115765D1*
X989374Y1115664D1*
X989475Y1115597D1*
X989609Y1115497D1*
X989709Y1115430D1*
X989909Y1115264D1*
X990042Y1115130D1*
X990210Y1114929D1*
X990277Y1114829D1*
X990377Y1114696D1*
X990444Y1114594D1*
X990545Y1114462D1*
X990745Y1114160D1*
X990945Y1113760D1*
X991012Y1113559D1*
X991146Y1113024D1*
X991180Y1112857D1*
X991280Y1112455D1*
X991314Y1112289D1*
X991346Y1111887D1*
Y1101927D1*
X991314Y1101525D1*
X991280Y1101358D1*
X991213Y1101091D1*
X991180Y1100924D1*
X991012Y1100255D1*
X990945Y1100054D1*
X990912Y1099987D1*
X990878Y1099887D1*
X990811Y1099753D1*
X990745Y1099652D1*
X990711Y1099587D1*
X990644Y1099486D1*
X990545Y1099352D1*
X990478Y1099252D1*
X990277Y1098984D1*
X990210Y1098885D1*
X990076Y1098717D1*
X989875Y1098517D1*
X989709Y1098383D1*
X989441Y1098182D1*
X989341Y1098115D1*
X989207Y1098014D1*
X989007Y1097881D1*
X988840Y1097781D1*
X988706Y1097714D1*
X988538Y1097647D1*
X988238Y1097547D1*
X988104Y1097514D1*
X987535Y1097381D1*
X987101Y1097280D1*
X986801Y1097247D1*
X970920Y1097213D1*
Y1093570D1*
X942270D1*
X941903Y1093602D1*
X941535D1*
X940801Y1093535D1*
X940499Y1093503D1*
X940265Y1093469D1*
X940064Y1093436D1*
X939563Y1093335D1*
X939028Y1093202D1*
X938928Y1093168D1*
X938794Y1093135D1*
X938092Y1092900D1*
X938025Y1092867D1*
X937692Y1092734D1*
X937457Y1092633D1*
X937357Y1092600D1*
X936554Y1092199D1*
X936521Y1092165D1*
X936052Y1091898D1*
X935853Y1091764D1*
X935685Y1091664D1*
X935551Y1091563D1*
X935350Y1091430D1*
X935084Y1091230D1*
X934581Y1090828D1*
X934281Y1090560D1*
X934214Y1090528D1*
X933345Y1089659D1*
Y1089625D1*
X933112Y1089357D1*
X932944Y1089156D1*
X932676Y1088823D1*
X932576Y1088689D1*
X932542Y1088656D1*
X932475D1*
X932343Y1088722D1*
X931841Y1088990D1*
X931807Y1089022D1*
X931539Y1089156D1*
X931440Y1089190D1*
X930938Y1089424D1*
X930636Y1089558D1*
X929969Y1089825D1*
X929902Y1089858D1*
X928798Y1090227D1*
X928664Y1090260D1*
X928297Y1090361D1*
X928197Y1090394D1*
X927795Y1090493D1*
X927629Y1090528D1*
X927495Y1090560D1*
X926825Y1090694D1*
X926425Y1090761D1*
X925957Y1090828D1*
X925689Y1090861D1*
X925388Y1090895D1*
X925021Y1090928D1*
X924520Y1090962D1*
X923806Y1090995D1*
X923093D1*
X922381Y1090962D1*
X921945Y1090928D1*
X921644Y1090895D1*
X921377Y1090861D1*
X921143Y1090828D1*
X920741Y1090761D1*
X920240Y1090661D1*
X919572Y1090493D1*
X919371Y1090428D1*
X919238Y1090394D1*
X918736Y1090227D1*
X918669Y1090193D1*
X918402Y1090093D1*
X918235Y1090026D1*
X918000Y1089925D1*
X917900Y1089892D1*
X916965Y1089424D1*
X916930Y1089391D1*
X916697Y1089257D1*
X916530Y1089156D1*
X916028Y1088823D1*
X915627Y1088522D1*
X915459Y1088388D1*
X915259Y1088220D1*
X914958Y1087953D1*
X914891Y1087920D1*
X914357Y1087385D1*
Y1087352D1*
X914089Y1087051D1*
X913923Y1086850D1*
X913789Y1086684D1*
X913588Y1086416D1*
X913521Y1086315D1*
X913420Y1086181D1*
X913286Y1085982D1*
X913253Y1085915D1*
X913119Y1085714D1*
X913087Y1085647D1*
X913020Y1085546D1*
X912953Y1085413D1*
X912886Y1085312D1*
X912585Y1084711D1*
X912551Y1084610D1*
X912484Y1084476D1*
X912451Y1084377D1*
X912385Y1084243D1*
X912318Y1084042D1*
X912283Y1083975D1*
X912084Y1083374D1*
X912050Y1083240D1*
X912017Y1083140D1*
X911883Y1082605D1*
X911782Y1082104D1*
X911749Y1081903D1*
X911715Y1081669D1*
X911682Y1081369D1*
X911648Y1081034D1*
X911615Y1080332D1*
X911581Y1080298D1*
Y1079930D1*
X911615Y1079898D1*
X911648Y1079196D1*
X911682Y1078861D1*
X911715Y1078593D1*
X911749Y1078360D1*
X911782Y1078159D1*
X911849Y1077825D1*
X911883Y1077692D1*
X911916Y1077524D1*
X911950Y1077424D1*
X912017Y1077156D1*
X912050Y1077056D1*
X912084Y1076923D1*
X912184Y1076621D1*
X912217Y1076555D1*
X912318Y1076255D1*
X912350Y1076188D1*
X912385Y1076087D1*
X912451Y1075953D1*
X912484Y1075853D1*
X912685Y1075451D1*
X912719Y1075352D1*
X912786Y1075251D1*
X912919Y1074983D1*
X912986Y1074883D1*
X913020Y1074816D1*
X913087Y1074717D1*
X913119Y1074650D1*
X913186Y1074549D1*
X913220Y1074483D1*
X913487Y1074081D1*
X913789Y1073680D1*
X914055Y1073345D1*
X914256Y1073112D1*
X914692Y1072644D1*
Y1072610D1*
X914759Y1072543D1*
X914824Y1072510D1*
X915360Y1072008D1*
X915593Y1071808D1*
X915794Y1071640D1*
X915928Y1071541D1*
X916094Y1071407D1*
X916228Y1071306D1*
X916329Y1071240D1*
X916463Y1071139D1*
X916864Y1070873D1*
X917365Y1070571D1*
X917600Y1070437D1*
X917633Y1070404D1*
X918436Y1070003D1*
X918535Y1069970D1*
X918836Y1069836D1*
X919337Y1069635D1*
X919404Y1069601D1*
X919906Y1069434D1*
X920039Y1069402D1*
X920240Y1069335D1*
X920776Y1069201D1*
X921277Y1069101D1*
X921478Y1069067D1*
X921711Y1069034D1*
X922012Y1069000D1*
X922580Y1068967D1*
X922669Y1068933D1*
X922759D1*
X922848Y1068967D1*
X923081Y1069000D1*
X923282Y1069067D1*
X923550Y1069201D1*
X923850Y1069501D1*
Y1069534D1*
X923917Y1069635D1*
X923984Y1069769D1*
X924051Y1069970D1*
X924085Y1070136D1*
X924118Y1070171D1*
Y1070538D1*
X924085Y1070571D1*
X924051Y1070705D1*
X924018Y1070806D1*
X923917Y1071005D1*
Y1071039D1*
X923650Y1071306D1*
X923584Y1071340D1*
X923550Y1071373D1*
X923282Y1071507D1*
X923182Y1071541D1*
X923049Y1071573D1*
X922815Y1071608D1*
X922413Y1071640D1*
X922146Y1071675D1*
X921945Y1071707D1*
X921444Y1071808D1*
X921176Y1071875D1*
X920942Y1071942D1*
X920341Y1072142D1*
X919839Y1072343D1*
X919471Y1072510D1*
X919203Y1072644D1*
X918836Y1072844D1*
X918503Y1073045D1*
X917900Y1073446D1*
X917766Y1073546D1*
X917600Y1073680D1*
X917466Y1073780D1*
X917265Y1073948D1*
X916930Y1074248D1*
X916563Y1074615D1*
X916262Y1074950D1*
X916094Y1075151D1*
X915961Y1075318D1*
X915861Y1075451D1*
X915459Y1076054D1*
X915427Y1076121D1*
X915360Y1076220D1*
X915226Y1076488D1*
X915159Y1076588D1*
X915092Y1076722D1*
X915059Y1076822D1*
X914958Y1077022D1*
X914925Y1077123D1*
X914858Y1077257D1*
X914791Y1077457D1*
X914759Y1077524D1*
X914692Y1077724D1*
X914657Y1077858D1*
X914625Y1077959D1*
X914591Y1078092D1*
X914558Y1078193D1*
X914524Y1078360D1*
X914491Y1078493D1*
X914457Y1078660D1*
X914424Y1078861D1*
X914390Y1079094D1*
X914357Y1079396D1*
Y1080866D1*
X914390Y1081201D1*
X914424Y1081436D1*
X914457Y1081635D1*
X914524Y1081970D1*
X914558Y1082104D1*
X914591Y1082270D1*
X914625Y1082371D1*
X914657Y1082505D1*
X914858Y1083106D1*
X914891Y1083173D1*
X914925Y1083274D1*
X914958Y1083341D1*
X914992Y1083441D1*
X915360Y1084176D1*
X915427Y1084277D1*
X915493Y1084409D1*
X915761Y1084811D1*
X915861Y1084945D1*
X915928Y1085046D1*
X916062Y1085213D1*
X916228Y1085413D1*
X916563Y1085781D1*
X916697Y1085915D1*
X917064Y1086248D1*
X917265Y1086416D1*
X917667Y1086717D1*
X918067Y1086984D1*
X918402Y1087185D1*
X919136Y1087552D1*
X919371Y1087652D1*
X919538Y1087719D1*
X919806Y1087820D1*
X920207Y1087953D1*
X920441Y1088020D1*
X920975Y1088154D1*
X921478Y1088255D1*
X921945Y1088322D1*
X922247Y1088354D1*
X922647Y1088388D1*
X924219D1*
X924720Y1088354D1*
X925088Y1088322D1*
X925622Y1088255D1*
X925857Y1088220D1*
X926259Y1088154D1*
X926592Y1088087D1*
X926892Y1088020D1*
X927562Y1087853D1*
X927795Y1087786D1*
X928331Y1087619D1*
X928698Y1087486D1*
X928966Y1087385D1*
X929133Y1087318D1*
X929601Y1087118D1*
X930102Y1086885D1*
X930169Y1086850D1*
X930738Y1086550D1*
X930971Y1086416D1*
Y1086382D1*
X930938Y1086315D1*
X930871Y1086215D1*
X930570Y1085613D1*
X930537Y1085513D1*
X930336Y1085113D1*
X930303Y1085012D1*
X930236Y1084878D1*
X930202Y1084778D1*
X930102Y1084577D1*
X930070Y1084476D1*
X930035Y1084409D1*
X930003Y1084310D1*
X929969Y1084243D1*
X929936Y1084143D1*
X929902Y1084076D1*
X929869Y1083975D1*
X929835Y1083908D1*
X929802Y1083808D1*
X929768Y1083741D1*
X929735Y1083642D1*
X929701Y1083575D1*
X929601Y1083274D1*
X929567Y1083207D1*
X929133Y1081903D1*
X929100Y1081769D1*
X929033Y1081570D1*
X928999Y1081436D1*
X928966Y1081335D1*
X928932Y1081201D1*
X928899Y1081101D1*
X928865Y1080967D1*
X928832Y1080866D1*
X928765Y1080600D1*
X928731Y1080499D1*
X928564Y1079831D1*
X928531Y1079664D1*
X928465Y1079396D1*
X928430Y1079228D1*
X928398Y1079094D1*
X928364Y1078928D1*
X928331Y1078794D1*
X928197Y1078126D1*
X928164Y1077925D1*
X928097Y1077591D1*
X927929Y1076588D1*
X927795Y1075652D1*
X927696Y1074849D1*
X927661Y1074516D1*
X927629Y1074215D1*
X927594Y1073881D1*
X927562Y1073513D1*
X927528Y1073112D1*
X927495Y1072644D1*
X927461Y1072142D1*
X927428Y1071507D1*
X927395Y1070672D1*
X927361Y1070638D1*
Y1067295D1*
X927395Y1067262D1*
X927428Y1066427D1*
X927461Y1065858D1*
X927495Y1065357D1*
X927528Y1064921D1*
X927562Y1064554D1*
X927629Y1063886D1*
X927728Y1063084D1*
X927762Y1062849D1*
X927795Y1062581D1*
X927829Y1062382D1*
X927862Y1062147D1*
X927929Y1061747D1*
X927963Y1061579D1*
X927996Y1061378D1*
X928130Y1060710D1*
X928164Y1060576D1*
X928197Y1060409D1*
X928230Y1060276D1*
X928264Y1060109D1*
X928465Y1059306D1*
X928497Y1059206D1*
X928531Y1059072D1*
X928564Y1058971D1*
X928598Y1058839D1*
X928631Y1058738D1*
X928664Y1058604D1*
X928999Y1057601D1*
X929033Y1057534D1*
X929133Y1057234D1*
X929167Y1057167D1*
X929199Y1057067D1*
X929234Y1057000D1*
X929266Y1056899D1*
X929333Y1056766D1*
X929367Y1056665D1*
X929433Y1056531D1*
X929467Y1056432D1*
X929601Y1056164D1*
X929634Y1056063D1*
X929869Y1055596D1*
X929936Y1055495D1*
X930070Y1055228D1*
X930136Y1055127D1*
X930169Y1055060D1*
X930236Y1054961D1*
X930269Y1054894D1*
X930336Y1054794D1*
X930370Y1054727D1*
X930636Y1054325D1*
X930738Y1054192D1*
X930804Y1054092D1*
X930904Y1053958D1*
X931172Y1053623D1*
X931373Y1053390D1*
Y1053356D1*
X932042Y1052688D1*
X932108Y1052654D1*
X932308Y1052487D1*
X932475Y1052353D1*
X932743Y1052152D1*
X932944Y1052018D1*
X933112Y1051919D1*
X933412Y1051752D1*
X933445Y1051718D1*
X933579Y1051651D1*
X933680Y1051618D1*
X933980Y1051484D1*
X934047Y1051451D1*
X934549Y1051283D1*
X934950Y1051184D1*
X935117Y1051150D1*
X935318Y1051117D1*
X935585Y1051083D1*
X936154Y1051050D1*
X936243Y1051016D1*
X936332D1*
X936420Y1051050D1*
X936990Y1051083D1*
X937256Y1051117D1*
X937491Y1051150D1*
X937657Y1051184D1*
X938193Y1051318D1*
X938593Y1051451D1*
X938660Y1051484D1*
X938828Y1051551D1*
X938928Y1051584D1*
X939396Y1051818D1*
X939429Y1051852D1*
X939764Y1052052D1*
X939864Y1052119D1*
X940131Y1052320D1*
X940298Y1052454D1*
X940633Y1052755D1*
X940699Y1052787D1*
X940867Y1052955D1*
Y1052988D1*
X941168Y1053323D1*
X941335Y1053524D1*
X941535Y1053790D1*
X941669Y1053991D1*
X941769Y1054125D1*
X941803Y1054192D1*
X941937Y1054392D1*
X941970Y1054459D1*
X942037Y1054559D1*
X942136Y1054760D1*
X942203Y1054861D1*
X942404Y1055261D1*
X942438Y1055361D1*
X942538Y1055562D1*
X942572Y1055663D1*
X942639Y1055797D1*
X942672Y1055896D1*
X942706Y1055963D1*
X942739Y1056063D1*
X942773Y1056130D1*
X942873Y1056432D1*
X942906Y1056499D1*
X943007Y1056799D1*
X943039Y1056933D1*
X943106Y1057133D1*
X943140Y1057266D1*
X943173Y1057367D1*
X943207Y1057501D1*
X943240Y1057601D1*
X943341Y1058003D1*
X943374Y1058169D1*
X943408Y1058303D1*
X943441Y1058471D1*
X943475Y1058604D1*
X943508Y1058772D1*
X943542Y1058971D1*
X943575Y1059139D1*
X943642Y1059541D1*
X943675Y1059774D1*
X943709Y1059975D1*
X943776Y1060509D1*
X943808Y1060810D1*
X943843Y1061144D1*
X943875Y1061546D1*
X943909Y1062014D1*
X943942Y1062615D1*
X943975Y1063953D1*
X944009Y1063986D1*
Y1064454D1*
X943975Y1064487D1*
X943942Y1065757D1*
X943909Y1066360D1*
X943875Y1066827D1*
X943843Y1067228D1*
X943808Y1067596D1*
X943776Y1067930D1*
X943741Y1068198D1*
X943709Y1068499D1*
X943675Y1068766D1*
X943575Y1069469D1*
X943408Y1070471D1*
X943307Y1070972D1*
X943274Y1071173D1*
X943240Y1071306D1*
X943173Y1071640D1*
X943140Y1071774D1*
X943106Y1071942D1*
X943073Y1072075D1*
X943039Y1072243D1*
X942806Y1073178D1*
X942773Y1073278D1*
X942706Y1073546D1*
X942672Y1073647D1*
X942605Y1073913D1*
X942538Y1074114D1*
X942505Y1074248D1*
X942438Y1074449D1*
X942404Y1074583D1*
X941937Y1075987D1*
X941903Y1076054D1*
X941803Y1076354D1*
X941769Y1076421D1*
X941702Y1076621D1*
X941669Y1076688D1*
X941636Y1076789D1*
X941602Y1076856D1*
X941570Y1076955D1*
X941535Y1077022D1*
X941503Y1077123D1*
X941469Y1077190D1*
X941436Y1077290D1*
X941402Y1077357D1*
X941369Y1077457D1*
X941302Y1077591D1*
X941268Y1077692D1*
X941201Y1077825D1*
X941168Y1077925D1*
X941101Y1078059D1*
X941067Y1078159D1*
X940933Y1078427D1*
X940900Y1078526D1*
X940667Y1078995D1*
X940633Y1079094D1*
X940365Y1079630D1*
X940298Y1079731D1*
X940064Y1080198D1*
X939997Y1080298D1*
X939898Y1080499D1*
X939831Y1080600D1*
X939764Y1080734D1*
X939697Y1080833D1*
X939630Y1080967D1*
X939563Y1081067D1*
X939530Y1081134D1*
X939463Y1081235D1*
X939429Y1081302D1*
X939362Y1081402D1*
X939329Y1081469D1*
X939262Y1081570D1*
X939228Y1081635D1*
X939028Y1081936D1*
X938995Y1082003D1*
X938593Y1082605D1*
X938493Y1082739D1*
X938360Y1082940D1*
X938259Y1083073D1*
X938193Y1083173D1*
X937791Y1083707D1*
X937657Y1083875D1*
X937558Y1084009D1*
X937424Y1084176D1*
X937089Y1084577D1*
X936888Y1084811D1*
X936621Y1085113D1*
X936253Y1085513D1*
Y1085546D1*
X935385Y1086416D1*
X935318Y1086449D1*
X934883Y1086850D1*
X934615Y1087084D1*
X934581Y1087118D1*
Y1087151D1*
X934648Y1087251D1*
X934816Y1087451D1*
X935084Y1087753D1*
X935819Y1088488D1*
X936087Y1088722D1*
X936286Y1088890D1*
X936454Y1089022D1*
X936856Y1089324D1*
X937357Y1089659D1*
X937692Y1089858D1*
X938560Y1090294D1*
X938794Y1090394D1*
X939062Y1090493D1*
X939563Y1090661D1*
X939797Y1090728D1*
X940064Y1090794D1*
X940566Y1090895D1*
X941034Y1090962D1*
X941402Y1090995D1*
X942203Y1091029D1*
X942371Y1091062D1*
X942505Y1091096D1*
X942605Y1091129D1*
X942806Y1091230D1*
X942839Y1091262D1*
X942906Y1091297D1*
X943140Y1091530D1*
Y1091563D1*
X943207Y1091664D1*
X943274Y1091798D1*
X943307Y1091898D1*
X943341Y1092066D1*
X943374Y1092098D1*
Y1092399D1*
X943341Y1092433D1*
X943307Y1092600D1*
X943274Y1092699D1*
X943173Y1092900D1*
X943073Y1093034D1*
Y1093068D1*
X942839Y1093302D1*
X942773Y1093335D1*
X942672Y1093402D1*
X942639Y1093436D1*
X942572Y1093469D1*
X942270Y1093570D1*
X970920D1*
Y1040487D1*
X968781D1*
X941479Y1040520D1*
X914178D1*
X886877Y1040487D1*
Y1035974D1*
X914178Y1035940D1*
X941479D1*
X968781Y1035974D1*
Y1040487D1*
X970920D1*
Y1033735D1*
X968781D1*
X941479Y1033768D1*
X914178D1*
X886877Y1033735D1*
Y1029222D1*
X914178Y1029188D1*
X941479D1*
X968781Y1029222D1*
Y1033735D1*
X970920D1*
G37*
G36*
X901587Y1199167D2*
X901786Y1199133D1*
X901954Y1199100D1*
X902222Y1199033D1*
X902423Y1198966D1*
X902589Y1198899D1*
X902823Y1198799D1*
X902957Y1198732D1*
X903291Y1198531D1*
X903425Y1198432D1*
X903525Y1198365D1*
X903726Y1198197D1*
X904060Y1197862D1*
X904227Y1197663D1*
X904294Y1197562D1*
X904395Y1197428D1*
X904428Y1197361D1*
X904495Y1197261D1*
X904528Y1197194D1*
X904594Y1197093D1*
X904661Y1196961D1*
X904696Y1196860D1*
X904762Y1196727D1*
X904795Y1196626D1*
X904829Y1196559D1*
X904862Y1196459D1*
X904896Y1196325D1*
X904963Y1196125D1*
X904996Y1195991D1*
X905030Y1195891D1*
X905063Y1195757D1*
X905097Y1195656D1*
X905130Y1195522D1*
X905164Y1195423D1*
X905197Y1195289D1*
X905230Y1195189D1*
X905264Y1195055D1*
X905331Y1194854D1*
X905364Y1194720D1*
X905398Y1194621D1*
X905430Y1194487D1*
X905465Y1194386D1*
X905497Y1194252D1*
X905531Y1194152D1*
X905564Y1194018D1*
X905597Y1193919D1*
X905631Y1193785D1*
X905698Y1193584D1*
X905731Y1193450D1*
X905765Y1193350D1*
X905798Y1193217D1*
X905832Y1193117D1*
X905865Y1192983D1*
X905899Y1192882D1*
X905932Y1192748D1*
X905966Y1192648D1*
X905999Y1192514D1*
X906066Y1192314D1*
X906100Y1192180D1*
X906133Y1192080D1*
X906167Y1191946D1*
X906199Y1191845D1*
X906234Y1191713D1*
X906266Y1191612D1*
X906301Y1191478D1*
X906333Y1191378D1*
X906366Y1191244D1*
X906400Y1191144D1*
X906433Y1191010D1*
X906500Y1190810D1*
X906534Y1190676D1*
X906567Y1190576D1*
X906601Y1190442D1*
X906634Y1190341D1*
X906668Y1190207D1*
X906701Y1190108D1*
X906735Y1189974D1*
X906768Y1189874D1*
X906802Y1189740D1*
X906869Y1189539D1*
X906902Y1189406D1*
X906936Y1189306D1*
X906969Y1189172D1*
X907003Y1189071D1*
X907035Y1188937D1*
X907070Y1188837D1*
X907102Y1188703D1*
X907135Y1188604D1*
X907169Y1188470D1*
X907202Y1188369D1*
X907269Y1188102D1*
X907303Y1187934D1*
X907336Y1187735D1*
Y1186731D1*
X907303Y1186530D1*
X907269Y1186364D1*
X907202Y1186097D1*
X907135Y1185896D1*
X907102Y1185829D1*
X907070Y1185728D1*
X907035Y1185661D1*
X907003Y1185562D1*
X906902Y1185361D1*
X906835Y1185261D1*
X906768Y1185127D1*
X906701Y1185026D1*
X906601Y1184892D1*
X906534Y1184793D1*
X906366Y1184592D1*
X906033Y1184259D1*
X905832Y1184091D1*
X905698Y1183991D1*
X905497Y1183857D1*
X905264Y1183723D1*
X905063Y1183622D1*
X904829Y1183522D1*
X904528Y1183423D1*
X904261Y1183356D1*
X904093Y1183322D1*
X903892Y1183289D1*
X902890D1*
X902689Y1183322D1*
X902522Y1183356D1*
X902255Y1183423D1*
X902054Y1183490D1*
X901720Y1183622D1*
X901520Y1183723D1*
X901286Y1183857D1*
X901185Y1183924D1*
X901051Y1184024D1*
X900951Y1184091D1*
X900751Y1184259D1*
X900416Y1184592D1*
X900249Y1184793D1*
X900148Y1184927D1*
X900081Y1185026D1*
X900049Y1185093D1*
X899982Y1185194D1*
X899948Y1185261D1*
X899881Y1185361D1*
X899815Y1185495D1*
X899781Y1185594D1*
X899714Y1185728D1*
X899681Y1185829D1*
X899647Y1185896D1*
X899614Y1185996D1*
X899580Y1186130D1*
X899513Y1186331D1*
X899480Y1186463D1*
X899446Y1186564D1*
X899413Y1186698D1*
X899381Y1186798D1*
X899346Y1186932D1*
X899314Y1187033D1*
X899280Y1187165D1*
X899213Y1187366D1*
X899180Y1187500D1*
X899146Y1187601D1*
X899113Y1187735D1*
X899079Y1187835D1*
X899046Y1187969D1*
X899012Y1188068D1*
X898979Y1188202D1*
X898945Y1188302D1*
X898912Y1188436D1*
X898878Y1188537D1*
X898845Y1188671D1*
X898778Y1188871D1*
X898744Y1189004D1*
X898711Y1189105D1*
X898677Y1189239D1*
X898644Y1189339D1*
X898612Y1189472D1*
X898577Y1189573D1*
X898545Y1189706D1*
X898510Y1189807D1*
X898478Y1189941D1*
X898411Y1190140D1*
X898377Y1190274D1*
X898344Y1190375D1*
X898310Y1190509D1*
X898277Y1190609D1*
X898243Y1190743D1*
X898210Y1190843D1*
X898176Y1190976D1*
X898143Y1191077D1*
X898109Y1191211D1*
X898042Y1191412D1*
X898009Y1191545D1*
X897975Y1191646D1*
X897942Y1191778D1*
X897908Y1191879D1*
X897875Y1192013D1*
X897843Y1192113D1*
X897808Y1192247D1*
X897776Y1192348D1*
X897741Y1192480D1*
X897709Y1192581D1*
X897675Y1192715D1*
X897608Y1192916D1*
X897575Y1193050D1*
X897541Y1193150D1*
X897508Y1193283D1*
X897475Y1193383D1*
X897441Y1193517D1*
X897408Y1193617D1*
X897374Y1193751D1*
X897341Y1193852D1*
X897307Y1193986D1*
X897274Y1194085D1*
X897207Y1194353D1*
X897173Y1194520D1*
X897140Y1194720D1*
Y1195723D1*
X897173Y1195924D1*
X897207Y1196091D1*
X897274Y1196358D1*
X897341Y1196559D1*
X897374Y1196626D1*
X897408Y1196727D1*
X897441Y1196793D1*
X897475Y1196894D1*
X897575Y1197093D1*
X897642Y1197194D1*
X897709Y1197328D1*
X897776Y1197428D1*
X897875Y1197562D1*
X897942Y1197663D1*
X898109Y1197862D1*
X898444Y1198197D1*
X898644Y1198365D1*
X898778Y1198465D1*
X898979Y1198598D1*
X899213Y1198732D1*
X899413Y1198832D1*
X899748Y1198966D1*
X899948Y1199033D1*
X900215Y1199100D1*
X900383Y1199133D1*
X900584Y1199167D1*
X901587D1*
G37*
G36*
X942773Y1192514D2*
X942972Y1192480D1*
X943140Y1192448D1*
X943408Y1192381D1*
X943709Y1192281D1*
X943942Y1192180D1*
X944210Y1192046D1*
X944377Y1191946D1*
X944577Y1191812D1*
X944711Y1191713D1*
X944912Y1191545D1*
X945247Y1191211D1*
X945413Y1191010D1*
X945513Y1190877D1*
X945647Y1190676D1*
X945714Y1190542D1*
X945781Y1190442D1*
X945881Y1190241D1*
X945915Y1190140D1*
X945982Y1190007D1*
X946081Y1189706D1*
X946148Y1189440D1*
X946182Y1189272D1*
X946215Y1189071D1*
Y1179745D1*
X946182Y1179545D1*
X946148Y1179377D1*
X946081Y1179110D1*
X945982Y1178810D1*
X945915Y1178676D1*
X945881Y1178575D1*
X945781Y1178374D1*
X945714Y1178274D1*
X945647Y1178140D1*
X945513Y1177940D1*
X945413Y1177806D1*
X945247Y1177605D1*
X944912Y1177272D1*
X944711Y1177105D1*
X944577Y1177004D1*
X944377Y1176870D1*
X944210Y1176770D1*
X943942Y1176636D1*
X943709Y1176535D1*
X943408Y1176436D1*
X943140Y1176369D1*
X942972Y1176336D1*
X942773Y1176302D1*
X941769D1*
X941570Y1176336D1*
X941402Y1176369D1*
X941134Y1176436D1*
X940833Y1176535D1*
X940600Y1176636D1*
X940332Y1176770D1*
X940164Y1176870D1*
X939965Y1177004D1*
X939831Y1177105D1*
X939630Y1177272D1*
X939295Y1177605D1*
X939129Y1177806D1*
X939028Y1177940D1*
X938895Y1178140D1*
X938828Y1178274D1*
X938761Y1178374D1*
X938660Y1178575D1*
X938627Y1178676D1*
X938560Y1178810D1*
X938459Y1179110D1*
X938392Y1179377D1*
X938360Y1179545D1*
X938325Y1179745D1*
Y1189071D1*
X938360Y1189272D1*
X938392Y1189440D1*
X938459Y1189706D1*
X938560Y1190007D1*
X938627Y1190140D1*
X938660Y1190241D1*
X938761Y1190442D1*
X938828Y1190542D1*
X938895Y1190676D1*
X939028Y1190877D1*
X939129Y1191010D1*
X939295Y1191211D1*
X939630Y1191545D1*
X939831Y1191713D1*
X939965Y1191812D1*
X940164Y1191946D1*
X940332Y1192046D1*
X940600Y1192180D1*
X940833Y1192281D1*
X941134Y1192381D1*
X941402Y1192448D1*
X941570Y1192480D1*
X941769Y1192514D1*
X942773D1*
G37*
G36*
X938828Y1143075D2*
X938995Y1143042D1*
X939295Y1142941D1*
X939563Y1142808D1*
X939664Y1142741D1*
X939797Y1142640D1*
X940098Y1142340D1*
X940198Y1142206D1*
X940265Y1142106D1*
X940399Y1141839D1*
X940499Y1141538D1*
X940533Y1141370D1*
Y1134251D1*
X940499Y1134083D1*
X940399Y1133782D1*
X940265Y1133514D1*
X940198Y1133415D1*
X940098Y1133281D1*
X939797Y1132980D1*
X939664Y1132881D1*
X939563Y1132814D1*
X939295Y1132680D1*
X938995Y1132579D1*
X938828Y1132546D1*
X938126D1*
X937958Y1132579D1*
X937657Y1132680D1*
X937390Y1132814D1*
X937290Y1132881D1*
X937156Y1132980D1*
X936856Y1133281D1*
X936755Y1133415D1*
X936688Y1133514D1*
X936554Y1133782D1*
X936454Y1134083D1*
X936420Y1134251D1*
Y1141370D1*
X936454Y1141538D1*
X936554Y1141839D1*
X936688Y1142106D1*
X936755Y1142206D1*
X936856Y1142340D1*
X937156Y1142640D1*
X937290Y1142741D1*
X937390Y1142808D1*
X937657Y1142941D1*
X937958Y1143042D1*
X938126Y1143075D1*
X938828D1*
G37*
G36*
X926091D2*
X926259Y1143042D1*
X926559Y1142941D1*
X926825Y1142808D1*
X926927Y1142741D1*
X927060Y1142640D1*
X927361Y1142340D1*
X927461Y1142206D1*
X927528Y1142106D1*
X927661Y1141839D1*
X927762Y1141538D1*
X927795Y1141370D1*
Y1134251D1*
X927762Y1134083D1*
X927661Y1133782D1*
X927528Y1133514D1*
X927461Y1133415D1*
X927361Y1133281D1*
X927060Y1132980D1*
X926927Y1132881D1*
X926825Y1132814D1*
X926559Y1132680D1*
X926259Y1132579D1*
X926091Y1132546D1*
X925388D1*
X925222Y1132579D1*
X924920Y1132680D1*
X924654Y1132814D1*
X924552Y1132881D1*
X924419Y1132980D1*
X924118Y1133281D1*
X924018Y1133415D1*
X923951Y1133514D1*
X923818Y1133782D1*
X923717Y1134083D1*
X923684Y1134251D1*
Y1141370D1*
X923717Y1141538D1*
X923818Y1141839D1*
X923951Y1142106D1*
X924018Y1142206D1*
X924118Y1142340D1*
X924419Y1142640D1*
X924552Y1142741D1*
X924654Y1142808D1*
X924920Y1142941D1*
X925222Y1143042D1*
X925388Y1143075D1*
X926091D1*
G37*
G36*
X933278Y1084845D2*
X933479Y1084644D1*
X933546Y1084610D1*
X934315Y1083841D1*
X934648Y1083474D1*
X934883Y1083207D1*
X935084Y1082972D1*
X935484Y1082471D1*
X935986Y1081803D1*
X936119Y1081602D1*
X936220Y1081469D1*
X936621Y1080866D1*
X936655Y1080801D1*
X936789Y1080600D1*
X936822Y1080533D1*
X936955Y1080332D1*
X936990Y1080265D1*
X937055Y1080164D1*
X937122Y1080031D1*
X937189Y1079930D1*
X937256Y1079798D1*
X937323Y1079697D1*
X937390Y1079563D1*
X937457Y1079463D1*
X937625Y1079129D1*
X937692Y1079029D1*
X938159Y1078092D1*
X938193Y1077992D1*
X938360Y1077657D1*
X938392Y1077558D1*
X938526Y1077290D1*
X938560Y1077190D1*
X938627Y1077056D1*
X938660Y1076955D1*
X938694Y1076888D1*
X938727Y1076789D1*
X938794Y1076655D1*
X938828Y1076555D1*
X938861Y1076488D1*
X938895Y1076387D1*
X938928Y1076320D1*
X938962Y1076220D1*
X938995Y1076154D1*
X939062Y1075953D1*
X939094Y1075886D1*
X939161Y1075685D1*
X939196Y1075618D1*
X939262Y1075419D1*
X939295Y1075352D1*
X939731Y1074047D1*
X939764Y1073913D1*
X939831Y1073714D1*
X939864Y1073580D1*
X939930Y1073379D1*
X939965Y1073245D1*
X939997Y1073144D1*
X940064Y1072878D1*
X940098Y1072777D1*
X940365Y1071707D1*
X940399Y1071541D1*
X940432Y1071407D1*
X940466Y1071240D1*
X940499Y1071106D1*
X940699Y1070104D1*
X940734Y1069903D1*
X940766Y1069735D1*
X940867Y1069134D1*
X941000Y1068198D1*
X941034Y1067930D1*
X941101Y1067329D1*
X941134Y1066995D1*
X941168Y1066593D1*
X941201Y1066125D1*
X941235Y1065524D1*
Y1062916D1*
X941201Y1062348D1*
X941168Y1061913D1*
X941134Y1061546D1*
X941101Y1061245D1*
X941034Y1060710D1*
X940967Y1060243D1*
X940933Y1060075D1*
X940867Y1059673D1*
X940801Y1059340D1*
X940766Y1059206D1*
X940734Y1059038D1*
X940699Y1058904D1*
X940667Y1058738D1*
X940600Y1058471D1*
X940566Y1058370D1*
X940533Y1058236D1*
X940499Y1058136D1*
X940466Y1058003D1*
X940399Y1057802D1*
X940365Y1057668D1*
X940265Y1057367D1*
X940231Y1057301D1*
X940164Y1057100D1*
X940131Y1057033D1*
X940098Y1056933D1*
X940064Y1056866D1*
X940031Y1056766D1*
X939997Y1056699D1*
X939965Y1056598D1*
X939530Y1055730D1*
X939463Y1055629D1*
X939429Y1055562D1*
X939161Y1055161D1*
X938962Y1054894D1*
X938794Y1054693D1*
X938427Y1054325D1*
X938226Y1054159D1*
X938092Y1054058D1*
X937891Y1053924D1*
X937424Y1053690D1*
X937256Y1053623D1*
X937156Y1053589D1*
X936888Y1053524D1*
X936722Y1053490D1*
X936420Y1053457D1*
X935986D1*
X935719Y1053490D1*
X935318Y1053589D1*
X934983Y1053723D1*
X934849Y1053790D1*
X934615Y1053924D1*
X934415Y1054058D1*
X934281Y1054159D1*
X934080Y1054325D1*
X933579Y1054827D1*
X933412Y1055028D1*
X933278Y1055194D1*
X933178Y1055328D1*
X933112Y1055428D1*
X933010Y1055562D1*
X932978Y1055629D1*
X932777Y1055930D1*
X932710Y1056063D1*
X932643Y1056164D1*
X932576Y1056298D1*
X932509Y1056398D1*
X932209Y1057000D1*
X932175Y1057100D1*
X932075Y1057301D1*
X932042Y1057400D1*
X931975Y1057534D1*
X931941Y1057635D1*
X931908Y1057702D1*
X931874Y1057802D1*
X931841Y1057869D1*
X931807Y1057969D1*
X931774Y1058035D1*
X931673Y1058337D1*
X931640Y1058404D1*
X931440Y1059005D1*
X931406Y1059139D1*
X931339Y1059340D1*
X931306Y1059474D1*
X931273Y1059573D1*
X931239Y1059707D1*
X931206Y1059807D1*
X930971Y1060743D1*
X930938Y1060911D1*
X930904Y1061045D1*
X930703Y1062047D1*
X930570Y1062849D1*
X930504Y1063318D1*
X930403Y1064119D1*
X930336Y1064722D1*
X930303Y1065089D1*
X930269Y1065491D1*
X930236Y1065925D1*
X930202Y1066493D1*
X930169Y1067161D1*
X930136Y1068566D1*
Y1069402D1*
X930169Y1070906D1*
X930202Y1071675D1*
X930236Y1072276D1*
X930269Y1072744D1*
X930303Y1073178D1*
X930336Y1073580D1*
X930370Y1073948D1*
X930403Y1074248D1*
X930437Y1074583D1*
X930470Y1074849D1*
X930504Y1075151D1*
X930537Y1075385D1*
X930570Y1075652D1*
X930636Y1076121D1*
X930671Y1076320D1*
X930703Y1076555D1*
X930804Y1077156D1*
X930837Y1077323D1*
X930871Y1077524D1*
X931072Y1078526D1*
X931105Y1078660D1*
X931139Y1078828D1*
X931172Y1078962D1*
X931206Y1079129D1*
X931440Y1080064D1*
X931472Y1080164D1*
X931539Y1080432D1*
X931573Y1080533D1*
X931606Y1080667D1*
X931673Y1080866D1*
X931707Y1081000D1*
X931841Y1081402D1*
X931874Y1081535D1*
X931975Y1081836D1*
X932008Y1081903D1*
X932175Y1082404D1*
X932209Y1082471D1*
X932276Y1082672D1*
X932308Y1082739D1*
X932343Y1082839D1*
X932375Y1082906D1*
X932409Y1083007D1*
X932442Y1083073D1*
X932475Y1083173D1*
X932542Y1083307D1*
X932576Y1083407D1*
X932609Y1083474D1*
X932643Y1083575D1*
X932743Y1083774D1*
X932777Y1083875D1*
X933244Y1084811D1*
X933278Y1084845D1*
G37*
X827406Y1166974D2*
D32*
X818784D1*
X815932Y1167924D1*
X814959Y1168897D1*
X814009Y1170798D1*
Y1173672D1*
X814959Y1175574D1*
X815932Y1176546D1*
X818784Y1177497D1*
X827406D1*
Y1157401D1*
X800485Y1170798D2*
X802386Y1169848D1*
X804309Y1167924D1*
X805260Y1165050D1*
Y1163149D1*
X804309Y1160275D1*
X802386Y1158374D1*
X800485Y1157401D1*
X797611D1*
X795687Y1158374D1*
X793786Y1160275D1*
X792813Y1163149D1*
Y1165050D1*
X793786Y1167924D1*
X795687Y1169848D1*
X797611Y1170798D1*
X800485D1*
X779289D2*
X781190Y1169848D1*
X783114Y1167924D1*
X784064Y1165050D1*
Y1163149D1*
X783114Y1160275D1*
X781190Y1158374D1*
X779289Y1157401D1*
X776415D1*
X774492Y1158374D1*
X772590Y1160275D1*
X771618Y1163149D1*
Y1165050D1*
X772590Y1167924D1*
X774492Y1169848D1*
X776415Y1170798D1*
X779289D1*
X762869D2*
X759044Y1157401D1*
X755219Y1170798D1*
X751395Y1157401D1*
X747570Y1170798D1*
X731172Y1177497D2*
X733073D1*
X734997Y1176546D1*
X735947Y1173672D1*
Y1157401D1*
X738821Y1170798D2*
X732123D1*
X700409Y1177497D2*
Y1157401D1*
X688935D1*
X668713Y1170798D2*
Y1157401D1*
Y1167924D2*
X670614Y1169848D1*
X672537Y1170798D1*
X675389D1*
X677313Y1169848D1*
X679214Y1167924D1*
X680187Y1165050D1*
Y1163149D1*
X679214Y1160275D1*
X677313Y1158374D1*
X675389Y1157401D1*
X672537D1*
X670614Y1158374D1*
X668713Y1160275D1*
X659964Y1177497D2*
Y1157401D1*
Y1167924D2*
X658040Y1169848D1*
X656139Y1170798D1*
X653265D1*
X651364Y1169848D1*
X649440Y1167924D1*
X648490Y1165050D1*
Y1163149D1*
X649440Y1160275D1*
X651364Y1158374D1*
X653265Y1157401D1*
X656139D1*
X658040Y1158374D1*
X659964Y1160275D1*
X629218Y1167924D2*
X630168Y1169848D1*
X633042Y1170798D1*
X635916D1*
X638790Y1169848D1*
X639741Y1167924D1*
X638790Y1166023D1*
X636867Y1165050D1*
X632092Y1164100D1*
X630168Y1163149D1*
X629218Y1161226D1*
Y1160275D1*
X630168Y1158374D1*
X633042Y1157401D1*
X635916D1*
X638790Y1158374D1*
X639741Y1160275D1*
X812085Y1118158D2*
X819757Y1138254D1*
X827406Y1118158D1*
X824532Y1124857D2*
X814959D1*
X789939Y1135380D2*
X791841Y1137304D1*
X794715Y1138254D1*
X798539D1*
X801413Y1137304D1*
X803337Y1135380D1*
Y1133479D1*
X802364Y1131556D1*
X801413Y1130605D1*
X799512Y1129654D1*
X793764Y1127731D1*
X791841Y1126780D1*
X790890Y1125808D1*
X789939Y1123906D1*
Y1121032D1*
X791841Y1119131D1*
X794715Y1118158D1*
X798539D1*
X801413Y1119131D1*
X803337Y1121032D1*
X781190Y1128682D2*
X772590D1*
X769716Y1129654D1*
X768744Y1130605D1*
X767793Y1132506D1*
Y1134430D1*
X768744Y1136331D1*
X769716Y1137304D1*
X772590Y1138254D1*
X781190D1*
Y1118158D1*
X774492Y1128682D2*
X767793Y1118158D1*
X754269Y1131556D2*
X756170Y1130605D1*
X758093Y1128682D1*
X759044Y1125808D1*
Y1123906D1*
X758093Y1121032D1*
X756170Y1119131D1*
X754269Y1118158D1*
X751395D1*
X749471Y1119131D1*
X747570Y1121032D1*
X746597Y1123906D1*
Y1125808D1*
X747570Y1128682D1*
X749471Y1130605D1*
X751395Y1131556D1*
X754269D1*
X726352Y1128682D2*
X728276Y1130605D1*
X730199Y1131556D1*
X733051D1*
X734974Y1130605D1*
X736876Y1128682D1*
X737848Y1125808D1*
Y1123906D1*
X736876Y1121032D1*
X734974Y1119131D1*
X733051Y1118158D1*
X730199D1*
X728276Y1119131D1*
X726352Y1121032D1*
X717604Y1138254D2*
Y1118158D1*
X708031Y1131556D2*
X717604Y1121983D1*
X713779Y1125808D2*
X707080Y1118158D1*
X676318Y1134407D2*
X674394Y1135380D1*
X671520Y1138232D1*
Y1118158D1*
X657996Y1138232D2*
X660848Y1137282D1*
X661821Y1135380D1*
Y1133457D1*
X660848Y1131556D1*
X658947Y1130583D1*
X655122Y1129632D1*
X652248Y1128682D1*
X650347Y1126758D1*
X649396Y1124857D1*
Y1121983D1*
X650347Y1120082D1*
X651297Y1119109D1*
X654171Y1118158D1*
X657996D1*
X660848Y1119109D1*
X661821Y1120082D1*
X662771Y1121983D1*
Y1124857D1*
X661821Y1126758D1*
X659897Y1128682D1*
X657045Y1129632D1*
X653221Y1130583D1*
X651297Y1131556D1*
X650347Y1133457D1*
Y1135380D1*
X651297Y1137282D1*
X654171Y1138232D1*
X657996D1*
X640647Y1128195D2*
X629593D1*
X620844Y1127731D2*
X612222D1*
X609370Y1128682D1*
X608398Y1129654D1*
X607447Y1131556D1*
Y1134430D1*
X608398Y1136331D1*
X609370Y1137304D1*
X612222Y1138254D1*
X620844D1*
Y1118158D1*
X598698Y1138254D2*
Y1118158D1*
X576552Y1138254D2*
Y1118158D1*
X589949Y1138254D1*
Y1118158D1*
X827406Y1099011D2*
Y1078915D1*
X818657Y1092313D2*
Y1078915D1*
Y1088488D2*
X815783Y1091362D1*
X813860Y1092313D1*
X811008D1*
X809085Y1091362D1*
X808134Y1088488D1*
Y1078915D1*
X791736Y1099011D2*
X793637D1*
X795560Y1098061D1*
X796511Y1095187D1*
Y1078915D1*
X799385Y1092313D2*
X792686D1*
X782987Y1099011D2*
X782036Y1098061D1*
X781063Y1099011D1*
X782036Y1099984D1*
X782987Y1099011D1*
X782036Y1092313D2*
Y1078915D1*
X772315Y1092313D2*
Y1078915D1*
Y1088488D2*
X769441Y1091362D1*
X767517Y1092313D1*
X764665D1*
X762742Y1091362D1*
X761791Y1088488D1*
Y1078915D1*
X753042Y1086565D2*
X741568D1*
Y1088488D1*
X742519Y1090411D1*
X743470Y1091362D1*
X745393Y1092313D1*
X748267D1*
X750168Y1091362D1*
X752092Y1089439D1*
X753042Y1086565D1*
Y1084663D1*
X752092Y1081789D1*
X750168Y1079888D1*
X748267Y1078915D1*
X745393D1*
X743470Y1079888D1*
X741568Y1081789D1*
X728044Y1092313D2*
X729945Y1091362D1*
X731869Y1089439D1*
X732819Y1086565D1*
Y1084663D1*
X731869Y1081789D1*
X729945Y1079888D1*
X728044Y1078915D1*
X725170D1*
X723247Y1079888D1*
X721346Y1081789D1*
X720373Y1084663D1*
Y1086565D1*
X721346Y1089439D1*
X723247Y1091362D1*
X725170Y1092313D1*
X728044D1*
X711624D2*
Y1078915D1*
Y1088488D2*
X708750Y1091362D1*
X706826Y1092313D1*
X703975D1*
X702051Y1091362D1*
X701101Y1088488D1*
Y1078915D1*
X663639Y1099011D2*
Y1078915D1*
X670338Y1099011D2*
X656941D1*
X648192Y1088488D2*
X639570D1*
X636718Y1089439D1*
X635745Y1090411D1*
X634794Y1092313D1*
Y1095187D1*
X635745Y1097088D1*
X636718Y1098061D1*
X639570Y1099011D1*
X648192D1*
Y1078915D1*
X610747D2*
Y1099011D1*
X618396Y1078915D1*
X626046Y1099011D1*
Y1078915D1*
X579012Y1094214D2*
Y1095165D1*
X578061Y1097088D1*
X577110Y1098039D1*
X575187Y1098989D1*
X571362D1*
X569461Y1098039D1*
X568510Y1097088D1*
X567538Y1095165D1*
Y1093263D1*
X568510Y1091340D1*
X570412Y1088488D1*
X579984Y1078915D1*
X566587D1*
X556888Y1080839D2*
X557838Y1079866D1*
X556888Y1078915D1*
X555915Y1079866D1*
X556888Y1080839D1*
X541418Y1098989D2*
X544292Y1098039D1*
X546215Y1095165D1*
X547166Y1090389D1*
Y1087515D1*
X546215Y1082740D1*
X544292Y1079866D1*
X541418Y1078915D1*
X539517D1*
X536643Y1079866D1*
X534741Y1082740D1*
X533769Y1087515D1*
Y1090389D1*
X534741Y1095165D1*
X536643Y1098039D1*
X539517Y1098989D1*
X541418D1*
X534741Y1095165D2*
X546215Y1082740D1*
X827406Y1059769D2*
Y1039673D1*
X818784D1*
X815910Y1040645D1*
X814959Y1041596D1*
X814009Y1043497D1*
Y1046371D1*
X814959Y1048295D1*
X815910Y1049245D1*
X818784Y1050196D1*
X815910Y1051169D1*
X814959Y1052119D1*
X814009Y1054021D1*
Y1055944D1*
X814959Y1057845D1*
X815910Y1058818D1*
X818784Y1059769D1*
X827406D1*
Y1050196D2*
X818784D1*
X800485Y1053070D2*
X802386Y1052119D1*
X804309Y1050196D1*
X805260Y1047322D1*
Y1045421D1*
X804309Y1042547D1*
X802386Y1040645D1*
X800485Y1039673D1*
X797611D1*
X795687Y1040645D1*
X793786Y1042547D1*
X792813Y1045421D1*
Y1047322D1*
X793786Y1050196D1*
X795687Y1052119D1*
X797611Y1053070D1*
X800485D1*
X772590D2*
Y1039673D1*
Y1050196D2*
X774492Y1052119D1*
X776415Y1053070D1*
X779267D1*
X781190Y1052119D1*
X783092Y1050196D1*
X784064Y1047322D1*
Y1045421D1*
X783092Y1042547D1*
X781190Y1040645D1*
X779267Y1039673D1*
X776415D1*
X774492Y1040645D1*
X772590Y1042547D1*
X763841Y1053070D2*
Y1039673D1*
Y1047322D2*
X762869Y1050196D1*
X760967Y1052119D1*
X759044Y1053070D1*
X756170D1*
X735947Y1059769D2*
Y1039673D1*
Y1050196D2*
X737848Y1052119D1*
X739772Y1053070D1*
X742646D1*
X744547Y1052119D1*
X746471Y1050196D1*
X747421Y1047322D1*
Y1045421D1*
X746471Y1042547D1*
X744547Y1040645D1*
X742646Y1039673D1*
X739772D1*
X737848Y1040645D1*
X735947Y1042547D1*
X705185Y1050196D2*
X696585D1*
X693711Y1051169D1*
X692738Y1052119D1*
X691787Y1054021D1*
Y1055944D1*
X692738Y1057845D1*
X693711Y1058818D1*
X696585Y1059769D1*
X705185D1*
Y1039673D1*
X698486Y1050196D2*
X691787Y1039673D1*
X683038Y1047322D2*
X671565D1*
Y1049245D1*
X672515Y1051169D1*
X673466Y1052119D1*
X675389Y1053070D1*
X678263D1*
X680164Y1052119D1*
X682088Y1050196D1*
X683038Y1047322D1*
Y1045421D1*
X682088Y1042547D1*
X680164Y1040645D1*
X678263Y1039673D1*
X675389D1*
X673466Y1040645D1*
X671565Y1042547D1*
X662816Y1053070D2*
X657068Y1039673D1*
X651342Y1053070D1*
X620579Y1055922D2*
X618656Y1056895D1*
X615782Y1059746D1*
Y1039673D1*
X606082Y1041596D2*
X607033Y1040623D1*
X606082Y1039673D1*
X605109Y1040623D1*
X606082Y1041596D1*
X590613Y1059746D2*
X593487Y1058796D1*
X595410Y1055922D1*
X596361Y1051147D1*
Y1048272D1*
X595410Y1043497D1*
X593487Y1040623D1*
X590613Y1039673D1*
X588711D1*
X585837Y1040623D1*
X583936Y1043497D1*
X582963Y1048272D1*
Y1051147D1*
X583936Y1055922D1*
X585837Y1058796D1*
X588711Y1059746D1*
X590613D1*
X583936Y1055922D2*
X595410Y1043497D1*
M02*
