G04 DipTrace 4.1.3.1*
G04 TopPaste.gbr*
%MOIN*%
G04 #@! TF.FileFunction,Paste,Top*
G04 #@! TF.Part,Single*
%AMOUTLINE2*
4,1,28,
-0.019094,-0.009517,
-0.019094,0.009517,
-0.018823,0.011577,
-0.018078,0.013377,
-0.016892,0.014923,
-0.015346,0.016109,
-0.013546,0.016855,
-0.011485,0.017126,
0.011485,0.017126,
0.013546,0.016855,
0.015346,0.016109,
0.016892,0.014923,
0.018078,0.013377,
0.018823,0.011577,
0.019094,0.009517,
0.019094,-0.009517,
0.018823,-0.011577,
0.018078,-0.013377,
0.016892,-0.014923,
0.015346,-0.016109,
0.013546,-0.016855,
0.011485,-0.017126,
-0.011485,-0.017126,
-0.013546,-0.016855,
-0.015346,-0.016109,
-0.016892,-0.014923,
-0.018078,-0.013377,
-0.018823,-0.011577,
-0.019094,-0.009517,
0*%
%AMOUTLINE5*
4,1,28,
0.019094,0.009517,
0.019094,-0.009517,
0.018823,-0.011577,
0.018078,-0.013377,
0.016892,-0.014923,
0.015346,-0.016109,
0.013546,-0.016855,
0.011485,-0.017126,
-0.011485,-0.017126,
-0.013546,-0.016855,
-0.015346,-0.016109,
-0.016892,-0.014923,
-0.018078,-0.013377,
-0.018823,-0.011577,
-0.019094,-0.009517,
-0.019094,0.009517,
-0.018823,0.011577,
-0.018078,0.013377,
-0.016892,0.014923,
-0.015346,0.016109,
-0.013546,0.016855,
-0.011485,0.017126,
0.011485,0.017126,
0.013546,0.016855,
0.015346,0.016109,
0.016892,0.014923,
0.018078,0.013377,
0.018823,0.011577,
0.019094,0.009517,
0*%
%AMOUTLINE8*
4,1,28,
-0.008336,0.019094,
0.008336,0.019094,
0.010091,0.018863,
0.011606,0.018236,
0.012907,0.017237,
0.013905,0.015936,
0.014533,0.014421,
0.014764,0.012666,
0.014764,-0.012666,
0.014533,-0.014421,
0.013905,-0.015936,
0.012907,-0.017237,
0.011606,-0.018236,
0.010091,-0.018863,
0.008336,-0.019094,
-0.008336,-0.019094,
-0.010091,-0.018863,
-0.011606,-0.018236,
-0.012907,-0.017237,
-0.013905,-0.015936,
-0.014533,-0.014421,
-0.014764,-0.012666,
-0.014764,0.012666,
-0.014533,0.014421,
-0.013905,0.015936,
-0.012907,0.017237,
-0.011606,0.018236,
-0.010091,0.018863,
-0.008336,0.019094,
0*%
%AMOUTLINE11*
4,1,28,
0.008336,-0.019094,
-0.008336,-0.019094,
-0.010091,-0.018863,
-0.011606,-0.018236,
-0.012907,-0.017237,
-0.013905,-0.015936,
-0.014533,-0.014421,
-0.014764,-0.012666,
-0.014764,0.012666,
-0.014533,0.014421,
-0.013905,0.015936,
-0.012907,0.017237,
-0.011606,0.018236,
-0.010091,0.018863,
-0.008336,0.019094,
0.008336,0.019094,
0.010091,0.018863,
0.011606,0.018236,
0.012907,0.017237,
0.013905,0.015936,
0.014533,0.014421,
0.014764,0.012666,
0.014764,-0.012666,
0.014533,-0.014421,
0.013905,-0.015936,
0.012907,-0.017237,
0.011606,-0.018236,
0.010091,-0.018863,
0.008336,-0.019094,
0*%
%ADD30R,0.00748X0.049213*%
%ADD35OUTLINE2*%
%ADD38OUTLINE5*%
%ADD41OUTLINE8*%
%ADD44OUTLINE11*%
%FSLAX26Y26*%
G04*
G70*
G90*
G75*
G01*
G04 TopPaste*
%LPD*%
D30*
X479685Y773425D3*
X505276D3*
X530866D3*
X556457D3*
X582047D3*
X607638D3*
X633228D3*
X658819D3*
X684409D3*
X710000D3*
X735591D3*
X761181D3*
X786772D3*
X812362D3*
Y1003740D3*
X786772D3*
X761181D3*
X735591D3*
X710000D3*
X684409D3*
X658819D3*
X633228D3*
X607638D3*
X582047D3*
X556457D3*
X530866D3*
X505276D3*
X479685D3*
D35*
X483966Y1122756D3*
D38*
Y1185748D3*
D35*
X621467Y1122598D3*
D38*
Y1185591D3*
D35*
X752717Y1122165D3*
D38*
Y1185157D3*
D35*
X896467Y1122165D3*
D38*
Y1185157D3*
D35*
X1036850Y1122402D3*
D38*
Y1185394D3*
D41*
X966184Y859306D3*
D44*
X1032719D3*
D41*
X966184Y754898D3*
D44*
X1032719D3*
M02*
