G04 DipTrace 4.1.3.1*
G04 TopSilk.gbr*
%MOIN*%
G04 #@! TF.FileFunction,Legend,Top*
G04 #@! TF.Part,Single*
%ADD10C,0.004724*%
%ADD14C,0.005906*%
%ADD31C,0.003088*%
%FSLAX26Y26*%
G04*
G70*
G90*
G75*
G01*
G04 TopSilk*
%LPD*%
X838917Y952701D2*
D10*
X453130D1*
X838917Y824465D2*
X453130D1*
Y952701D2*
Y824465D1*
X838917Y952701D2*
Y909315D1*
Y867850D2*
Y824465D1*
Y909315D2*
G03X838917Y867850I1086J-20732D01*
G01*
X465068Y1150709D2*
D14*
Y1157795D1*
X502864Y1150709D2*
Y1157795D1*
X602570Y1150551D2*
Y1157638D1*
X640365Y1150551D2*
Y1157638D1*
X733819Y1150118D2*
Y1157205D1*
X771614Y1150118D2*
Y1157205D1*
X877570Y1150118D2*
Y1157205D1*
X915365Y1150118D2*
Y1157205D1*
X1017953Y1150354D2*
Y1157441D1*
X1055748Y1150354D2*
Y1157441D1*
X1018740Y1094449D2*
X1054961D1*
X991577Y878203D2*
X1007325D1*
X991577Y840408D2*
X1007325D1*
X991577Y773795D2*
X1007325D1*
X991577Y736000D2*
X1007325D1*
X393661Y677136D2*
D10*
Y393672D1*
X1131850D1*
Y677136D1*
G36*
X1141102Y553661D2*
X1141187Y554946D1*
X1141438Y556209D1*
X1141852Y557428D1*
X1142421Y558583D1*
X1143136Y559653D1*
X1143985Y560621D1*
X1144953Y561470D1*
X1146024Y562185D1*
X1147178Y562755D1*
X1148397Y563169D1*
X1149660Y563420D1*
X1150945Y563504D1*
X1152230Y563420D1*
X1153492Y563169D1*
X1154711Y562755D1*
X1155866Y562185D1*
X1156937Y561470D1*
X1157905Y560621D1*
X1158753Y559653D1*
X1159469Y558583D1*
X1160038Y557428D1*
X1160452Y556209D1*
X1160703Y554946D1*
X1160787Y553661D1*
D1*
X1160703Y552377D1*
X1160452Y551114D1*
X1160038Y549895D1*
X1159469Y548740D1*
X1158753Y547670D1*
X1157905Y546702D1*
X1156937Y545853D1*
X1155866Y545138D1*
X1154711Y544568D1*
X1153492Y544154D1*
X1152230Y543903D1*
X1150945Y543819D1*
X1149660Y543903D1*
X1148397Y544154D1*
X1147178Y544568D1*
X1146024Y545138D1*
X1144953Y545853D1*
X1143985Y546702D1*
X1143136Y547670D1*
X1142421Y548740D1*
X1141852Y549895D1*
X1141438Y551114D1*
X1141187Y552377D1*
X1141102Y553661D1*
D1*
G37*
X648930Y466559D2*
D31*
Y451260D1*
X647980Y448386D1*
X647007Y447436D1*
X645106Y446463D1*
X643182D1*
X641281Y447436D1*
X640330Y448386D1*
X639358Y451260D1*
Y453162D1*
X655106Y466559D2*
Y446463D1*
X666580D1*
X687104Y461784D2*
X686153Y463685D1*
X684230Y465608D1*
X682328Y466559D1*
X678504D1*
X676580Y465608D1*
X674679Y463685D1*
X673706Y461784D1*
X672756Y458910D1*
Y454112D1*
X673706Y451260D1*
X674679Y449337D1*
X676580Y447436D1*
X678504Y446463D1*
X682328D1*
X684230Y447436D1*
X686153Y449337D1*
X687104Y451260D1*
X702852Y466559D2*
Y451260D1*
X701901Y448386D1*
X700929Y447436D1*
X699027Y446463D1*
X697104D1*
X695203Y447436D1*
X694252Y448386D1*
X693279Y451260D1*
Y453162D1*
X709028Y466559D2*
Y446463D1*
X720502D1*
X741025Y461784D2*
X740075Y463685D1*
X738151Y465608D1*
X736250Y466559D1*
X732425D1*
X730502Y465608D1*
X728601Y463685D1*
X727628Y461784D1*
X726677Y458910D1*
Y454112D1*
X727628Y451260D1*
X728601Y449337D1*
X730502Y447436D1*
X732425Y446463D1*
X736250D1*
X738151Y447436D1*
X740075Y449337D1*
X741025Y451260D1*
X756774Y466559D2*
Y451260D1*
X755823Y448386D1*
X754850Y447436D1*
X752949Y446463D1*
X751026D1*
X749124Y447436D1*
X748174Y448386D1*
X747201Y451260D1*
Y453162D1*
X762949Y466559D2*
Y446463D1*
X774423D1*
X794947Y461784D2*
X793996Y463685D1*
X792073Y465608D1*
X790172Y466559D1*
X786347D1*
X784424Y465608D1*
X782522Y463685D1*
X781550Y461784D1*
X780599Y458910D1*
Y454112D1*
X781550Y451260D1*
X782522Y449337D1*
X784424Y447436D1*
X786347Y446463D1*
X790172D1*
X792073Y447436D1*
X793996Y449337D1*
X794947Y451260D1*
X810695Y466559D2*
Y451260D1*
X809745Y448386D1*
X808772Y447436D1*
X806871Y446463D1*
X804947D1*
X803046Y447436D1*
X802095Y448386D1*
X801123Y451260D1*
Y453162D1*
X816871Y466559D2*
Y446463D1*
X828345D1*
X848869Y461784D2*
X847918Y463685D1*
X845995Y465608D1*
X844093Y466559D1*
X840269D1*
X838345Y465608D1*
X836444Y463685D1*
X835471Y461784D1*
X834521Y458910D1*
Y454112D1*
X835471Y451260D1*
X836444Y449337D1*
X838345Y447436D1*
X840269Y446463D1*
X844093D1*
X845995Y447436D1*
X847918Y449337D1*
X848869Y451260D1*
X868207Y900768D2*
X853859D1*
X850985Y899817D1*
X849083Y897894D1*
X848111Y895020D1*
Y893119D1*
X849083Y890245D1*
X850985Y888321D1*
X853859Y887371D1*
X868207D1*
X864360Y881195D2*
X865333Y879271D1*
X868184Y876397D1*
X848111D1*
X422444Y1155939D2*
X420543Y1154989D1*
X418619Y1153065D1*
X417669Y1151164D1*
Y1147339D1*
X418619Y1145416D1*
X420543Y1143515D1*
X422444Y1142542D1*
X425318Y1141591D1*
X430115D1*
X432967Y1142542D1*
X434891Y1143515D1*
X436792Y1145416D1*
X437765Y1147339D1*
Y1151164D1*
X436792Y1153065D1*
X434891Y1154989D1*
X432967Y1155939D1*
X421516Y1162115D2*
X420543Y1164038D1*
X417691Y1166913D1*
X437765D1*
X559945Y1151482D2*
X558044Y1150531D1*
X556121Y1148608D1*
X555170Y1146707D1*
Y1142882D1*
X556121Y1140959D1*
X558044Y1139057D1*
X559945Y1138085D1*
X562819Y1137134D1*
X567617D1*
X570469Y1138085D1*
X572392Y1139057D1*
X574293Y1140959D1*
X575266Y1142882D1*
Y1146707D1*
X574293Y1148608D1*
X572392Y1150531D1*
X570469Y1151482D1*
X559967Y1158630D2*
X559017D1*
X557093Y1159581D1*
X556143Y1160532D1*
X555192Y1162455D1*
Y1166280D1*
X556143Y1168181D1*
X557093Y1169132D1*
X559017Y1170104D1*
X560918D1*
X562841Y1169132D1*
X565693Y1167230D1*
X575266Y1157658D1*
Y1171055D1*
X691195Y1151049D2*
X689293Y1150098D1*
X687370Y1148175D1*
X686419Y1146274D1*
Y1142449D1*
X687370Y1140526D1*
X689293Y1138624D1*
X691195Y1137652D1*
X694069Y1136701D1*
X698866D1*
X701718Y1137652D1*
X703641Y1138624D1*
X705543Y1140526D1*
X706515Y1142449D1*
Y1146274D1*
X705543Y1148175D1*
X703641Y1150098D1*
X701718Y1151049D1*
X686442Y1159148D2*
Y1169649D1*
X694091Y1163923D1*
Y1166797D1*
X695041Y1168699D1*
X695992Y1169649D1*
X698866Y1170622D1*
X700767D1*
X703641Y1169649D1*
X705565Y1167748D1*
X706515Y1164874D1*
Y1162000D1*
X705565Y1159148D1*
X704592Y1158197D1*
X702691Y1157225D1*
X834945Y1150574D2*
X833044Y1149623D1*
X831121Y1147700D1*
X830170Y1145798D1*
Y1141974D1*
X831121Y1140050D1*
X833044Y1138149D1*
X834945Y1137176D1*
X837819Y1136226D1*
X842617D1*
X845469Y1137176D1*
X847392Y1138149D1*
X849293Y1140050D1*
X850266Y1141974D1*
Y1145798D1*
X849293Y1147700D1*
X847392Y1149623D1*
X845469Y1150574D1*
X850266Y1166322D2*
X830192D1*
X843567Y1156749D1*
Y1171097D1*
X975329Y1151285D2*
X973427Y1150334D1*
X971504Y1148411D1*
X970553Y1146510D1*
Y1142685D1*
X971504Y1140762D1*
X973427Y1138861D1*
X975329Y1137888D1*
X978203Y1136937D1*
X983000D1*
X985852Y1137888D1*
X987775Y1138861D1*
X989677Y1140762D1*
X990649Y1142685D1*
Y1146510D1*
X989677Y1148411D1*
X987775Y1150334D1*
X985852Y1151285D1*
X970575Y1168935D2*
Y1159384D1*
X979175Y1158434D1*
X978225Y1159384D1*
X977252Y1162258D1*
Y1165110D1*
X978225Y1167984D1*
X980126Y1169908D1*
X983000Y1170858D1*
X984901D1*
X987775Y1169908D1*
X989699Y1167984D1*
X990649Y1165110D1*
Y1162258D1*
X989699Y1159384D1*
X988726Y1158434D1*
X986825Y1157461D1*
X987266Y916030D2*
X995866D1*
X998740Y917003D1*
X999713Y917954D1*
X1000664Y919855D1*
Y921778D1*
X999713Y923679D1*
X998740Y924652D1*
X995866Y925603D1*
X987266D1*
Y905507D1*
X993965Y916030D2*
X1000664Y905507D1*
X1006839Y921756D2*
X1008763Y922729D1*
X1011637Y925581D1*
Y905507D1*
X982966Y811622D2*
X991566D1*
X994440Y812595D1*
X995413Y813545D1*
X996364Y815447D1*
Y817370D1*
X995413Y819271D1*
X994440Y820244D1*
X991566Y821195D1*
X982966D1*
Y801099D1*
X989665Y811622D2*
X996364Y801099D1*
X1003512Y816397D2*
Y817348D1*
X1004463Y819271D1*
X1005413Y820222D1*
X1007337Y821173D1*
X1011161D1*
X1013063Y820222D1*
X1014013Y819271D1*
X1014986Y817348D1*
Y815447D1*
X1014013Y813523D1*
X1012112Y810671D1*
X1002539Y801099D1*
X1015937D1*
X766220Y706426D2*
Y691127D1*
X765270Y688253D1*
X764297Y687302D1*
X762396Y686330D1*
X760472D1*
X758571Y687302D1*
X757620Y688253D1*
X756648Y691127D1*
Y693028D1*
X773369Y701628D2*
Y702579D1*
X774319Y704502D1*
X775270Y705453D1*
X777193Y706404D1*
X781018D1*
X782919Y705453D1*
X783870Y704502D1*
X784843Y702579D1*
Y700678D1*
X783870Y698754D1*
X781969Y695902D1*
X772396Y686330D1*
X785793D1*
M02*
